<?xml version="1.0" encoding="UTF-8" standalone="no"?>
<!-- Created with Inkscape (http://www.inkscape.org/) -->
<svg
   xmlns:dc="http://purl.org/dc/elements/1.1/"
   xmlns:cc="http://web.resource.org/cc/"
   xmlns:rdf="http://www.w3.org/1999/02/22-rdf-syntax-ns#"
   xmlns:svg="http://www.w3.org/2000/svg"
   xmlns="http://www.w3.org/2000/svg"
   xmlns:sodipodi="http://sodipodi.sourceforge.net/DTD/sodipodi-0.dtd"
   xmlns:inkscape="http://www.inkscape.org/namespaces/inkscape"
   width="744.09448819"
   height="1052.3622047"
   id="svg3958"
   sodipodi:version="0.32"
   inkscape:version="0.44"
   sodipodi:docbase="/var/www/html/inkscape_hpgl"
   sodipodi:docname="kiss_my_ass.svg">
  <defs
     id="defs3960" />
  <sodipodi:namedview
     id="base"
     pagecolor="#ffffff"
     bordercolor="#666666"
     borderopacity="1.0"
     gridtolerance="10000"
     guidetolerance="10"
     objecttolerance="10"
     inkscape:pageopacity="0.0"
     inkscape:pageshadow="2"
     inkscape:zoom="0.35"
     inkscape:cx="375"
     inkscape:cy="520"
     inkscape:document-units="px"
     inkscape:current-layer="layer1"
     inkscape:window-width="860"
     inkscape:window-height="620"
     inkscape:window-x="50"
     inkscape:window-y="24" />
  <metadata
     id="metadata3963">
    <rdf:RDF>
      <cc:Work
         rdf:about="">
        <dc:format>image/svg+xml</dc:format>
        <dc:type
           rdf:resource="http://purl.org/dc/dcmitype/StillImage" />
      </cc:Work>
    </rdf:RDF>
  </metadata>
  <g
     inkscape:label="Layer 1"
     inkscape:groupmode="layer"
     id="layer1">
    <path
       style="fill:black"
       d="M 301.72238,1025.151 C 281.17767,1020.2548 236.98103,1018.2016 199.42671,1020.3987 C 194.26538,1020.7007 187.08594,1018.3615 181.95016,1014.7045 C 177.15603,1011.2908 168.98088,1007.6907 163.78316,1006.7044 C 149.26249,1003.949 144.3111,1000.6652 126.45553,981.94812 C 110.55872,965.28436 109.9683,964.12982 111.26317,952.2405 C 113.54913,931.25117 131.06017,914.50771 162.05661,903.67361 C 176.2007,898.72985 185.56955,898.0018 235.04281,898.0018 C 268.22769,898.0018 291.80193,896.90471 291.80193,895.36038 C 291.80193,893.90763 287.6566,889.88596 282.59008,886.42335 C 277.52356,882.96078 266.68192,873.67021 258.49755,865.77767 C 243.62293,851.43343 243.61686,851.42028 243.61686,833.47491 C 243.61686,812.50432 247.98902,802.30328 264.16797,785.5255 C 278.49576,770.66741 278.07744,766.8986 257.14668,722.26803 C 235.25853,675.59604 233.1716,670.15469 225.07769,638.65277 C 216.50012,605.26846 211.93634,558.44454 212.64594,511.10407 C 212.92635,492.39693 212.99434,475.66268 212.79703,473.91685 C 212.59973,472.17099 204.66836,469.21396 195.17179,467.3456 C 147.28616,457.92468 94.238711,421.83631 76.188606,386.4009 C 69.019879,372.32746 66.271017,370.46371 46.776981,366.45962 C 29.47633,362.90606 8.3603764,332.06815 8.3603764,310.35573 C 8.3603764,297.05295 16.559386,282.93362 24.284221,282.93362 C 32.289425,282.93362 41.863573,269.84478 43.927929,256.07867 C 46.76597,237.15327 64.083554,205.38721 83.518804,183.45618 C 100.28129,164.54115 134.19894,141.99289 151.02213,138.58036 C 159.72941,136.81411 160.22764,135.88991 167.45806,108.09214 C 179.37905,62.261229 194.72559,33.505043 207.26354,33.505043 C 213.69833,33.505043 214.51808,48.091348 208.37005,53.193764 C 202.01552,58.467555 186.80429,97.4907 184.92811,113.33212 C 183.41602,126.09928 183.7849,127.51529 188.39028,126.62264 C 192.06414,125.91055 195.8991,118.55963 201.74043,101.0328 C 211.15127,72.795729 228.48733,49.567493 239.02819,51.071694 C 246.8024,52.181088 248.45654,62.861706 241.65233,68.01543 C 230.2612,76.643417 223.51427,87.172619 219.49926,102.58729 C 214.26364,122.68818 214.26029,124.20634 219.45154,124.20634 C 221.7499,124.20634 225.51366,120.56448 227.81544,116.11332 C 242.4446,87.823662 269.45753,56.180368 278.97841,56.180368 C 288.7961,56.180368 287.30631,70.033248 276.87428,75.745707 C 267.05392,81.123217 243.21826,117.43196 241.67807,129.3599 C 240.34218,139.70562 240.47992,139.86747 257.64782,148.12559 C 268.69118,153.43768 280.56767,162.42293 290.42935,172.92673 C 298.93471,181.98587 307.67913,189.3979 309.86144,189.3979 C 312.04374,189.3979 317.48264,187.49253 321.94789,185.16374 C 332.34614,179.74068 338.11548,179.80684 349.3396,185.47783 C 369.06416,195.44367 382.50323,214.86535 382.50323,233.40476 C 382.50323,245.17101 379.07236,252.86293 369.00954,263.65748 C 362.78057,270.33938 362.13435,272.85207 363.90688,283.49839 C 366.77216,300.70834 366.77704,301.15489 364.43261,331.82728 C 362.59412,355.88005 362.89366,359.46284 366.74291,359.46284 C 369.17538,359.46284 371.16556,358.39945 371.16556,357.09976 C 371.16556,355.80006 380.72641,344.44534 392.41189,331.86705 C 431.99121,289.26373 477.73613,261.9821 518.06193,256.93112 C 544.16128,253.66207 558.47627,255.43476 575.35757,264.02632 C 596.78674,274.93248 603.3532,280.27542 622.67567,302.5277 C 647.34339,330.93569 652.12193,333.91149 673.10873,333.93442 C 684.00139,333.94632 692.49001,335.56185 696.53061,338.39202 C 717.61861,353.16264 723.88865,412.0464 705.42563,421.92755 C 702.44695,423.52168 694.78161,431.90313 688.39159,440.553 C 681.95809,449.26171 670.98363,459.65869 663.79938,463.85113 C 642.51788,476.27021 640.7216,478.85143 643.46778,493.06721 C 644.78184,499.86964 645.91255,512.62799 645.98043,521.41913 C 646.13502,541.43493 640.64994,549.11894 624.67829,551.26119 C 603.59464,554.08909 592.39039,538.68602 583.7753,495.02965 C 581.39549,482.97014 577.79556,475.7656 569.36244,466.18505 C 555.79803,450.77507 549.73374,437.15363 549.73374,422.09554 C 549.73374,406.73947 553.52009,398.00375 565.26778,386.25606 C 576.30831,375.21555 577.70307,367.0958 570.37044,356.5505 C 560.41169,342.22848 555.13353,339.81583 533.54217,339.71623 C 499.98368,339.56144 473.65466,352.7199 441.75796,385.58728 C 425.46687,402.3741 408.01296,429.84293 408.01296,438.69484 C 408.01296,443.41403 411.75921,450.73371 417.63969,457.50417 C 422.93441,463.60017 434.95085,477.64878 444.34297,488.7233 C 462.61968,510.2739 490.18539,537.47675 504.2965,547.88759 C 512.09987,553.64474 517.03422,554.4017 554.72393,555.6235 C 594.31915,556.90706 597.41598,557.43237 614.00522,565.67887 C 665.75949,591.40596 687.76683,623.78969 690.64608,678.45579 C 692.06516,705.39898 691.72849,707.74375 684.34977,722.30497 C 667.14524,756.25647 646.63807,771.14813 609.49705,776.66064 C 592.7117,779.15195 589.54716,780.56967 586.31601,787.04574 C 584.25791,791.17066 581.09541,796.45886 579.28822,798.79725 C 574.75026,804.66911 552.84131,861.74909 548.01855,880.26493 C 542.94038,899.76135 542.95132,929.53164 548.04111,941.71325 C 550.22803,946.94728 556.72211,956.4373 562.47243,962.80221 C 582.32141,984.77267 578.65133,1006.4283 553.16854,1017.7006 C 541.49123,1022.866 536.99503,1023.2573 511.59997,1021.318 C 495.93872,1020.122 461.4417,1018.9224 434.93991,1018.6523 C 389.40083,1018.1881 386.11858,1018.5196 375.16815,1024.6902 C 360.64399,1032.8746 334.81129,1033.0367 301.72238,1025.151 z M 360.61077,1007.8354 L 370.30053,998.62355 L 372.08491,960.35894 C 373.06629,939.31341 375.25548,916.99238 376.94978,910.75667 C 389.96273,862.86301 413.93105,823.8629 441.83729,805.17469 C 460.08347,792.95564 474.33676,789.72559 480.92737,796.31621 C 485.81058,801.19942 518.22805,800.36863 534.45423,794.94443 C 554.04027,788.3971 570.45919,773.6347 579.904,754.08012 C 586.70637,739.99648 587.89121,733.62741 588.88955,705.77874 C 589.79718,680.46054 589.03441,671.06837 585.27023,661.21197 C 579.67656,646.56516 564.34263,633.30304 545.62866,626.92657 C 535.54375,623.49029 532.72725,621.16556 532.72725,616.2779 C 532.72725,603.62708 542.52064,600.24735 560.42167,606.72045 C 569.54234,610.01851 570.41735,609.77566 575.74001,602.46882 C 585.16286,589.53337 589.41556,592.3444 589.41556,611.50834 C 589.41556,625.16155 590.70459,629.82929 596.31691,636.49918 C 609.98622,652.74421 613.09509,665.94562 611.06899,699.14215 C 610.05481,715.75871 608.42851,735.41264 607.45494,742.81755 C 605.72821,755.95095 605.86979,756.28102 613.23052,756.28102 C 632.13502,756.28102 652.84068,739.05849 663.84533,714.18065 C 671.20551,697.54173 669.84156,659.21204 661.203,639.92596 C 649.00112,612.68465 625.19597,593.34166 590.85195,582.76201 C 574.89763,577.8473 564.61238,576.72655 538.55339,577.06327 L 506.11495,577.4824 L 461.74263,532.95557 C 422.72605,493.80314 407.90384,476.22412 365.83783,419.21331 C 349.64762,397.27122 342.29129,390.64141 334.13492,390.64141 C 322.53584,390.64141 319.37821,384.90064 325.46866,374.88566 C 328.26802,370.28248 333.31758,359.1417 336.68992,350.12834 C 344.37552,329.58674 345.1634,291.73598 338.26432,274.49348 C 332.52942,260.1605 334.06431,256.28018 348.35215,248.99108 C 358.40973,243.86009 359.8279,241.92992 359.8279,233.37236 C 359.8279,222.08735 345.60914,203.56998 336.94382,203.56998 C 334.03412,203.56998 328.82444,207.39644 325.36674,212.07323 C 315.41907,225.52817 309.24404,223.30345 286.44059,198.049 C 270.6167,180.52431 261.63012,173.28561 245.97409,165.45322 C 234.90514,159.91565 222.90665,155.38491 219.31079,155.38491 C 215.71492,155.38491 211.98456,154.10943 211.02109,152.5505 C 208.74132,148.86176 184.95669,148.86176 182.67693,152.5505 C 181.71346,154.10943 177.13555,155.38491 172.50379,155.38491 C 160.53546,155.38491 131.994,168.04925 114.93417,180.92955 C 99.31795,192.71991 76.22004,222.00174 69.106799,239.02612 C 66.702755,244.77981 63.582177,259.60229 62.172186,271.96496 C 60.762192,284.32763 58.844083,295.6795 57.909724,297.19133 C 56.975362,298.70316 52.519714,299.94011 48.008283,299.94011 C 35.22259,299.94011 25.36687,305.59439 25.36687,312.9296 C 25.36687,316.4555 29.603347,324.86029 34.781264,331.60694 C 44.551279,344.33692 46.900542,345.02781 66.540494,340.94696 C 74.29815,339.33506 75.585488,340.14425 80.003967,349.4099 C 82.691061,355.0448 84.889595,360.95737 84.889595,362.54895 C 84.889595,367.41108 106.41,397.20019 116.49159,406.29325 C 138.61934,426.25131 163.85586,438.38354 196.3901,444.70378 L 215.77211,448.46899 L 230.69158,432.31007 C 243.72991,418.18858 246.94906,416.15115 256.22268,416.15115 C 269.83377,416.15115 283.94921,425.74077 282.74725,434.17117 C 281.98343,439.52861 280.06439,440.24368 266.45035,440.24368 C 252.16464,440.24368 250.54791,440.93806 244.66971,449.59856 C 236.16955,462.12205 233.62457,482.66111 234.06333,535.1966 C 234.47959,585.03878 241.27671,631.00252 253.58674,667.21847 C 259.89821,685.78675 287.16964,746.68896 297.57586,765.45441 C 302.95646,775.15721 300.38238,781.47226 286.8417,791.78891 C 270.72837,804.06567 263.704,816.07188 263.67088,831.39303 C 263.63538,847.81595 282.02082,866.82323 297.94195,866.82323 C 309.2185,866.82323 310.46128,861.00738 301.88525,848.36985 C 294.03077,836.79563 292.75307,825.87264 297.92574,814.5199 C 301.60104,806.45346 309.12596,805.1042 314.47725,811.55212 C 319.5688,817.68705 323.79335,816.83406 332.02433,808.0091 C 342.53281,796.74227 345.65582,789.37994 345.65582,775.87352 C 345.65582,765.44177 343.88088,762.03806 331.75494,749.21669 C 315.0167,731.51843 304.05882,710.51445 291.81803,672.66576 C 271.33389,609.32856 269.14826,517.90182 288.20542,521.54736 C 292.66858,522.40114 293.42021,527.63846 295.05031,569.24196 C 296.99072,618.76592 303.87512,655.85555 318.14725,693.67643 C 325.80465,713.96841 360.71485,758.9609 368.87774,759.05824 C 371.51675,759.0897 378.04256,756.53907 383.37954,753.39017 C 393.33483,747.51641 402.34413,748.28185 402.34413,755.00139 C 402.34413,757.08188 394.56307,764.77148 385.0529,772.08941 C 361.95819,789.86037 337.01616,827.75483 327.518,859.50216 C 318.42219,889.9047 314.47725,909.73906 314.47725,925.06826 C 314.47725,932.00671 313.58135,937.68362 312.48639,937.68362 C 311.3914,937.68362 306.4393,933.75217 301.48168,928.9471 C 293.77312,921.47564 289.23883,919.80245 270.16819,917.39218 C 257.90335,915.84204 231.9249,915.00889 212.43829,915.54071 C 179.43963,916.44129 175.71182,917.12886 158.11976,925.55958 C 139.07468,934.68662 130.24024,943.21918 130.24024,952.48638 C 130.24024,960.39154 142.18734,958.67326 154.33278,949.02128 C 175.4798,932.21575 186.31865,941.14379 166.12419,958.73397 C 148.32935,974.234 148.10253,988.7031 165.6544,988.7031 C 167.72897,988.7031 177.05869,982.32566 186.38711,974.53102 C 203.07846,960.58408 210.38439,957.57699 213.87118,963.21873 C 216.92071,968.15296 212.80063,975.7312 203.86851,981.61706 C 197.50637,985.80942 195.47192,989.13149 196.05737,994.37193 C 196.73041,1000.3963 198.12298,1001.3365 205.35226,1000.6476 C 252.00698,996.20098 258.43574,996.67588 286.1331,1006.615 C 305.55105,1013.583 318.33909,1016.3849 331.99054,1016.6624 C 349.71051,1017.0227 351.54064,1016.4582 360.61077,1007.8354 z M 468.70149,753.7557 C 456.33161,746.21264 447.69478,734.23465 447.69478,724.62258 L 447.69478,716.40394 L 433.5227,718.28395 C 425.72806,719.31794 419.35063,719.34042 419.35063,718.33389 C 419.35063,717.32736 424.77145,711.04037 431.39689,704.36283 C 438.02234,697.68529 445.99413,687.93153 449.11199,682.68777 C 457.45427,668.65739 461.91425,666.82565 473.89297,672.50992 C 485.0248,677.79231 490.30452,676.4384 499.89389,665.84224 C 508.71714,656.09268 519.6952,658.13487 530.45821,671.528 C 539.01911,682.18089 540.67696,683.02668 550.43217,681.71826 C 561.51122,680.23223 567.48889,684.21266 560.72594,688.5727 C 558.57754,689.95774 551.71783,692.49082 545.48212,694.20176 C 527.71263,699.0773 521.68629,706.02995 532.72725,708.91723 C 536.38543,709.87387 538.37697,712.75576 538.34222,717.04245 C 538.25665,727.59702 523.06237,749.17248 512.02726,754.409 C 498.80278,760.68443 479.58876,760.39469 468.70149,753.7557 z M 509.20837,716.04317 C 514.34912,711.06058 518.55517,705.32089 518.55517,703.2883 C 518.55517,697.65094 507.67634,698.87997 498.26645,705.58041 C 490.65882,710.99752 488.68715,711.24043 477.5763,708.1296 C 453.62214,701.42283 443.30546,713.19085 466.82709,720.39097 C 489.32075,727.27645 498.60083,726.32442 509.20837,716.04317 z M 156.88375,304.47517 C 146.30907,293.90049 143.97316,280.67573 151.56686,274.37352 C 156.67344,270.13544 156.44625,269.91232 161.72622,284.35082 C 165.0523,293.44627 167.45407,295.87167 173.87067,296.61476 C 184.63596,297.86145 197.66818,292.11749 199.8791,285.15152 C 200.87642,282.00924 199.44225,274.51232 196.66607,268.35584 C 191.26713,256.38315 193.80209,249.43549 202.36986,252.72326 C 213.35959,256.94041 216.18064,288.74917 206.64054,300.87744 C 200.89308,308.18415 186.00547,314.06595 173.18164,314.09638 C 169.37061,314.10542 162.39758,309.989 156.88375,304.47517 z M 97.703676,237.76952 C 95.332673,230.29916 97.929556,226.2453 105.08605,226.2453 C 109.61732,226.2453 110.59325,227.82751 109.879,234.01571 C 108.78578,243.48722 100.34443,246.0898 97.703676,237.76952 z M 226.61037,196.78719 C 226.61037,188.96867 234.02026,184.96196 239.7245,189.69606 C 241.8653,191.47276 243.61686,195.32123 243.61686,198.24821 C 243.61686,202.27168 241.54241,203.56998 235.11362,203.56998 C 228.03448,203.56998 226.61037,202.43401 226.61037,196.78719 z M 549.10305,1001.2973 C 559.89277,993.73986 557.36044,983.41065 540.27725,965.29715 C 519.96362,943.75845 517.51426,901.65329 533.82703,854.4164 C 539.45785,838.11117 544.06491,823.39077 544.06491,821.70435 C 544.06491,817.89033 515.99685,817.59586 506.23459,821.30747 C 488.76997,827.94749 473.36849,866.64599 473.25373,904.17677 C 473.22261,914.35502 471.70285,921.77387 469.11982,924.3569 C 464.95935,928.5174 430.48756,934.81397 411.4402,934.8926 C 394.098,934.96419 393.54928,936.1144 394.44873,970.50896 L 395.25809,1001.458 L 448.16617,1001.458 C 477.26562,1001.458 502.03132,1002.4146 503.20106,1003.5838 C 507.29132,1007.6721 542.50615,1005.9179 549.10305,1001.2973 z M 449.66898,908.43645 C 451.53425,906.5947 454.40756,894.25207 456.0541,881.00834 C 457.9167,866.02679 461.80082,851.30191 466.33418,842.03607 C 470.34168,833.84503 473.191,824.91075 472.66598,822.18212 C 471.11845,814.13912 459.99714,815.85142 448.20044,825.94894 C 436.08743,836.31724 413.56884,868.09152 406.74241,884.44728 C 402.06458,895.65513 400.95323,909.81199 404.46995,913.39489 C 407.57162,916.55495 445.68082,912.37427 449.66898,908.43645 z M 625.67649,513.51066 C 626.82415,490.04666 623.14309,481.34271 612.07209,481.34271 C 606.77856,481.34271 602.73893,483.0908 601.68486,485.83761 C 598.97876,492.88963 606.34833,520.9508 612.5299,527.13238 C 621.24261,535.84509 624.76245,532.19805 625.67649,513.51066 z M 642.06956,452.57877 C 646.12056,448.52777 646.21744,446.91808 642.83627,439.84111 C 639.27006,432.3769 637.57831,431.67419 621.30455,430.89731 C 607.4665,430.23669 603.02568,428.90052 600.79112,424.7252 C 596.62898,416.94819 599.97778,411.17788 610.70851,407.63639 C 618.43396,405.08678 620.98593,402.0997 624.66605,391.29908 C 627.14302,384.02962 633.14183,373.9836 637.99673,368.97463 L 646.82384,359.86736 L 628.74874,341.57597 C 618.80745,331.51573 603.61621,315.75769 594.9904,306.55813 C 576.3771,286.70677 562.64666,279.47913 540.358,277.79994 C 523.60168,276.53754 491.2695,281.7623 488.54356,286.17294 C 487.71772,287.50917 485.35305,288.60245 483.28875,288.60245 C 474.02645,288.60245 433.08657,317.55076 409.13063,341.03914 C 381.06482,368.5572 371.12682,382.32903 371.29135,393.47582 C 371.42996,402.86661 386.00863,419.81786 392.81851,418.50641 C 395.68552,417.95426 403.36413,408.58893 409.88206,397.69454 C 430.84449,362.657 471.65061,330.12618 505.68721,321.31824 C 526.86775,315.83718 541.95985,315.78528 559.96283,321.13159 C 576.38799,326.00933 586.93133,335.95646 594.58304,353.79401 C 603.81385,375.3128 604.45188,384.43676 597.16811,390.76241 C 572.71238,412.00125 572.40906,412.42865 572.40906,425.65174 C 572.40906,436.33256 574.01853,440.12937 582.24239,448.84919 L 592.07569,459.27553 L 614.75413,458.24565 C 630.91211,457.51188 638.76579,455.88257 642.06956,452.57877 z M 674.47053,428.87889 C 683.35801,418.17013 669.38644,384.97258 655.99204,384.97258 C 643.64127,384.97258 634.89877,405.50874 645.77938,408.96214 C 648.71876,409.89505 654.63192,415.72069 658.91973,421.90799 C 667.54257,434.35073 669.28213,435.13054 674.47053,428.87889 z M 699.48116,380.72095 C 695.81878,363.3544 690.26528,356.62842 679.5886,356.62842 C 667.84582,356.62842 666.74434,363.48294 676.67043,374.78812 C 681.34098,380.10759 687.49019,388.40063 690.33535,393.2171 C 694.45426,400.18987 696.21767,401.25286 698.98913,398.4337 C 701.63154,395.74579 701.75005,391.47971 699.48116,380.72095 z "
       id="path3967" />
  </g>
</svg>
