<?xml version="1.0"?>
<svg xmlns:rdf="http://www.w3.org/1999/02/22-rdf-syntax-ns#" xmlns="http://www.w3.org/2000/svg" xmlns:cc="http://creativecommons.org/ns#" xmlns:dc="http://purl.org/dc/elements/1.1/" xmlns:svg="http://www.w3.org/2000/svg" id="svg2" viewBox="0 0 325.27 202" version="1.1">
  <g id="layer1" transform="translate(-7.9437 -361.41)">
    <g id="g3054">
      <g id="g3151" transform="translate(78.792 -13.132)">
        <g id="g3298">
          <g id="g3496" transform="translate(3.0305 3.0305)">
            <g id="g3540" transform="translate(-314.16 -60.609)">
              <g id="g3994" transform="translate(9.0914 2.0203)">
                <g id="g4115" transform="translate(1.0102 .50508)">
                  <g id="g4136" transform="translate(-28.284 -49.497)">
                    <g id="g4313" transform="translate(-69.701 28.284)">
                      <g id="g4527" transform="translate(-70.711 -126.27)">
                        <path id="path4531" d="m399.14 678.08v-101h325v202h-325v-101z" fill="#f8f8f8"/>
                        <path id="path4529" d="m565.78 777.08c-2.6736-1.0443-5.7111-2.668-6.75-3.6082l-1.889-1.7095v-4.9108c0-6.0787 1.0304-8.1733 6.6024-13.421l4.3976-4.1416v-4.0494c0-5.4759-1.3517-5.9316-3.4951-1.1783-0.97585 2.164-3.282 5.3066-5.1247 6.9835-1.8428 1.6769-4.3096 4.9565-5.4818 7.2881-2.8282 5.6252-4.6166 7.5398-9.3983 10.061l-4 2.1094-8.5-0.0688-8.5-0.0688-5.7818-2.2307c-3.2934-1.2706-6.4678-3.2777-7.3757-4.6632l-1.5938-2.4325 0.49744-5.1769 0.49743-5.1769 2.8782-2.3577c1.583-1.2968 4.9032-3.8194 7.3782-5.606l4.5-3.2482 1.4136-5.2716 1.4136-5.2716-1.684-12.179c-0.92621-6.6985-2.6731-15.552-3.8819-19.674l-2.1979-7.4946-4.0317-4.0159c-2.2174-2.2087-8.9817-6.6043-15.032-9.7679-6.05-3.1636-15.275-8.9587-20.5-12.878-5.6964-4.2728-14.104-9.2951-21-12.544-6.325-2.9798-12.625-6.4717-14-7.7597s-4.2503-3.5127-6.3896-4.9437l-3.8895-2.6019h-18.451l-2.6349-2.0726-2.6349-2.0726v-6.8684c0-7.9822 0.80826-8.8861 5.4055-6.0448 3.8824 2.3994 6.3539 1.8652 7.2134-1.5592l0.6016-2.397-1.6242-2.4788c-4.0848-6.2342-7.7587-6.5215-11.416-0.89263l-2.3195 3.5701-2.0748-1.842c-3.2726-2.9054-6.9743-12.261-7.538-19.053l-0.51555-6.2105 2.3837-0.92486c5.909-2.2926 13.928-4.156 17.972-4.1761 2.4267-0.0121 6.4371-0.94378 8.9121-2.0704l4.5-2.0485 7.5 0.0451c10.987 0.066 21.237 3.0933 35.27 10.417l12.268 6.4028 10.984 2.5756c18.304 4.292 33.718 6.6152 48.204 7.2649l13.773 0.61775 15 3.1027 15 3.1027 21.5-0.18815c34.505-0.30197 50.139 1.9179 65.544 9.3068l9.0442 4.3378 7.0538 6.5308c9.123 8.4465 17.783 19.07 20.439 25.075l2.1032 4.7547-0.62734 3.344-0.62734 3.344 2.758 6.3036 2.758 6.3036 0.1396 21.5 0.1396 21.5 1.6042 9.3436 1.6042 9.3436-1.4518 6.1564c-0.79848 3.386-1.4584 7.8094-1.4666 9.8297l-0.0148 3.6733-2.4417 2.9018c-1.343 1.596-5.7304 4.4202-9.75 6.276l-7.3083 3.3742-8.5672 0.41426-8.5672 0.41425-4.1446-2.1144c-2.2796-1.1629-5.0618-3.0989-6.1828-4.3021l-2.0381-2.1877v-7.3272l2.4668-3.3979c1.3568-1.8688 3.2144-4.4194 4.1282-5.668l1.6614-2.2701-1.6167-4.2299c-5.4075-14.148-17.64-7.35-17.64 9.8037 0 6.2117-1.1702 8.0039-7.2859 11.159l-5.2141 2.6899-9.5 0.0588-9.5 0.0588-4.7517-1.8334c-9.5114-3.6698-10.576-11.839-2.5845-19.83 4.6679-4.6679 2.115-23.661-3.4163-25.416-2.9554-0.93799-3.541 0.30861-4.7359 10.08-1.5573 12.736-2.5306 15.7-6.8862 20.971-2.1159 2.5606-4.4409 6.5396-5.1667 8.8423-0.72575 2.3027-2.387 6.3559-3.6917 9.0071l-2.3721 4.8203-5.1975 2.4199-5.1975 2.4199-7.5-0.037-7.5-0.037-4.861-1.8987zm22.004-5.6426c3.7287-1.7694 5.1385-3.9665 7.8323-12.206 0.96039-2.9377 2.984-6.7627 4.4968-8.5 6.3338-7.2735 7.5302-12.42 9.1941-39.549l1.233-20.104-2.3079-5.2525c-1.2694-2.8889-2.5366-6.265-2.8161-7.5025l-0.5082-2.25h1.4817c1.9359 0 6.4379 3.571 7.9772 6.3276 0.69235 1.2398 1.4409 7.9679 1.7437 15.672l0.53054 13.5 3.8816 1.8952c8.7968 4.2952 38.965 10.924 40.902 8.9877 0.92995-0.92994-8.9387-20.14-13.433-26.148l-3.9382-5.2647 1.4532-0.55766c4.2107-1.6158 10.052 4.4344 16.015 16.587l3.6798 7.5 7.6095 8.5c7.8922 8.8157 11.681 15.558 12.71 22.616l0.60012 4.1163-2.4677 3.3837c-1.3572 1.861-3.226 4.8246-4.1527 6.5857l-1.6851 3.202 1.37 1.6507 1.37 1.6507 1.7026-2.1027c2.3209-2.8662 3.498-2.643 4.7322 0.89733 0.57519 1.65 1.4752 3 2 3s1.4248-1.35 2-3c1.274-3.6545 2.8771-3.8476 4.1498-0.5 1.4548 3.8264 11.401 1.9827 16.199-3.003l2.2422-2.3296 1.7122-9.7039 1.7122-9.7039-1.9255-11.62-1.9255-11.62 0.63642-14.009 0.63642-14.009-1.6765-5.7663c-0.92206-3.1715-3.2368-9.1901-5.1438-13.375-4.0128-8.8055-3.9077-8.3589-1.9673-8.3589 5.0685 0-1.4369-9.8644-15.123-22.931l-10.49-10.016-7.1936-3.4896c-3.9565-1.9193-10.794-4.2681-15.194-5.2196l-8-1.7299-28-0.27479-28-0.27479-16-3.082c-8.8-1.6951-23.875-3.7287-33.5-4.5191-41.067-3.3724-52.29-5.7229-71.5-14.974-12.954-6.2382-18.193-8.088-26.709-9.4296l-6.2908-0.99104-4 1.0519c-9.7794 2.5718-16.275 3.8386-19.782 3.8579-2.0802 0.0115-5.4013 0.69737-7.3803 1.5242l-3.5982 1.5034 0.54252 3.2466c0.29838 1.7856 1.033 4.516 1.6325 6.0674l1.09 2.8209 2.6327-2.0709c4.8477-3.8132 11.378-1.8864 15.834 4.6721l2.5287 3.7213v10.266l-2.0726 2.6349-2.0726 2.6349h-9.0998l1.1803 1.4222 1.1803 1.4222 9.6922-0.0971 9.6922-0.0971 2.5 1.3322c1.375 0.73273 5.3505 3.9366 8.8344 7.1198l6.3344 5.7876 7.1656 2.702c10.628 4.0078 13.155 5.4504 24.744 14.13 5.818 4.3574 15.321 10.245 21.118 13.083l10.539 5.1601 3.5115 3.8868c6.4079 7.0928 10.932 25.218 11.144 44.648l0.10921 10-2.5164 4.4944c-1.4924 2.6655-3.7305 5.0194-5.5 5.7846-6.5024 2.8119-7.9929 3.8846-8.8723 6.3849-0.5033 1.4311-0.60699 3.405-0.23042 4.3863l0.68468 1.7842 1.1672-1.1672c1.6674-1.6674 2.4596-1.4516 3.057 0.83278 0.5307 2.0294 2.7102 2.8336 2.7102 1 0-2.0916 2.8114-0.8874 3.3996 1.4562l0.61647 2.4562 3.4919 0.65509c7.8374 1.4703 10.988-0.27185 15.827-8.7521 1.4702-2.5766 3.9466-5.5915 5.5032-6.6999 3.6369-2.5897 8.9987-12.644 9.7791-18.337l0.60599-4.4212-2.0162-3.9286c-1.1089-2.1607-5.884-9.2912-10.611-15.845-10.6-14.696-11.073-16.908-2.7061-12.64l3.8095 1.9435 8.0301 12.307c17.788 27.261 19.73 38.029 8.7289 48.393-5.2661 4.9613-8.035 13.627-3.0257 9.47 1.9678-1.6331 3.568-0.51072 3.568 2.5026 0 2.952 2.05 3.1919 3.7679 0.44098 1.735-2.7782 2.8613-2.5023 4.0822 1l1.0458 3h3.1509c1.733 0 4.7012-0.73568 6.5961-1.6348zm-122.68-163.4c-2.3984-2.3984-1.7916-3.9635 1.5365-3.9635 3.0975 0 3.7868-1.2418 1.9998-3.6027-3.3546-4.4318 0.0927-6.0789 4.8654-2.3247l2.6349 2.0726v3.2724c0 6.0363-6.7612 8.8212-11.036 4.5459zm-32.714-12.097c-3.4468-3.4922-0.93493-5.906 5.0138-4.8182 6.2369 1.1405 5.8044 4.1984-0.77722 5.4959l-2.9866 0.58876-1.25-1.2664zm218.75 163.38 3.5-1.7484 0.70632-5.6882c0.41544-3.3457 2.1657-8.5862 4.25-12.725 4.4728-8.8818 4.4788-8.8337-1.2063-9.6268-2.6125-0.36442-9.8485-1.742-16.08-3.0613s-11.555-2.3987-11.83-2.3987c-0.27507 0-0.18729 4.4128 0.19509 9.8062l0.69522 9.8062-4.1151 4.7546c-3.8912 4.4959-5.1294 7.8881-3.2935 9.0227 0.45189 0.27928 1.6747-0.48166 2.7174-1.691l1.8958-2.1988 0.97563 2.75c1.0872 3.0643 2.7157 3.5078 4.5896 1.25 1.7798-2.1445 2.9121-1.8615 4 1l0.9505 2.5 4.2748-0.002c2.3511-0.00086 5.8498-0.78836 7.7748-1.75z" fill="#3b3532"/>
                      </g>
                    </g>
                  </g>
                </g>
              </g>
            </g>
          </g>
        </g>
      </g>
    </g>
  </g>
  <metadata>
    <rdf:RDF>
      <cc:Work>
        <dc:format>image/svg+xml</dc:format>
        <dc:type rdf:resource="http://purl.org/dc/dcmitype/StillImage"/>
        <cc:license rdf:resource="http://creativecommons.org/licenses/publicdomain/"/>
        <dc:publisher>
          <cc:Agent rdf:about="http://openclipart.org/">
            <dc:title>Openclipart</dc:title>
          </cc:Agent>
        </dc:publisher>
        <dc:title>Animals Quiz Award</dc:title>
        <dc:date>2013-04-01T04:30:04</dc:date>
        <dc:description>This  clipart is a badge of Animals Quiz (http://en.globalquiz.org/animals-quiz/). It has been released to public domain by globalquiz.org</dc:description>
        <dc:source>http://openclipart.org/detail/176672/animals-quiz-award-by-global-quiz-176672</dc:source>
        <dc:creator>
          <cc:Agent>
            <dc:title>global quiz</dc:title>
          </cc:Agent>
        </dc:creator>
        <dc:subject>
          <rdf:Bag>
            <rdf:li>animals</rdf:li>
            <rdf:li>award</rdf:li>
            <rdf:li>bear</rdf:li>
            <rdf:li>clip art</rdf:li>
            <rdf:li>clipart</rdf:li>
            <rdf:li>polar</rdf:li>
            <rdf:li>quiz</rdf:li>
          </rdf:Bag>
        </dc:subject>
      </cc:Work>
      <cc:License rdf:about="http://creativecommons.org/licenses/publicdomain/">
        <cc:permits rdf:resource="http://creativecommons.org/ns#Reproduction"/>
        <cc:permits rdf:resource="http://creativecommons.org/ns#Distribution"/>
        <cc:permits rdf:resource="http://creativecommons.org/ns#DerivativeWorks"/>
      </cc:License>
    </rdf:RDF>
  </metadata>
</svg>
