<?xml version="1.0"?>
<svg xmlns:rdf="http://www.w3.org/1999/02/22-rdf-syntax-ns#" xmlns="http://www.w3.org/2000/svg" xmlns:cc="http://web.resource.org/cc/" xmlns:dc="http://purl.org/dc/elements/1.1/" xmlns:svg="http://www.w3.org/2000/svg" id="svg2" xml:space="preserve" viewBox="0 0 257.236 307" version="1.0">
		<g id="Layer_1">
			<path id="path7" fill-rule="evenodd" d="m256.12 219s0.39 1.66 0.34 3.4c-0.04 1.7-0.51 5.43-0.51 4.58s-1.52-1.91-1.52-1.91l-0.22 1.49-1.19 0.04-0.04-2.38-36.04-16.34s-0.04-2.04-0.21-2.08c-0.04 2.04 0.09 3.4-0.17 3.56-0.34-0.12-39.89-17.68-40.75-18.16-0.38-0.22-0.17-1.96-0.17-1.96l-10.19-1.52-0.04 1.35s-21.44-3.01-22.03-2.63c-0.6 0.38 0.55 23.43-0.47 39.06-1.02 15.62-2.76 24.02-3.52 27.04-0.72 2.81-0.13 3.43 1.23 4.62s28.65 21.4 30.94 23.14c2.25 1.71 2.3 2.49 2.3 3.52 0 1.36 0.04 10.32 0.04 10.32l-38-9.26s-0.21 3.78-0.76 4.33-1.7 0.34-1.7 0.34-0.76 7.86-1.18 8.37c-0.43 0.5-1.15 0.76-1.15 0.76s-1.69 8.1-2.47 8.31v0.01h-0.04v-0.01c-0.78-0.21-2.47-8.31-2.47-8.31s-0.72-0.26-1.15-0.76c-0.42-0.52-1.18-8.37-1.18-8.37s-1.15 0.21-1.7-0.34-0.77-4.33-0.77-4.33l-37.989 9.26s0.042-8.96 0.042-10.32c0-1.03 0.042-1.81 2.292-3.52 2.292-1.74 29.585-21.95 30.945-23.14s1.94-1.81 1.23-4.62c-0.76-3.02-2.5-11.42-3.52-27.04-1.02-15.63 0.13-38.68-0.47-39.06-0.59-0.38-22.03 2.63-22.03 2.63l-0.042-1.35-10.188 1.52s0.212 1.74-0.17 1.96c-0.865 0.48-40.413 18.04-40.752 18.16-0.255-0.17-0.127-1.52-0.17-3.56-0.17 0.04-0.212 2.08-0.212 2.08l-36.042 16.34-0.042 2.38-1.188-0.04-0.212-1.49s-1.528 1.06-1.528 1.91-0.468-2.88-0.509-4.58c-0.042-1.74 0.34-3.4 0.34-3.4s-1.231 0.38-1.104-1.23c0.082-1.03 3.269-5.73 3.269-5.73s0.226-0.7 0.187-1.2c-0.045-0.58 0.661-0.96 1.034-1.29 0.216-0.19-0.023-1.24-0.023-1.24s11.943-10.24 32.636-26.28c20.659-16.02 45.11-35.66 45.11-35.66s0-1.13-0.226-2.72c-0.227-1.58-0.396-2.26-0.396-2.26s-1.245-0.4-1.585-1.42c-0.253-0.76-0.905-6.28-0.792-11.26s0.396-7.58 0.736-8.38c0.339-0.79 1.487-1.14 2.943-1.35 1.528-0.23 7.458-0.09 8.886 0.11 1.356 0.19 2.208 0.39 2.434 2.32 0.226 1.92 0.283 8.55 0.113 11.26-0.121 1.94-0.623 4.13-0.34 4.25 0.283 0.11 5.207-4.7 7.923-6.62 2.72-1.93 7.36-5.95 7.92-7.19 0.57-1.25 0.63-1.42 0.97-0.29 0.34 1.14 0.28 2.27-0.17 3.06-0.46 0.79-0.68 1.81-0.23 2.26 0.17 0.17 1.53-0.96 1.87-1.64s0-1.98 0.22-2.54c0.23-0.57 1.12-2.21 1.08-3.57-0.23-8.09-0.5-20.21-0.57-46.696-0.07-28.346 0.22-36.814 3.8-51.959 3.25-13.748 5.69-16.467 6.94-18.45 1.15-1.833 3.76-3.257 4.85-3.282v-0.002c0.01 0 0.02 0.001 0.02 0.001s0.01-0.001 0.02-0.001v0.002c1.09 0.025 3.7 1.45 4.85 3.282 1.25 1.982 3.69 4.702 6.94 18.45 3.58 15.145 3.87 23.613 3.8 51.959-0.07 26.486-0.34 38.606-0.57 46.696-0.04 1.36 0.85 3 1.08 3.57 0.22 0.56-0.12 1.86 0.22 2.54s1.7 1.81 1.87 1.64c0.45-0.45 0.23-1.47-0.23-2.26-0.45-0.79-0.51-1.92-0.17-3.06 0.34-1.13 0.4-0.96 0.97 0.29 0.56 1.24 5.2 5.26 7.92 7.19 2.72 1.92 7.64 6.73 7.92 6.62 0.29-0.12-0.22-2.31-0.34-4.25-0.17-2.71-0.11-9.34 0.12-11.26 0.22-1.93 1.08-2.13 2.43-2.32 1.43-0.2 7.36-0.34 8.89-0.11 1.45 0.21 2.6 0.56 2.94 1.35s0.62 3.4 0.74 8.38c0.11 4.98-0.54 10.5-0.8 11.26-0.34 1.02-1.58 1.42-1.58 1.42s-0.17 0.68-0.4 2.26c-0.22 1.59-0.22 2.72-0.22 2.72s24.45 19.64 45.1 35.66c20.7 16.04 32.64 26.28 32.64 26.28s-0.24 1.05-0.02 1.24c0.37 0.33 1.08 0.71 1.03 1.29-0.04 0.5 0.19 1.2 0.19 1.2s3.19 4.7 3.27 5.73c0.12 1.61-1.11 1.23-1.11 1.23zm-247.58-11.91l-2.393 1.84 0.207 0.27 2.414-1.85-0.228-0.26zm4.799-3.67l-4.529 3.47 0.227 0.25 4.51-3.46-0.208-0.26zm4.809-3.69l-4.539 3.48 0.208 0.27 4.511-3.46-0.18-0.29zm6.059-4.64l-5.788 4.43 0.18 0.29 5.808-4.45-0.2-0.27zm5.587-4.29l-5.318 4.08 0.2 0.27 5.323-4.08-0.205-0.27zm5.648-4.32l-5.378 4.12 0.206 0.27 5.368-4.11-0.196-0.28zm5.84-4.48l-5.571 4.27 0.196 0.28 5.607-4.3-0.232-0.25zm5.894-4.52l-5.623 4.31 0.231 0.25 5.585-4.28-0.193-0.28zm5.845-4.48l-5.575 4.28 0.193 0.28 5.556-4.26-0.174-0.3zm5.802-4.44l-5.531 4.24 0.174 0.29 5.551-4.25-0.194-0.28zm5.578-4.28l-5.308 4.07 0.194 0.28 5.317-4.08-0.203-0.27zm5.572-4.27l-5.302 4.07 0.204 0.27 5.273-4.04-0.175-0.3zm6.565-5.03l-6.294 4.82 0.175 0.3 6.265-4.8-0.146-0.32zm1.717-1.32l-1.44 1.11 0.145 0.31 1.429-1.09-0.134-0.33zm5.378-4.12l-5.098 3.91 0.134 0.33 5.171-3.97-0.207-0.27zm89.981 0l-0.21 0.27 5.17 3.97 0.13-0.33-5.09-3.91zm5.37 4.12l-0.13 0.33 1.43 1.1 0.15-0.32-1.45-1.11zm1.72 1.32l-0.14 0.32 6.26 4.8 0.18-0.3-6.3-4.82zm6.57 5.03l-0.18 0.3 5.27 4.04 0.21-0.27-5.3-4.07zm5.57 4.27l-0.2 0.27 5.31 4.08 0.19-0.28-5.3-4.07zm5.58 4.28l-0.2 0.28 5.55 4.25 0.18-0.29-5.53-4.24zm5.8 4.44l-0.18 0.3 5.56 4.26 0.19-0.28-5.57-4.28zm5.84 4.48l-0.19 0.28 5.59 4.28 0.23-0.25-5.63-4.31zm5.9 4.52l-0.23 0.25 5.6 4.3 0.2-0.28-5.57-4.27zm5.84 4.48l-0.2 0.27 5.37 4.12 0.21-0.27-5.38-4.12zm5.65 4.32l-0.21 0.28 5.32 4.08 0.2-0.28-5.31-4.08zm5.58 4.29l-0.2 0.27 5.81 4.45 0.18-0.29-5.79-4.43zm6.06 4.64l-0.18 0.29 4.51 3.46 0.21-0.27-4.54-3.48zm4.81 3.69l-0.21 0.26 4.51 3.46 0.23-0.25-4.53-3.47zm4.8 3.67l-0.23 0.26 2.42 1.85 0.2-0.27-2.39-1.84z"/>
		</g>
	<metadata><rdf:RDF><cc:Work><dc:format>image/svg+xml</dc:format><dc:type rdf:resource="http://purl.org/dc/dcmitype/StillImage"/><cc:license rdf:resource="http://creativecommons.org/licenses/publicdomain/"/><dc:publisher><cc:Agent rdf:about="http://openclipart.org/"><dc:title>Openclipart</dc:title></cc:Agent></dc:publisher><dc:title>Boeing 737 outline silhouette</dc:title><dc:date>2007-04-27T05:51:16</dc:date><dc:description>Boeing 737 outline silhouette</dc:description><dc:source>http://openclipart.org/detail/4108/boeing-737-outline-silhouette-by-clue</dc:source><dc:creator><cc:Agent><dc:title>Clue</dc:title></cc:Agent></dc:creator><dc:subject><rdf:Bag><rdf:li>737</rdf:li><rdf:li>aviation</rdf:li><rdf:li>boeing</rdf:li><rdf:li>clip art</rdf:li><rdf:li>clipart</rdf:li><rdf:li>fly</rdf:li><rdf:li>image</rdf:li><rdf:li>media</rdf:li><rdf:li>outline</rdf:li><rdf:li>plane</rdf:li><rdf:li>png</rdf:li><rdf:li>public domain</rdf:li><rdf:li>silhouette</rdf:li><rdf:li>svg</rdf:li><rdf:li>transportation</rdf:li><rdf:li>wing</rdf:li></rdf:Bag></dc:subject></cc:Work><cc:License rdf:about="http://creativecommons.org/licenses/publicdomain/"><cc:permits rdf:resource="http://creativecommons.org/ns#Reproduction"/><cc:permits rdf:resource="http://creativecommons.org/ns#Distribution"/><cc:permits rdf:resource="http://creativecommons.org/ns#DerivativeWorks"/></cc:License></rdf:RDF></metadata></svg>
