<?xml version="1.0"?>
<svg xmlns:rdf="http://www.w3.org/1999/02/22-rdf-syntax-ns#" xmlns="http://www.w3.org/2000/svg" xmlns:cc="http://web.resource.org/cc/" xmlns:xlink="http://www.w3.org/1999/xlink" xmlns:dc="http://purl.org/dc/elements/1.1/" xmlns:svg="http://www.w3.org/2000/svg" id="Layer_1" style="enable-background:new 0 0 292.845 351.094" xml:space="preserve" viewBox="0 0 292.845 351.094" version="1.1" y="0px" x="0px">
<g clip-rule="evenodd" fill-rule="evenodd">
	<path d="m39.423 52.995c-0.759 6.178-3.047 12.919-3.876 20.028 1.579-0.359 2.521-1.356 4.846-0.969-1.609 7.652-4.199 14.322-6.784 20.998 1.609-0.114 2.558-0.889 4.523-0.646-2.218 5.858-3.649 12.503-6.138 18.09 0.89 0.552 2.475-0.959 4.199-0.646-1.637 6.978-4.538 12.691-5.814 20.029 1.311-0.197 2.023-0.992 3.876-0.646 0.951 2.534-1.462 4.004-1.292 6.784-2.924 4.29-3.339 11.089-5.168 16.475-1.624-0.406-0.86-2.712-0.646-4.2 0.36-2.505 1.203-5.488 2.261-7.107 0.154-3.399 1.903-5.204 2.584-8.076-1.962 0.239-3.132-0.313-4.2-0.969 1.516-6.668 4.025-12.342 5.492-19.06-0.758-0.636-2.593 1.025-3.876 0 2.556-5.677 3.577-12.94 6.138-17.767-1.682-0.174-2.626 0.389-3.553 0.969-0.588-2.285 0.543-4.667 1.292-6.784 1.75-4.944 3.106-9.472 4.846-14.537-2.651 0.256-3.511 2.304-6.138 2.584-0.427-1.362 0.975-2.062 1.292-3.23 0.335-1.236 0.028-2.635 0.323-3.876 0.144-0.602 0.811-1.079 0.969-1.615 0.379-1.277 0.019-2.645 0.323-3.876 0.208-0.843 1.014-1.656 1.292-2.584 0.433-1.443 0.401-3.127 0.646-4.522 0.332-1.887 0.62-3.165 1.615-4.846 0.322 0.019 0.645 0.019 0.968 0.019z"/>
	<path d="m255.54 54.61c0.521-0.091 0.556 0.305 0.969 0.323 0.873 3.542 2.279 6.551 3.877 9.368 0.505 5.74 2.056 10.435 3.23 15.506-3.226 0.318-3.915-1.9-5.815-2.907 2.762 9.346 4.956 18.789 7.753 28.427-1.348 1.42-2.66 0.65-3.876-0.323 0.082 4.011 2.161 8.82 2.584 13.567 0.565 0.727 0.811 1.774 1.615 2.261-0.419 0.873-0.577 2.007-1.292 2.584-1.835 0.79-1.911-1.048-3.23-1.615 0.942 6.495 3.975 12.598 5.169 17.767-1.563 0.966-2.361 0.163-3.877-0.323 0.023 3.307 1.596 6.795 1.615 10.015-0.241 0.995 1.114 0.394 0.646 1.615-0.209 0.976-0.888 1.481-2.262 1.292-0.56-6.654-2.214-12.215-3.554-18.09 2.418-0.479 2.144 1.733 3.877 1.938-0.579-1.359-0.178-3.699-1.615-4.2 0.102-0.723 0.612-1.383 0-2.261-0.689-0.99-1.08-4.555-1.938-7.107-0.652-1.941-2.339-3.526-1.292-5.492 1.889 0.158 2.131 1.961 3.877 2.261-0.293-6.259-3.144-13.431-4.523-18.736 1.755-1.081 3.069 0.71 4.2 1.292-0.773-7.07-4.003-16.139-6.138-23.582-0.505-1.76-1.523-4.144-0.323-5.814 1.876-0.292 2.925 2.541 4.846 3.23 0.12-1.961 0.136-5.143-1.615-6.138 0.56-5.021-3.44-9.854-2.9-14.856z"/>
	<path d="m21.01 129.56c0.156 1.358 0.868 2.598 0.646 3.876-0.213 1.23-1.384 1.483-1.938 2.584-0.328 0.652-0.018 1.529-0.323 2.584-0.341 1.18-1.227 2.124-1.292 2.908-0.207 2.474 1.191 5.374 1.615 8.076 0.222 1.413-0.237 2.644 0 3.876 0.367 1.907 1.873 3.778 1.292 6.138-1.042 0.466-2.71 0.306-4.2 0.323-4.194-6.573-6.217-14.838-2.907-22.936 0.477-1.167 1.516-2.15 1.938-3.23 0.715-1.829 0.353-3.322 1.615-4.522 0.935-0.71 2.897-0.27 3.554 0.32z"/>
	<path d="m272.98 159.28c-0.167-0.801-0.787-1.151-1.292-1.615-0.163-3.071 1.483-4.332 1.938-6.784-1.201-2.537-0.22-6.919 0-10.015-0.894-1.152-1.012-3.08-1.615-4.522 1.775-0.494 2.517-2.606 4.846-1.615 0.939 3.757 4.765 8.143 4.199 13.245-0.181 1.636-1.562 3.394-2.261 5.492-1.06 3.14-1.23 6.45-5.83 5.83z"/>
	<path d="m155.39 328.22c-5.161 1.52-12.151 3.099-17.121 1.293-4.424 3.233-8.076 6.961-13.244 10.014-4.046 2.39-8.615 4.05-13.245 6.138-3.016 1.36-5.518 2.084-10.014 2.907-2.117 0.388-4.533 1.208-5.492 0.97-3.168-0.79-6.515-11.958-7.107-16.798-0.323-2.638-0.047-5.323-0.323-8.399-0.216-2.409-0.544-5.719-0.323-9.368 0.245-4.04 0.461-8.397 0.646-12.599 0.236-5.378-0.61-10.78 0-14.537 0.546-3.364 2.861-5.554 4.522-7.752 4.881-1.555 13.107 2.135 17.444 4.199 3.483 1.658 6.778 3.221 10.337 4.522 1.286 0.47 2.795 0.488 3.876 0.969 1.749 0.778 3.735 2.569 5.492 3.877 0.469 0.349 1.177 1.046 1.615 1.292 0.926 0.52 2.381 0.51 3.554 0.969 1.203 0.472 1.97 1.203 2.907 1.292 3.699 0.353 7.544-1.688 11.307-1.292 0.486 0.052 1.373 0.521 1.938 0.646 2.231 0.494 3.972 0.554 6.138 1.615 7.415-2.815 13.649-6.81 19.383-11.307 7.56-2.132 12.49-8.614 21.967-7.753 3.406 2.494 1.951 7.914 3.553 12.275-0.064 6.835 0.104 13.538 0.323 21.967 0.143 5.49 0.837 10.551 0 17.768-0.647 5.584-1.534 8.79-3.23 13.244-0.639 1.68-1.462 3.985-1.938 4.522-1.876 2.115-7.075 2.804-11.307 1.615-1.433-0.402-2.693-1.604-4.199-2.584-1.388-0.903-2.971-1.653-4.2-2.585-1.217-0.921-2.287-2.347-3.553-3.229-1.35-0.942-2.84-1.724-4.2-2.585-5.68-3.6-10.58-8.11-15.51-11.32z"/>
	<path d="m274.92 111.46c2.323-0.252 3.034-2.012 4.846-1.938 3.706 0.151 4.53 5.534 7.106 7.43-0.4 1.586 0.992 2.78 1.293 4.2 0.336 1.588 0.073 2.774 0.646 4.199 0.187 0.465 0.837 1.13 0.97 1.615 0.345 1.262 0.288 2.75 0.646 4.2 0.293 1.188 1.04 2.423 1.292 3.553 0.171 0.767-0.166 1.72 0 2.584 0.483 2.508 1.525 5.276 0.97 9.691-0.072 0.572-0.61 0.75-0.646 0.969-0.038 0.234 0.472 0.536 0.323 0.969-0.557 1.625-1.687 3.625-2.584 5.492-0.903 1.877-1.501 3.78-2.262 5.492-1.182 2.657-2.896 5.631-4.199 8.722-0.075 0.178-0.173 0.752-0.323 0.969-0.094 0.135-0.609 0.251-0.646 0.323-0.182 0.36 0.092 1.127 0 1.292-1.646 2.986-4.492 5.697-4.845 9.369-3.271 2.866-5.12 7.156-10.338 8.075-0.958 3.12-3.675 5.406-5.168 8.399-0.457 0.915-0.531 2.199-0.97 3.23-1 2.354-2.843 5.136-3.876 7.753-1.472 3.726-1.897 7.894-4.522 10.983-1.206 4.31-3.08 8.335-5.169 12.599-1.335 2.725-2.157 5.614-3.23 8.076-1.376 3.157-2.287 6.035-4.522 8.722-0.475 0.57-1.139 1.047-1.615 1.615-1.482 1.77-3.222 3.498-5.169 5.169 0.332 2.683 1.438 4.593 2.585 6.46 2.381 9.519 3.575 23.039 2.584 33.92-0.396 4.354-0.599 12.326-5.169 13.891-1.347-0.881-1.601-2.672-2.261-4.2-1.329-3.074-2.824-6.798-4.522-10.337-1.279-5.074-2.522-10.185-4.846-14.214-3.091 1.11-4.717 5.468-7.753 5.169-3.03-0.299-2.693-4.732-5.492-6.138-0.867-3.117-2.792-5.177-3.553-8.399-1.074 0.264-2.065 0.261-3.23 0.646-1.974 0.652-4.388 1.719-7.107 2.584-4.087 1.3-9.013 2.937-13.567 4.522-2.894 1.008-5.794 2.597-8.722 3.554-3.165 1.034-6.303 1.654-9.046 2.907-1.051 0.48-1.8 1.439-2.907 1.938-1.539 0.693-3.621 0.815-5.491 1.292-4.479 1.14-8.495 1.834-13.891 0-2.802-0.952-6.079-2.728-9.368-4.199-1.635-0.732-3.254-1.318-4.846-1.938-4.783-1.864-8.519-3.79-13.245-5.814-3.133-1.343-5.737-3.084-9.045-4.523-1.824-0.424-1.519 1.281-2.908 1.293-2.971-1.229-4.758-3.641-7.43-5.169-2.941 4.104-4.431 9.572-6.461 14.859-0.63 1.641-1.758 3.276-2.261 4.846-0.871 2.719-0.599 5.813-2.907 7.753-3.533-0.989-6.216-2.829-9.045-4.522-1.536 1.76-1.101 4.572-1.615 7.107-0.688 3.386-1.921 6.477-1.615 10.014-0.465-0.073-0.113-0.964-0.646-0.969-0.176 1.978-1.189 3.118-2.261 4.199-1.907-0.139-2.153-1.938-4.2-1.938-7.88-13.076-7.487-39.883-2.584-55.239-3.329-3.833-8.698-5.296-11.952-9.045-1.74-2.005-3.282-5.78-4.522-9.045-0.979-2.576-2.438-5.156-3.23-7.431-0.988-2.836-1.506-5.82-2.584-8.722-0.976-2.625-2.232-5.124-3.23-7.753-0.537-1.413-1.042-2.781-1.615-4.199-0.528-1.309-1.505-2.637-1.938-3.877-0.331-0.946-0.053-2.046-0.323-2.907-0.199-0.634-0.994-1.195-1.292-1.938-1.795-4.473-3.11-9.239-5.815-13.244-6.512 0.492-7.648-2.666-10.66-7.43-1.426-2.255-2.875-4.604-3.876-6.784-2.42-5.267-4.202-11.295-5.814-15.829-1.121-3.151-3.436-7.467-3.23-12.275 0.116-2.718 1.585-5.693 2.584-8.722 0.981-2.974 1.359-6.215 2.261-8.722 0.318-0.884 1.194-1.662 1.615-2.584 1.283-2.806 1.87-6.544 3.876-8.722-0.444-7.344 7.231-7.292 10.661-3.553-0.035-2.038-0.991-4.931-1.292-7.107 1.969-4.482 0.127-12.337 0.323-19.059 0.029-1.003 0.567-1.039 0.646-1.615 0.213-1.568 0.104-4.381 0.323-6.784 0.64-7.016 0.826-16.197 1.938-22.936 0.703-4.259 2.329-7.166 4.522-10.014 3.403-1.841 7.953-4.058 11.953-5.815 8.604-3.778 17.909-7.368 26.812-10.983 2.708-1.1 5.502-1.898 8.399-3.23 2.345-1.078 5.632-2.426 8.722-3.554 3.358-1.226 5.724-1.955 9.691-3.23 2.272-0.73 3.369-2.322 6.46-2.262 1.162-1.31 2.898-1.318 4.523-1.938 3.847-1.467 8.533-4.133 12.921-5.815 2.969-1.138 6.05-1.895 9.045-2.907 7.23-2.444 15.369-4.758 23.259-4.522 2.61 0.078 5.269 0.818 7.43 1.292 5.173 1.134 9.367 2.316 14.537 4.2 3.606 1.314 6.99 3.406 10.66 4.846 1.907 0.748 3.938 1.139 5.814 1.938 4.982 2.123 10.691 4.757 16.152 7.107 12.992 5.589 26.743 9.395 39.733 14.86 8.794 3.7 18.415 6.829 26.489 11.629 0.404 2.375 1.799 4.484 2.585 6.784 0.818 2.395 0.884 4.984 2.261 7.107-1.048 0.634 0.35 2.509 0.323 2.261 0.093 0.859-0.131 1.922 0 2.907 0.275 2.069 0.573 5.764 0.969 8.722 0.088 0.651-0.066 1.221 0.646 1.615-0.91 1.637-0.298 5.677 0.646 7.43-0.183 8.634 0.03 13.502-1.938 21.321-0.156 1.333 0.991-0.433 0.646 1.292-0.66 2.13-1.4 2.35-1.3 6.13zm-2.59-21.961c0.241-0.996-1.114-0.394-0.646-1.615 0.979-1.963 0.669-4.376 0.646-7.43-1.393-2.783-0.849-7.652-1.292-11.952-0.354-3.42-1.476-6.229-1.293-9.691-1.209-4.482-3.455-8.648-6.783-10.983-3.415-2.396-7.327-3.323-11.63-5.168-1.483-0.636-2.934-1.281-4.522-1.938-1.462-0.605-2.809-1.7-4.199-2.262-1.237-0.5-2.949-0.501-4.199-0.969-0.588-0.22-1.082-0.764-1.615-0.969-6.174-2.373-11.411-4.289-17.768-6.461-3.156-1.079-6.355-2.864-9.368-3.553-0.671-0.154-0.991-0.438-1.615-0.646-9.587-3.201-17.777-7.838-26.812-11.307-6.131-2.354-12.468-5.192-18.736-6.46-0.539-0.538-1.555-0.599-1.938-1.292-2.587-0.054-4.833-1.355-7.43-1.615-6.841-0.684-13.561 0.999-20.029 1.615-10.263 3.52-19.973 7.593-29.719 11.629-9.153 2.476-16.348 6.912-25.843 9.045-5.919 2.803-11.748 5.696-18.736 7.43-8.015 4.583-17.521 7.676-26.489 11.306-3.355 4.738-4.556 11.452-5.168 18.414-0.552 6.267-0.991 13.082-1.292 19.705-0.34 7.487-1.361 15.577-0.646 22.29 0.392 3.68 2.146 6.846 1.615 10.66-1.303 0.788-2.468 1.307-3.876 1.292-2.813-0.03-5.104-2.862-7.107-2.584-1.985 3.885-3.464 8.639-5.168 13.245-1.689 4.565-3.821 9.276-4.522 13.891-1.076 7.076 1.767 12.171 4.199 18.413 0.885 2.27 1.676 4.586 2.584 6.784 2.231 5.397 5.387 9.088 9.045 12.276h4.846c1.844 2.322 2.797 5.151 3.876 8.075 0.625 1.69 0.709 3.517 1.292 5.169 0.545 1.547 1.655 2.993 2.261 4.522 2.354 5.941 4.979 11.591 6.46 17.768 0.722 0.57 0.766 1.817 1.615 2.261 0.685 3.84 2.537 7.958 3.876 11.307 1.587 3.968 2.411 8.885 5.169 11.307 1.316 1.155 3.369 2.407 5.168 3.553 1.876 1.195 3.864 2.896 5.814 2.908 0.672-1.561 2.169-2.485 3.23-4.2 0.928-1.499 1.263-3.718 2.261-5.168 1.78-2.586 5.629-3.852 4.2-9.046-2.625 0.514 0.213 4.506-2.907 4.522-0.767-0.201 0.05-1.988-0.646-2.261-2.49-0.014-2.325 2.628-5.168 2.261 0.142-1.11-0.127-1.811-0.323-2.584 3.202-0.068 3.851-1.901 5.491-3.554 0.876-0.882 1.752-1.792 2.584-2.584 3.006-2.861 5.541-5.473 8.076-8.398 0.991-1.145 2.316-2.123 3.23-3.23 1.307-1.584 2.204-3.561 3.553-5.169 0.632-0.754 1.301-1.47 1.938-2.262 1.431-1.776 2.979-2.788 4.199-4.199 1.218-1.408 2.116-3.281 3.23-4.846 3.322-4.661 7.708-9.194 9.691-14.536 2.937-2.771 4.708-6.706 7.107-10.015 2.033 2.833-0.381 5.621-1.615 8.076-1.36 2.705-2.658 5.695-3.553 8.398 6.122 1.441 13.761 2.833 20.028 3.877 10.717 1.784 21.642 2.26 31.981 0.969 8.448-1.054 16.95-2.716 24.551-5.168-0.875-2.592-1.844-5.18-2.907-7.753-1.018-2.462-2.926-4.662-2.907-7.107 2.941 0.648 4.09 3.896 5.491 6.138 4.783 7.649 8.448 15.547 14.214 21.644 0.036 1.145 1.068-0.687 0.97 0.323 0.241 1.158 1.239 2.072 1.938 2.907 3.105 3.714 6.094 7.939 9.368 10.983 3.913 3.638 7.257 7.223 11.307 10.015 0.968 0.667 3.129 1.119 2.584 2.907-2.524 0.952-4.403-1.364-6.461-1.938-0.928 0.92 1.264 2.929-0.646 3.23-2.004-0.688 0.198-5.582-2.907-5.169-0.481 1.589 0.792 5.48 0 7.431 6.177 5.56 11.01 12.464 15.829 19.382 1.629-0.519 2.383-1.967 3.553-3.23 1.039-1.12 2.839-2.324 3.554-3.23 1.89-2.396 2.598-5.971 3.876-9.368 0.248-0.658 1.043-1.198 1.293-1.938 0.333-0.989 0.309-2.001 0.646-2.907 2.921-7.853 8.427-16.066 9.691-24.228 1.858-1.707 2.42-3.991 3.554-6.461 2.948-6.428 5.46-13.908 10.66-17.444 5.384-0.246 5.406-4.33 7.753-8.722 0.611-1.144 1.611-2.09 2.261-3.23 0.515-0.902 0.554-1.997 0.97-2.907 0.076-0.168 0.834-0.335 0.969-0.646 0.509-1.173 0.485-2.429 0.97-3.554 2.258-5.24 6.744-11.54 7.43-17.444 0.192-1.659 0.169-3.53 0-5.169-0.301-2.91-1.455-7.515-2.262-10.014-0.121-0.375-0.567-0.313-0.646-0.646-0.265-1.118-0.006-2.673-0.323-3.876-0.216-0.816-0.731-1.434-0.97-2.261-0.803-2.792-0.938-5.546-2.261-7.753-4.723-0.092-5.749 3.512-9.368 4.522-1.431-0.723-2.269-2.039-2.907-3.553 3.65-8.37 2.46-18.572 4.55-27.781zm-153.76 116.94c1.198 0.229 1.386-0.552 2.584-0.323 0.43-0.97 0.328-2.471 0.323-3.876-3.05-1.62-3.75 1.69-2.9 4.2zm-1.94-3.23c-2.049-3.04-3.538 2.421-1.938 4.199 0.778 0.133 0.702-0.59 1.615-0.322-0.21-1.62 0.31-2.51 0.33-3.88zm6.46 2.26c1.049 0.187 1.503-0.221 2.261-0.323-0.525-1.059 0.073-1.235 0-2.585-0.417-0.444-1.403-0.319-2.261-0.322v3.23zm51.36-1.94c0.535 0.637 1.182 2.424 0 2.907 0.565 1.05 1.079 2.151 2.907 1.938-0.119-1.827-1.027-3.827-0.323-5.492-0.61-0.92-2.57-0.79-2.59 0.64zm-64.28-0.32c-0.485 1.91 0.536 3.311 0 5.169 1.549 0.149 2.535-0.266 2.584-1.615-1.377-0.731-0.342-2.902 0-3.877-0.93 0.04-2.11-0.17-2.58 0.33zm16.8 1.61c1.52 0.012 3.031 0.016 2.584-1.938h-2.584v1.94zm42.31 0.65c-0.038-0.931 0.177-2.115-0.322-2.585h-0.97c-0.55 0.79-0.26 2.9 1.29 2.59zm2.91 1.29c1.103-0.405 0.498-2.518 0.646-3.877h-1.615c-0.19 0.69-0.22 3.55 0.97 3.88zm8.4 3.23c-0.063-1.615 0.785-4.886 0-7.107h-2.262c0.55 2.13-0.65 6.5 2.26 7.11zm-74.62-5.81c-0.023 2.131 0.152 4.46-0.323 6.138 3.756 0.296 3.121-5.411 2.261-7.106-0.45 0.52-1.6 0.34-1.94 0.97zm59.76-0.65c-0.061-0.479-0.781-0.296-1.293-0.323-0.69 1.19 1.64 1.45 1.29 0.32zm-33.27 0.65c0.776-0.775-1.06-0.836-0.969-0.322-0.01-0.03 1.09 0.19 0.97 0.32zm51.04 4.2c-0.466 0.503-1.301 0.637-0.969 1.938 0.488 0.847 1.933 1.951 2.907 1.293-1.268-2.111 0.857-4.763 0-7.753-0.773-0.195-1.474-0.465-2.584-0.323 0.15 2.33-0.74 3.73 0.64 4.84zm52.33 71.06c-0.398-1.045 1.046-0.247 0.646-1.292-1.034-1.451-0.436-3.333-0.646-4.846-0.868-6.253-2.955-12.705-5.491-16.476-2.562-3.808-4.958-7.504-7.43-10.982-1.231-1.732-3.046-3.381-4.2-4.846-0.943-1.199-1.684-2.157-2.584-3.23-3.459-4.124-7.426-7.482-10.983-11.307-7.93-4.776-14.967-10.445-24.551-13.567-1.097-1.314-2.923-1.843-4.522-2.585-4.929-2.285-10.801-4.348-16.475-5.168-8.56-1.238-19.768 0.113-27.136 1.292-6.866 1.099-14.492 1.143-19.059 3.554-1.947 1.027-4.394 1.124-6.138 1.938-0.685 0.32-1.208 1.013-1.938 1.293-2.574 0.986-5.301 1.355-7.753 2.584-3.377 1.693-6.822 4.296-10.014 6.461-4.866 3.299-8.563 6.472-11.953 10.337-4.177 4.764-7.515 9.939-10.983 15.506-3.943 11.133-7.087 23.063-6.138 39.088 1.011 1.083 0.186 2.665 0.323 3.876 0.085 0.749 0.84 1.434 0.969 2.262 0.177 1.136-0.232 2.262 0 3.23 0.236 0.985 0.926 1.568 1.292 2.584 0.903 2.51 1.109 5.957 3.554 7.107 1.185-6.354 2.426-12.649 3.23-19.383 1.005-0.718 1.312-2.135 2.584-2.584 3.392 1.238 5.85 3.41 9.368 4.522 3.22-8.732 6.676-17.229 9.691-26.166 1.787-0.729 1.086-2.143 2.908-2.262 2.851-0.187 5.606 6.113 8.722 6.461 3.111-4.857 7.028-8.908 9.691-14.214 2.169-1.276 2.77-4.122 5.492-4.846 4.156 3.489 9.224 6.066 14.537 8.399 4.599-4.231 8.701-8.959 12.275-14.214 1.701-0.237 2.087-1.79 3.876-1.938 5.819 3.55 9.502 9.234 14.213 13.891 1.855-1.724 3.106-3.959 4.846-5.814 1.613-1.72 3.832-3.91 6.138-4.522 6.164 4.604 9.726 11.811 15.184 17.121 2.197-2.293 4.687-4.026 7.106-6.138 1.414-1.233 1.665-2.399 3.23-2.262 1.154 0.103 1.563 1.317 2.584 2.585 2.574 3.194 5.548 5.923 6.461 9.691 0.095 1.125 0.874-0.027 0.969 0.646 0.843 3.762 2.476 5.761 3.877 8.722 0.926 1.957 1.73 4.333 3.554 5.492 2.288-2.234 4.674-4.371 7.753-5.814 5.188 7.087 8.023 16.527 10.983 25.843 0.376 0.055 0.351 0.511 0.322 0.969 0.019 0.34 0.414 0.255 0.323-0.322 0.072-0.251 0.009-0.638 0.323-0.646v1.292c1.53-3.89 2.41-16.42 0.98-21.31zm-134.06-74.29c-0.376 1.611-0.751 6.138 0 6.783 0.613-0.571 2.068-0.3 2.584-0.969-0.172-2.434 0.024-3.403 0-6.138-1.21-0.24-1.54 0.4-2.58 0.33zm85.28 0.32c1.563 0.129 0.135 1.792 0 2.261 2.1 1.557-1.702 5.378 1.615 6.138 0.533-3.488-0.484-6.366 0.323-8.398-0.41-0.45-1.7-1.16-1.93 0zm-90.126 1.94c0.223 2.484-0.546 3.977-0.323 6.461 0.82 0.659 1.799-0.593 2.907-0.646-0.292-2.452 0.996-5.027 0-7.107-0.646 0.65-2.015 0.57-2.584 1.3zm94.976 8.4c0.611-2.064 0.881-5.619 0.322-9.045-0.778 0.132-0.701-0.59-1.614-0.323 1.32 1.63-2.43 8.28 1.29 9.37zm-99.821-4.85c0.638 2.212-0.125 3.611 0.323 5.492 1.41 0.226 1.436-0.933 2.584-0.97 0.176-2.911 0.248-3.973 0.323-6.784-1.719 0.11-2.348 1.31-3.23 2.26zm102.4 6.46c0.945-0.084 0.992 0.73 1.938 0.646-0.53-2.982 0.407-6.433-0.646-9.368h-0.969c-0.07 3.18-1 5.49-0.32 8.72zm4.52-2.26c0.2 2.244-1.289 5.458 1.615 5.169-0.347-2.81-0.804-5.223-0.323-8.076-0.986 0.018-0.774-1.163-1.938-0.969-0.55 1.26 0.51 2.37 0.64 3.88zm-110.8 3.88c2.901-0.021 2.557-3.85 2.261-6.138-2.842 0.52-2.521 3.12-2.261 6.14zm114.68 3.55c0.804-0.05 1 0.507 1.615 0.646 0.177-2.654-0.571-4.383-0.323-7.106-0.687-0.498-1.203-1.166-1.938-1.615-0.5 2.42 0.54 6.09 0.64 8.07zm-118.55-1.29c2.49 0.8 3.019-3.555 1.615-4.522-0.975 1.07-2.006 2.08-1.615 4.52zm121.78 3.55c0.7 0.484 0.752 1.616 1.938 1.615-0.894-2.062 1.191-7.764-2.261-8.076-0.37 3.02 0.66 4.26 0.32 6.47zm-125.02-0.65c1.144 0.176 0.794-1.144 1.938-0.969-0.205-1.088 0.416-3-0.323-3.554-0.952 0.96-2.816 2.46-1.615 4.52zm130.84 5.5c0.251-2.836-0.474-4.695-0.323-7.43-0.509-0.168-1.73-1.244-2.262-0.323 1.33 1.93-0.63 7.01 2.58 7.75zm-132.77-3.56c-0.291-0.894 0.664-3.032-0.646-2.907-1.097 0.588-2.385 3.077-0.969 4.199 0.502-0.46 0.865-1.07 1.615-1.29zm-4.522 4.85c0.573-0.526 1.375-3.828 0-4.199-0.18 1.69-0.951 2.61 0 4.2zm72.685 36.5c0.6-0.457 0.864-1.734-0.323-1.938 0.18 0.57-0.4 1.9 0.32 1.94zm-4.2 1.29c-0.353 3.059 0.329 6.639 0.323 9.691-0.003 1.939-1.63 5.514 1.292 5.814 0.645-5.247-0.33-9.716 0-16.152-0.071-0.252-0.271-0.375-0.646-0.323-0.17 0.47-0.5 0.79-0.96 0.97zm4.2 14.22c2.455-0.956 0.369-4.535 1.292-6.784-0.078-0.605-0.532 0.184-0.646-0.323-0.249-1.961 0.751-3.164-0.323-4.199 0.172-1.194 1.152-2.48-0.323-3.23-0.69 4.1 0.23 9.13 0 14.53zm2.91-10.98c0.113 0.534 0.609 0.241 0.646 0.969 0.068 1.369 0.021 3.252 0 4.846-0.022 1.773-1.198 4.842 0.323 6.138 1.536-0.114 0.648-1.859 0.646-2.907-0.011-4.277-1.038-7.566-0.323-10.983-0.659-0.095-0.634-0.874-1.292-0.969 0.75 0.68-0.23 1.88-0.01 2.9zm20.99-1.3c0.364-0.39 0.922-0.586 0.646-1.615h-0.97c0.18 0.48-0.38 1.68 0.32 1.62zm2.59 0.33c0.47-0.177 1.67 0.378 1.615-0.322-0.762-0.101-0.601-1.122-1.615-0.97 0.01 0.42 0.01 0.86 0.01 1.29zm-51.69 4.52c-0.045-0.854 0.204-3.191 0.323-4.845-0.778 0.132-0.702-0.591-1.615-0.323 0.36 1.8-0.94 5.26 1.3 5.17zm45.55 2.91c2.838-0.682 0.274-5.465 1.293-7.431-0.413-0.018-0.448-0.414-0.97-0.322-1.71 2.04 0.24 6.6-0.32 7.75zm-27.78-6.79c0.849 0.658 0.596 3.098 0 4.846 0.029 0.509 0.824 0.253 0.646 0.969-1.258 0.901-0.628 5.868 0.646 5.169-0.318-2.239-0.157-6.549-0.323-9.368-0.032-0.549 0.946-1.973-0.323-1.938-0.09 0.25-0.29 0.37-0.66 0.32zm14.21 3.88c0.011 1.697-1.234 3.803 0.323 4.846-0.287-2.75 1.423-6.864-0.646-8.398-0.29 1.14 0.33 2.38 0.33 3.55zm19.71 0.65c0.988 0.234 0.95-0.558 1.938-0.323v-3.23c-1.044-0.525-1.69 0.184-1.938 1.292 1.41-0.03 0.37 2.02 0 2.26zm-56.21-2.59h0.969c0.059-0.705-0.265-1.028-0.969-0.97v0.97zm46.84 0c0.499 1.762-1.087 5.609 0.97 5.814 0.749-1.62 0.11-4.627 0.323-6.784h-0.97c-0.05 0.38 0.06 0.92-0.32 0.97zm-37.8 3.55c0.238-1.53-0.364-2.221-0.323-3.553-0.946 0.084-0.993-0.73-1.938-0.646 1.38 1.36-1.29 4.24 2.26 4.2zm44.58 0c1.852-0.062 0.575-2.973 0.323-3.876-0.81 2.52 1.02 1.89-0.32 3.88zm6.14-3.23c-0.26 1.96 1.48 0.22 0 0zm-39.73 3.56c-0.139-1.045 0.425-2.794-0.646-2.907-0.51 0.67-0.62 3.01 0.65 2.91zm19.7 4.52c3.215 0.483 1.968-6.839-0.323-6.783 0.03 2.08 0.11 4.34 0.32 6.78zm3.56-1.29c3.111 0.239 0.688-3.119 1.292-5.169h-0.97c-0.99 1.48 0.39 3.9-0.32 5.17zm-29.72-1.62c0.384-1.688-0.587-3.703-1.615-2.907 0.17 0.5 0.04 2.87 1.61 2.91zm1.61 0.65c0.675 0.186 0.922 0.801 1.938 0.646v-3.23c-1.61-0.94-2.22 0.69-1.94 2.58zm4.52 0.64c-0.066-0.61 0.218-3.191-0.323-2.261 0.07 0.61-0.22 3.19 0.32 2.26zm-0.32 1.3c0.324-0.001 0.385 0.262 0.646 0.323-0.031-0.508 0.043-1.12-0.646-0.969v0.65zm17.44 1.29c0.699-0.671 0.018-1.102-0.646-1.293-0.08 0.73 0.09 1.21 0.65 1.29zm-7.1 0.64c-0.098 0.852 0.447 1.061 1.292 0.97 0.25-1.13-0.85-1.44-1.29-0.97z"/>
	<path d="m122.77 108.56c0.794 0.42 3.526-1.039 4.523 0.323 0.349 3.855-3.58 5.941-2.261 8.722-0.552 0.525-1.145 1.009-1.615 1.615 0.349 1.267-0.748 3.979 0.646 4.2-1.755 2.435-0.504 4.802-1.292 8.076-1.232 5.123-3.334 12.58-5.814 16.152-0.197 0.284-1.19 0.782-1.615 1.292-2.01 2.414-4.01 4.831-6.784 7.107-0.323 0.265-0.799 0.515-1.292 0.969-1.923 1.769-4.083 2.735-7.106 4.199-2.578 1.248-4.966 2.979-9.045 1.938-0.755 0.106-1.334 0.388-1.938 0.646-4.85-1.936-9.966-2.309-14.86-4.2-0.955-0.369-1.651-1.258-2.584-1.615-2.693-1.029-5.628-0.886-7.106-3.23-2.884-0.131-3.468-2.562-6.138-2.908-2.612-3.741-7.438-5.268-10.014-9.045-1.016 0.155-1.263-0.46-1.938-0.646-0.786-1.045-1.429-2.232-2.261-3.23 0.144-1.687 1.159-2.502 0.969-4.522 3.301-3.914 2.403-12.026 5.492-16.152 1.479-0.51 0.598 1.341 1.615 1.292 3.718-2.851 7.236-5.901 9.368-10.337 2.627 0.77 1.791 4.127 4.522 4.2 2.508 0.066 7.098-6.815 9.045-8.399 0.763-0.621 1.753-0.697 2.261-1.292 1.586 0.783 1.46 3.277 3.23 3.876 5.589-1.41 9.101-4.897 13.245-7.753 2.172 0.933 2.382 2.909 2.584 5.169 4.481-1.442 7.64-4.205 10.983-6.784 1.206-0.661 1.896 1.514 1.938 0 0.505 1.24 0.213 3.178 0.323 5.492 5.5 0.653 9.24-3.25 12.599-5.814 3.78 0.913-0.23 6.324 0.3 10.634zm-27.784-0.97c-0.569-1.046-1.623-1.607-1.292-3.553-4.995 0.854-8.489 7.257-15.829 5.814-0.251-0.718-0.678-1.259-0.646-2.261-4.796 2.532-9.021 11.838-15.829 6.461-3.819 2.211-4.695 7.365-10.337 7.753-1.186 5.49-2.875 10.477-4.2 15.829 1.155-0.353 2.087-0.929 2.584-1.938 7.874-3.324 13.557-8.841 21.644-11.953 1.773 1.996 2.562 4.977 2.261 9.045 3.309-0.245 4.013-3.094 7.107-3.553 4.86-3.755 10.424-6.806 16.475-9.368 1.267 1.199 1.969 2.525 2.261 3.876 0.148 0.687-0.652 0.605-0.646 0.969-0.003-0.206 0.574 0.554 0.646 0.969 0.155 0.888-0.116 1.417 0 2.261-0.764-1.395-0.623 0.502-0.969 1.292 1.962 0.346 1.989-1.242 3.23-1.615 6.124-2.813 12.005-5.87 17.444-9.368 1.752 0.353 2.03-0.769 3.23-0.969 0.161-2.424 0.856-4.312 1.938-5.815-1.475-1.074-1.744 1.353-3.876 0.646 0.097-0.635-0.437-0.641-0.646-0.969 0.213-2.59 1.643-5.675 0.969-8.076-2.635 2.749-6.986 3.782-12.921 3.23-1.206-0.517 0.119-3.565-1.292-3.876-3.42 2.07-5.81 5.18-11.304 5.18zm23.904 30.36c1.875-2.217 2.024-7.706 0.646-10.66-2.02 1.58-0.82 7.41-0.65 10.66zm-3.55-5.16c0.419 4.737-0.43 9.028 0.323 12.275-0.139 0.507-1.016 0.276-0.646 1.292 0.925-0.367 1.571-1.013 1.938-1.938-0.399-2.961 0.591-8.515-0.323-12.922-0.48 0.38-0.91 0.81-1.29 1.3zm-2.91 10.33c0.003-0.058-0.576 0.257-0.646 0.646-0.395 2.202 0.482 4.622 0 6.46 3.791-1.416 1.305-7.583 1.615-11.306 0.094-1.133 0.711-1.928 0.646-2.907-0.427-0.004-0.295-0.566-0.646-0.646-2.55 1.6-0.8 4.49-0.97 7.76zm-4.2-0.97c1.551 3.226 0.293 8.154 0.969 11.306 2.182-1.116 0.966-3.521 0.969-5.492 0.004-2.696 0.593-5.798 0.323-8.722-0.071-0.251-0.271-0.375-0.646-0.323-0.54 1.06-1.26 1.96-1.61 3.22zm10.34-2.58h0.646v-0.646h-0.646v0.65zm-13.57 16.8c3.686-1.353 2.155-9.57 1.615-13.244-0.071-0.252-0.271-0.376-0.646-0.323-1.09 4.03-0.56 8.95-0.97 13.56zm-50.394-10.34c0.103-0.749-0.052-1.24-0.323-1.615h-0.969c-0.242 1.21 0.364 1.57 1.292 1.61zm2.908 2.26v-2.907h-1.292c-0.02 1.42-0.312 3.12 1.292 2.91zm46.196-2.58c-0.071-0.251-0.271-0.375-0.646-0.323-0.049 0.597-1.094 0.198-1.292 0.646-0.804 2.126-0.16 5.211 0 7.753 0.103 1.633-0.625 3.611 0.646 4.522 1.78-2.85 0.5-8.76 1.29-12.6zm-43.289 4.84c-0.083-1.424-0.516-2.499-0.323-4.2h-1.292c0.346 1.59-0.421 4.3 1.615 4.2zm2.584 1.94c0.746-1.084 0.113-3.548 0.323-5.169h-1.615c0.367 1.79-0.387 4.7 1.292 5.17zm35.857-4.84c-0.509 3.604-1.089 8.787-0.323 12.599 3.188-0.473 0.942-6.38 1.615-9.368-0.139-0.507-1.016-0.276-0.646-1.292-0.626-1.303 1.483-1.491 0.323-2.261-0.05 0.37-0.506 0.34-0.965 0.32zm-32.303 6.46c0.049-2.31-0.171-4.351-0.646-6.138h-0.969c0.886 1.7-0.68 5.85 1.615 6.14zm3.23 1.61c0.21-2.153-0.791-5.336 0.323-6.138-0.045-0.924-1.347-0.591-2.261-0.646 0.428 1.83-0.38 5.99 1.938 6.79zm25.52 0.32c0 1.973-0.524 4.734 0.646 5.492 0.927-0.296 0.792-4.027 0.646-7.107-0.13-2.761-0.746-6.439 0.323-3.23-0.044-1.033 0.318-2.472-0.969-2.261h-0.646v7.11zm-23.259 0.65c1.29-0.286 0.698-3.798 0-4.199 0.5-0.47 0.284-1.654 0.323-2.584h-0.969c0.876 2.06-1.018 5.25 0.646 6.78zm2.908-1.61c-0.543 0.461-0.728 3.293 0.646 2.907 0.89-1.309-0.183-1.25-0.323-1.938 0.759-1.287 0.716-3.376 0.646-5.492-0.562 0.024-1.005-0.072-1.292-0.323-0.527 1.1-0.619 4.16 0.323 4.84zm16.475-2.91c0.05-0.38-0.056-0.917 0.323-0.969-0.073 1.219 0.339 2.923-0.646 3.23 1.111 1.941-0.499 8.202 2.584 7.107-1.046-1.031 0.349-7.389-0.646-10.983-1.248-0.37-2.668 0.74-1.615 1.61zm-13.891-1.29c-0.119 2.107-0.772 7.411 1.292 8.399 0.438-2.151-0.003-4.931 0.323-8.399h-1.615zm3.23 6.13c0.05 0.464 0.596 0.537 0.646 0.969 0.122 1.053-0.709 2.405 0.969 2.262 0.186-2.071 0.05-6.472-0.323-9.045h-0.969c-0.036 1.89-0.503 4.13-0.323 5.81zm5.169 4.2c-0.162-2.624 0.446-6.971 0-10.014h-1.938c0.493 2.97-1.427 9.41 1.938 10.01zm1.938 0.33c0.761-0.007 0.951 0.556 1.938 0.323 1.159-2.106-0.405-4.494-0.646-6.46-0.188-1.528 1.006-3.376-0.646-4.2h-0.646c0.628 2.01-0.397 6.56 0 10.34z"/>
	<path d="m180.27 107.27c0.812-0.803-0.206-3.437 0.97-3.876 4.659 0.94 6.567 4.631 10.014 6.784 1.288-0.758 0.874-3.218 1.938-4.2 4.587 1.766 7.536 5.17 11.307 7.753 0.935-0.404 0.094-2.153 0.646-3.553 3.63 1.539 6.109 4.229 9.368 6.138 1.417 0.34 1.062-1.092 2.262-0.969 3.79 3.209 6.827 7.171 10.983 10.014 1.464-0.5 2.337-0.167 3.553 0.323 2.229 2.833 1.34 8.783 3.554 11.629-0.206 3.406 0.775 8.213 1.615 11.629-0.781 1.912-0.884 3.508-0.969 5.492-0.797-0.042-1.557-0.049-1.938 0.323-3.021 2.577-7.419 3.779-9.691 7.106-8.695 3.258-21.511 9.798-35.211 6.461-4.13-1.006-6.726-4.01-10.015-5.814-2.712-3.857-5.409-7.728-8.076-11.629-2.066-6.65-4.047-13.118-5.168-20.352-0.069-0.448-0.387-1.582-0.97-1.938 0.052-1.021 0.012-1.95-0.646-2.261 0.103-0.758 0.51-1.212 0.323-2.261-0.017-1.492-1.841-1.174-1.615-2.907 0.524-1.414 1.872-2.004 2.907-2.907-0.431-2.585-0.868-5.162-1.615-7.43 2.062-1.102 2.759 1.11 4.522 1.292 0.997-3.729-1.055-8.062-0.646-11.307 5.13 0.03 7.92 4.96 12.6 6.48zm-10.34 7.43c-1.652 0.145-2.131-0.885-3.554-0.969-0.521 2.293 1.621 4.472 0.323 5.492 1.197 1.171 2.67 2.068 3.876 3.23 6.151 2.141 10.155 6.428 15.506 9.368 0.829-3.337-1.124-8.434 2.908-9.691 6.671 2.481 10.968 7.337 16.475 10.983 0.391 1.225 1.244 1.986 2.584 2.262 0.505-2.531 2.005-5.875 3.877-6.138 2.576-0.362 3.888 2.719 5.168 3.876 2.415 2.181 5.783 4.026 8.399 6.461 2.935 2.73 5.349 5.665 8.076 6.784-1.053-6.808-3.036-12.685-5.169-18.413h-1.938c-3.367-3.309-6.528-6.824-10.337-9.691-0.433 0.645-0.753 1.4-1.615 1.615-2.735-1.787-4.371-4.674-7.753-5.815 0.481 1.221-0.242 2.912-1.615 3.23-1.626-0.527-2.443-1.864-4.199-2.261-1.782-2.31-3.723-4.461-6.784-5.492-0.611 1.218-0.052 3.609-1.292 4.199-4.515-1.3-6.332-5.297-10.337-7.106-0.641 1.297-0.084 3.792-1.938 3.876-3.956-1.751-6.53-4.884-10.66-6.461-0.48 3.06 2.14 7.48-0.02 10.67zm-2.26 17.44c-0.044-0.602-0.212-1.08-0.646-1.292 0.08 0.57-0.32 1.61 0.65 1.29zm3.55 14.54c-0.014-0.344 0.152-0.82 0.323-0.323 0.051 0.38-0.056 0.917 0.323 0.969-0.957-4.643 0.561-11.759-2.585-14.214 1.05 5.11-0.88 9.79 1.94 13.56zm2.26-3.56c-0.056-0.483 0.115-1.192-0.323-1.292 0.536 3.298-0.218 6.061 1.292 8.076-2.053 1.243-0.064 4.382 1.615 4.846-0.024-2.137-0.509-4.278-0.646-6.461-0.235-3.734 0.952-7.937-1.938-8.399 0.88 0.71 0.55 2.28 0.01 3.22zm4.53 5.49c-1.093-1.315-0.761 3.067 0 0.969-0.554 2.883-0.375 5.34 0.322 8.399-0.184-1.045 0.099-1.625 0.646-1.938-1.004-0.521-0.859-3.333 0-3.876-2.162-1.869 2.102-6.957-1.615-7.753-0.48 2.11 0.81 2.42 0.65 4.2zm3.23 0.65c-0.09 1.311-1.027 1.772-0.646 3.553 2.164 2.99-1.489 8.661 1.938 10.014 0.389-5.148 0.346-11.486-0.646-15.183h-0.969c-0.69 0.9-0.16 1.71 0.33 1.62zm3.87 4.52c-0.432 1.187-0.356-0.096 0 1.292 0.127 0.494 0.167 1.844 0 2.261-0.518 1.299-0.057-0.165 0 1.292 0.062 1.577-0.667 3.559-0.323 5.814 0.837 0.348 1.201 1.168 2.262 1.292 0.265-4.491-0.479-10.526-0.323-14.537-1.158 0.082-1.184-0.97-2.261-0.969-0.31 1.52 1.15 2.17 0.64 3.57zm3.23 0.97c1.194 0.225 1.427-0.511 1.292-1.615-0.635 0.097-0.641-0.437-0.969-0.646-0.34 1.08 0.11 1.1-0.32 2.26zm3.24 2.26c0.005-0.1 0.654 0.357 0.646 0.969-0.022 1.67-1.243 4.011 0 5.169-1.354 0.459 0.146 1.826-0.322 3.876 0.778-0.132 0.702 0.59 1.615 0.323 0.688-3.711-0.745-9.282 0.322-11.952-0.244-0.832-1.03-1.123-2.261-0.969 1.29 1.05 0.04 1.52 0 2.58zm3.55 4.2c1.089-0.7 1.206-5.218 0.322-6.46-0.89 1.98 0.21 4.66-0.32 6.46zm-6.46-4.52c0.899 0.518 0.893-1.395 0.323-1.292 0.03 0.56-0.07 1-0.32 1.29zm0 0.97c0.283 3.158-0.652 7.967 1.292 9.045 0.945-1.215-0.526-2.439-0.646-3.876-0.269-3.222 1.188-5.054 0.323-6.461 0.02 1.27 0.19 1.88-0.96 1.3zm9.69-1.29c1.9 1.822-1.314 4.902 0.646 6.784-0.144 1.041-0.619 1.75-0.646 2.907 0.743 0.118 0.309 1.414 1.292 1.292 0.857-4.053 0.19-7.52 0.323-11.306-0.75-0.1-1.24 0.06-1.61 0.33zm4.2 6.78c-1.247 0.243-0.808 3.907 0.323 3.876 1.899-0.173 0.645-2.438 0.646-3.554 0.002-2.456-0.368-4.344 0-6.46-0.61 0.072-0.713-0.364-1.292-0.323 0.34 2.92-0.05 3.9 0.32 6.45zm-23.58-4.84c0.052-0.225-0.112-1.88-0.323-0.969-0.29 1.23 0.17 1.62 0.32 0.97zm27.45 8.07c1.403-1.828 0.292-6.17 0.646-9.045h-1.615c1.39 2.4-1.14 7.13 0.97 9.04zm2.91-8.4h0.646c-0.016 2.655-0.467 5.437-0.646 7.43 2.753 0.527 1.41-3.236 0.97-4.2 0.649-0.75 0.779-2.021 0.646-3.553-0.76-0.1-1.4-0.69-1.62 0.32zm3.56-0.32c0.58 3.833-0.392 4.012 0 6.46 3.303 0.074 0.926-3.959 1.615-6.784-0.76-0.11-1.25 0.05-1.62 0.32zm3.55 0c0.872 1.394-0.412 2.531 0 5.168 0.937-0.355 2.185-0.399 2.261-1.615-1.461 0.259 0.428-2.693-0.646-3.876-0.74-0.11-1.24 0.05-1.61 0.32zm8.07 1.29c0.138-0.616 0.923-0.584 0.646-1.615h-0.969c0.18 0.47-0.38 1.67 0.32 1.61zm-3.87 1.94c1.824 0.101 2.164-1.283 1.938-3.23h-1.938v3.23zm-24.55 6.46c-0.801-2.799 0.8-4.359-0.646-5.492 0.31 1.74-0.68 4.77 0.65 5.49z"/>
</g>
<metadata><rdf:RDF><cc:Work><dc:format>image/svg+xml</dc:format><dc:type rdf:resource="http://purl.org/dc/dcmitype/StillImage"/><cc:license rdf:resource="http://creativecommons.org/licenses/publicdomain/"/><dc:publisher><cc:Agent rdf:about="http://openclipart.org/"><dc:title>Openclipart</dc:title></cc:Agent></dc:publisher><dc:title>Georges Clemenceau</dc:title><dc:date>2009-06-15T00:40:49</dc:date><dc:description> The Art of Caricaturing by Mitchell Smith, 1941 Frederick J. Drake &amp;  Co. - stated as Public Domain by Archive.org</dc:description><dc:source>http://openclipart.org/detail/26665/georges-clemenceau-by-johnny_automatic</dc:source><dc:creator><cc:Agent><dc:title>johnny_automatic</dc:title></cc:Agent></dc:creator><dc:subject><rdf:Bag><rdf:li>caricature</rdf:li><rdf:li>cartoon</rdf:li><rdf:li>clip art</rdf:li><rdf:li>clipart</rdf:li><rdf:li>externalsource</rdf:li><rdf:li>famous-people</rdf:li><rdf:li>france</rdf:li><rdf:li>french</rdf:li><rdf:li>history</rdf:li><rdf:li>image</rdf:li><rdf:li>man</rdf:li><rdf:li>media</rdf:li><rdf:li>person</rdf:li><rdf:li>politics</rdf:li><rdf:li>presidents</rdf:li><rdf:li>public domain</rdf:li><rdf:li>svg</rdf:li></rdf:Bag></dc:subject></cc:Work><cc:License rdf:about="http://creativecommons.org/licenses/publicdomain/"><cc:permits rdf:resource="http://creativecommons.org/ns#Reproduction"/><cc:permits rdf:resource="http://creativecommons.org/ns#Distribution"/><cc:permits rdf:resource="http://creativecommons.org/ns#DerivativeWorks"/></cc:License></rdf:RDF></metadata></svg>
