<?xml version="1.0" encoding="UTF-8" standalone="no"?>
<!-- Created with Inkscape (http://www.inkscape.org/) -->
<svg xmlns:dc="http://purl.org/dc/elements/1.1/" xmlns:cc="http://web.resource.org/cc/" xmlns:rdf="http://www.w3.org/1999/02/22-rdf-syntax-ns#" xmlns:svg="http://www.w3.org/2000/svg" xmlns="http://www.w3.org/2000/svg" xmlns:xlink="http://www.w3.org/1999/xlink" xmlns:sodipodi="http://sodipodi.sourceforge.net/DTD/sodipodi-0.dtd" xmlns:inkscape="http://www.inkscape.org/namespaces/inkscape" width="289.99323" height="190.34772" id="svg2" sodipodi:version="0.32" inkscape:version="0.45.1" sodipodi:docbase="/Users/johnolsen/Desktop" sodipodi:docname="TheresaKnott_frog.svg" inkscape:output_extension="org.inkscape.output.svg.inkscape" version="1.0">
  <defs id="defs4">
    <linearGradient inkscape:collect="always" id="linearGradient16469">
      <stop style="stop-color:#ffffff;stop-opacity:1;" offset="0" id="stop16471"/>
      <stop style="stop-color:#ffffff;stop-opacity:0;" offset="1" id="stop16473"/>
    </linearGradient>
    <linearGradient id="linearGradient12036">
      <stop style="stop-color:#007000;stop-opacity:1;" offset="0" id="stop12038"/>
      <stop id="stop12044" offset="0.5" style="stop-color:#008100;stop-opacity:1;"/>
      <stop style="stop-color:#004c00;stop-opacity:1;" offset="1" id="stop12040"/>
    </linearGradient>
    <linearGradient inkscape:collect="always" id="linearGradient4055">
      <stop style="stop-color:#93e42a;stop-opacity:1;" offset="0" id="stop4057"/>
      <stop style="stop-color:#93e42a;stop-opacity:0;" offset="1" id="stop4059"/>
    </linearGradient>
    <linearGradient inkscape:collect="always" xlink:href="#linearGradient4055" id="linearGradient11142" gradientUnits="userSpaceOnUse" gradientTransform="translate(-573.0434,194.1562)" x1="689.58221" y1="140.56271" x2="1107.2654" y2="-24.000799"/>
    <radialGradient inkscape:collect="always" xlink:href="#linearGradient12036" id="radialGradient12042" cx="294.68018" cy="-100.10563" fx="294.68018" fy="-100.10563" r="31.00503" gradientTransform="matrix(1,0,0,0.648083,-103.8442,-19.68332)" gradientUnits="userSpaceOnUse"/>
    <radialGradient inkscape:collect="always" xlink:href="#linearGradient12036" id="radialGradient12955" gradientUnits="userSpaceOnUse" gradientTransform="matrix(1,0,0,0.648083,-103.8442,-19.68332)" cx="294.68018" cy="-100.10563" fx="294.68018" fy="-100.10563" r="31.00503"/>
    <radialGradient inkscape:collect="always" xlink:href="#linearGradient12036" id="radialGradient12959" gradientUnits="userSpaceOnUse" gradientTransform="matrix(1,0,0,0.648083,-73.58868,250.7007)" cx="294.68018" cy="-100.10563" fx="294.68018" fy="-100.10563" r="31.00503"/>
    <radialGradient inkscape:collect="always" xlink:href="#linearGradient12036" id="radialGradient13838" gradientUnits="userSpaceOnUse" gradientTransform="matrix(1,0,0,0.648083,-73.58868,250.7007)" cx="294.68018" cy="-100.10563" fx="294.68018" fy="-100.10563" r="31.00503"/>
    <radialGradient inkscape:collect="always" xlink:href="#linearGradient16469" id="radialGradient16475" cx="344.48248" cy="323.98358" fx="344.48248" fy="323.98358" r="5.9929881" gradientTransform="matrix(1,0,0,0.937021,0,20.40421)" gradientUnits="userSpaceOnUse"/>
    <radialGradient inkscape:collect="always" xlink:href="#linearGradient12036" id="radialGradient16495" gradientUnits="userSpaceOnUse" gradientTransform="matrix(1,0,0,0.648083,-73.58868,250.7007)" cx="294.68018" cy="-100.10563" fx="294.68018" fy="-100.10563" r="31.00503"/>
    <linearGradient inkscape:collect="always" xlink:href="#linearGradient4055" id="linearGradient16497" gradientUnits="userSpaceOnUse" gradientTransform="translate(-573.0434,194.1562)" x1="689.58221" y1="140.56271" x2="1107.2654" y2="-24.000799"/>
    <radialGradient inkscape:collect="always" xlink:href="#linearGradient16469" id="radialGradient16499" gradientUnits="userSpaceOnUse" gradientTransform="matrix(1,0,0,0.937021,0,20.40421)" cx="344.48248" cy="323.98358" fx="344.48248" fy="323.98358" r="5.9929881"/>
  </defs>
  <sodipodi:namedview id="base" pagecolor="#ffffff" bordercolor="#666666" borderopacity="1.0" inkscape:pageopacity="0.0" inkscape:pageshadow="2" inkscape:zoom="2.0698961" inkscape:cx="144.99662" inkscape:cy="95.173861" inkscape:document-units="px" inkscape:current-layer="layer1" inkscape:window-width="791" inkscape:window-height="581" inkscape:window-x="166" inkscape:window-y="91"/>
  <g inkscape:label="Layer 1" inkscape:groupmode="layer" id="layer1" transform="translate(-83.772305,-92.071489)">
    <g id="g16477" transform="matrix(0.580359,-4.052693e-2,3.650908e-2,0.522822,-64.02529,-15.70769)">
      <g transform="translate(116.364,147.7516)" id="g13834">
        <path style="fill:url(#radialGradient16495);fill-opacity:1;fill-rule:evenodd;stroke:#000000;stroke-width:1px;stroke-linecap:butt;stroke-linejoin:miter;stroke-opacity:1" d="M 205.66127,167.7108 C 197.66522,171.01016 193.83593,172.25508 191.08134,175.92039 C 188.46722,182.44864 196.76238,196.46265 202.98602,200.82953 C 212.38776,206.66786 224.82134,206.86901 234.60524,201.80634 C 239.71936,199.29511 243.65739,195.0495 247.4813,190.94396 C 249.81284,188.22866 251.86592,184.83318 251.56752,181.11705 C 249.92235,177.34619 239.37236,172.34452 236.05272,170.35162 C 232.73308,168.35872 214.83514,163.92544 205.66127,167.7108 z " id="path11144" sodipodi:nodetypes="cccccczz"/>
        <path style="fill:#001b00;fill-opacity:0.82122904;fill-rule:evenodd;stroke:#000000;stroke-width:1.44958067px;stroke-linecap:butt;stroke-linejoin:miter;stroke-opacity:1" d="M 215.55197,173.98198 C 211.9993,175.43092 207.3897,174.39912 204.616,178.07724 C 209.56515,195.43712 230.53896,195.32882 235.92069,185.94014 C 238.35244,181.69787 234.6975,179.80083 231.93714,178.02264 C 226.76413,175.16459 221.15737,173.65618 215.55197,173.98198 z " id="path12046" sodipodi:nodetypes="ccscc"/>
      </g>
      <path sodipodi:nodetypes="cccccccccccccccccccccccccccccccccccccczcccccccccccccccccccc" id="path1374" d="M 282.37498,236.50894 C 258.6542,239.50763 262.10563,266.90455 262.92067,284.38665 C 268.69356,299.93964 247.62475,303.02268 245.625,316.44643 C 237.7829,327.37101 232.89352,340.26759 238.78125,351.63393 C 234.2289,364.97745 279.32912,359.60388 268.39781,373.86045 C 260.59802,379.23539 235.04773,390.21024 245.87772,398.40132 C 260.78875,388.3053 283.2756,377.60993 300.90936,383.04095 C 302.14076,394.31607 313.22689,410.13377 314.87202,389.30949 C 356.21963,367.2802 376.44762,399.65007 410.15625,417.79018 C 428.49768,429.30757 454.19443,429.84378 468.15625,447.50893 C 460.58676,467.08517 455.8281,491.05964 439.07132,504.76973 C 428.86952,511.8276 417.83876,508.81719 408.89392,501.28238 C 382.92917,498.36584 431.90808,522.50774 405.107,527.12535 C 387.2082,536.11466 364.29708,530.40471 347.11899,538.74723 C 362.31423,554.15935 390.37984,537.40626 406.56506,549.08826 C 402.51887,557.31612 375.09051,583.67321 400.65975,572.26711 C 416.61056,559.66489 433.83303,549.48999 453.27549,543.4787 C 476.58138,535.51238 491.05169,514.47415 504.0625,495.16518 C 514.58449,479.35645 520.76855,463.6026 532.22673,448.58981 C 519.04661,427.28672 521.53888,432.88123 541.71875,432.35268 C 547.89981,450.80208 557.32704,474.20284 575.33359,483.05202 C 598.33632,495.65636 608.61542,472.64406 620.65625,458.35268 C 633.50187,450.38265 638.03821,436.68145 643.51861,424.1663 C 649.57664,424.87244 659.78474,392.84129 657.4423,414.60599 C 651.0935,436.49798 663.79536,457.10204 662.96875,477.85268 C 654.42562,494.93393 653.47919,496.00418 637.42116,505.82653 C 626.04358,508.45406 617.86357,519.56975 635.79918,519.21943 C 657.08174,535.50069 618.5931,549.14097 613.1875,561.91518 C 627.4636,559.78649 662.25795,544.38959 656.24513,574.41934 C 652.76836,588.92533 647.89731,603.32306 641.84375,616.72768 C 664.81516,619.66546 664.66567,587.5045 676.72051,573.85548 C 690.27087,555.13038 718.22876,613.41391 714.09519,581.16567 C 708.44114,559.45384 688.65211,540.20115 697.84477,516.51779 C 699.54415,496.17105 706.60586,475.32492 699.45145,455.15588 C 697.49128,434.4166 693.08294,414.51325 684.83864,395.48678 C 671.07946,381.6506 665.03237,356.26666 640.90288,357.49668 C 631.34561,360.17165 623.40609,369.90999 615.40625,376.10268 C 597.72963,403.07044 602.35145,393.72063 592.05993,362.47528 C 597.24998,345.97609 592.09282,340.06487 583.97924,336.10212 C 575.86565,332.13937 567.80519,325.32608 561.6875,316.27705 C 575.90155,321.62428 594.48057,327.44623 606.75,313.79018 C 616.25092,314.55159 611.39446,288.02567 600.71875,287.88393 C 580.48167,289.60414 563.7843,280.08084 544.28125,279.72768 C 530.69689,281.44688 524.02718,275.93525 516.15625,265.75893 C 501.04648,248.08936 479.13535,256.0682 459.91876,249.8223 C 431.43675,244.97699 402.34534,237.76911 373.25638,240.31979 C 351.64393,235.74065 327.73141,236.92559 308.11871,247.57109 C 300.97583,240.30375 292.00196,238.87269 282.37498,236.50894 z M 335.71873,313.94644 C 351.00717,313.42917 365.50703,326.68403 368.26108,336.4631 C 360.67527,350.75162 338.31291,354.75079 324.5625,349.10268 C 332.64157,345.60211 312.90305,340.99286 314.18554,334.80942 C 304.92979,327.01138 310.395,310.84031 322.78125,315.19643 C 315.09852,315.94393 323.53951,324.99805 327.0625,321.50893 C 326.66872,320.80449 323.35402,317.74177 326.99694,319.17322 C 335.55972,326.39697 339.54009,322.70473 333.69495,314.97867 L 335.34375,314.00893 L 335.71875,313.94643 L 335.71873,313.94644 z " style="fill:#325905;fill-opacity:1;stroke:#000000;stroke-width:6.0999999;stroke-miterlimit:4;stroke-dasharray:none;stroke-opacity:1"/>
      <path id="path3131" d="M 256.58916,362.71114 C 256.58916,362.71114 316.13517,381.11627 335.62295,381.11627 C 355.11074,381.11627 395.16896,365.95911 395.16896,365.95911" style="fill:none;fill-opacity:0.75;fill-rule:evenodd;stroke:#000000;stroke-width:5.19999981;stroke-linecap:butt;stroke-linejoin:miter;stroke-miterlimit:4;stroke-dasharray:none;stroke-opacity:1"/>
      <path sodipodi:nodetypes="ccccccscc" id="path3136" d="M 611.90625,379.25 C 609.38239,379.56565 611.69198,377.76743 606.17857,383.97768 C 607.77215,391.61341 601.34706,379.61273 598.54911,392.54465 C 595.12977,405.42748 588.6143,419.73255 588.21875,429.375 C 586.75565,438.27013 581.06096,446.87704 580.25,455.59375 C 585.8483,454.3118 587.42046,448.22067 587.95642,443.45585 C 593.02241,432.59479 593.81001,419.93421 598.42857,409.26339 C 602.98211,398.74281 606.3337,390.47296 613.74107,379.57589 L 611.90625,379.25 z " style="fill:#000000;fill-opacity:1;fill-rule:nonzero;stroke:none;stroke-width:1px;stroke-linecap:butt;stroke-linejoin:miter;stroke-opacity:1"/>
      <path id="path3151" d="M 441.1875,386 C 469.20133,399.51761 495.89041,416.48432 519.71875,436.40625 C 523.63491,440.28394 526.38495,445.25598 529.65625,449.5 C 531.05937,448.64388 535.55116,448.50198 534.96875,446.59375 C 521.51898,423.77311 494.3353,415.59913 474,400.4375 C 463.78496,394.59319 452.42491,387.69043 441.1875,386 z " style="fill:#000000;fill-opacity:1;fill-rule:nonzero;stroke:none;stroke-width:1px;stroke-linecap:butt;stroke-linejoin:miter;stroke-opacity:1"/>
      <path sodipodi:nodetypes="csssssssss" id="path3180" d="M 252.59151,307.78272 C 261.91709,301.57548 269.55661,287.51885 292.17675,279.50755 C 306.34299,274.49034 302.00137,273.85251 307.65641,266.31247 C 313.31144,258.77242 309.18212,250.67731 319.61006,245.90981 C 342.40711,235.48734 482.56286,243.69233 495.75796,253.11739 C 508.95306,262.54245 564.08966,287.51885 554.19336,292.70263 C 544.29706,297.88641 503.88005,290.94348 457.81376,283.6985 C 422.41944,278.13193 389.4653,275.09394 363.56317,285.25104 C 338.25352,295.17581 346.84208,290.81761 322.33693,296.47265 C 297.83178,302.12768 249.9172,309.56278 252.59151,307.78272 z " style="opacity:0.36516855;fill:url(#linearGradient16497);fill-opacity:1;fill-rule:evenodd;stroke:none;stroke-width:1px;stroke-linecap:butt;stroke-linejoin:miter;stroke-opacity:1"/>
      <path sodipodi:nodetypes="csssssssssssss" id="path5809" d="M 406.41047,375.82233 C 399.09884,381.68784 408.94933,386.64584 410.95278,394.19733 C 413.14684,402.46725 451.69675,417.1152 460.24121,424.51723 C 472.63977,435.25805 486.98089,444.62003 496.21495,458.26669 C 502.10903,466.97733 497.94926,479.0795 490.5137,486.24384 C 479.30006,497.04846 466.34929,506.11637 457.22742,519.08448 C 448.91595,530.90048 435.17949,537.38604 421.96991,542.85482 C 411.57035,547.16025 396.41631,567.99043 400.02633,567.90133 C 406.42541,567.7434 435.55338,547.42721 453.52703,538.92209 C 471.29821,530.51278 487.27549,521.29075 495.38817,501.70506 C 501.8332,486.1454 515.6342,474.45238 522.4223,457.68677 C 531.26119,435.856 517.53934,435.68846 508.49249,427.68282 C 492.58121,413.60276 473.19651,403.62218 454.00931,394.46822 C 441.67731,388.58479 407.28991,375.11683 406.41047,375.82233 z " style="opacity:0.21910113;fill:#70e700;fill-opacity:1;fill-rule:nonzero;stroke:none;stroke-width:1px;stroke-linecap:butt;stroke-linejoin:miter;stroke-opacity:1"/>
      <path sodipodi:nodetypes="cssssssssss" id="path6697" d="M 663.8922,395.85892 C 658.89609,398.07413 659.87189,407.68823 661.09375,414.625 C 663.41391,427.79699 670.83799,439.64113 672.40625,453.3125 C 675.587,481.04078 676.7667,501.12705 676.54733,528.70267 C 676.43668,542.61096 687.52271,556.74397 696.88537,566.38464 C 701.19636,570.82362 699.86791,582.62862 705.53827,583.58469 C 710.517,584.42414 714.92023,581.17204 713.3125,577.21875 C 707.09695,561.93518 685.12623,548.83651 684.31953,528.68904 C 683.33794,504.17357 690.36578,480.29578 688.40625,455.6875 C 687.13454,439.71708 683.4931,424.04679 677.03125,409.5 C 676.44899,408.18924 666.1701,394.84893 663.8922,395.85892 z " style="opacity:0.3258427;fill:#5ffd00;fill-opacity:0.57541899;fill-rule:nonzero;stroke:none;stroke-width:1px;stroke-linecap:butt;stroke-linejoin:miter;stroke-opacity:1"/>
      <path id="path7586" d="M 586.19765,365.50905 C 584.56324,366.52855 579.55812,366.72476 582.07265,369.63405 C 585.10303,376.18766 583.79631,384.18843 578.30832,389.05293 C 574.69905,393.34631 574.50002,393.71867 578.44765,389.5403 C 584.12505,383.4062 592.4867,373.78293 586.44765,365.38405 L 586.19765,365.50905 z M 581.44765,367.6028 C 581.49058,367.54514 581.34401,367.57028 581.44765,367.6028 z M 559.76015,408.69655 C 551.8108,417.35655 541.26823,426.73591 541.19765,439.2903 C 540.20486,443.53429 545.54756,440.59671 546.7289,438.9153 C 543.23812,426.00213 553.69329,415.27068 561.7914,406.75905 C 563.17875,405.23034 559.8687,408.63335 559.76015,408.69655 z " style="fill:#000000;fill-opacity:1;fill-rule:nonzero;stroke:none;stroke-width:1px;stroke-linecap:butt;stroke-linejoin:miter;stroke-opacity:1"/>
      <path sodipodi:nodetypes="ccccccc" id="path7601" d="M 525.73767,273.09375 C 520.39614,272.91175 522.33644,273.24017 520.4741,274.24589 C 539.25048,295.99986 542.66154,296.24877 549.57661,309.41001 C 555.29303,318.08562 567.92703,325.68651 575.1768,333.28125 C 581.65615,332.13362 575.61957,332.63735 576.67804,331.89679 C 568.70926,326.31179 562.7902,317.11834 557.18874,309.66858 C 549.80214,295.86693 540.4187,284.1297 525.73767,273.09375 z " style="fill:#000000;fill-opacity:1;fill-rule:nonzero;stroke:none;stroke-width:1px;stroke-linecap:butt;stroke-linejoin:miter;stroke-opacity:1"/>
      <path sodipodi:nodetypes="czzzzzczzzz" id="path7617" d="M 400.69801,360.79561 C 394.72317,361.90589 388.39003,371.75168 378.71713,372.92061 C 369.04424,374.08955 350.91064,377.41317 347.89712,380.06137 C 344.88361,382.70956 332.855,379.25295 331.08961,382.58144 C 329.32423,385.90994 335.62482,385.14376 338.84783,385.34554 C 342.07085,385.54732 362.05435,387.86132 365.2994,389.51284 C 368.54446,391.16436 375.04248,396.28994 381.16129,402.81425 C 384.61429,400.67468 386.36355,400.02363 386.98675,394.64369 C 387.60995,389.26374 391.77088,380.38913 397.59833,376.35358 C 403.42578,372.31804 419.11111,356.07605 420.41226,354.58964 C 421.71342,353.10324 406.67286,359.68533 400.69801,360.79561 z " style="opacity:0.37078654;fill:#000000;fill-opacity:1;fill-rule:nonzero;stroke:none;stroke-width:1px;stroke-linecap:butt;stroke-linejoin:miter;stroke-opacity:1"/>
      <path sodipodi:nodetypes="cccccccccccccc" id="path10262" d="M 591.625,370.21875 C 588.64641,372.54937 591.1041,377.06724 590.88004,380.26341 C 591.00091,388.96783 591.55818,397.80519 589.47045,406.34589 C 588.24648,413.20141 586.52428,423.30804 585.97669,430.17701 C 583.16112,438.14596 583.75309,443.43798 579.25,450.6875 C 579.58715,454.57642 580.91194,453.20172 583.20972,451.94769 C 588.63809,444.80961 595.07995,432.13722 595.72238,428.09907 C 597.19624,422.94871 598.69444,417.43637 601.44616,413.00065 C 610.32338,403.58349 617.76637,392.62539 622.19659,380.41272 C 624.91553,370.86865 617.5886,372.46285 615.03239,376.58681 C 611.0362,380.39568 608.20912,385.2258 604.3125,389.125 C 599.88223,389.24909 600.85873,382.50377 597.51696,380.4609 C 594.0806,377.77305 595.4146,373.29119 593.62068,370.11529 C 593.1002,369.48754 592.07509,369.50482 591.625,370.21875 z " style="opacity:0.53932585;fill:#000000;fill-opacity:0.39664803;fill-rule:evenodd;stroke:none;stroke-width:1px;stroke-linecap:butt;stroke-linejoin:miter;stroke-opacity:1"/>
      <path id="path15590" d="M 342.96875,318.40625 C 336.2373,318.96854 337.5029,329.91608 344.03125,329.40625 C 348.78872,330.79209 353.12928,324.36063 348.5,321.28125 C 347.18587,319.55773 345.22437,318.11215 342.96875,318.40625 z " style="fill:url(#radialGradient16499);fill-opacity:1;fill-rule:evenodd;stroke:none;stroke-width:1px;stroke-linecap:butt;stroke-linejoin:miter;stroke-opacity:1"/>
      <path id="path13840" d="M 343.21875,322.40625 C 340.21979,324.72061 344.92762,326.12217 346.3125,325.15625 C 345.64667,324.12456 344.30682,322.0153 343.21875,322.40625 z " style="fill:#ffffff;fill-opacity:1;fill-rule:evenodd;stroke:none;stroke-width:1px;stroke-linecap:butt;stroke-linejoin:miter;stroke-opacity:1"/>
    </g>
  </g>
  <metadata>
    <rdf:RDF>
      <cc:Work>
        <dc:format>image/svg+xml</dc:format>
        <dc:type rdf:resource="http://purl.org/dc/dcmitype/StillImage"/>
        <cc:license rdf:resource="http://creativecommons.org/licenses/publicdomain/"/>
        <dc:publisher>
          <cc:Agent rdf:about="http://openclipart.org/">
            <dc:title>Open Clip Art Library</dc:title>
          </cc:Agent>
        </dc:publisher>
        <dc:title>frog</dc:title>
        <dc:date>2006-10-10T12:59:04</dc:date>
        <dc:description>A very simple drawing of a frog, with a couple of highlights and shadow.</dc:description>
        <dc:source>http://openclipart.org/detail/496/frog-by-theresaknott</dc:source>
        <dc:creator>
          <cc:Agent>
            <dc:title>TheresaKnott</dc:title>
          </cc:Agent>
        </dc:creator>
        <dc:subject>
          <rdf:Bag>
            <rdf:li>amphibian</rdf:li>
            <rdf:li>amphibian</rdf:li>
            <rdf:li>animal</rdf:li>
            <rdf:li>animal</rdf:li>
            <rdf:li>clip art</rdf:li>
            <rdf:li>clipart</rdf:li>
            <rdf:li>frog</rdf:li>
            <rdf:li>frog</rdf:li>
            <rdf:li>image</rdf:li>
            <rdf:li>media</rdf:li>
            <rdf:li>nature</rdf:li>
            <rdf:li>nature</rdf:li>
            <rdf:li>png</rdf:li>
            <rdf:li>public domain</rdf:li>
            <rdf:li>svg</rdf:li>
          </rdf:Bag>
        </dc:subject>
      </cc:Work>
      <cc:License rdf:about="http://creativecommons.org/licenses/publicdomain/">
        <cc:permits rdf:resource="http://creativecommons.org/ns#Reproduction"/>
        <cc:permits rdf:resource="http://creativecommons.org/ns#Distribution"/>
        <cc:permits rdf:resource="http://creativecommons.org/ns#DerivativeWorks"/>
      </cc:License>
    </rdf:RDF>
  </metadata>
</svg>
