<?xml version="1.0"?>
<svg xmlns:rdf="http://www.w3.org/1999/02/22-rdf-syntax-ns#" xmlns="http://www.w3.org/2000/svg" xmlns:cc="http://web.resource.org/cc/" xmlns:dc="http://purl.org/dc/elements/1.1/" xmlns:svg="http://www.w3.org/2000/svg" id="svg1872" viewBox="0 0 274.49 375.38" version="1.0">
  <g id="layer1" transform="translate(-81.372 -13.287)">
    <g id="g4278" stroke="#000" transform="matrix(2.8228 0 0 2.5349 32.314 -606.93)">
      <path id="path4080" stroke-linejoin="round" d="m37.566 353.01c-4.041-0.02-7.556 1.12-9.597 3.41l-0.1 0.12c-1.61 1.89-1.986 4.26-1.317 6.71-1.147 2.25-1.866 5.32-1.915 8.84-0.065 4.66 1.064 9.01 2.86 11.91-0.909 0.23-1.893 0.61-2.785 1.14-2.138 1.26-3.006 2.8-1.939 3.43 1.066 0.64 3.68 0.13 5.817-1.13 0.32-0.19 0.585-0.39 0.846-0.58-0.791 1.99-0.928 4.1-0.274 4.98l0.025 0.03c0.756 0.97 2.238-0.03 3.307-2.23 0.346-0.71 0.602-1.46 0.771-2.18 0.443-0.09 0.881-0.26 1.293-0.51 0.226 0.17 0.478 0.33 0.745 0.49 2.118 1.25 4.682 1.77 5.769 1.16l0.024-0.03c1.067-0.63 0.199-2.17-1.939-3.43-0.679-0.4-4.929-1.63-5.637-1.86 2.448-2.72 3.249-11.94 0.308-14.35 7.565 2.99 21.026 8.61 24.498 4.54 4-4.7 0.429-12.28-7.981-16.95-4.165-2.32-8.738-3.5-12.779-3.51z" fill-rule="evenodd" stroke-linecap="round" stroke-width=".98142" fill="#2ed528"/>
      <path id="path3154" stroke-linejoin="round" d="m58.94 245.16c-4.699 0.15-8.423 4.96-8.371 10.81 0.019 2.11 0.516 4.06 1.373 5.7-7.181 7.38-11.361 12.17-11.257 26.05 0.058 7.87 1.632 15.2 4.316 21.37-1.367 1.53-2.646 3.2-3.815 4.98-0.607-0.29-1.52-0.17-2.812 0.14-2.771 0.66-4.258 8.08-8.785 2.43-1.727-1.55-3.466-2.54-4.926-2.94 0.129-0.42 0.218-0.88 0.261-1.36 0.138-1.5-0.285-2.55-0.937-2.35-0.648 0.22-1.281 1.59-1.417 3.08-0.017 0.19-0.021 0.36-0.022 0.53-0.252 0.08-0.482 0.21-0.675 0.37-0.392-0.24-0.819-0.45-1.265-0.61-1.377-0.47-2.35-0.24-2.158 0.51v0.03c0.188 0.67 1.209 1.52 2.398 2.03-0.179 0.03-0.35 0.06-0.545 0.12-1.304 0.41-2.418 1.37-2.485 2.11-0.067 0.75 0.941 1.04 2.245 0.64 0.545-0.18 1.045-0.45 1.461-0.76 0.732 2.06 2.353 4.44 4.534 6.43 1.64 1.5 3.325 2.5 4.752 2.96 0.908 1.36 2.114 2.21 3.531 2.31l0.088 0.02h0.043c-1.083 4.44-1.655 9.17-1.613 14.07 0.217 25.12 16.34 45.27 36.011 45 10.172-0.15 20.07-9.4 27.154-18.33 0.243 0.23 0.494-1.24 0.784-1.43 2.256-1.43 2.259 1.38 6.282 3.92-0.49 3.78-0.19 9.18 0.72 11.49-0.47 0.05-0.97 0.16-1.48 0.32-2.25 0.69-3.838 2.17-3.531 3.32s2.401 1.54 4.641 0.85c1.14-0.35-0.49-1.14 0.14-1.76 0.04 0.02 0.09 0.03 0.13 0.05-0.39 2.49 0.12 4.68 1.16 4.93 1 0.23 2.12-1.43 2.61-3.76 0.51 0.3 1.08 0.57 1.73 0.77 2.24 0.69 4.33 0.31 4.64-0.85 0.31-1.15-1.29-2.63-3.53-3.32-0.38-0.12-0.73-0.21-1.09-0.27 2.01-2.5 3.72-6.49 4.49-11.01 0.81-4.79 0.37-9.03-0.96-11.52 2.31-5.42 1.84-10.62-1.64-13l-0.1-0.1c-1.18-0.77-2.6-1.14-4.12-1.17-2.68-0.05-3.14 1.21-6.05 3.12-0.02-2.56 0.84-10.43 0.21-13.07-3.126-13.24-4.356-20.04-10.457-28.17 3.007-6.56 4.728-14.5 4.665-23.02-0.071-9.56-2.866-10.75-6.683-17.6 2.926-1.78 4.943-5.73 4.905-10.29-0.051-6.16-3.851-11.1-8.479-11.03h-0.109c-4.011 0.13-7.297 3.99-8.022 9.04-2.875-1.55-5.97-2.41-9.199-2.45-0.542-5.32-4.203-9.4-8.611-9.33h-0.13z" fill-rule="evenodd" stroke-linecap="round" stroke-width=".91981" fill="#2ed528"/>
      <path id="path4045" stroke-width=".78513px" fill-rule="evenodd" fill="#fff" d="m47.914 275.54c23.73 11.44 11.278 13.27 24.2 11.44 12.923-1.83 21.881-9.59 12.923-1.83-5.76 4.99-16.231 44.13-37.123-9.61z"/>
      <path id="path4117" stroke-width=".78513px" fill-rule="evenodd" fill="#e86eb6" d="m72.578 296.13c-1.242 0-3.518 0.74-4.699 1.6-0.313 0.23-0.631 0.48-0.945 0.7-1.965 1.44-0.931-0.46-2.337-0.46-0.735 0-3.174-1.06-4.003-0.46-0.253 0.19-0.532 0.35-0.82 0.51 7.018 8.71 12.437 5.84 16.658 0.56-0.208-0.19-0.464-0.36-0.796-0.61-0.879-0.64-1.862-1.84-3.058-1.84z"/>
      <path id="path4047" stroke-width=".78513px" fill="none" d="m44.155 277.14c0.053-0.63 0.235-2.06 0.235-3.43 0-1.03 1.173-2.11 1.879-2.29 1.063-0.26 2.243 0.73 2.82 1.15 1.558 1.14-0.773-0.38 0.47 0.23"/>
      <path id="path4049" stroke-width=".78513px" fill="none" d="m86.682 278.52c1.002 0.73 2.543-0.3 3.759 0 2.063 0.5 2.174 1.37 2.584 2.97 0.229 0.89-1.361 1.33-1.879 1.83-0.347 0.34-0.131 0.51-0.235 0.92"/>
      <path id="path4063" stroke-linejoin="round" d="m57.619 222.71a10.484 12.699 0 1 1 -0.153 0" fill-rule="evenodd" transform="matrix(.60332 0 0 .65624 50.087 102.98)" stroke-linecap="round" stroke-width="1.25" fill="#fff"/>
      <path id="path4057" stroke-linejoin="round" d="m35.869 228.91a1.0336 1.4766 0 1 1 -0.015 0" transform="matrix(.79561 0 0 .77480 60.132 75.988)" stroke-linecap="round" stroke-width="1.25" fill="none"/>
      <path id="path4065" stroke-linejoin="round" d="m57.619 222.71a10.484 12.699 0 1 1 -0.153 0" fill-rule="evenodd" transform="matrix(.62558 0 0 .63809 23.662 104.74)" stroke-linecap="round" stroke-width="1.25" fill="#fff"/>
      <path id="path4055" stroke-linejoin="round" d="m35.869 228.91a1.0336 1.4766 0 1 1 -0.015 0" transform="matrix(.79561 0 0 .77480 33.347 75.073)" stroke-linecap="round" stroke-width="1.25" fill="none"/>
      <path id="path4101" stroke-linejoin="round" d="m67.889 323.71a29.827 41.196 0 1 1 -0.435 0.01" fill-rule="evenodd" transform="matrix(.79561 0 0 .77480 11.966 65.921)" stroke-linecap="round" stroke-width="1.335" fill="#58e258"/>
      <path id="path4103" stroke-linejoin="round" d="m85.446 323.65c0.237 1.44 1.069 2.62 2.434 3.23l0.072 0.03c1.122 0.47 2.426 0.48 3.714 0.11 1.289 0.29 2.999 0.38 4.905 0.21 2.533-0.22 4.819-0.86 6.279-1.65 0.18 0.31 0.45 0.64 0.79 0.93 0.81 0.7 1.7 0.92 1.98 0.51s-0.16-1.32-0.97-2.01c-0.13-0.1-0.25-0.19-0.37-0.27 1.13 0.18 2.28 0.11 2.72-0.16l0.01-0.01c0.48-0.32-0.15-0.8-1.41-1.06-0.4-0.09-0.82-0.14-1.22-0.16-0.08-0.15-0.2-0.3-0.36-0.43 0.08-0.09 0.15-0.19 0.22-0.29 0.55-0.82 0.67-1.76 0.28-2.11l-0.02-0.01c-0.41-0.35-1.19 0.04-1.74 0.87-0.18 0.26-0.3 0.54-0.39 0.8-1.28-0.33-3.053-0.46-5.049-0.3-5.929 1.26-3.803-3.13-5.625-4.5-2.265-1.69-3.105-1.69-5.126 1.54-1.001 1.6-1.361 3.29-1.124 4.73z" fill-rule="evenodd" stroke-linecap="round" stroke-width=".43422" fill="#2ed528"/>
      <path id="path4120" stroke-linejoin="round" d="m54.623 268.78a0.88594 0.59063 0 1 1 -0.012 0" fill-rule="evenodd" transform="matrix(.79561 0 0 .77480 20.659 65.921)" stroke-linecap="round" stroke-width="1.335" fill="#e86eb6"/>
      <path id="path4122" stroke-linejoin="round" d="m63.927 269.07a0.73829 0.44297 0 1 1 -0.01 0" fill-rule="evenodd" transform="matrix(.79561 0 0 .77480 20.659 65.921)" stroke-linecap="round" stroke-width="1.335" fill="#e86eb6"/>
    </g>
  </g>
  <metadata>
    <rdf:RDF>
      <cc:Work>
        <dc:format>image/svg+xml</dc:format>
        <dc:type rdf:resource="http://purl.org/dc/dcmitype/StillImage"/>
        <cc:license rdf:resource="http://creativecommons.org/licenses/publicdomain/"/>
        <dc:publisher>
          <cc:Agent rdf:about="http://openclipart.org/">
            <dc:title>Openclipart</dc:title>
          </cc:Agent>
        </dc:publisher>
        <dc:title>happy frog</dc:title>
        <dc:date>2007-02-08T21:40:42</dc:date>
        <dc:description>A happy frog standing on it's back legs.</dc:description>
        <dc:source>http://openclipart.org/detail/3140/happy-frog-by-nlyl</dc:source>
        <dc:creator>
          <cc:Agent>
            <dc:title>nlyl</dc:title>
          </cc:Agent>
        </dc:creator>
        <dc:subject>
          <rdf:Bag>
            <rdf:li>amphibian</rdf:li>
            <rdf:li>animal</rdf:li>
            <rdf:li>clip art</rdf:li>
            <rdf:li>clipart</rdf:li>
            <rdf:li>frog</rdf:li>
            <rdf:li>happy</rdf:li>
            <rdf:li>image</rdf:li>
            <rdf:li>media</rdf:li>
            <rdf:li>nature</rdf:li>
            <rdf:li>png</rdf:li>
            <rdf:li>public domain</rdf:li>
            <rdf:li>svg</rdf:li>
          </rdf:Bag>
        </dc:subject>
      </cc:Work>
      <cc:License rdf:about="http://creativecommons.org/licenses/publicdomain/">
        <cc:permits rdf:resource="http://creativecommons.org/ns#Reproduction"/>
        <cc:permits rdf:resource="http://creativecommons.org/ns#Distribution"/>
        <cc:permits rdf:resource="http://creativecommons.org/ns#DerivativeWorks"/>
      </cc:License>
    </rdf:RDF>
  </metadata>
</svg>
