<svg id="svg" version="1.1" width="515" height="515" xmlns="http://www.w3.org/2000/svg" xmlns:xlink="http://www.w3.org/1999/xlink" style="display: block;"><g id="svgg"><path id="path0" d="M297.801 23.097 C 297.561 23.818,292.334 24.246,282.551 24.347 C 271.644 24.459,267.555 24.834,267.250 25.750 C 267.021 26.438,265.746 27.000,264.417 27.000 C 262.935 27.000,262.000 27.580,262.000 28.500 C 262.000 29.325,261.325 30.000,260.500 30.000 C 259.675 30.000,259.000 30.450,259.000 31.000 C 259.000 31.550,258.086 32.000,256.969 32.000 C 255.851 32.000,254.678 32.675,254.362 33.500 C 254.045 34.325,253.352 35.000,252.822 35.000 C 251.524 35.000,249.000 37.595,249.000 38.929 C 249.000 39.518,248.325 40.000,247.500 40.000 C 246.675 40.000,246.000 40.675,246.000 41.500 C 246.000 42.325,245.518 43.000,244.929 43.000 C 243.544 43.000,241.000 45.544,241.000 46.929 C 241.000 47.518,240.518 48.000,239.929 48.000 C 238.544 48.000,236.000 50.544,236.000 51.929 C 236.000 52.518,235.535 53.000,234.966 53.000 C 233.672 53.000,228.000 58.728,228.000 60.034 C 228.000 60.566,227.487 61.000,226.860 61.000 C 225.323 61.000,223.071 64.089,223.032 66.250 C 223.014 67.213,222.325 68.000,221.500 68.000 C 220.675 68.000,220.000 68.675,220.000 69.500 C 220.000 70.325,219.550 71.000,219.000 71.000 C 218.450 71.000,218.000 71.675,218.000 72.500 C 218.000 73.325,217.325 74.000,216.500 74.000 C 215.641 74.000,215.000 74.901,215.000 76.106 C 215.000 77.264,213.875 79.097,212.500 80.179 C 211.125 81.260,210.000 82.964,210.000 83.966 C 210.000 84.967,209.325 86.045,208.500 86.362 C 207.675 86.678,207.000 87.825,207.000 88.910 C 207.000 89.994,206.550 91.160,206.000 91.500 C 205.450 91.840,205.000 93.216,205.000 94.559 C 205.000 96.062,204.424 97.000,203.500 97.000 C 202.452 97.000,202.000 98.056,202.000 100.500 C 202.000 102.425,201.550 104.000,201.000 104.000 C 200.450 104.000,200.000 105.752,200.000 107.893 C 200.000 110.431,199.478 111.986,198.500 112.362 C 196.133 113.270,196.349 130.773,198.750 132.640 C 200.417 133.937,200.417 134.051,198.750 135.050 C 197.787 135.627,197.000 136.784,197.000 137.621 C 197.000 138.458,196.325 139.818,195.500 140.643 C 194.675 141.468,194.000 143.011,194.000 144.071 C 194.000 145.132,193.550 146.000,193.000 146.000 C 192.450 146.000,192.000 147.575,192.000 149.500 C 192.000 151.944,191.548 153.000,190.500 153.000 C 189.417 153.000,189.000 154.111,189.000 157.000 C 189.000 159.200,188.550 161.000,188.000 161.000 C 187.450 161.000,187.000 163.202,187.000 165.893 C 187.000 169.320,186.551 170.958,185.500 171.362 C 184.329 171.811,184.000 173.808,184.000 180.469 C 184.000 185.490,183.589 189.000,183.000 189.000 C 182.389 189.000,182.000 193.626,182.000 200.878 C 182.000 210.215,181.679 213.021,180.500 214.000 C 179.204 215.075,179.000 221.877,179.000 263.953 L 179.000 312.662 176.750 313.751 C 175.512 314.350,172.704 315.091,170.508 315.397 C 168.312 315.703,166.362 316.413,166.175 316.976 C 165.987 317.539,164.746 318.000,163.417 318.000 C 161.935 318.000,161.000 318.580,161.000 319.500 C 161.000 320.548,159.944 321.000,157.500 321.000 C 155.575 321.000,154.000 321.401,154.000 321.892 C 154.000 322.382,152.875 323.066,151.500 323.411 C 150.125 323.756,149.000 324.480,149.000 325.019 C 149.000 325.559,148.325 326.000,147.500 326.000 C 146.675 326.000,146.000 326.450,146.000 327.000 C 146.000 327.550,145.036 328.000,143.858 328.000 C 142.680 328.000,140.426 329.350,138.850 331.000 C 137.273 332.650,135.312 334.000,134.491 334.000 C 133.671 334.000,133.000 334.450,133.000 335.000 C 133.000 335.550,132.325 336.000,131.500 336.000 C 130.675 336.000,130.000 336.604,130.000 337.343 C 130.000 338.081,128.425 339.533,126.500 340.570 C 124.575 341.607,123.000 342.802,123.000 343.227 C 123.000 343.652,122.566 344.000,122.034 344.000 C 120.728 344.000,115.000 349.672,115.000 350.966 C 115.000 351.535,114.518 352.000,113.929 352.000 C 112.544 352.000,110.000 354.544,110.000 355.929 C 110.000 356.518,109.510 357.000,108.910 357.000 C 107.539 357.000,104.078 361.081,104.033 362.750 C 104.015 363.438,103.550 364.000,103.000 364.000 C 102.450 364.000,102.000 364.675,102.000 365.500 C 102.000 366.325,101.325 367.000,100.500 367.000 C 99.675 367.000,99.000 367.675,99.000 368.500 C 99.000 369.325,98.550 370.000,98.000 370.000 C 97.450 370.000,97.000 371.125,97.000 372.500 C 97.000 373.925,96.423 375.000,95.657 375.000 C 94.919 375.000,93.457 376.688,92.407 378.750 C 91.358 380.813,90.163 382.650,89.750 382.833 C 89.338 383.017,89.000 384.704,89.000 386.583 C 89.000 388.954,88.541 390.000,87.500 390.000 C 86.417 390.000,86.000 391.111,86.000 394.000 C 86.000 396.200,85.550 398.000,85.000 398.000 C 84.376 398.000,84.000 403.833,84.000 413.500 C 84.000 423.167,84.376 429.000,85.000 429.000 C 85.550 429.000,86.000 431.250,86.000 434.000 C 86.000 437.778,86.367 439.000,87.500 439.000 C 88.371 439.000,89.000 439.907,89.000 441.164 C 89.000 443.796,92.071 451.000,93.192 451.000 C 93.637 451.000,94.000 451.675,94.000 452.500 C 94.000 453.325,94.675 454.000,95.500 454.000 C 96.433 454.000,97.000 454.944,97.000 456.500 C 97.000 457.875,97.450 459.000,98.000 459.000 C 98.550 459.000,99.000 459.675,99.000 460.500 C 99.000 461.325,99.675 462.000,100.500 462.000 C 101.325 462.000,102.000 462.482,102.000 463.071 C 102.000 464.456,104.544 467.000,105.929 467.000 C 106.518 467.000,107.000 467.482,107.000 468.071 C 107.000 469.456,109.544 472.000,110.929 472.000 C 111.518 472.000,112.000 472.675,112.000 473.500 C 112.000 474.325,112.627 475.000,113.393 475.000 C 114.159 475.000,115.045 475.675,115.362 476.500 C 115.678 477.325,116.851 478.000,117.969 478.000 C 119.086 478.000,120.000 478.450,120.000 479.000 C 120.000 479.550,121.125 480.000,122.500 480.000 C 124.056 480.000,125.000 480.567,125.000 481.500 C 125.000 482.433,125.944 483.000,127.500 483.000 C 128.875 483.000,130.000 483.450,130.000 484.000 C 130.000 484.550,131.800 485.000,134.000 485.000 C 136.889 485.000,138.000 485.417,138.000 486.500 C 138.000 487.601,139.144 488.000,142.300 488.000 C 144.665 488.000,147.161 488.563,147.846 489.250 C 148.611 490.018,153.601 490.758,160.796 491.170 C 167.233 491.539,174.134 492.144,176.132 492.516 C 178.393 492.936,180.019 492.778,180.441 492.096 C 180.881 491.384,186.151 491.000,195.488 491.000 C 206.927 491.000,210.163 490.694,211.357 489.500 C 212.409 488.448,214.980 488.000,219.960 488.000 C 225.351 488.000,227.201 487.639,227.638 486.500 C 228.042 485.449,229.680 485.000,233.107 485.000 C 235.798 485.000,238.000 484.550,238.000 484.000 C 238.000 483.450,239.768 483.000,241.929 483.000 C 244.089 483.000,246.532 482.325,247.357 481.500 C 248.182 480.675,250.464 480.000,252.429 480.000 C 254.393 480.000,256.000 479.550,256.000 479.000 C 256.000 478.450,257.125 478.000,258.500 478.000 C 260.056 478.000,261.000 477.433,261.000 476.500 C 261.000 474.377,272.519 474.377,274.643 476.500 C 275.468 477.325,277.461 478.000,279.071 478.000 C 280.682 478.000,282.000 478.450,282.000 479.000 C 282.000 479.550,283.800 480.000,286.000 480.000 C 288.889 480.000,290.000 480.417,290.000 481.500 C 290.000 482.583,291.111 483.000,294.000 483.000 C 296.200 483.000,298.000 483.450,298.000 484.000 C 298.000 484.550,300.250 485.000,303.000 485.000 C 306.778 485.000,308.000 485.367,308.000 486.500 C 308.000 487.627,309.205 488.000,312.846 488.000 C 315.512 488.000,319.112 488.708,320.847 489.574 C 324.924 491.607,364.078 491.328,366.152 489.250 C 366.838 488.563,369.512 488.000,372.093 488.000 C 375.342 488.000,376.963 487.538,377.362 486.500 C 377.756 485.472,379.363 485.000,382.469 485.000 C 384.961 485.000,387.000 484.550,387.000 484.000 C 387.000 483.450,388.139 483.000,389.531 483.000 C 390.924 483.000,392.322 482.325,392.638 481.500 C 392.955 480.675,394.291 480.000,395.607 480.000 C 396.923 480.000,398.000 479.550,398.000 479.000 C 398.000 478.450,398.788 477.992,399.750 477.983 C 400.712 477.973,402.562 476.846,403.860 475.477 C 405.158 474.109,407.746 472.265,409.610 471.381 C 411.475 470.496,413.000 469.148,413.000 468.386 C 413.000 467.624,413.482 467.000,414.071 467.000 C 415.456 467.000,418.000 464.456,418.000 463.071 C 418.000 462.482,418.675 462.000,419.500 462.000 C 420.433 462.000,421.000 461.056,421.000 459.500 C 421.000 457.944,421.567 457.000,422.500 457.000 C 423.325 457.000,424.000 456.325,424.000 455.500 C 424.000 454.675,424.450 454.000,425.000 454.000 C 425.550 454.000,426.000 452.636,426.000 450.969 C 426.000 449.197,426.623 447.698,427.500 447.362 C 428.478 446.986,429.000 445.431,429.000 442.893 C 429.000 440.752,429.450 439.000,430.000 439.000 C 430.633 439.000,431.000 431.686,431.000 419.059 C 431.000 406.844,430.613 398.879,430.000 398.500 C 429.450 398.160,429.000 396.164,429.000 394.063 C 429.000 391.889,428.354 389.709,427.500 389.000 C 426.675 388.315,426.000 386.712,426.000 385.437 C 426.000 384.161,425.550 382.840,425.000 382.500 C 424.450 382.160,424.000 380.994,424.000 379.910 C 424.000 378.825,423.325 377.678,422.500 377.362 C 421.675 377.045,421.000 375.709,421.000 374.393 C 421.000 372.933,420.415 372.000,419.500 372.000 C 418.675 372.000,418.000 371.139,418.000 370.086 C 418.000 369.033,416.425 366.550,414.500 364.568 C 412.575 362.585,411.000 360.793,411.000 360.585 C 411.000 358.987,393.206 341.000,391.625 341.000 C 391.321 341.000,387.088 337.024,382.220 332.165 C 377.351 327.306,371.935 322.696,370.184 321.921 C 368.433 321.146,367.000 319.947,367.000 319.256 C 367.000 318.565,366.610 318.000,366.134 318.000 C 364.848 318.000,354.000 307.349,354.000 306.086 C 354.000 305.489,353.325 305.000,352.500 305.000 C 351.667 305.000,351.000 304.111,351.000 303.000 C 351.000 301.900,350.550 301.000,350.000 301.000 C 349.450 301.000,349.000 299.861,349.000 298.469 C 349.000 297.076,348.325 295.678,347.500 295.362 C 346.522 294.986,346.000 293.431,346.000 290.893 C 346.000 288.752,345.550 287.000,345.000 287.000 C 344.417 287.000,344.000 283.667,344.000 279.000 C 344.000 274.333,344.417 271.000,345.000 271.000 C 345.589 271.000,346.000 267.476,346.000 262.429 C 346.000 256.143,346.400 253.457,347.500 252.357 C 348.522 251.335,349.000 248.810,349.000 244.429 C 349.000 240.810,349.437 238.000,350.000 238.000 C 350.550 238.000,351.000 235.805,351.000 233.122 C 351.000 230.007,351.542 227.795,352.500 227.000 C 353.486 226.182,354.000 223.950,354.000 220.485 C 354.000 216.722,354.429 215.049,355.500 214.638 C 356.528 214.244,357.000 212.637,357.000 209.531 C 357.000 207.039,357.450 205.000,358.000 205.000 C 358.550 205.000,359.000 202.525,359.000 199.500 C 359.000 195.278,359.348 194.000,360.500 194.000 C 361.633 194.000,362.000 192.778,362.000 189.000 C 362.000 186.250,362.450 184.000,363.000 184.000 C 363.550 184.000,364.000 181.798,364.000 179.107 C 364.000 175.680,364.449 174.042,365.500 173.638 C 366.555 173.234,367.000 171.588,367.000 168.090 C 367.000 165.356,367.450 162.840,368.000 162.500 C 368.550 162.160,369.000 160.135,369.000 158.000 C 369.000 155.865,368.550 153.840,368.000 153.500 C 366.574 152.619,366.761 145.639,368.250 144.150 C 369.915 142.485,369.821 114.421,368.145 112.745 C 367.515 112.115,367.000 109.945,367.000 107.922 C 367.000 105.873,366.336 103.694,365.500 103.000 C 364.675 102.315,364.000 100.262,364.000 98.437 C 364.000 96.611,363.550 94.840,363.000 94.500 C 362.450 94.160,362.000 92.784,362.000 91.441 C 362.000 89.938,361.424 89.000,360.500 89.000 C 359.417 89.000,359.000 87.889,359.000 85.000 C 359.000 82.800,358.550 81.000,358.000 81.000 C 357.450 81.000,357.000 80.086,357.000 78.969 C 357.000 77.851,356.325 76.678,355.500 76.362 C 354.675 76.045,354.000 74.709,354.000 73.393 C 354.000 71.933,353.415 71.000,352.500 71.000 C 351.567 71.000,351.000 70.056,351.000 68.500 C 351.000 67.125,350.550 66.000,350.000 66.000 C 349.450 66.000,349.000 64.875,349.000 63.500 C 349.000 61.944,348.433 61.000,347.500 61.000 C 346.556 61.000,346.000 60.048,346.000 58.429 C 346.000 57.014,345.438 55.230,344.750 54.463 C 341.782 51.154,341.000 50.023,341.000 49.042 C 341.000 48.469,340.550 48.000,340.000 48.000 C 339.450 48.000,339.000 47.325,339.000 46.500 C 339.000 45.675,338.355 45.000,337.567 45.000 C 336.779 45.000,335.849 44.100,335.500 43.000 C 335.151 41.900,334.446 41.000,333.933 41.000 C 333.420 41.000,333.000 40.510,333.000 39.910 C 333.000 38.539,328.919 35.078,327.250 35.033 C 326.563 35.015,326.000 34.325,326.000 33.500 C 326.000 32.675,325.325 32.000,324.500 32.000 C 323.675 32.000,323.000 31.550,323.000 31.000 C 323.000 30.450,321.875 30.000,320.500 30.000 C 318.944 30.000,318.000 29.433,318.000 28.500 C 318.000 27.649,317.103 27.000,315.929 27.000 C 314.789 27.000,313.182 26.325,312.357 25.500 C 311.475 24.618,309.032 24.000,306.429 24.000 C 303.993 24.000,302.000 23.550,302.000 23.000 C 302.000 21.639,298.258 21.725,297.801 23.097 M284.083 42.000 C 286.238 42.000,288.000 42.420,288.000 42.933 C 288.000 43.446,288.992 44.180,290.203 44.565 C 291.415 44.949,293.022 45.879,293.775 46.632 C 294.527 47.384,296.236 48.000,297.571 48.000 C 298.907 48.000,300.000 48.477,300.000 49.060 C 300.000 52.587,307.508 49.405,307.810 45.750 C 308.129 41.903,309.339 40.835,310.362 43.500 C 310.678 44.325,311.648 45.000,312.516 45.000 C 313.385 45.000,315.138 46.125,316.412 47.500 C 317.687 48.875,318.981 50.000,319.288 50.000 C 319.977 50.000,326.000 55.965,326.000 56.648 C 326.000 57.569,328.850 60.000,329.929 60.000 C 330.518 60.000,331.000 60.511,331.000 61.135 C 331.000 61.760,332.125 63.313,333.500 64.588 C 334.875 65.862,336.000 67.826,336.000 68.952 C 336.000 70.106,336.655 71.000,337.500 71.000 C 338.325 71.000,339.000 71.639,339.000 72.419 C 339.000 74.203,342.244 79.985,343.250 79.994 C 343.663 79.997,344.000 81.350,344.000 83.000 C 344.000 84.650,344.450 86.000,345.000 86.000 C 345.550 86.000,346.000 87.125,346.000 88.500 C 346.000 90.056,346.567 91.000,347.500 91.000 C 348.583 91.000,349.000 92.111,349.000 95.000 C 349.000 97.200,349.435 99.000,349.966 99.000 C 350.497 99.000,351.230 101.250,351.594 104.000 C 351.959 106.750,352.650 109.000,353.129 109.000 C 354.348 109.000,354.225 124.743,353.000 125.500 C 352.450 125.840,352.000 126.991,352.000 128.059 C 352.000 129.127,351.325 130.000,350.500 130.000 C 349.675 130.000,349.000 130.675,349.000 131.500 C 349.000 132.325,348.518 133.000,347.929 133.000 C 346.544 133.000,344.000 135.544,344.000 136.929 C 344.000 137.518,342.875 138.000,341.500 138.000 C 340.125 138.000,339.000 138.401,339.000 138.892 C 339.000 139.382,337.875 140.066,336.500 140.411 C 335.125 140.756,334.000 141.480,334.000 142.019 C 334.000 142.559,332.930 143.000,331.622 143.000 C 330.315 143.000,328.685 143.675,328.000 144.500 C 327.315 145.325,325.460 146.000,323.878 146.000 C 322.295 146.000,321.000 146.450,321.000 147.000 C 321.000 147.550,318.580 148.000,315.622 148.000 C 312.062 148.000,309.824 148.507,309.000 149.500 C 308.150 150.524,305.879 151.000,301.846 151.000 C 295.205 151.000,293.682 152.438,296.651 155.906 C 298.376 157.920,299.333 158.000,321.722 158.000 C 343.667 158.000,345.115 158.115,347.000 160.000 C 349.374 162.374,349.578 164.000,347.500 164.000 C 346.321 164.000,346.000 165.389,346.000 170.500 C 346.000 174.167,345.564 177.000,345.000 177.000 C 344.443 177.000,344.000 179.690,344.000 183.071 C 344.000 187.135,343.504 189.639,342.500 190.643 C 341.577 191.565,341.000 194.017,341.000 197.012 C 341.000 199.691,340.550 202.160,340.000 202.500 C 339.450 202.840,339.000 205.791,339.000 209.059 C 339.000 213.673,338.665 215.000,337.500 215.000 C 336.331 215.000,336.000 216.341,336.000 221.071 C 336.000 225.135,335.504 227.639,334.500 228.643 C 333.618 229.525,333.000 231.968,333.000 234.571 C 333.000 237.007,332.550 239.000,332.000 239.000 C 331.438 239.000,331.000 241.793,331.000 245.378 C 331.000 249.827,330.546 252.132,329.500 253.000 C 328.415 253.901,328.000 256.285,328.000 261.622 C 328.000 265.874,327.576 269.000,327.000 269.000 C 326.376 269.000,326.000 274.833,326.000 284.500 C 326.000 294.167,326.376 300.000,327.000 300.000 C 327.550 300.000,328.000 301.093,328.000 302.429 C 328.000 303.764,328.675 305.532,329.500 306.357 C 330.325 307.182,331.000 308.118,331.000 308.437 C 331.000 309.679,336.404 315.000,337.665 315.000 C 338.399 315.000,339.000 315.482,339.000 316.071 C 339.000 317.597,341.222 319.618,343.797 320.435 C 345.008 320.820,346.000 321.554,346.000 322.067 C 346.000 322.580,346.627 323.000,347.393 323.000 C 348.159 323.000,349.045 323.675,349.362 324.500 C 349.678 325.325,350.851 326.000,351.969 326.000 C 353.086 326.000,354.000 326.450,354.000 327.000 C 354.000 327.550,354.675 328.000,355.500 328.000 C 356.325 328.000,357.000 328.482,357.000 329.071 C 357.000 330.676,359.638 333.000,361.460 333.000 C 362.342 333.000,363.322 333.675,363.638 334.500 C 363.955 335.325,364.841 336.000,365.607 336.000 C 366.373 336.000,367.000 336.675,367.000 337.500 C 367.000 338.325,367.439 339.000,367.976 339.000 C 369.267 339.000,390.000 359.709,390.000 360.999 C 390.000 361.550,390.513 362.000,391.140 362.000 C 392.677 362.000,394.929 365.089,394.968 367.250 C 394.986 368.212,395.675 369.000,396.500 369.000 C 397.325 369.000,398.000 369.675,398.000 370.500 C 398.000 371.325,398.450 372.000,399.000 372.000 C 399.550 372.000,400.000 373.125,400.000 374.500 C 400.000 376.056,400.567 377.000,401.500 377.000 C 402.433 377.000,403.000 377.944,403.000 379.500 C 403.000 381.056,403.567 382.000,404.500 382.000 C 405.583 382.000,406.000 383.111,406.000 386.000 C 406.000 388.200,406.450 390.000,407.000 390.000 C 407.550 390.000,408.000 392.039,408.000 394.531 C 408.000 397.637,408.472 399.244,409.500 399.638 C 410.756 400.120,411.000 403.133,411.000 418.178 C 411.000 432.813,410.722 436.421,409.500 437.643 C 408.675 438.468,408.000 440.236,408.000 441.571 C 408.000 442.907,407.550 444.000,407.000 444.000 C 406.450 444.000,406.000 445.077,406.000 446.393 C 406.000 447.709,405.325 449.045,404.500 449.362 C 403.675 449.678,403.000 451.076,403.000 452.469 C 403.000 453.861,402.518 455.000,401.929 455.000 C 400.544 455.000,398.000 457.544,398.000 458.929 C 398.000 459.518,397.518 460.000,396.929 460.000 C 395.544 460.000,393.000 462.544,393.000 463.929 C 393.000 464.518,391.875 465.000,390.500 465.000 C 389.125 465.000,388.000 465.401,388.000 465.892 C 388.000 466.382,386.875 467.066,385.500 467.411 C 384.125 467.756,383.000 468.480,383.000 469.019 C 383.000 469.559,381.650 470.000,380.000 470.000 C 378.000 470.000,377.000 470.500,377.000 471.500 C 377.000 472.543,375.951 473.000,373.559 473.000 C 371.666 473.000,369.840 473.450,369.500 474.000 C 369.160 474.550,365.589 475.000,361.563 475.000 C 356.278 475.000,353.899 475.417,353.000 476.500 C 351.191 478.680,332.198 478.680,331.362 476.500 C 330.960 475.453,329.326 475.000,325.952 475.000 C 323.293 475.000,320.840 474.550,320.500 474.000 C 320.160 473.450,318.334 473.000,316.441 473.000 C 314.049 473.000,313.000 472.543,313.000 471.500 C 313.000 470.424,311.901 470.000,309.107 470.000 C 306.569 470.000,305.014 469.478,304.638 468.500 C 304.322 467.675,303.149 467.000,302.031 467.000 C 300.914 467.000,300.000 466.550,300.000 466.000 C 300.000 465.450,298.923 465.000,297.607 465.000 C 296.291 465.000,294.955 464.325,294.638 463.500 C 294.322 462.675,293.149 462.000,292.031 462.000 C 290.914 462.000,290.000 461.550,290.000 461.000 C 290.000 460.450,289.325 460.000,288.500 460.000 C 287.675 460.000,286.983 459.438,286.962 458.750 C 286.883 456.155,278.782 451.578,277.462 453.383 C 276.812 454.272,275.317 455.000,274.140 455.000 C 272.963 455.000,272.000 455.450,272.000 456.000 C 272.000 456.550,270.875 457.000,269.500 457.000 C 267.944 457.000,267.000 457.567,267.000 458.500 C 267.000 459.583,265.889 460.000,263.000 460.000 C 260.800 460.000,259.000 460.450,259.000 461.000 C 259.000 461.550,257.875 462.000,256.500 462.000 C 254.944 462.000,254.000 462.567,254.000 463.500 C 254.000 464.583,252.889 465.000,250.000 465.000 C 247.800 465.000,246.000 465.450,246.000 466.000 C 246.000 466.550,244.682 467.000,243.071 467.000 C 241.461 467.000,239.468 467.675,238.643 468.500 C 237.818 469.325,235.761 470.000,234.071 470.000 C 232.008 470.000,231.000 470.492,231.000 471.500 C 231.000 472.631,229.784 473.000,226.059 473.000 C 223.341 473.000,220.840 473.450,220.500 474.000 C 220.160 474.550,217.194 475.000,213.910 475.000 C 209.523 475.000,207.784 475.398,207.362 476.500 C 206.497 478.754,163.000 478.754,163.000 476.500 C 163.000 475.367,161.778 475.000,158.000 475.000 C 155.250 475.000,153.000 474.550,153.000 474.000 C 153.000 473.450,151.200 473.000,149.000 473.000 C 146.111 473.000,145.000 472.583,145.000 471.500 C 145.000 470.585,144.067 470.000,142.607 470.000 C 141.291 470.000,139.955 469.325,139.638 468.500 C 139.322 467.675,138.149 467.000,137.031 467.000 C 135.914 467.000,135.000 466.550,135.000 466.000 C 135.000 465.450,134.325 465.000,133.500 465.000 C 132.675 465.000,132.000 464.580,132.000 464.067 C 132.000 463.554,131.008 462.820,129.797 462.435 C 127.222 461.618,125.000 459.597,125.000 458.071 C 125.000 457.482,124.535 457.000,123.966 457.000 C 122.921 457.000,117.000 451.386,117.000 450.394 C 117.000 449.487,114.201 447.000,113.180 447.000 C 112.650 447.000,111.934 445.875,111.589 444.500 C 111.244 443.125,110.520 442.000,109.981 442.000 C 109.441 442.000,109.000 441.325,109.000 440.500 C 109.000 439.675,108.550 439.000,108.000 439.000 C 107.450 439.000,107.000 437.875,107.000 436.500 C 107.000 434.944,106.433 434.000,105.500 434.000 C 104.457 434.000,104.000 432.951,104.000 430.559 C 104.000 428.666,103.550 426.840,103.000 426.500 C 101.659 425.671,101.659 400.000,103.000 400.000 C 103.550 400.000,104.000 398.248,104.000 396.107 C 104.000 393.569,104.522 392.014,105.500 391.638 C 106.325 391.322,107.000 390.175,107.000 389.090 C 107.000 388.006,107.450 386.840,108.000 386.500 C 108.550 386.160,109.000 385.009,109.000 383.941 C 109.000 382.873,109.675 382.000,110.500 382.000 C 111.433 382.000,112.000 381.056,112.000 379.500 C 112.000 378.122,112.580 377.000,113.293 377.000 C 114.005 377.000,115.917 374.759,117.543 372.020 C 119.169 369.281,120.838 367.031,121.250 367.020 C 121.662 367.009,122.000 366.325,122.000 365.500 C 122.000 364.675,122.482 364.000,123.071 364.000 C 124.456 364.000,127.000 361.456,127.000 360.071 C 127.000 359.482,127.485 359.000,128.077 359.000 C 129.476 359.000,135.000 353.476,135.000 352.077 C 135.000 351.485,135.675 351.000,136.500 351.000 C 137.325 351.000,138.000 350.550,138.000 350.000 C 138.000 349.450,138.837 349.000,139.860 349.000 C 140.883 349.000,142.565 347.875,143.597 346.500 C 144.645 345.105,146.489 344.000,147.769 344.000 C 149.030 344.000,150.322 343.325,150.638 342.500 C 150.955 341.675,152.291 341.000,153.607 341.000 C 154.923 341.000,156.000 340.550,156.000 340.000 C 156.000 339.450,156.914 339.000,158.031 339.000 C 159.149 339.000,160.322 338.325,160.638 337.500 C 160.994 336.574,162.513 336.000,164.607 336.000 C 166.956 336.000,168.000 335.539,168.000 334.500 C 168.000 333.457,169.049 333.000,171.441 333.000 C 173.334 333.000,175.160 332.550,175.500 332.000 C 175.840 331.450,177.681 331.000,179.590 331.000 C 181.754 331.000,183.280 330.435,183.638 329.500 C 184.042 328.449,185.680 328.000,189.107 328.000 C 191.798 328.000,194.000 327.550,194.000 327.000 C 194.000 326.450,195.116 326.000,196.481 326.000 C 200.224 326.000,201.461 309.061,197.972 305.572 C 196.210 303.810,196.705 206.794,198.494 203.364 C 199.519 201.398,199.990 197.443,199.994 190.750 C 199.998 184.921,200.402 181.000,201.000 181.000 C 201.553 181.000,202.000 178.374,202.000 175.122 C 202.000 171.118,202.478 168.848,203.500 168.000 C 204.354 167.291,205.000 165.111,205.000 162.937 C 205.000 160.836,205.450 158.840,206.000 158.500 C 206.550 158.160,207.000 156.784,207.000 155.441 C 207.000 154.098,207.482 153.000,208.071 153.000 C 209.456 153.000,212.000 150.456,212.000 149.071 C 212.000 148.404,214.842 148.000,219.531 148.000 C 227.527 148.000,230.369 146.205,226.662 143.495 C 225.748 142.827,225.000 141.959,225.000 141.568 C 225.000 140.475,222.275 138.000,221.071 138.000 C 220.482 138.000,220.000 137.166,220.000 136.146 C 220.000 135.126,218.875 133.078,217.500 131.595 C 215.996 129.972,215.000 127.710,215.000 125.917 C 215.000 124.191,214.369 122.695,213.500 122.362 C 212.588 122.012,212.000 120.498,212.000 118.500 C 212.000 116.502,212.588 114.988,213.500 114.638 C 214.429 114.282,215.000 112.760,215.000 110.638 C 215.000 108.517,215.571 106.995,216.500 106.638 C 217.325 106.322,218.000 105.175,218.000 104.090 C 218.000 103.006,218.450 101.840,219.000 101.500 C 219.550 101.160,220.000 100.009,220.000 98.941 C 220.000 97.873,220.451 97.000,221.003 97.000 C 221.555 97.000,222.786 95.200,223.739 93.000 C 224.692 90.800,225.928 88.996,226.486 88.992 C 227.590 88.984,230.000 84.395,230.000 82.301 C 230.000 81.585,230.675 81.000,231.500 81.000 C 232.325 81.000,233.000 80.529,233.000 79.952 C 233.000 79.376,234.125 77.862,235.500 76.588 C 236.875 75.313,238.000 73.535,238.000 72.635 C 238.000 71.736,238.675 71.000,239.500 71.000 C 240.325 71.000,241.000 70.520,241.000 69.933 C 241.000 69.346,242.575 67.380,244.500 65.565 C 246.425 63.749,248.000 61.754,248.000 61.132 C 248.000 60.509,248.599 60.000,249.331 60.000 C 250.063 60.000,251.264 58.875,252.000 57.500 C 252.736 56.125,253.771 55.000,254.301 55.000 C 254.831 55.000,256.690 53.538,258.432 51.750 C 261.909 48.183,264.568 46.255,267.250 45.354 C 268.212 45.031,269.000 44.144,269.000 43.383 C 269.000 42.390,270.410 42.000,274.000 42.000 C 277.291 42.000,279.027 41.573,279.079 40.750 C 279.142 39.750,279.259 39.750,279.662 40.750 C 279.945 41.451,281.886 42.000,284.083 42.000 " stroke="none" fill="#000000" fill-rule="evenodd"></path></g></svg>