<svg id="svg" version="1.1" width="515" height="515" xmlns="http://www.w3.org/2000/svg" xmlns:xlink="http://www.w3.org/1999/xlink" style="display: block;"><g id="svgg"><path id="path0" d="M245.703 0.771 C 239.123 1.001,236.766 1.447,236.346 2.540 C 236.038 3.343,234.635 4.000,233.229 4.000 C 230.292 4.000,223.000 6.989,223.000 8.192 C 223.000 8.637,221.875 9.000,220.500 9.000 C 218.944 9.000,218.000 9.567,218.000 10.500 C 218.000 11.325,217.325 12.000,216.500 12.000 C 215.675 12.000,215.000 12.450,215.000 13.000 C 215.000 13.550,214.395 14.000,213.656 14.000 C 212.916 14.000,211.004 15.124,209.406 16.499 C 207.807 17.873,206.162 18.998,205.750 18.999 C 205.338 18.999,205.000 19.675,205.000 20.500 C 205.000 21.325,204.325 22.000,203.500 22.000 C 202.675 22.000,202.000 22.675,202.000 23.500 C 202.000 24.325,201.550 25.000,201.000 25.000 C 200.450 25.000,200.000 25.482,200.000 26.071 C 200.000 26.661,199.438 27.770,198.750 28.537 C 195.361 32.316,194.371 33.767,191.790 38.743 C 190.255 41.700,189.000 44.993,189.000 46.060 C 189.000 47.127,188.550 48.000,188.000 48.000 C 187.450 48.000,187.000 49.752,187.000 51.893 C 187.000 54.431,186.478 55.986,185.500 56.362 C 184.178 56.869,184.000 71.363,184.000 178.469 L 184.000 300.000 180.622 300.000 C 178.763 300.000,176.655 299.289,175.932 298.419 C 174.240 296.379,151.937 296.678,151.249 298.750 C 150.975 299.575,148.676 300.000,144.488 300.000 C 140.181 300.000,137.661 300.482,136.643 301.500 C 135.818 302.325,133.536 303.000,131.571 303.000 C 129.607 303.000,128.000 303.450,128.000 304.000 C 128.000 304.550,126.411 305.000,124.469 305.000 C 122.252 305.000,120.723 305.559,120.362 306.500 C 120.045 307.325,118.709 308.000,117.393 308.000 C 116.077 308.000,115.000 308.450,115.000 309.000 C 115.000 309.550,113.875 310.000,112.500 310.000 C 110.944 310.000,110.000 310.567,110.000 311.500 C 110.000 312.325,109.325 313.000,108.500 313.000 C 107.675 313.000,107.000 313.450,107.000 314.000 C 107.000 314.550,106.086 315.000,104.969 315.000 C 103.851 315.000,102.678 315.675,102.362 316.500 C 102.045 317.325,101.159 318.000,100.393 318.000 C 99.627 318.000,99.000 318.675,99.000 319.500 C 99.000 320.328,98.114 321.000,97.022 321.000 C 94.972 321.000,84.000 331.056,84.000 332.935 C 84.000 333.521,83.518 334.000,82.929 334.000 C 81.164 334.000,79.000 336.715,79.000 338.929 C 79.000 340.103,78.351 341.000,77.500 341.000 C 76.675 341.000,76.000 341.675,76.000 342.500 C 76.000 343.325,75.325 344.000,74.500 344.000 C 73.675 344.000,73.000 344.675,73.000 345.500 C 73.000 346.325,72.550 347.000,72.000 347.000 C 71.450 347.000,71.000 348.125,71.000 349.500 C 71.000 351.056,70.433 352.000,69.500 352.000 C 68.567 352.000,68.000 352.944,68.000 354.500 C 68.000 355.875,67.550 357.000,67.000 357.000 C 66.450 357.000,66.000 358.125,66.000 359.500 C 66.000 361.056,65.433 362.000,64.500 362.000 C 63.457 362.000,63.000 363.049,63.000 365.441 C 63.000 367.334,62.550 369.160,62.000 369.500 C 61.450 369.840,61.000 371.666,61.000 373.559 C 61.000 375.951,60.543 377.000,59.500 377.000 C 58.361 377.000,57.992 378.264,57.968 382.250 C 57.950 385.272,57.313 388.324,56.468 389.441 C 54.305 392.302,54.332 421.201,56.500 423.000 C 57.522 423.848,58.000 426.118,58.000 430.122 C 58.000 434.680,58.337 436.000,59.500 436.000 C 60.583 436.000,61.000 437.111,61.000 440.000 C 61.000 442.200,61.450 444.000,62.000 444.000 C 62.550 444.000,63.000 445.589,63.000 447.531 C 63.000 449.748,63.559 451.277,64.500 451.638 C 65.325 451.955,66.000 453.291,66.000 454.607 C 66.000 455.923,66.450 457.000,67.000 457.000 C 67.550 457.000,68.000 457.914,68.000 459.031 C 68.000 460.149,68.675 461.322,69.500 461.638 C 70.325 461.955,71.000 462.841,71.000 463.607 C 71.000 464.373,71.450 465.000,72.000 465.000 C 72.550 465.000,73.000 465.800,73.000 466.778 C 73.000 468.608,76.255 472.000,78.011 472.000 C 78.555 472.000,79.000 472.834,79.000 473.854 C 79.000 474.874,80.125 476.922,81.500 478.405 C 82.875 479.889,84.000 481.337,84.000 481.623 C 84.000 482.308,86.706 485.000,87.394 485.000 C 87.689 485.000,89.312 486.350,91.000 488.000 C 92.688 489.650,94.534 491.000,95.102 491.000 C 95.670 491.000,97.620 492.575,99.435 494.500 C 101.251 496.425,103.696 498.000,104.868 498.000 C 106.096 498.000,107.000 498.636,107.000 499.500 C 107.000 500.433,107.944 501.000,109.500 501.000 C 110.875 501.000,112.000 501.450,112.000 502.000 C 112.000 502.550,113.125 503.000,114.500 503.000 C 116.056 503.000,117.000 503.567,117.000 504.500 C 117.000 505.351,117.897 506.000,119.071 506.000 C 120.211 506.000,121.818 506.675,122.643 507.500 C 123.468 508.325,125.461 509.000,127.071 509.000 C 128.682 509.000,130.000 509.450,130.000 510.000 C 130.000 510.550,131.607 511.000,133.571 511.000 C 135.536 511.000,137.818 511.675,138.643 512.500 C 141.169 515.026,186.621 514.949,188.610 512.415 C 189.244 511.608,191.473 511.000,193.801 511.000 C 196.046 511.000,198.160 510.550,198.500 510.000 C 198.840 509.450,200.231 509.000,201.590 509.000 C 202.950 509.000,204.322 508.325,204.638 507.500 C 204.968 506.640,206.461 506.000,208.138 506.000 C 209.815 506.000,211.308 505.360,211.638 504.500 C 211.955 503.675,213.291 503.000,214.607 503.000 C 215.923 503.000,217.000 502.550,217.000 502.000 C 217.000 501.450,217.675 501.000,218.500 501.000 C 219.325 501.000,220.000 500.325,220.000 499.500 C 220.000 498.567,220.944 498.000,222.500 498.000 C 223.875 498.000,225.000 497.550,225.000 497.000 C 225.000 496.450,225.675 496.000,226.500 496.000 C 227.325 496.000,228.000 495.325,228.000 494.500 C 228.000 493.675,228.787 492.992,229.750 492.983 C 230.713 492.973,232.560 491.848,233.855 490.483 C 235.150 489.117,236.613 488.000,237.105 488.000 C 237.597 488.000,238.000 487.325,238.000 486.500 C 238.000 485.675,238.482 485.000,239.071 485.000 C 240.456 485.000,243.000 482.456,243.000 481.071 C 243.000 480.482,243.675 480.000,244.500 480.000 C 245.325 480.000,246.000 479.597,246.000 479.105 C 246.000 478.613,247.117 477.150,248.483 475.855 C 249.848 474.560,250.973 472.712,250.983 471.750 C 250.992 470.788,251.675 470.000,252.500 470.000 C 253.325 470.000,254.000 469.325,254.000 468.500 C 254.000 467.675,254.450 467.000,255.000 467.000 C 255.550 467.000,256.000 465.875,256.000 464.500 C 256.000 462.944,256.567 462.000,257.500 462.000 C 258.433 462.000,259.000 462.944,259.000 464.500 C 259.000 465.875,259.450 467.000,260.000 467.000 C 260.550 467.000,261.000 467.675,261.000 468.500 C 261.000 469.325,261.675 470.000,262.500 470.000 C 263.341 470.000,264.000 470.892,264.000 472.031 C 264.000 473.149,264.675 474.322,265.500 474.638 C 266.325 474.955,267.000 475.648,267.000 476.178 C 267.000 477.476,269.595 480.000,270.929 480.000 C 271.518 480.000,272.000 480.482,272.000 481.071 C 272.000 482.456,274.544 485.000,275.929 485.000 C 276.518 485.000,277.000 485.675,277.000 486.500 C 277.000 487.325,277.403 488.000,277.895 488.000 C 278.387 488.000,279.850 489.117,281.145 490.483 C 282.440 491.848,284.288 492.973,285.250 492.983 C 286.212 492.992,287.000 493.675,287.000 494.500 C 287.000 495.325,287.675 496.000,288.500 496.000 C 289.325 496.000,290.000 496.450,290.000 497.000 C 290.000 497.550,291.125 498.000,292.500 498.000 C 294.056 498.000,295.000 498.567,295.000 499.500 C 295.000 500.325,295.675 501.000,296.500 501.000 C 297.325 501.000,298.000 501.450,298.000 502.000 C 298.000 502.550,299.077 503.000,300.393 503.000 C 301.709 503.000,303.045 503.675,303.362 504.500 C 303.692 505.360,305.185 506.000,306.862 506.000 C 308.539 506.000,310.032 506.640,310.362 507.500 C 310.678 508.325,312.050 509.000,313.410 509.000 C 314.769 509.000,316.160 509.450,316.500 510.000 C 316.840 510.550,318.954 511.000,321.199 511.000 C 323.751 511.000,325.709 511.587,326.426 512.568 C 328.144 514.917,371.939 514.926,375.522 512.578 C 376.846 511.710,379.520 511.000,381.465 511.000 C 383.409 511.000,385.000 510.608,385.000 510.128 C 385.000 509.648,386.800 508.968,389.000 508.616 C 391.200 508.264,393.000 507.532,393.000 506.988 C 393.000 506.445,394.125 506.000,395.500 506.000 C 397.056 506.000,398.000 505.433,398.000 504.500 C 398.000 503.567,398.944 503.000,400.500 503.000 C 401.875 503.000,403.000 502.550,403.000 502.000 C 403.000 501.450,404.125 501.000,405.500 501.000 C 407.056 501.000,408.000 500.433,408.000 499.500 C 408.000 498.636,408.904 498.000,410.132 498.000 C 411.304 498.000,413.749 496.425,415.565 494.500 C 417.380 492.575,419.330 491.000,419.898 491.000 C 420.466 491.000,422.312 489.650,424.000 488.000 C 425.688 486.350,427.503 485.000,428.034 485.000 C 428.566 485.000,429.000 484.663,429.001 484.250 C 429.001 483.837,430.576 481.731,432.501 479.568 C 434.425 477.406,436.000 474.818,436.000 473.818 C 436.000 472.818,436.510 472.000,437.133 472.000 C 438.617 472.000,442.000 468.071,442.000 466.347 C 442.000 465.606,442.450 465.000,443.000 465.000 C 443.550 465.000,444.000 464.325,444.000 463.500 C 444.000 462.675,444.441 462.000,444.981 462.000 C 445.520 462.000,446.244 460.875,446.589 459.500 C 446.934 458.125,447.618 457.000,448.108 457.000 C 448.599 457.000,449.000 455.923,449.000 454.607 C 449.000 453.291,449.675 451.955,450.500 451.638 C 451.441 451.277,452.000 449.748,452.000 447.531 C 452.000 445.589,452.450 444.000,453.000 444.000 C 453.550 444.000,454.000 442.200,454.000 440.000 C 454.000 437.111,454.417 436.000,455.500 436.000 C 456.677 436.000,457.000 434.623,457.000 429.607 C 457.000 424.847,457.383 423.067,458.500 422.638 C 459.744 422.161,460.000 419.411,460.000 406.500 C 460.000 393.589,459.744 390.839,458.500 390.362 C 457.383 389.933,457.000 388.153,457.000 383.393 C 457.000 378.377,456.677 377.000,455.500 377.000 C 454.452 377.000,454.000 375.944,454.000 373.500 C 454.000 371.575,453.550 370.000,453.000 370.000 C 452.450 370.000,452.000 368.200,452.000 366.000 C 452.000 363.111,451.583 362.000,450.500 362.000 C 449.567 362.000,449.000 361.056,449.000 359.500 C 449.000 358.125,448.550 357.000,448.000 357.000 C 447.450 357.000,447.000 355.875,447.000 354.500 C 447.000 352.944,446.433 352.000,445.500 352.000 C 444.675 352.000,444.000 351.415,444.000 350.699 C 444.000 348.404,441.541 344.016,440.250 344.008 C 439.563 344.004,439.000 343.325,439.000 342.500 C 439.000 341.675,438.325 341.000,437.500 341.000 C 436.649 341.000,436.000 340.103,436.000 338.929 C 436.000 336.715,433.836 334.000,432.071 334.000 C 431.482 334.000,431.000 333.521,431.000 332.935 C 431.000 331.056,420.028 321.000,417.978 321.000 C 416.886 321.000,416.000 320.328,416.000 319.500 C 416.000 318.675,415.373 318.000,414.607 318.000 C 413.841 318.000,412.955 317.325,412.638 316.500 C 412.322 315.675,411.149 315.000,410.031 315.000 C 408.914 315.000,408.000 314.550,408.000 314.000 C 408.000 313.450,407.373 313.000,406.607 313.000 C 405.841 313.000,404.955 312.325,404.638 311.500 C 404.322 310.675,403.149 310.000,402.031 310.000 C 400.914 310.000,400.000 309.550,400.000 309.000 C 400.000 308.450,398.923 308.000,397.607 308.000 C 396.291 308.000,394.955 307.325,394.638 306.500 C 394.277 305.559,392.748 305.000,390.531 305.000 C 388.589 305.000,387.000 304.550,387.000 304.000 C 387.000 303.450,385.393 303.000,383.429 303.000 C 381.464 303.000,379.182 302.325,378.357 301.500 C 377.339 300.482,374.819 300.000,370.512 300.000 C 366.324 300.000,364.025 299.575,363.751 298.750 C 363.063 296.678,340.760 296.379,339.068 298.419 C 338.345 299.289,336.237 300.000,334.378 300.000 L 331.000 300.000 331.000 179.071 C 331.000 72.913,330.817 57.960,329.500 56.643 C 328.675 55.818,328.000 53.536,328.000 51.571 C 328.000 49.607,327.550 48.000,327.000 48.000 C 326.450 48.000,326.000 47.057,326.000 45.904 C 326.000 43.750,323.087 37.761,321.750 37.167 C 321.337 36.983,321.000 36.071,321.000 35.139 C 321.000 33.375,317.708 30.000,315.989 30.000 C 315.445 30.000,315.000 28.875,315.000 27.500 C 315.000 26.125,314.550 25.000,314.000 25.000 C 313.450 25.000,313.000 24.325,313.000 23.500 C 313.000 22.675,312.325 22.000,311.500 22.000 C 310.675 22.000,309.983 21.438,309.962 20.750 C 309.922 19.439,302.690 14.000,300.987 14.000 C 300.444 14.000,300.000 13.550,300.000 13.000 C 300.000 12.450,299.325 12.000,298.500 12.000 C 297.675 12.000,297.000 11.325,297.000 10.500 C 297.000 9.580,296.065 9.000,294.583 9.000 C 293.254 9.000,292.017 8.662,291.833 8.250 C 291.203 6.833,284.836 4.000,282.279 4.000 C 280.872 4.000,279.221 3.378,278.610 2.619 C 277.392 1.103,261.566 0.214,245.703 0.771 M243.000 45.000 L 243.000 58.000 230.500 58.000 L 218.000 58.000 218.000 55.500 C 218.000 54.125,218.450 53.000,219.000 53.000 C 219.550 53.000,220.000 52.325,220.000 51.500 C 220.000 50.675,220.451 50.000,221.003 50.000 C 221.555 50.000,222.786 48.200,223.739 46.000 C 224.692 43.800,226.041 42.000,226.736 42.000 C 227.431 42.000,228.000 41.550,228.000 41.000 C 228.000 40.450,228.914 40.000,230.031 40.000 C 231.149 40.000,232.322 39.325,232.638 38.500 C 232.955 37.675,233.841 37.000,234.607 37.000 C 235.373 37.000,236.000 36.550,236.000 36.000 C 236.000 35.450,236.914 35.000,238.031 35.000 C 239.149 35.000,240.322 34.325,240.638 33.500 C 242.213 29.396,243.000 33.227,243.000 45.000 M274.362 33.500 C 274.678 34.325,275.851 35.000,276.969 35.000 C 278.086 35.000,279.000 35.450,279.000 36.000 C 279.000 36.550,279.675 37.000,280.500 37.000 C 281.325 37.000,282.000 37.451,282.000 38.003 C 282.000 38.555,283.757 39.767,285.904 40.697 C 288.931 42.009,290.090 43.244,291.064 46.194 C 291.755 48.287,292.923 50.000,293.660 50.000 C 294.397 50.000,295.000 50.675,295.000 51.500 C 295.000 52.325,295.450 53.000,296.000 53.000 C 296.550 53.000,297.000 54.125,297.000 55.500 L 297.000 58.000 284.500 58.000 L 272.000 58.000 272.000 45.000 C 272.000 33.227,272.787 29.396,274.362 33.500 M303.000 215.000 C 303.000 340.333,303.011 341.000,305.000 341.000 C 306.100 341.000,307.000 340.550,307.000 340.000 C 307.000 339.450,308.139 339.000,309.531 339.000 C 310.924 339.000,312.322 338.325,312.638 337.500 C 312.988 336.588,314.502 336.000,316.500 336.000 C 318.498 336.000,320.012 335.412,320.362 334.500 C 320.678 333.675,322.076 333.000,323.469 333.000 C 324.861 333.000,326.000 332.550,326.000 332.000 C 326.000 331.450,328.250 331.000,331.000 331.000 C 334.778 331.000,336.000 330.633,336.000 329.500 C 336.000 328.231,338.389 328.000,351.500 328.000 C 364.611 328.000,367.000 328.231,367.000 329.500 C 367.000 330.583,368.111 331.000,371.000 331.000 C 373.200 331.000,375.000 331.450,375.000 332.000 C 375.000 332.550,376.527 333.000,378.393 333.000 C 380.487 333.000,382.006 333.574,382.362 334.500 C 382.678 335.325,384.076 336.000,385.469 336.000 C 386.964 336.000,388.000 336.569,388.000 337.392 C 388.000 338.157,389.090 339.057,390.423 339.391 C 391.755 339.726,394.196 341.349,395.846 343.000 C 397.496 344.650,399.781 346.000,400.923 346.000 C 402.103 346.000,403.000 346.648,403.000 347.500 C 403.000 348.325,403.482 349.000,404.071 349.000 C 405.456 349.000,408.000 351.544,408.000 352.929 C 408.000 353.518,408.675 354.000,409.500 354.000 C 410.325 354.000,411.000 354.861,411.000 355.914 C 411.000 356.967,412.575 359.450,414.500 361.432 C 416.425 363.415,418.000 365.717,418.000 366.550 C 418.000 367.382,418.675 368.322,419.500 368.638 C 420.325 368.955,421.000 370.305,421.000 371.638 C 421.000 372.972,421.675 374.322,422.500 374.638 C 423.325 374.955,424.000 376.291,424.000 377.607 C 424.000 378.923,424.450 380.000,425.000 380.000 C 425.550 380.000,426.000 381.768,426.000 383.929 C 426.000 386.089,426.675 388.532,427.500 389.357 C 428.713 390.570,429.000 394.032,429.000 407.429 C 429.000 421.492,428.773 424.000,427.500 424.000 C 426.417 424.000,426.000 425.111,426.000 428.000 C 426.000 430.200,425.550 432.000,425.000 432.000 C 424.450 432.000,424.000 433.575,424.000 435.500 C 424.000 437.944,423.548 439.000,422.500 439.000 C 421.675 439.000,421.000 439.877,421.000 440.948 C 421.000 442.020,419.875 444.111,418.500 445.595 C 417.125 447.078,416.000 449.126,416.000 450.146 C 416.000 451.166,415.325 452.000,414.500 452.000 C 413.675 452.000,413.000 452.466,413.000 453.036 C 413.000 455.246,398.134 470.000,395.907 470.000 C 395.408 470.000,395.000 470.675,395.000 471.500 C 395.000 472.433,394.056 473.000,392.500 473.000 C 391.125 473.000,390.000 473.450,390.000 474.000 C 390.000 474.550,389.086 475.000,387.969 475.000 C 386.851 475.000,385.678 475.675,385.362 476.500 C 385.045 477.325,383.709 478.000,382.393 478.000 C 381.077 478.000,380.000 478.450,380.000 479.000 C 380.000 479.550,378.923 480.000,377.607 480.000 C 376.291 480.000,374.955 480.675,374.638 481.500 C 374.234 482.555,372.588 483.000,369.090 483.000 C 366.356 483.000,363.840 483.450,363.500 484.000 C 362.682 485.324,339.318 485.324,338.500 484.000 C 338.160 483.450,335.659 483.000,332.941 483.000 C 329.216 483.000,328.000 482.631,328.000 481.500 C 328.000 480.452,326.944 480.000,324.500 480.000 C 322.575 480.000,321.000 479.550,321.000 479.000 C 321.000 478.450,319.650 478.000,318.000 478.000 C 316.000 478.000,315.000 477.500,315.000 476.500 C 315.000 475.675,314.325 475.000,313.500 475.000 C 312.675 475.000,312.000 474.550,312.000 474.000 C 312.000 473.450,311.100 473.000,310.000 473.000 C 308.889 473.000,308.000 472.333,308.000 471.500 C 308.000 470.675,307.325 470.000,306.500 470.000 C 305.675 470.000,305.000 469.599,305.000 469.108 C 305.000 468.618,303.875 467.934,302.500 467.589 C 301.125 467.244,300.000 466.520,300.000 465.981 C 300.000 465.441,299.325 465.000,298.500 465.000 C 297.675 465.000,297.000 464.518,297.000 463.929 C 297.000 462.544,294.456 460.000,293.071 460.000 C 292.482 460.000,292.000 459.325,292.000 458.500 C 292.000 457.675,291.550 457.000,291.000 457.000 C 290.450 457.000,290.000 456.086,290.000 454.969 C 290.000 453.851,289.325 452.678,288.500 452.362 C 287.675 452.045,287.000 451.159,287.000 450.393 C 287.000 449.627,286.559 449.000,286.019 449.000 C 285.480 449.000,284.756 447.875,284.411 446.500 C 284.066 445.125,283.382 444.000,282.892 444.000 C 282.401 444.000,282.000 443.380,282.000 442.622 C 282.000 441.865,281.325 440.685,280.500 440.000 C 279.675 439.315,279.000 437.685,279.000 436.378 C 279.000 435.070,278.550 434.000,278.000 434.000 C 277.450 434.000,277.000 432.705,277.000 431.122 C 277.000 429.540,276.325 427.685,275.500 427.000 C 274.520 426.187,274.000 423.960,274.000 420.578 C 274.000 417.730,273.577 414.973,273.060 414.450 C 272.543 413.928,271.980 411.250,271.810 408.500 L 271.500 403.500 257.500 403.500 L 243.500 403.500 243.198 408.750 C 243.031 411.637,242.469 414.000,241.948 414.000 C 241.426 414.000,241.000 416.652,241.000 419.893 C 241.000 424.209,240.599 425.940,239.500 426.362 C 238.559 426.723,238.000 428.252,238.000 430.469 C 238.000 432.411,237.550 434.000,237.000 434.000 C 236.450 434.000,236.000 435.077,236.000 436.393 C 236.000 437.709,235.325 439.045,234.500 439.362 C 233.675 439.678,233.000 440.851,233.000 441.969 C 233.000 443.086,232.599 444.000,232.108 444.000 C 231.618 444.000,230.934 445.125,230.589 446.500 C 230.244 447.875,229.520 449.000,228.981 449.000 C 228.441 449.000,228.000 449.627,228.000 450.393 C 228.000 451.159,227.325 452.045,226.500 452.362 C 225.675 452.678,225.000 453.851,225.000 454.969 C 225.000 456.086,224.550 457.000,224.000 457.000 C 223.450 457.000,223.000 457.675,223.000 458.500 C 223.000 459.325,222.518 460.000,221.929 460.000 C 220.544 460.000,218.000 462.544,218.000 463.929 C 218.000 464.518,217.325 465.000,216.500 465.000 C 215.675 465.000,215.000 465.441,215.000 465.981 C 215.000 466.520,213.875 467.244,212.500 467.589 C 211.125 467.934,210.000 468.618,210.000 469.108 C 210.000 469.599,209.325 470.000,208.500 470.000 C 207.675 470.000,207.000 470.675,207.000 471.500 C 207.000 472.325,206.213 473.014,205.250 473.032 C 203.089 473.071,200.000 475.323,200.000 476.860 C 200.000 477.487,198.650 478.000,197.000 478.000 C 195.350 478.000,194.000 478.450,194.000 479.000 C 194.000 479.550,192.425 480.000,190.500 480.000 C 188.056 480.000,187.000 480.452,187.000 481.500 C 187.000 482.631,185.784 483.000,182.059 483.000 C 179.341 483.000,176.840 483.450,176.500 484.000 C 175.682 485.324,152.318 485.324,151.500 484.000 C 151.160 483.450,148.434 483.000,145.441 483.000 C 141.271 483.000,140.000 482.650,140.000 481.500 C 140.000 480.567,139.056 480.000,137.500 480.000 C 136.125 480.000,135.000 479.550,135.000 479.000 C 135.000 478.450,133.923 478.000,132.607 478.000 C 131.291 478.000,129.955 477.325,129.638 476.500 C 129.322 475.675,128.149 475.000,127.031 475.000 C 125.914 475.000,125.000 474.550,125.000 474.000 C 125.000 473.450,123.875 473.000,122.500 473.000 C 120.944 473.000,120.000 472.433,120.000 471.500 C 120.000 470.675,119.529 470.000,118.952 470.000 C 118.376 470.000,116.862 468.875,115.588 467.500 C 114.313 466.125,112.760 465.000,112.135 465.000 C 111.511 465.000,111.000 464.580,111.000 464.067 C 111.000 463.554,110.100 462.849,109.000 462.500 C 107.900 462.151,107.000 461.328,107.000 460.672 C 107.000 460.016,105.875 458.266,104.500 456.783 C 103.125 455.301,102.000 453.618,102.000 453.044 C 102.000 452.470,101.431 452.000,100.736 452.000 C 100.041 452.000,98.692 450.200,97.739 448.000 C 96.786 445.800,95.555 444.000,95.003 444.000 C 94.451 444.000,94.000 442.875,94.000 441.500 C 94.000 439.944,93.433 439.000,92.500 439.000 C 91.507 439.000,91.000 438.007,91.000 436.059 C 91.000 434.441,90.550 432.840,90.000 432.500 C 89.450 432.160,89.000 430.319,89.000 428.410 C 89.000 426.246,88.435 424.720,87.500 424.362 C 85.276 423.508,85.276 390.846,87.500 389.000 C 88.361 388.285,89.000 386.104,89.000 383.878 C 89.000 381.745,89.450 380.000,90.000 380.000 C 90.550 380.000,91.000 378.923,91.000 377.607 C 91.000 376.291,91.675 374.955,92.500 374.638 C 93.325 374.322,94.000 372.924,94.000 371.531 C 94.000 370.139,94.420 369.000,94.933 369.000 C 95.446 369.000,96.185 367.988,96.576 366.750 C 96.967 365.512,98.283 363.600,99.502 362.500 C 100.720 361.400,102.341 359.038,103.103 357.250 C 103.865 355.463,105.053 354.000,105.744 354.000 C 106.435 354.000,107.000 353.518,107.000 352.929 C 107.000 351.544,109.544 349.000,110.929 349.000 C 111.518 349.000,112.000 348.325,112.000 347.500 C 112.000 346.675,112.818 346.000,113.818 346.000 C 114.818 346.000,117.406 344.425,119.568 342.501 C 121.731 340.576,124.287 339.001,125.250 339.001 C 126.213 339.000,127.000 338.325,127.000 337.500 C 127.000 336.562,127.948 336.000,129.531 336.000 C 130.924 336.000,132.322 335.325,132.638 334.500 C 132.994 333.574,134.513 333.000,136.607 333.000 C 138.473 333.000,140.000 332.550,140.000 332.000 C 140.000 331.450,141.800 331.000,144.000 331.000 C 146.889 331.000,148.000 330.583,148.000 329.500 C 148.000 328.231,150.389 328.000,163.500 328.000 C 176.611 328.000,179.000 328.231,179.000 329.500 C 179.000 330.633,180.222 331.000,184.000 331.000 C 186.750 331.000,189.000 331.450,189.000 332.000 C 189.000 332.550,190.139 333.000,191.531 333.000 C 192.924 333.000,194.322 333.675,194.638 334.500 C 194.988 335.412,196.502 336.000,198.500 336.000 C 200.498 336.000,202.012 336.588,202.362 337.500 C 202.678 338.325,204.076 339.000,205.469 339.000 C 206.861 339.000,208.000 339.450,208.000 340.000 C 208.000 340.550,208.900 341.000,210.000 341.000 C 211.989 341.000,212.000 340.333,212.000 215.000 L 212.000 89.000 257.500 89.000 L 303.000 89.000 303.000 215.000 " stroke="none" fill="#000000" fill-rule="evenodd"></path></g></svg>