<?xml version="1.0"?>
<svg xmlns:rdf="http://www.w3.org/1999/02/22-rdf-syntax-ns#" xmlns="http://www.w3.org/2000/svg" xmlns:cc="http://web.resource.org/cc/" xmlns:dc="http://purl.org/dc/elements/1.1/" xmlns:sodipodi="http://inkscape.sourceforge.net/DTD/sodipodi-0.dtd" id="svg3256" sodipodi:version="0.32" height="250pt" width="220pt" version="1.0" sodipodi:docname="skull_07.svg" sodipodi:docbase="C:\foo\wikipedia\transfer">
 <sodipodi:namedview id="base" bordercolor="#666666" borderopacity="1.0" pagecolor="#ffffff"/>
 <path id="path3265" d="m40.424 305.76c-9.562-4 4.674-22.67-11.704-18.5-13.434 0.19-21.11-18.33-10.678-27.2 10.248-10.25 24.784-0.19 34.855 5.2 4.056 3.09 8.181 5.29 12.757 1.75 46.946-18.76 93.976-37.39 140.09-58.12 16.22-4.86 12.14-22.05 16.05-34.42 7.66-11.48 28.09-5.95 33.45 5.38 6.89 10.91-19.13 21.04-6.91 27.85 7.08-21.34 27.15 5.55 13.16 15.37-8.8 9.66-25.09 6.32-31.32-4.52-7.96-10.26-21.18 6.19-31.51 7.72-36.39 15.87-75.15 25.84-110.58 44.01-13.621 3.29-25.112 12.5-23.962 27.21-5.639 6.48-15.352 9.21-23.694 8.27zm155.06-2.8c-14.94-4.23-1.67-29.35-16.05-33.68-9.9-3.31-29.06-10.8-31.81-17.13 6.06-0.53 12.56-8.18 18.19-2.98 11.6 6.04 24.96 15.21 38.18 8.24 11.68-7.97 28.7-2.35 32.87 11.2 1.55 15.59-22.09-5.85-23.58 3.39 18.4-0.32 22.89 28.04 3.69 30.84-6.97 1.5-14.57 2.12-21.49 0.12zm-92.45-63.84c-19.632-4.67-36.938-16.19-56.756-20.1-11.642 9.38-33.324 9.81-35.177-9.01-5.281-15.5 10.709-19.7 22.441-16.41 8.181-0.93-6.805-15.5 6.788-14.86 14.56-8.06 32.046 6.73 19.835 21.2-5.874 14.39 17.304 16.98 26.449 21.52 11.243 5.47 30.78 7.44 36.9 14.94-5.62 6.03-13.34 4.91-20.48 2.72zm52.31-27.09c-6.06-7.92-15.78-6.19-17.32 3.9-6.12-6.1-13.69-16.12-18.15-3.18-11.87 14.92-20.769-28.31-26.358-6.79 1.848 7.62-14.392 6.84-12.795-0.92 2.01-12.73-13.028-31.47 0.495-39.96 6.023 1.5 17.422 4.2 9.805-5.61-9.276-16-31.097 7.69-39.754-12.72-10.715-11.21-7.579-28.52 4.509-37.18 3.021-3.76 8.65-6.51 6.941-12.103 0.196-5.278-0.964-10.999 0.075-16.001 4.209-6.198 14.011-14.079 6.665-21.445-7.404-6.959 2.858 11.572-7.041 13.802-9.992 5.343-1.944 29.337-12.044 27.747-6.102-12.634-8.115-27.436-1.494-40.387 10.133-28.248 36.182-49.248 65.776-53.734 25.61-3.8486 52.95-3.7081 77.35 5.81 21.9 9.634 35.63 31.871 42.04 54.093 1.12 7.296 0.96 14.706 1.35 22.062-10.21 7.197-6.61 19.666-2.77 29.556 5.01 14.06-3.59 28.79-13.14 38.62-11.13 4.38-29.15-0.71-33.49 14.48 8.43 1.59 21.94 1.77 14.11 15.35-5.85 11.16-15.02 28.24-30.23 23.06-3.84 7.87-6.74 7.98-14.53 1.55zm-21.74-60.41c4-7.36 5.71-19.56 4.3-27.04-9.97 2.06-18.69 35.14-4.3 27.04zm29.29 0.95c2.02-9.15-5.67-30.54-15.78-26.02 4.37 7.62 0.98 33.83 15.78 26.02zm-30.72-33.63c8.97-8.29 2.46-27.466-5.81-35.067-13.06-10.201-35.244-14.651-46.574 0.532-9.412 8.725-6.792 23.545 2.988 30.825 11.709 8.83 27.606 5.45 41.296 5.67 2.78-0.19 5.63-0.56 8.1-1.96zm70.91-1.1c11-5.02 21.48-19.639 12.33-30.956-8.5-13.779-26.85-16.801-40.69-9.682-15.1 4.068-21.28 19.249-21.73 33.568 4.42 14.74 25.96 7.89 37.82 9.2 4.14-0.24 8.44-0.34 12.27-2.13z"/>
 <metadata>
  <rdf:RDF>
   <cc:Work>
    <dc:format>image/svg+xml</dc:format>
    <dc:type rdf:resource="http://purl.org/dc/dcmitype/StillImage"/>
    <cc:license rdf:resource="http://creativecommons.org/licenses/publicdomain/"/>
    <dc:publisher>
     <cc:Agent rdf:about="http://openclipart.org/">
      <dc:title>Openclipart</dc:title>
     </cc:Agent>
    </dc:publisher>
   </cc:Work>
   <cc:License rdf:about="http://creativecommons.org/licenses/publicdomain/">
    <cc:permits rdf:resource="http://creativecommons.org/ns#Reproduction"/>
    <cc:permits rdf:resource="http://creativecommons.org/ns#Distribution"/>
    <cc:permits rdf:resource="http://creativecommons.org/ns#DerivativeWorks"/>
   </cc:License>
  </rdf:RDF>
 </metadata>
</svg>
