<?xml version="1.0"?>
<svg xmlns:rdf="http://www.w3.org/1999/02/22-rdf-syntax-ns#" xmlns="http://www.w3.org/2000/svg" xmlns:dc="http://purl.org/dc/elements/1.1/" xmlns:cc="http://web.resource.org/cc/" xmlns:xlink="http://www.w3.org/1999/xlink" id="Layer_1" enable-background="new 0 0 360 252" xml:space="preserve" viewBox="0 0 360 252" version="1.1" y="0px" x="0px">
<path d="m194.31 40.097c5.446-1.381 11.224-1.123 16.661 0.172 2.775 0.931 5.279 2.492 7.757 4.017 3.069 1.752 5.004 4.814 6.871 7.688 1.048 1.537 1.603 3.332 2.563 4.919 1.1 1.807 1.519 3.903 2.404 5.808 0.83 2.135 1.914 4.279 1.91 6.617-0.079 4.349-0.637 8.779 0.415 13.058 0.511 1.837 1.175 3.714 2.499 5.15 1.496-1.99 1.732-4.595 2.797-6.808 0.887-1.975 2.164-4.074 4.293-4.893 2.131-0.051 3.473 2.033 4.213 3.755 0.977 2.831 1.266 5.85 1.521 8.817 0.381 4.459 0.266 9.043-1.143 13.328-0.826 2.226-1.855 4.373-2.742 6.574-1.979 4.673-3.438 9.546-5.352 14.248-0.324 0.883-0.705 1.751-1.232 2.538-0.646-0.258-1.295-0.493-1.943-0.715 0.514-3.981 1.451-7.896 2.025-11.87 0.752-4.708 0.717-9.492 1.045-14.234 0.283-4.764 1.514-9.555 4.037-13.652 0.836-1.501 1.986-2.882 2.326-4.603-0.621-0.012-1.238-0.023-1.852-0.039-1.539 3.343-3.387 6.53-5.217 9.722-0.771 1.399-1.67 2.812-1.805 4.438-0.313 4.662 0.227 9.354-0.41 13.997-0.246 2.375-0.994 4.654-1.391 7.003-1.572 8.154-2.197 16.481-4.354 24.521-1.492 6.352-4.252 12.479-8.43 17.556-4.951 6.27-10.729 11.928-17.277 16.563-3.933 2.697-7.99 5.525-12.762 6.522-3.472 0.771-7.056 0.704-10.588 0.912-2.642 0.082-5.395-0.114-7.796-1.304-4.224-1.95-7.745-5.057-11.198-8.096-5.554-4.935-10.467-10.727-13.54-17.503-5.557-10.6-6.981-22.602-9.382-34.135-0.605-3.602-0.835-7.402-2.686-10.652-0.265-0.552-0.767-0.908-1.273-1.217-0.25 6.664 2.108 13.035 2.761 19.605-1.456-0.536-2.967-1.04-4.197-2.006-1.23-0.975-1.812-2.469-2.464-3.834-2.35-4.928-4.454-10-5.874-15.274-0.392-1.678-0.969-3.396-0.692-5.14 0.154-2.197 1.475-4.146 3.002-5.666 0.451-0.571 1.218-0.383 1.852-0.459 1.586 2.927 2.444 6.156 3.809 9.18 0.506 1.014 0.68 2.284 1.646 3.004 0.518-3.07 0.15-6.191-0.404-9.227-0.261-1.305-0.49-2.713-1.436-3.733-3.255-3.633-7.864-6.125-10.118-10.591 0.779-0.711 1.606-1.987 2.816-1.736 2.947 1.876 4.454 5.162 6.832 7.599 1.491-4.26 1.712-8.794 2.073-13.25 0.071-2.854 0.569-5.815-0.364-8.584-0.949-3.414-1.107-7.012-0.696-10.512 0.815-3.911 2.773-7.571 5.554-10.466 1.907-2.581 4.87-4.027 7.757-5.279 3.635-1.787 7.931-2.045 11.843-1.099 4.197 0.97 7.958 3.14 11.621 5.307 1.539 1.196 3.695 1.971 5.562 1.032 3.583-1.791 6.942-4.141 10.841-5.252 2.46-0.534 4.85-1.343 7.32-1.812m2.76 43.066c-1.713 0.325-3.318 1.369-4.031 2.979-0.846 1.979-0.992 4.196-0.716 6.316 1.942-0.547 3.694-1.564 5.585-2.249 6.436-2.589 13.465-4.087 20.42-3.246 2.629 0.504 4.545 2.488 6.616 4 0.866 0.763 1.745-0.313 2.326-0.892-1.104-0.95-2.263-1.834-3.401-2.742-3.604-2.848-7.369-6.334-12.25-6.48-4.92 0.17-9.78 1.172-14.55 2.314m-53.96 2.138c-1.583 1.722-1.978 4.15-2.278 6.375 2.428-0.661 4.129-2.909 6.712-3.198 6.546-0.61 13.061 0.642 19.552 1.33 1.42 0.172 3.046 0.008 4.221 0.985 2.385 1.89 3.113 4.972 4.759 7.392 0.562 0.975 1.835 0.371 2.721 0.367-0.858-3.285-2.642-6.296-4.624-9.042-2.662-3.647-7.302-4.881-11.515-5.831-3.085-0.621-5.997-2.119-9.204-2.037-3.76-0.178-7.56 1.16-10.35 3.659m98.15 4.783c-0.242 1.11 0.873 1.701 1.471 2.444 1.793 1.834 1.408 4.705 0.555 6.887-0.688 2.092-2.119 3.848-2.816 5.938 3.541-1.123 5.701-5.088 5.311-8.65-0.434-2.945-2.133-5.503-3.787-7.916-0.36 0.358-0.79 0.729-0.72 1.3m-39.76-0.286c-4.037 1.463-8.18 4.087-9.727 8.237 0.463-0.095 0.906-0.251 1.325-0.466 3.104-1.979 5.625-4.885 9.117-6.245 3.216-1.076 6.538 0.284 9.806 0.183 0.686-0.054 1.551 0.094 2.002-0.555-4.01-1.185-8.4-2.71-12.53-1.154m-52.88 4.901c3.964 0.129 7.702-1.369 11.598-1.757 3.267-0.355 6.29 1.264 9.509 1.404-3.121-2.651-7.512-3.461-11.531-3.358-3.42 0.288-7.13 1.168-9.58 3.711m52.22-1.604c-2.002 1.252-4.231 2.809-4.789 5.221 1.895-0.227 3.39-1.56 5.229-1.942 1.499 0.935 2.449 2.948 4.442 2.964 2.526 0.196 4.217-2.307 6.673-2.389 2.137 0.098 4.143 0.915 6.238 1.251 0.275-0.747 0.521-1.511 0.734-2.28-3.932-1.873-8.203-2.939-12.507-3.555-2-0.205-4.24-0.464-6.01 0.73m-48.39 2.633c-1.44 0.802-2.959 1.688-3.766 3.174 2.646 0.13 5.296-0.112 7.946 0.033 1.859 0.073 3.659 0.896 5.534 0.59 3.006-0.493 6.083-0.481 9.102-0.094 0.158-0.595 0.273-1.205 0.344-1.82-4.086-1.528-8.148-3.491-12.591-3.663-2.31-0.126-4.54 0.727-6.56 1.78m25.11 4.27c-1.104 3.483-1.5 7.147-1.769 10.778-0.032 3.863-0.237 7.77 0.436 11.599 0.901 0.348 1.863 0.469 2.824 0.5 0.071-1.943 0.25-3.887 0.166-5.831-0.257-5.35-0.138-10.727 0.491-16.045-0.39-0.76-1.46-0.7-2.15-1.002m-48.47 7.272c-0.34 2.75 0.597 5.953 3.05 7.503-0.51-3.82-0.898-7.653-1.298-11.485-1.16 0.99-1.52 2.56-1.75 3.99m39.45 20.62c3.021 2.144 6.091 4.244 9.291 6.121 1.681 1.061 3.837 0.981 5.609 0.185 2.883-1.259 5.617-2.832 8.477-4.146 1.123-0.615 2.535-1.053 3.109-2.296-2.002-0.478-4.178-0.461-6.041 0.489-2.605 1.091-4.841 3.387-7.835 3.293-3.635-0.215-6.349-2.875-9.398-4.505 0.142-2.338 0.811-4.607 0.929-6.947-0.613-0.313-1.23-0.613-1.847-0.902-1.09 2.81-1.97 5.74-2.3 8.72m17.69-8.2c0.518 1.904 1.333 3.813 2.777 5.209 0.297-1.563 0.427-3.151 0.529-4.739-1.08-0.28-2.18-0.55-3.31-0.47m10.98 21.41c-4.588 1.192-9.37 1.264-14.082 1.215-7.42 0.109-14.746-1.297-22.126-1.807 3.374 4.896 8.303 8.678 13.856 10.873 5.522 2.162 11.835 2.452 17.472 0.516 1.801-0.676 3.362-1.818 4.93-2.897 3.611-2.495 6.962-5.346 10.146-8.349 0.435-0.43 0.795-0.924 1.157-1.408-3.89-0.31-7.63 0.98-11.36 1.86z" fill="#fff"/>
<path d="m123.86 89.247c2.215 1.494 1.954 4.561 1.052 6.734-0.352-0.34-0.609-0.758-0.657-1.25-0.35-1.804-0.56-3.65-0.39-5.484z" fill="#fff"/>
<path d="m204.66 94.874c1.424-0.293 3.354 0.348 3.387 2.03-1.433 0.141-2.859 0.305-4.287 0.469 0.17-0.849 0.09-1.947 0.9-2.499z" fill="#fff"/>
<path d="m158.56 96.638c1.313-1.091 3.615-0.66 4.299 0.936 0.237 0.488-0.221 1.048-0.716 1.13-1.353 0.117-2.706-0.063-4.05-0.121 0.09-0.65-0.02-1.425 0.47-1.945z" fill="#fff"/>
<path d="m167.27 144.14c7.658-0.172 15.32 0.278 22.979 0.353 3.311-0.082 6.617-0.32 9.928-0.391-3.493 3.258-8.26 4.893-12.946 5.519-6.131 0.7-12.464-0.731-17.78-3.802-0.81-0.45-1.53-1.04-2.18-1.68z" fill="#fff"/>
<path d="m185.56 193.14c0.209-1.244 0.774-2.381 1.499-3.41 1.805 1.568 3.318 3.617 3.723 6.008-1.87-0.59-3.52-1.66-5.22-2.6z" fill="#fff"/>
<path d="m182.05 201c-1.25-0.966 1.087-2.331 1.946-1.521 2.653 1.636 5.795 3.263 7.031 6.275-3.49-0.28-6.55-2.39-8.98-4.76z" fill="#fff"/>
<path d="m184.22 205.73c2.144 0.91 4.023 2.476 5.383 4.345-1.206 0.513-2.635 1.353-3.928 0.647-1.56-1.13-1.63-3.28-1.45-5z" fill="#fff"/>
<path d="m185.25 213.8c0.803-0.082 1.998-0.359 2.576 0.286-0.306 0.767-1.08 1.212-1.697 1.718-1.527 1.063-3.063 2.244-4.934 2.635 0.76-1.9 2.02-3.89 4.05-4.64z" fill="#fff"/>
<path d="m189.86 220.3c1.188-1.117 2.879-1.07 4.387-0.797-0.432 0.73-0.934 1.428-1.574 1.998-4.494 4.188-9.644 7.635-14.01 11.963-0.578 0.799-1.437 0.063-2.053-0.255 2.91-5.56 8.42-9.06 13.24-12.9z" fill="#fff"/>
<path d="m190.31 226.99c1.819-1.278 3.539-2.71 5.497-3.781 1.092 1.563 2.128 3.339 2.107 5.3 0.014 0.659-0.502 1.143-0.896 1.605-3.2 3.367-6.906 6.204-10.375 9.281-2.775 2.343-5.368 4.896-8.255 7.108-1.522 1.11-3.018 2.347-4.849 2.935-0.055-2.309 0.455-4.575 0.921-6.82 0.526-2.582 2.405-4.596 4.256-6.363 3.68-3.32 7.64-6.3 11.6-9.27z" fill="#fff"/>
<g id="_x23_000000ff">
	<path d="m172.61 0.362c6.689-1.146 13.349 0.771 20.027 1.001 5.07 0.172 10.348 0.156 15.063 2.257 3.996 1.916 7.523 4.642 11.5 6.59 5.387 2.808 8.437 8.263 11.625 13.136 2.36 3.526 4.813 6.995 7.135 10.55 1.605 2.464 3.063 5.08 3.766 7.947 1.322 7.517 0.855 15.178 0.227 22.738-0.189 2.569-0.182 5.146-0.127 7.724 2.221 1.185 4.582 2.135 6.648 3.586 0.82 0.521 0.932 1.561 1.211 2.4 2.021 7.836 2.627 16.238 0.436 24.105-0.916 3.56-3.164 6.57-4.398 10.008-1.205 3.418-1.664 7.047-2.938 10.446-0.537 1.426-1.158 2.894-2.307 3.958-1.359 1.33-3.164 2.062-4.65 3.219-0.494 0.367-0.596 1.009-0.732 1.561-1.02 5.604-2.321 11.182-4.248 16.555-0.328 0.567 0.052 1.053 0.555 1.338 12.23 8.458 21.387 20.386 33.023 29.54 2.404 1.844 4.787 3.822 7.643 4.955 2.943 1.183 5.965 2.155 8.92 3.311 16.1 6.021 31.379 13.927 47.197 20.595 5.104 2.46 9.418 6.221 14.51 8.7 3.508 1.665 5.734 5.028 7.324 8.415 3.771 8.804 7.203 17.756 9.98 26.915-24.41 0.121-48.82 0.017-73.232 0.051-21.926-0.022-43.855 0.043-65.784-0.03 1.495-5.175 3.286-10.271 4.533-15.511 2.062-8.101 3.181-16.399 3.832-24.717 1.563-16.542 1.737-33.189 1.058-49.784-0.045-2.041-0.14-4.079-0.336-6.112-1.22-0.422-2.802-0.668-3.759 0.399-2.937 2.987-5.515 6.289-8.248 9.453-4.528 5.106-9.868 9.565-15.913 12.831-2.898 1.533-5.751 3.251-8.947 4.105-2.824 0.877-5.803 1.153-8.586 2.17 1.088 1.373 3.342 1.312 4.07 3.041 5.498 10.183 11.926 19.842 18.662 29.263 0.607 0.927 1.473 1.748 1.799 2.828-0.07 0.853-0.668 1.567-1.388 1.994-5.328-5.362-7.968-12.589-12.408-18.571-1.722 2.689-2.524 5.83-3.426 8.854-0.349 0.743 0.135 1.435 0.565 2.019 4.065 5.67 7.36 11.861 9.976 18.31 2.618 6.313 4.817 12.813 6.499 19.427-1.906 0.063-3.813 0.065-5.715-0.009 0.904-1.161 2.424-2.213 2.215-3.86-0.219-1.881-0.993-3.68-2.086-5.221-4.532 2.245-8.321 5.647-12.131 8.885-1.166 0.503-2.535 0.157-3.777 0.178 3.046-2.727 6.258-5.26 9.436-7.834 2.146-1.822 4.539-3.799 5.279-6.62-1.84 0.509-3.43 1.596-5.04 2.565-5.118 3.284-9.754 7.238-14.2 11.35-0.641 0.759-1.688 0.582-2.571 0.617-3.212-0.039-6.42 0.012-9.627-0.027 0.091-5.995 0.89-12.025 2.678-17.771 2.211-6.418 2.338-13.582 6.096-19.438 0.85-1.48 2.46-2.385 3.271-3.87-0.254-1.96-0.672-3.911-1.313-5.784-0.665-0.09-1.326-0.198-1.974-0.319-3.157 6.205-5.862 12.691-9.774 18.489-0.653-0.259-1.305-0.507-1.962-0.736 0.593-2.158 1.764-4.09 2.725-6.096 4.319-8.879 9.133-17.521 13.128-26.552 0.305-0.711 0.684-1.566 0.182-2.287-0.93-1.561-2.844-2.025-4.43-2.66-2.733-0.852-5.53-1.617-8.03-3.046-6.42-3.59-11.27-9.202-16.839-13.864-0.479-0.44-1.056-0.742-1.669-0.941-0.297 5.554 0.475 11.061 0.878 16.582 0.842 8.938 0.004 17.947 0.985 26.876 1.586 10.068 2.884 20.182 4.462 30.256 0.423 3.74 1.286 7.42 1.59 11.174-53.59-0.023-107.18 0.031-160.76-0.031 1.19-3.065 3.35-5.614 4.727-8.584 1.273-2.149 1.163-4.787 2.48-6.922 1.262-2.902 2.492-5.822 3.928-8.65 1.131-1.807 1.685-3.918 3.018-5.604 0.756-0.979 1.282-2.11 2.077-3.058 2.667-2.569 5.016-5.577 8.295-7.431 2.536-0.988 5.257-1.446 7.8-2.439 5.126-2.188 10.581-3.566 15.561-6.102 3.216-1.521 6.776-2.115 10.099-3.355 2.049-0.715 4.022-1.661 6.159-2.111 2.595-0.559 5.008-1.729 7.61-2.265 2.207-0.457 4.272-1.384 6.475-1.834 3.647-0.872 7.116-2.397 10.838-2.964 3.647-0.686 7.072-2.133 10.371-3.778 3.018-1.028 5.989-2.187 8.999-3.25 1.749-0.604 3.188-1.791 4.754-2.733 1.305-0.813 2.717-1.446 3.991-2.308 2.523-1.721 5.498-2.757 7.741-4.869 6.068-4.216 11.665-9.049 17.42-13.663 1.31-1.213 3.196-2.32 3.354-4.256-0.388-3.002-1.804-5.739-2.967-8.505-1.23-3.285-1.994-6.718-2.477-10.18-0.355-1.678-0.549-3.539-1.685-4.908-2.14-1.963-4.889-3.188-6.887-5.319-1.009-1.021-1.725-2.272-2.357-3.543-2.247-4.583-4.569-9.167-5.989-14.083-0.993-3.051-1.384-6.246-1.642-9.426-0.72-6.202-1.104-12.479-0.625-18.712 2.263-0.833 4.656-1.191 7.001-1.697 0.103-1.631-0.384-3.199-0.823-4.748-1.024-4.094-2.591-8.099-2.816-12.35-0.202-3.027 0.609-5.991 0.724-9.007 0.827-7.978 1.863-15.948 3.338-23.836 0.581-3.843 3.738-6.452 5.929-9.444 2.021-2.401 3.635-5.4 6.622-6.773 3.718-1.736 7.215-3.907 10.98-5.538 2.999-1.322 6.305-1.709 9.354-2.895 3.8-1.496 7.36-3.488 11.29-4.462m21.7 39.735c-2.472 0.469-4.856 1.279-7.31 1.822-3.9 1.111-7.258 3.461-10.842 5.252-1.867 0.939-4.023 0.164-5.562-1.032-3.663-2.167-7.424-4.337-11.621-5.307-3.912-0.947-8.208-0.688-11.843 1.099-2.887 1.252-5.85 2.699-7.757 5.279-2.781 2.895-4.739 6.555-5.554 10.465-0.411 3.5-0.253 7.098 0.696 10.512 0.934 2.769 0.436 5.729 0.364 8.583-0.36 4.455-0.582 8.992-2.073 13.25-2.377-2.437-3.884-5.722-6.832-7.598-1.21-0.25-2.037 1.025-2.816 1.736 2.254 4.466 6.863 6.958 10.118 10.591 0.945 1.021 1.175 2.43 1.436 3.734 0.554 3.035 0.922 6.156 0.404 9.226-0.965-0.72-1.139-1.991-1.646-3.004-1.365-3.022-2.223-6.253-3.809-9.179-0.633 0.074-1.4-0.113-1.852 0.457-1.527 1.521-2.848 3.469-3.002 5.668-0.277 1.744 0.3 3.461 0.692 5.139 1.42 5.275 3.524 10.347 5.874 15.275 0.653 1.365 1.234 2.858 2.464 3.832 1.23 0.967 2.741 1.472 4.197 2.006-0.653-6.57-3.01-12.941-2.761-19.604 0.506 0.31 1.008 0.665 1.273 1.216 1.851 3.25 2.081 7.05 2.686 10.653 2.401 11.534 3.825 23.536 9.382 34.134 3.073 6.777 7.986 12.569 13.54 17.505 3.453 3.037 6.974 6.145 11.198 8.096 2.401 1.188 5.154 1.385 7.796 1.303 3.532-0.208 7.116-0.143 10.588-0.912 4.771-0.997 8.829-3.825 12.761-6.523 6.551-4.633 12.326-10.291 17.278-16.562 4.177-5.075 6.938-11.204 8.429-17.555 2.156-8.041 2.781-16.368 4.355-24.522 0.396-2.35 1.143-4.629 1.389-7.003 0.637-4.643 0.1-9.335 0.41-13.997 0.135-1.627 1.033-3.039 1.805-4.438 1.832-3.19 3.68-6.379 5.217-9.722 0.613 0.016 1.23 0.027 1.852 0.04-0.34 1.72-1.49 3.101-2.324 4.602-2.523 4.099-3.756 8.89-4.039 13.652-0.328 4.744-0.293 9.527-1.043 14.235-0.574 3.974-1.514 7.888-2.025 11.87 0.648 0.223 1.297 0.457 1.941 0.715 0.529-0.786 0.908-1.654 1.232-2.538 1.916-4.7 3.375-9.573 5.354-14.248 0.887-2.202 1.914-4.349 2.74-6.573 1.408-4.287 1.523-8.871 1.145-13.328-0.258-2.969-0.547-5.987-1.523-8.818-0.738-1.721-2.08-3.807-4.213-3.755-2.127 0.817-3.404 2.917-4.291 4.893-1.064 2.214-1.301 4.818-2.797 6.809-1.325-1.437-1.989-3.313-2.5-5.151-1.053-4.279-0.494-8.709-0.415-13.058 0.004-2.338-1.08-4.482-1.91-6.617-0.887-1.905-1.306-4.001-2.405-5.808-0.961-1.588-1.515-3.383-2.563-4.919-1.867-2.875-3.803-5.937-6.871-7.688-2.477-1.525-4.98-3.086-7.757-4.017-5.44-1.329-11.21-1.587-16.66-0.206m-70.45 49.15c-0.17 1.834 0.04 3.68 0.396 5.482 0.048 0.492 0.305 0.912 0.657 1.252 0.89-2.173 1.15-5.24-1.06-6.734m61.7 103.89c1.697 0.938 3.351 2.008 5.222 2.598-0.404-2.391-1.918-4.438-3.723-6.008-0.72 1.03-1.29 2.17-1.5 3.41m-3.51 7.86c2.433 2.366 5.485 4.476 8.979 4.755-1.238-3.014-4.379-4.641-7.033-6.275-0.86-0.81-3.2 0.56-1.95 1.52m2.17 4.73c-0.182 1.725-0.106 3.871 1.455 4.992 1.295 0.703 2.723-0.136 3.929-0.647-1.37-1.87-3.25-3.43-5.39-4.34m1.03 8.07c-2.029 0.744-3.283 2.733-4.055 4.639 1.871-0.391 3.406-1.572 4.934-2.635 0.617-0.506 1.392-0.951 1.697-1.718-0.58-0.64-1.78-0.36-2.58-0.28m4.61 6.5c-4.811 3.832-10.329 7.336-13.251 12.909 0.617 0.317 1.476 1.054 2.053 0.255 4.367-4.328 9.516-7.773 14.01-11.963 0.642-0.57 1.144-1.268 1.574-1.998-1.51-0.27-3.2-0.31-4.38 0.8m0.45 6.69c-3.96 2.969-7.923 5.944-11.594 9.265-1.851 1.77-3.73 3.781-4.256 6.363-0.466 2.245-0.977 4.514-0.921 6.82 1.832-0.588 3.327-1.823 4.849-2.935 2.888-2.214 5.479-4.767 8.255-7.108 3.469-3.077 7.175-5.914 10.375-9.281 0.396-0.464 0.91-0.946 0.896-1.605 0.021-1.961-1.017-3.734-2.107-5.3-1.96 1.08-3.68 2.51-5.5 3.79z"/>
	<path d="m197.07 83.163c4.77-1.142 9.631-2.144 14.549-2.312 4.881 0.145 8.646 3.632 12.25 6.479 1.139 0.908 2.299 1.792 3.401 2.742-0.581 0.579-1.46 1.653-2.326 0.892-2.071-1.513-3.987-3.496-6.616-4-6.955-0.841-13.984 0.657-20.42 3.246-1.891 0.686-3.643 1.701-5.585 2.249-0.276-2.12-0.13-4.337 0.716-6.315 0.71-1.614 2.31-2.659 4.03-2.981z"/>
	<path d="m143.11 85.301c2.785-2.499 6.59-3.835 10.344-3.661 3.208-0.082 6.119 1.416 9.204 2.039 4.213 0.949 8.853 2.182 11.515 5.83 1.982 2.746 3.766 5.756 4.624 9.042-0.886 0.005-2.16 0.606-2.721-0.366-1.646-2.422-2.374-5.502-4.759-7.393-1.175-0.979-2.801-0.813-4.221-0.986-6.491-0.688-13.005-1.938-19.552-1.33-2.583 0.291-4.284 2.539-6.712 3.199 0.32-2.224 0.71-4.654 2.29-6.374z"/>
	<path d="m241.26 90.084c-0.072-0.571 0.363-0.942 0.73-1.299 1.654 2.413 3.354 4.971 3.785 7.916 0.393 3.562-1.768 7.528-5.309 8.649 0.697-2.088 2.129-3.845 2.816-5.937 0.854-2.183 1.238-5.054-0.555-6.888-0.6-0.74-1.72-1.331-1.48-2.441z"/>
	<path d="m201.5 89.798c4.127-1.556 8.514-0.031 12.523 1.154-0.451 0.648-1.316 0.501-2.002 0.555-3.268 0.102-6.59-1.259-9.806-0.183-3.492 1.36-6.013 4.267-9.117 6.245-0.419 0.215-0.862 0.371-1.325 0.466 1.56-4.15 5.71-6.774 9.74-8.237z"/>
	<path d="m148.62 94.699c2.445-2.542 6.155-3.423 9.576-3.711 4.019-0.103 8.41 0.708 11.531 3.358-3.22-0.141-6.242-1.76-9.509-1.404-3.9 0.388-7.63 1.886-11.6 1.757z"/>
	<path d="m200.84 93.095c1.769-1.191 4.008-0.935 6.021-0.73 4.303 0.615 8.575 1.682 12.508 3.555-0.215 0.771-0.459 1.533-0.736 2.28-2.096-0.336-4.102-1.154-6.237-1.251-2.456 0.082-4.146 2.585-6.673 2.389-1.993-0.016-2.943-2.029-4.441-2.964-1.84 0.383-3.335 1.716-5.23 1.942 0.56-2.413 2.79-3.969 4.79-5.221m3.82 1.779c-0.807 0.552-0.728 1.65-0.9 2.499 1.428-0.164 2.854-0.329 4.287-0.469-0.04-1.682-1.97-2.323-3.39-2.03z"/>
	<path d="m152.45 95.728c2.017-1.053 4.244-1.905 6.57-1.779 4.442 0.172 8.504 2.135 12.591 3.664-0.071 0.613-0.186 1.225-0.344 1.818-3.018-0.387-6.096-0.398-9.102 0.094-1.875 0.306-3.675-0.516-5.534-0.59-2.65-0.145-5.3 0.099-7.946-0.031 0.8-1.488 2.32-2.375 3.76-3.176m6.11 0.91c-0.486 0.521-0.376 1.295-0.467 1.944 1.345 0.06 2.697 0.238 4.05 0.121 0.495-0.082 0.953-0.642 0.716-1.13-0.69-1.595-2.99-2.026-4.3-0.935z"/>
	<path d="m177.56 99.998c0.7 0.306 1.764 0.246 2.147 1-0.629 5.319-0.748 10.696-0.491 16.045 0.083 1.944-0.095 3.889-0.166 5.831-0.961-0.031-1.922-0.151-2.824-0.5-0.673-3.829-0.467-7.735-0.436-11.6 0.27-3.62 0.66-7.29 1.77-10.772z"/>
	<path d="m129.09 107.27c0.229-1.428 0.597-2.996 1.752-3.981 0.4 3.833 0.788 7.665 1.298 11.485-2.46-1.56-3.39-4.76-3.05-7.51z"/>
	<path d="m168.54 127.89c0.332-2.987 1.214-5.909 2.294-8.709 0.617 0.291 1.234 0.592 1.847 0.903-0.119 2.339-0.787 4.606-0.929 6.947 3.049 1.631 5.763 4.29 9.398 4.505 2.994 0.094 5.229-2.202 7.835-3.293 1.863-0.95 4.039-0.966 6.041-0.489-0.574 1.244-1.986 1.682-3.109 2.295-2.858 1.314-5.592 2.887-8.477 4.146-1.771 0.798-3.928 0.876-5.609-0.184-3.19-1.89-6.26-3.99-9.28-6.14z"/>
	<path d="m186.23 119.69c1.127-0.086 2.227 0.184 3.307 0.47-0.104 1.587-0.232 3.175-0.529 4.739-1.45-1.4-2.26-3.3-2.78-5.21z"/>
	<path d="m197.21 141.1c3.727-0.885 7.464-2.179 11.353-1.857-0.362 0.484-0.724 0.979-1.157 1.408-3.186 3.003-6.535 5.854-10.146 8.349-1.566 1.08-3.129 2.222-4.93 2.897-5.637 1.937-11.95 1.646-17.472-0.516-5.553-2.193-10.482-5.976-13.856-10.873 7.381 0.508 14.707 1.916 22.126 1.807 4.72 0.05 9.5-0.02 14.09-1.22m-29.94 3.04c0.648 0.649 1.365 1.236 2.18 1.679 5.316 3.069 11.649 4.5 17.78 3.801 4.688-0.625 9.453-2.262 12.946-5.52-3.311 0.071-6.617 0.309-9.928 0.391-7.66-0.08-15.32-0.53-22.98-0.35z"/>
</g>
<metadata><rdf:RDF><cc:Work><dc:format>image/svg+xml</dc:format><dc:type rdf:resource="http://purl.org/dc/dcmitype/StillImage"/><cc:license rdf:resource="http://creativecommons.org/licenses/publicdomain/"/><dc:publisher><cc:Agent rdf:about="http://openclipart.org/"><dc:title>Openclipart</dc:title></cc:Agent></dc:publisher></cc:Work><cc:License rdf:about="http://creativecommons.org/licenses/publicdomain/"><cc:permits rdf:resource="http://creativecommons.org/ns#Reproduction"/><cc:permits rdf:resource="http://creativecommons.org/ns#Distribution"/><cc:permits rdf:resource="http://creativecommons.org/ns#DerivativeWorks"/></cc:License></rdf:RDF></metadata></svg>
