<?xml version="1.0"?>
<svg xmlns:rdf="http://www.w3.org/1999/02/22-rdf-syntax-ns#" xmlns="http://www.w3.org/2000/svg" xmlns:cc="http://web.resource.org/cc/" xmlns:dc="http://purl.org/dc/elements/1.1/" xmlns:svg="http://www.w3.org/2000/svg" id="svg2" viewBox="0 0 672.13 542.95" version="1.0">
  <g id="layer1" transform="translate(-39.612 -158.01)">
    <path id="path1368" d="m267.13 700.02c-0.46-1.22-2.85-1.5-12.6-1.5-6.62 0-12.03-0.23-12.03-0.51 0-0.29 3.24-4.67 7.2-9.75 12.99-16.64 26.8-36.07 26.8-37.7 0-0.88 2.25-4.72 5-8.54 5.38-7.48 5.8-8.5 3.5-8.5-2.56 0-1.66-1.55 1.86-3.23 2.62-1.25 5.57-5.1 13.5-17.64 5.57-8.83 10.14-16.29 10.14-16.59 0-0.29-0.93-0.54-2.06-0.54-2.84 0-1.6-1.61 1.79-2.33 2.16-0.46 4.28-2.9 9.72-11.23 6.8-10.41 11.09-14.88 14.97-15.59 3.13-0.57 2.35-2.32-1.17-2.66-3.49-0.34-3.98-1.07-2.01-3.03 0.99-0.99 0.94-1.43-0.25-2.16-1.27-0.78-1.19-1.14 0.51-2.43 1.41-1.06 1.57-1.51 0.56-1.54-0.79-0.01-2.42 0.9-3.63 2.03l-2.19 2.06 2.3-12.81c4.95-27.55 5.48-29.38 9.76-34.02 2.7-2.93 3.5-4.39 2.56-4.69-0.75-0.23-5.86-1.42-11.36-2.63-5.5-1.22-14.05-3.67-19-5.45-4.95-1.77-11.03-3.95-13.5-4.83-2.58-0.92-17.13-2.89-34-4.6-35.09-3.57-46.7-5.98-94.41-19.63l-32.9-9.41-36.225 28.98c-40.882 32.69-36.532 30.43-52.161 27.18l-8.192-1.71 20.436-36.45c11.241-20.05 20.102-36.77 19.693-37.15-0.41-0.38-6.391-3-13.291-5.82l-12.546-5.13 0.392-3.36 0.392-3.36 13.408-0.72c7.375-0.39 13.649-1.1 13.942-1.58 0.293-0.47-6.272-22.29-14.588-48.48-8.317-26.19-14.93-47.81-14.696-48.04s4.659 0.02 9.834 0.57c5.174 0.54 10.346 0.99 11.491 1 1.597 0.02 7.065 7.21 23.402 30.77 11.729 16.91 22.379 32.19 23.679 33.95s10.05 8.67 19.44 15.35l17.07 12.14 25.66 0.92c28.62 1.03 44.37 2.34 89.69 7.45 29.46 3.33 69.71 7.33 70.2 6.98 0.13-0.09 0.66-7.7 1.18-16.91 0.55-9.77 1.43-17.33 2.1-18.14 1.12-1.34 4.56-2.66 10.25-3.92 3.43-0.76 3.61-2.57 0.25-2.57-2.5 0-2.5-0.03-2.5-9.59 0-8.58-0.2-9.65-1.9-10.09-1.48-0.39-2.49-2.84-4.55-11.16-4.81-19.32-4.17-17.86-8.09-18.6-3.92-0.73-3.77-2.56 0.2-2.56 2.14 0 2.47-0.37 2.03-2.25-0.29-1.24-3.15-13.69-6.35-27.67l-5.82-25.43-3.75-1.57c-4.53-1.91-4.83-3.08-0.77-3.08 1.65 0 3-0.28 3-0.62 0-0.35-1.87-8.52-4.15-18.16-3.81-16.06-4.02-17.63-2.5-18.73 1.84-1.35 2.18-4.04 0.63-5-0.56-0.34-0.78-1-0.5-1.46 0.5-0.81-6.65-24.86-18.1-60.88-3.04-9.54-5.38-17.47-5.2-17.63 0.67-0.6 24.31 8.46 24.64 9.44 0.19 0.57 0.89 1.04 1.56 1.04s2.18 1.98 3.35 4.39c2.63 5.41 40.22 74.41 83.95 154.11 18.11 33 33.23 60.79 33.59 61.75 0.87 2.3 6.97 2.37 8.84 0.11 1.19-1.43 3-1.56 13.92-1.01 18.27 0.93 28.58 2.46 36.23 5.39 5.08 1.94 6.65 2.99 6.29 4.18-0.26 0.87-1.41 7.21-2.55 14.08-1.15 6.88-2.32 13.29-2.61 14.25-0.91 3-14.82 2.26-35.3-1.87-3.18-0.64-3.37-0.54-2.82 1.57 1.14 4.35 13.24 24.33 15.22 25.13 1.1 0.45 22.93 3.11 48.51 5.91 79.05 8.68 93.25 10.98 120.01 19.5 23 7.33 49.25 21.61 57.58 31.35 2.89 3.38 3.13 4.09 2.09 6.24-2.54 5.22-20.1 11.71-40.68 15.05-9.8 1.59-60.08 1.58-74-0.02-5.78-0.66-29.18-3.47-52-6.25-43.84-5.33-56.57-5.84-66.69-2.64-5.34 1.68-5.74 2.13-4.13 4.71 1.18 1.91 1.02 2.36-1.68 4.48-8.28 6.5-38.11 32.05-38.8 33.23-0.66 1.12 1.38 2.16 11.14 1.36 9.97-0.82 29.86 2.15 32.94 3.04 8.47 2.43 9.2 1.82 7.66 13.48-0.72 5.49-1.82 12.28-2.43 15.09-1.01 4.47-4.57 5.32-9.76 5.66-8.45 0.52-24.55-1.12-30.75-3.15-1.65-0.54-5.61-1.71-8.79-2.59-4.39-1.22-6.01-2.19-6.7-4-0.67-1.75-2.42-2.87-6.46-4.14-3.06-0.97-5.55-2.29-5.55-2.95s-0.65-1.73-1.44-2.38c-1.17-0.97-3.87 0.98-14.75 10.69-18.16 16.19-125.27 106-129.46 108.55-0.63 0.38-1.4 0.02-1.72-0.8z"/>
  </g>
  <metadata>
    <rdf:RDF>
      <cc:Work>
        <dc:format>image/svg+xml</dc:format>
        <dc:type rdf:resource="http://purl.org/dc/dcmitype/StillImage"/>
        <cc:license rdf:resource="http://creativecommons.org/licenses/publicdomain/"/>
        <dc:publisher>
          <cc:Agent rdf:about="http://openclipart.org/">
            <dc:title>Openclipart</dc:title>
          </cc:Agent>
        </dc:publisher>
        <dc:title>plane silhouet</dc:title>
        <dc:date>2006-10-23T09:54:30</dc:date>
        <dc:description>a flying plane silhouette</dc:description>
        <dc:source>http://openclipart.org/detail/850/plane-silhouet-by-molumen</dc:source>
        <dc:creator>
          <cc:Agent>
            <dc:title>molumen</dc:title>
          </cc:Agent>
        </dc:creator>
        <dc:subject>
          <rdf:Bag>
            <rdf:li>737</rdf:li>
            <rdf:li>a 320</rdf:li>
            <rdf:li>a 380</rdf:li>
            <rdf:li>airbus</rdf:li>
            <rdf:li>airlines</rdf:li>
            <rdf:li>airplane</rdf:li>
            <rdf:li>boeing</rdf:li>
            <rdf:li>clip art</rdf:li>
            <rdf:li>clipart</rdf:li>
            <rdf:li>image</rdf:li>
            <rdf:li>landing</rdf:li>
            <rdf:li>media</rdf:li>
            <rdf:li>plane</rdf:li>
            <rdf:li>png</rdf:li>
            <rdf:li>public domain</rdf:li>
            <rdf:li>reactors</rdf:li>
            <rdf:li>silhouette</rdf:li>
            <rdf:li>skies</rdf:li>
            <rdf:li>sky</rdf:li>
            <rdf:li>svg</rdf:li>
            <rdf:li>tail</rdf:li>
            <rdf:li>take off</rdf:li>
            <rdf:li>traffic</rdf:li>
            <rdf:li>transportation</rdf:li>
            <rdf:li>wing</rdf:li>
          </rdf:Bag>
        </dc:subject>
      </cc:Work>
      <cc:License rdf:about="http://creativecommons.org/licenses/publicdomain/">
        <cc:permits rdf:resource="http://creativecommons.org/ns#Reproduction"/>
        <cc:permits rdf:resource="http://creativecommons.org/ns#Distribution"/>
        <cc:permits rdf:resource="http://creativecommons.org/ns#DerivativeWorks"/>
      </cc:License>
    </rdf:RDF>
  </metadata>
</svg>
