<?xml version="1.0"?>
<svg xmlns:rdf="http://www.w3.org/1999/02/22-rdf-syntax-ns#" xmlns="http://www.w3.org/2000/svg" xmlns:cc="http://creativecommons.org/ns#" xmlns:dc="http://purl.org/dc/elements/1.1/" id="svg3151" viewBox="0 0 300.59 300.14" version="1.1">
 <title id="title3197">Merlin2525 Sent Business Stamp 1. svg</title>
 <g id="layer1" transform="translate(-265.15 -329.72)">
  <g id="g3120" stroke="#390" fill="#390" transform="matrix(.74284 -.73930 .73930 .74284 135.69 -76.906)">
   <path id="path3122" stroke-linejoin="round" d="m-308.66 491.93c-7.756 0-14 6.244-14 14v117.72c0 7.756 6.244 14 14 14h246.31c7.756 0 14-6.244 14-14v-117.72c0-7.756-6.244-14-14-14h-246.31zm5.0937 5.9375h236.13c6.648 0 12 5.352 12 12v109.88c0 6.648-5.352 12-12 12h-236.13c-6.648 0-12-5.352-12-12v-109.88c0-6.648 5.352-12 12-12z" stroke-opacity=".55708" stroke-linecap="round" stroke-width=".6"/>
   <g id="g3124">
    <path id="path3126" d="m-251.67 575.76c1.056 0 1.92-0.08 2.592-0.24 0.70398-0.192 1.264-0.432 1.68-0.72 0.41598-0.32 0.70398-0.688 0.864-1.104 0.15998-0.416 0.23998-0.88 0.24-1.392-0.00002-1.088-0.51202-1.984-1.536-2.688-1.024-0.73599-2.784-1.52-5.28-2.352-1.088-0.38399-2.176-0.81599-3.264-1.296-1.088-0.51199-2.064-1.136-2.928-1.872-0.86401-0.76799-1.568-1.68-2.112-2.736-0.544-1.088-0.816-2.4-0.816-3.936s0.288-2.912 0.864-4.128c0.576-1.248 1.392-2.304 2.448-3.168 1.056-0.86397 2.336-1.52 3.84-1.968 1.504-0.47997 3.2-0.71997 5.088-0.72 2.24 0.00003 4.176 0.24003 5.808 0.72 1.632 0.48003 2.976 1.008 4.032 1.584l-2.16 5.904c-0.92802-0.47998-1.968-0.89598-3.12-1.248-1.12-0.38398-2.48-0.57598-4.08-0.576-1.792 0.00002-3.088 0.25602-3.888 0.768-0.76801 0.48002-1.152 1.232-1.152 2.256-0.00001 0.60802 0.14399 1.12 0.432 1.536 0.28799 0.41602 0.68799 0.80002 1.2 1.152 0.54399 0.32002 1.152 0.62402 1.824 0.912 0.70398 0.25602 1.472 0.52802 2.304 0.816 1.728 0.64002 3.232 1.28 4.512 1.92 1.28 0.60801 2.336 1.328 3.168 2.16 0.86397 0.83201 1.504 1.808 1.92 2.928 0.41597 1.12 0.62397 2.48 0.624 4.08-0.00003 3.104-1.088 5.52-3.264 7.248-2.176 1.696-5.456 2.544-9.84 2.544-1.472-0.00001-2.8-0.096-3.984-0.288-1.184-0.16-2.24-0.368-3.168-0.624-0.89601-0.256-1.68-0.528-2.352-0.816-0.64-0.288-1.184-0.56-1.632-0.816l2.112-5.952c0.99199 0.544 2.208 1.04 3.648 1.488 1.472 0.416 3.264 0.624 5.376 0.624"/>
    <path id="path3128" d="m-221.28 581.47v-33.264h22.464v6.288h-14.976v6.528h13.296v6.144h-13.296v8.016h16.08v6.288h-23.568"/>
    <path id="path3130" d="m-158.36 581.47c-2.144-3.808-4.464-7.568-6.96-11.28s-5.152-7.216-7.968-10.512v21.792h-7.392v-33.264h6.096c1.056 1.056 2.224 2.352 3.504 3.888s2.576 3.184 3.888 4.944c1.344 1.728 2.672 3.536 3.984 5.424 1.312 1.856 2.544 3.648 3.696 5.376v-19.632h7.44v33.264h-6.288"/>
    <path id="path3132" d="m-108.2 548.21v6.384h-10.032v26.88h-7.488v-26.88h-10.032v-6.384h27.552"/>
   </g>
  </g>
 </g>
 <metadata>
  <rdf:RDF>
   <cc:Work>
    <dc:format>image/svg+xml</dc:format>
    <dc:type rdf:resource="http://purl.org/dc/dcmitype/StillImage"/>
    <cc:license rdf:resource="http://creativecommons.org/licenses/publicdomain/"/>
    <dc:publisher>
     <cc:Agent rdf:about="http://openclipart.org/">
      <dc:title>Openclipart</dc:title>
     </cc:Agent>
    </dc:publisher>
   </cc:Work>
   <cc:License rdf:about="http://creativecommons.org/licenses/publicdomain/">
    <cc:permits rdf:resource="http://creativecommons.org/ns#Reproduction"/>
    <cc:permits rdf:resource="http://creativecommons.org/ns#Distribution"/>
    <cc:permits rdf:resource="http://creativecommons.org/ns#DerivativeWorks"/>
   </cc:License>
  </rdf:RDF>
 </metadata>
</svg>
