<svg id="svg" version="1.1" width="515" height="515" xmlns="http://www.w3.org/2000/svg" xmlns:xlink="http://www.w3.org/1999/xlink" style="display: block;"><g id="svgg"><path id="path0" d="M144.072 64.414 C 143.087 65.600,140.894 66.000,135.378 66.000 C 131.126 66.000,128.000 66.424,128.000 67.000 C 128.000 67.550,126.930 68.000,125.622 68.000 C 124.315 68.000,122.685 68.675,122.000 69.500 C 121.315 70.325,119.910 71.000,118.878 71.000 C 117.845 71.000,117.000 71.450,117.000 72.000 C 117.000 72.550,116.325 73.000,115.500 73.000 C 114.675 73.000,112.200 74.800,110.000 77.000 C 107.800 79.200,105.550 81.000,105.000 81.000 C 104.450 81.000,104.000 81.482,104.000 82.071 C 104.000 83.456,101.456 86.000,100.071 86.000 C 99.482 86.000,99.000 86.675,99.000 87.500 C 99.000 88.325,98.550 89.000,98.000 89.000 C 97.450 89.000,97.000 89.878,97.000 90.950 C 97.000 92.023,96.433 93.260,95.740 93.700 C 95.047 94.140,93.631 96.300,92.593 98.500 C 91.555 100.700,90.322 103.281,89.853 104.236 C 89.384 105.191,89.000 107.811,89.000 110.058 C 89.000 112.356,88.344 114.799,87.500 115.643 C 86.403 116.740,86.000 119.416,86.000 125.603 C 86.000 132.200,86.330 134.189,87.500 134.638 C 88.551 135.042,89.000 136.680,89.000 140.107 C 89.000 142.798,89.392 145.000,89.872 145.000 C 90.352 145.000,91.032 146.800,91.384 149.000 C 91.736 151.200,92.468 153.000,93.012 153.000 C 93.555 153.000,94.000 153.914,94.000 155.031 C 94.000 156.149,94.675 157.322,95.500 157.638 C 96.325 157.955,97.000 158.803,97.000 159.524 C 97.000 160.244,97.338 160.983,97.750 161.167 C 98.163 161.350,100.218 163.637,102.317 166.250 C 104.416 168.863,106.575 171.000,107.115 171.000 C 107.654 171.000,109.138 172.125,110.412 173.500 C 111.687 174.875,113.240 176.000,113.865 176.000 C 114.489 176.000,115.000 176.441,115.000 176.981 C 115.000 177.520,116.125 178.244,117.500 178.589 C 118.875 178.934,120.000 179.613,120.000 180.097 C 120.000 180.580,121.800 181.264,124.000 181.616 C 126.200 181.968,128.000 182.648,128.000 183.128 C 128.000 183.608,130.137 184.014,132.750 184.032 C 135.363 184.049,138.374 184.724,139.441 185.532 C 140.694 186.479,143.729 187.000,148.000 187.000 C 152.271 187.000,155.306 186.479,156.559 185.532 C 157.626 184.724,160.611 184.049,163.191 184.032 C 165.771 184.014,168.160 183.550,168.500 183.000 C 168.840 182.450,169.936 182.000,170.937 182.000 C 171.937 182.000,173.315 181.325,174.000 180.500 C 174.685 179.675,176.090 179.000,177.122 179.000 C 178.155 179.000,179.000 178.325,179.000 177.500 C 179.000 176.636,179.904 176.000,181.132 176.000 C 182.304 176.000,184.749 174.425,186.565 172.500 C 188.380 170.575,190.346 169.000,190.933 169.000 C 191.520 169.000,192.000 168.325,192.000 167.500 C 192.000 166.675,192.450 166.000,193.000 166.000 C 193.550 166.000,194.000 165.325,194.000 164.500 C 194.000 163.675,194.482 163.000,195.071 163.000 C 196.597 163.000,198.618 160.778,199.435 158.203 C 199.820 156.992,200.554 156.000,201.067 156.000 C 201.580 156.000,202.000 154.923,202.000 153.607 C 202.000 152.291,202.675 150.955,203.500 150.638 C 204.345 150.314,205.000 148.826,205.000 147.231 C 205.000 145.674,205.459 143.941,206.020 143.380 C 207.426 141.974,207.464 108.064,206.061 106.661 C 205.477 106.077,205.000 104.326,205.000 102.769 C 205.000 101.174,204.345 99.686,203.500 99.362 C 202.675 99.045,202.000 97.709,202.000 96.393 C 202.000 95.077,201.559 94.000,201.019 94.000 C 200.480 94.000,199.756 92.875,199.411 91.500 C 199.066 90.125,198.382 89.000,197.892 89.000 C 197.401 89.000,197.000 88.325,197.000 87.500 C 197.000 86.675,196.518 86.000,195.929 86.000 C 194.544 86.000,192.000 83.456,192.000 82.071 C 192.000 81.482,191.518 81.000,190.929 81.000 C 189.544 81.000,187.000 78.456,187.000 77.071 C 187.000 76.482,186.325 76.000,185.500 76.000 C 184.675 76.000,184.000 75.599,184.000 75.108 C 184.000 74.618,182.875 73.934,181.500 73.589 C 180.125 73.244,179.000 72.520,179.000 71.981 C 179.000 71.441,177.923 71.000,176.607 71.000 C 175.291 71.000,173.955 70.325,173.638 69.500 C 173.305 68.632,171.810 68.000,170.090 68.000 C 168.456 68.000,166.840 67.550,166.500 67.000 C 166.160 66.450,162.796 66.000,159.024 66.000 C 155.253 66.000,152.017 65.560,151.833 65.023 C 151.199 63.162,145.483 62.714,144.072 64.414 M241.000 116.000 C 241.000 116.550,239.200 117.000,237.000 117.000 C 234.111 117.000,233.000 117.417,233.000 118.500 C 233.000 119.433,232.056 120.000,230.500 120.000 C 229.125 120.000,228.000 120.450,228.000 121.000 C 228.000 121.550,227.086 122.000,225.969 122.000 C 224.851 122.000,223.678 122.675,223.362 123.500 C 223.045 124.325,222.235 125.000,221.562 125.000 C 220.889 125.000,219.736 126.125,219.000 127.500 C 218.264 128.875,217.063 130.000,216.331 130.000 C 215.594 130.000,215.000 131.068,215.000 132.393 C 215.000 133.709,214.325 135.045,213.500 135.362 C 212.675 135.678,212.000 136.851,212.000 137.969 C 212.000 139.086,211.550 140.000,211.000 140.000 C 210.378 140.000,210.000 145.647,210.000 154.941 C 210.000 163.823,210.406 170.133,211.000 170.500 C 211.550 170.840,212.000 172.161,212.000 173.437 C 212.000 174.712,212.675 176.315,213.500 177.000 C 214.325 177.685,215.000 179.329,215.000 180.654 C 215.000 181.979,215.675 183.322,216.500 183.638 C 217.325 183.955,218.000 184.841,218.000 185.607 C 218.000 186.373,218.450 187.000,219.000 187.000 C 219.550 187.000,220.000 187.837,220.000 188.860 C 220.000 189.883,221.125 191.565,222.500 192.597 C 223.875 193.630,225.000 195.043,225.000 195.737 C 225.000 196.432,225.468 197.000,226.040 197.000 C 226.612 197.000,228.792 198.800,230.885 201.000 C 232.978 203.200,235.435 205.000,236.345 205.000 C 237.255 205.000,238.000 205.450,238.000 206.000 C 238.000 206.550,238.675 207.000,239.500 207.000 C 240.325 207.000,241.000 207.675,241.000 208.500 C 241.000 209.433,241.944 210.000,243.500 210.000 C 244.875 210.000,246.000 210.450,246.000 211.000 C 246.000 211.550,247.157 212.000,248.571 212.000 C 249.986 212.000,251.818 212.675,252.643 213.500 C 253.468 214.325,255.456 215.000,257.060 215.000 C 262.034 215.000,264.000 217.613,264.000 224.222 C 264.000 228.691,264.340 230.000,265.500 230.000 C 266.721 230.000,266.978 231.532,266.884 238.250 C 266.820 242.787,266.562 245.713,266.311 244.750 C 265.745 242.586,261.720 242.427,260.000 244.500 C 259.315 245.325,258.183 246.000,257.485 246.000 C 256.786 246.000,255.955 246.675,255.638 247.500 C 255.322 248.325,254.342 249.000,253.460 249.000 C 251.638 249.000,249.000 251.324,249.000 252.929 C 249.000 253.518,247.757 254.000,246.237 254.000 C 244.458 254.000,242.807 254.890,241.597 256.500 C 240.565 257.875,238.883 259.000,237.860 259.000 C 236.837 259.000,236.000 259.450,236.000 260.000 C 236.000 260.550,235.086 261.000,233.969 261.000 C 232.851 261.000,231.678 261.675,231.362 262.500 C 231.045 263.325,230.159 264.000,229.393 264.000 C 228.627 264.000,228.000 264.675,228.000 265.500 C 228.000 266.433,227.056 267.000,225.500 267.000 C 224.125 267.000,223.000 267.450,223.000 268.000 C 223.000 268.550,221.875 269.000,220.500 269.000 C 218.944 269.000,218.000 269.567,218.000 270.500 C 218.000 271.424,217.062 272.000,215.559 272.000 C 214.216 272.000,212.840 272.450,212.500 273.000 C 212.160 273.550,210.994 274.000,209.910 274.000 C 208.825 274.000,207.678 274.675,207.362 275.500 C 207.006 276.426,205.487 277.000,203.393 277.000 C 201.527 277.000,200.000 277.392,200.000 277.872 C 200.000 278.352,198.200 279.032,196.000 279.384 C 193.800 279.736,192.000 280.468,192.000 281.012 C 192.000 281.555,190.248 282.000,188.107 282.000 C 185.569 282.000,184.014 282.522,183.638 283.500 C 183.189 284.671,181.192 285.000,174.531 285.000 C 169.510 285.000,166.000 285.411,166.000 286.000 C 166.000 286.606,161.656 287.000,154.969 287.000 C 146.085 287.000,143.825 287.292,143.362 288.500 C 142.986 289.478,141.431 290.000,138.893 290.000 C 136.752 290.000,135.000 290.450,135.000 291.000 C 135.000 291.550,133.875 292.000,132.500 292.000 C 130.944 292.000,130.000 292.567,130.000 293.500 C 130.000 294.433,129.056 295.000,127.500 295.000 C 126.125 295.000,125.000 295.450,125.000 296.000 C 125.000 296.550,124.086 297.000,122.969 297.000 C 121.851 297.000,120.678 297.675,120.362 298.500 C 120.045 299.325,119.207 300.000,118.500 300.000 C 117.793 300.000,116.955 300.675,116.638 301.500 C 116.322 302.325,115.220 303.000,114.189 303.000 C 113.073 303.000,111.553 304.416,110.430 306.500 C 109.393 308.425,108.198 310.000,107.773 310.000 C 107.348 310.000,107.000 311.752,107.000 313.893 C 107.000 316.431,106.478 317.986,105.500 318.362 C 103.562 319.105,103.562 323.392,105.500 325.000 C 106.458 325.795,107.000 328.007,107.000 331.122 C 107.000 333.805,107.450 336.000,108.000 336.000 C 108.550 336.000,109.000 336.914,109.000 338.031 C 109.000 339.149,109.675 340.322,110.500 340.638 C 111.325 340.955,112.000 342.291,112.000 343.607 C 112.000 345.067,112.585 346.000,113.500 346.000 C 114.325 346.000,115.000 346.482,115.000 347.071 C 115.000 348.456,117.544 351.000,118.929 351.000 C 119.518 351.000,120.000 351.485,120.000 352.077 C 120.000 353.476,125.524 359.000,126.923 359.000 C 127.515 359.000,128.000 359.675,128.000 360.500 C 128.000 361.433,128.944 362.000,130.500 362.000 C 131.875 362.000,133.000 362.450,133.000 363.000 C 133.000 363.550,133.482 364.000,134.071 364.000 C 134.661 364.000,135.818 364.675,136.643 365.500 C 139.096 367.953,144.772 367.461,145.294 364.750 C 145.533 363.512,145.786 366.100,145.858 370.500 C 145.945 375.874,145.497 379.440,144.494 381.364 C 143.672 382.940,143.000 385.077,143.000 386.114 C 143.000 387.151,142.580 388.000,142.067 388.000 C 141.554 388.000,140.839 388.933,140.477 390.074 C 139.422 393.396,124.434 408.000,122.078 408.000 C 120.898 408.000,120.000 408.648,120.000 409.500 C 120.000 410.433,119.056 411.000,117.500 411.000 C 116.125 411.000,115.000 411.450,115.000 412.000 C 115.000 412.550,113.923 413.000,112.607 413.000 C 111.291 413.000,109.955 413.675,109.638 414.500 C 109.322 415.325,108.117 416.000,106.960 416.000 C 104.720 416.000,102.000 418.154,102.000 419.929 C 102.000 420.518,101.325 421.000,100.500 421.000 C 99.675 421.000,99.000 421.873,99.000 422.941 C 99.000 424.009,98.550 425.160,98.000 425.500 C 95.201 427.230,97.691 443.973,100.750 443.992 C 101.438 443.996,102.000 444.482,102.000 445.071 C 102.000 447.298,105.001 449.000,108.929 449.000 C 111.168 449.000,113.000 449.450,113.000 450.000 C 113.000 450.550,113.675 451.000,114.500 451.000 C 115.325 451.000,116.000 450.550,116.000 450.000 C 116.000 449.450,118.223 449.000,120.941 449.000 C 123.659 449.000,126.160 448.550,126.500 448.000 C 126.840 447.450,128.006 447.000,129.090 447.000 C 130.175 447.000,131.322 446.325,131.638 445.500 C 131.955 444.675,133.291 444.000,134.607 444.000 C 135.923 444.000,137.000 443.550,137.000 443.000 C 137.000 442.450,137.675 442.000,138.500 442.000 C 139.325 442.000,140.000 441.325,140.000 440.500 C 140.000 439.567,140.944 439.000,142.500 439.000 C 143.875 439.000,145.004 438.438,145.008 437.750 C 145.016 436.459,149.404 434.000,151.699 434.000 C 152.415 434.000,153.000 433.325,153.000 432.500 C 153.000 431.675,153.482 431.000,154.071 431.000 C 155.456 431.000,158.000 428.456,158.000 427.071 C 158.000 426.482,158.482 426.000,159.071 426.000 C 160.456 426.000,163.000 423.456,163.000 422.071 C 163.000 421.482,163.675 421.000,164.500 421.000 C 165.325 421.000,166.000 420.373,166.000 419.607 C 166.000 418.841,166.675 417.955,167.500 417.638 C 168.325 417.322,169.000 416.255,169.000 415.269 C 169.000 414.282,170.125 412.630,171.500 411.597 C 172.930 410.523,174.000 408.710,174.000 407.360 C 174.000 406.062,174.450 405.000,175.000 405.000 C 175.550 405.000,176.000 403.930,176.000 402.622 C 176.000 401.315,176.675 399.685,177.500 399.000 C 178.351 398.294,179.000 396.114,179.000 393.961 C 179.000 391.814,179.543 389.986,180.250 389.751 C 181.107 389.466,181.606 386.193,181.839 379.334 L 182.177 369.333 186.493 369.333 C 190.685 369.333,194.000 367.451,194.000 365.071 C 194.000 364.482,194.485 364.000,195.077 364.000 C 196.962 364.000,202.000 358.234,202.000 356.077 C 202.000 354.897,202.648 354.000,203.500 354.000 C 204.584 354.000,205.000 352.887,205.000 349.986 C 205.000 347.779,205.417 345.191,205.927 344.236 C 206.437 343.281,207.098 341.713,207.396 340.750 C 207.749 339.609,208.949 339.000,210.846 339.000 C 212.446 339.000,214.315 338.325,215.000 337.500 C 215.760 336.585,217.951 336.000,220.622 336.000 C 223.847 336.000,225.000 335.605,225.000 334.500 C 225.000 333.367,226.222 333.000,230.000 333.000 C 232.750 333.000,235.000 332.550,235.000 332.000 C 235.000 331.450,237.475 331.000,240.500 331.000 C 244.722 331.000,246.000 330.652,246.000 329.500 C 246.000 328.367,247.222 328.000,251.000 328.000 C 254.778 328.000,256.000 328.367,256.000 329.500 C 256.000 330.325,255.550 331.000,255.000 331.000 C 254.450 331.000,254.000 332.800,254.000 335.000 C 254.000 337.889,253.583 339.000,252.500 339.000 C 251.507 339.000,251.000 339.993,251.000 341.941 C 251.000 343.559,250.550 345.160,250.000 345.500 C 249.450 345.840,249.000 346.959,249.000 347.988 C 249.000 349.016,248.325 350.532,247.500 351.357 C 246.675 352.182,246.000 354.046,246.000 355.500 C 246.000 356.954,245.325 358.818,244.500 359.643 C 243.675 360.468,243.000 362.461,243.000 364.071 C 243.000 365.682,242.550 367.000,242.000 367.000 C 241.450 367.000,241.000 368.800,241.000 371.000 C 241.000 373.889,240.583 375.000,239.500 375.000 C 238.452 375.000,238.000 376.056,238.000 378.500 C 238.000 380.425,237.550 382.000,237.000 382.000 C 236.450 382.000,236.000 383.157,236.000 384.571 C 236.000 385.986,235.325 387.818,234.500 388.643 C 233.342 389.801,233.000 392.746,233.000 401.571 C 233.000 411.063,233.254 413.000,234.500 413.000 C 235.433 413.000,236.000 413.944,236.000 415.500 C 236.000 416.875,236.450 418.000,237.000 418.000 C 237.550 418.000,238.000 418.675,238.000 419.500 C 238.000 420.325,238.675 421.000,239.500 421.000 C 240.325 421.000,241.000 421.513,241.000 422.140 C 241.000 423.821,244.171 425.932,246.750 425.968 C 248.069 425.987,249.000 426.621,249.000 427.500 C 249.000 429.781,494.763 429.781,495.638 427.500 C 495.955 426.675,497.291 426.000,498.607 426.000 C 499.923 426.000,501.000 425.652,501.000 425.227 C 501.000 424.802,502.575 423.607,504.500 422.570 C 506.425 421.533,508.000 420.081,508.000 419.343 C 508.000 418.604,508.675 418.000,509.500 418.000 C 510.433 418.000,511.000 417.056,511.000 415.500 C 511.000 414.051,511.575 413.000,512.369 413.000 C 514.250 413.000,514.978 407.699,514.978 394.000 C 514.978 380.301,514.250 375.000,512.369 375.000 C 511.616 375.000,511.000 374.518,511.000 373.929 C 511.000 373.339,510.357 372.214,509.571 371.429 C 508.786 370.643,507.661 370.000,507.071 370.000 C 506.482 370.000,506.000 369.325,506.000 368.500 C 506.000 367.675,505.325 367.000,504.500 367.000 C 503.675 367.000,503.000 366.325,503.000 365.500 C 503.000 364.675,502.127 364.000,501.059 364.000 C 499.991 364.000,498.840 363.550,498.500 363.000 C 498.160 362.450,496.976 362.000,495.870 362.000 C 494.763 362.000,493.182 361.325,492.357 360.500 C 491.068 359.211,484.476 359.000,445.429 359.000 L 400.000 359.000 400.000 354.107 C 400.000 350.680,400.449 349.042,401.500 348.638 C 402.502 348.254,403.011 346.642,403.032 343.781 C 403.049 341.427,403.724 338.626,404.532 337.559 C 405.339 336.491,406.000 334.579,406.000 333.309 C 406.000 332.039,406.450 331.000,407.000 331.000 C 407.550 331.000,408.000 329.200,408.000 327.000 C 408.000 324.111,408.417 323.000,409.500 323.000 C 410.433 323.000,411.000 322.056,411.000 320.500 C 411.000 319.125,411.450 318.000,412.000 318.000 C 412.550 318.000,413.000 316.923,413.000 315.607 C 413.000 314.291,413.675 312.955,414.500 312.638 C 415.325 312.322,416.000 310.924,416.000 309.531 C 416.000 308.139,416.450 307.000,417.000 307.000 C 417.550 307.000,418.000 305.875,418.000 304.500 C 418.000 302.944,418.567 302.000,419.500 302.000 C 420.359 302.000,421.000 301.099,421.000 299.894 C 421.000 298.736,422.125 296.903,423.500 295.821 C 424.875 294.740,426.000 292.988,426.000 291.927 C 426.000 290.867,426.563 289.996,427.250 289.992 C 428.882 289.982,431.000 285.356,431.000 281.801 C 431.000 279.978,431.524 279.000,432.500 279.000 C 433.781 279.000,434.000 276.222,434.000 260.000 C 434.000 243.778,433.781 241.000,432.500 241.000 C 431.417 241.000,431.000 239.889,431.000 237.000 C 431.000 234.800,430.550 233.000,430.000 233.000 C 429.450 233.000,429.000 231.473,429.000 229.607 C 429.000 227.513,428.426 225.994,427.500 225.638 C 426.675 225.322,425.986 224.261,425.968 223.281 C 425.929 221.094,423.686 218.000,422.140 218.000 C 421.513 218.000,421.000 217.079,421.000 215.952 C 421.000 214.826,419.875 212.862,418.500 211.588 C 417.125 210.313,416.000 208.760,416.000 208.135 C 416.000 207.511,415.325 207.000,414.500 207.000 C 413.675 207.000,413.000 206.344,413.000 205.543 C 413.000 203.643,396.357 187.000,394.457 187.000 C 393.656 187.000,393.000 186.325,393.000 185.500 C 393.000 184.675,392.536 184.000,391.969 184.000 C 391.402 184.000,388.758 181.750,386.094 179.000 C 383.429 176.250,380.936 174.000,380.553 174.000 C 380.170 174.000,379.230 173.438,378.463 172.750 C 375.154 169.782,374.023 169.000,373.042 169.000 C 372.469 169.000,372.000 168.325,372.000 167.500 C 372.000 166.675,371.325 166.000,370.500 166.000 C 369.675 166.000,369.000 165.550,369.000 165.000 C 369.000 164.450,367.875 164.000,366.500 164.000 C 365.125 164.000,364.000 163.555,364.000 163.011 C 364.000 161.255,360.608 158.000,358.778 158.000 C 357.800 158.000,357.000 157.550,357.000 157.000 C 357.000 156.450,356.325 156.000,355.500 156.000 C 354.675 156.000,354.000 155.325,354.000 154.500 C 354.000 153.567,353.056 153.000,351.500 153.000 C 350.125 153.000,349.000 152.550,349.000 152.000 C 349.000 151.450,348.325 151.000,347.500 151.000 C 346.675 151.000,346.000 150.325,346.000 149.500 C 346.000 148.567,345.056 148.000,343.500 148.000 C 342.125 148.000,341.000 147.599,341.000 147.108 C 341.000 146.618,339.875 145.934,338.500 145.589 C 337.125 145.244,336.000 144.520,336.000 143.981 C 336.000 143.441,335.325 143.000,334.500 143.000 C 333.675 143.000,333.000 142.559,333.000 142.019 C 333.000 141.480,331.875 140.756,330.500 140.411 C 329.125 140.066,328.000 139.382,328.000 138.892 C 328.000 138.401,326.875 138.000,325.500 138.000 C 323.944 138.000,323.000 137.433,323.000 136.500 C 323.000 135.567,322.056 135.000,320.500 135.000 C 319.125 135.000,318.000 134.550,318.000 134.000 C 318.000 133.450,316.923 133.000,315.607 133.000 C 314.291 133.000,312.955 132.325,312.638 131.500 C 312.309 130.642,310.817 130.000,309.154 130.000 C 307.554 130.000,305.685 129.325,305.000 128.500 C 304.315 127.675,302.910 127.000,301.878 127.000 C 300.845 127.000,300.000 126.550,300.000 126.000 C 300.000 125.450,298.843 125.000,297.429 125.000 C 296.014 125.000,294.182 124.325,293.357 123.500 C 292.532 122.675,290.764 122.000,289.429 122.000 C 288.093 122.000,287.000 121.550,287.000 121.000 C 287.000 120.450,285.200 120.000,283.000 120.000 C 280.111 120.000,279.000 119.583,279.000 118.500 C 279.000 117.367,277.778 117.000,274.000 117.000 C 271.250 117.000,269.000 116.550,269.000 116.000 C 269.000 115.381,263.667 115.000,255.000 115.000 C 246.333 115.000,241.000 115.381,241.000 116.000 M310.000 244.500 C 310.000 245.325,310.509 246.000,311.132 246.000 C 311.754 246.000,313.696 247.518,315.445 249.373 C 317.195 251.229,319.611 253.059,320.813 253.441 C 322.016 253.822,323.000 254.554,323.000 255.067 C 323.000 255.580,323.675 256.000,324.500 256.000 C 325.325 256.000,326.000 256.482,326.000 257.071 C 326.000 257.661,326.643 258.786,327.429 259.571 C 328.214 260.357,329.339 261.000,329.929 261.000 C 330.518 261.000,331.000 261.482,331.000 262.071 C 331.000 263.456,333.544 266.000,334.929 266.000 C 335.518 266.000,336.000 266.675,336.000 267.500 C 336.000 268.325,336.675 269.000,337.500 269.000 C 338.325 269.000,339.000 269.482,339.000 270.071 C 339.000 271.456,341.544 274.000,342.929 274.000 C 343.518 274.000,344.000 274.675,344.000 275.500 C 344.000 276.325,344.441 277.000,344.981 277.000 C 345.520 277.000,346.244 278.125,346.589 279.500 C 346.934 280.875,347.618 282.000,348.108 282.000 C 349.558 282.000,349.125 286.018,347.500 287.643 C 346.675 288.468,346.000 290.209,346.000 291.512 C 346.000 292.816,345.550 294.160,345.000 294.500 C 344.450 294.840,344.000 296.168,344.000 297.452 C 344.000 298.736,343.325 300.045,342.500 300.362 C 341.559 300.723,341.000 302.252,341.000 304.469 C 341.000 306.411,340.550 308.000,340.000 308.000 C 339.450 308.000,339.000 309.800,339.000 312.000 C 339.000 314.889,338.583 316.000,337.500 316.000 C 336.385 316.000,336.000 317.175,336.000 320.571 C 336.000 323.302,335.396 325.747,334.500 326.643 C 333.675 327.468,333.000 329.884,333.000 332.012 C 333.000 334.141,332.550 336.160,332.000 336.500 C 331.429 336.853,331.000 341.959,331.000 348.405 C 331.000 356.779,330.584 360.526,329.390 362.920 C 328.410 364.884,328.009 367.294,328.365 369.074 L 328.950 372.000 315.614 372.000 L 302.277 372.000 302.758 369.485 C 303.022 368.102,303.635 366.726,304.119 366.426 C 304.604 366.127,305.000 364.382,305.000 362.548 C 305.000 360.507,305.582 358.991,306.500 358.638 C 307.441 358.277,308.000 356.748,308.000 354.531 C 308.000 352.589,308.450 351.000,309.000 351.000 C 309.550 351.000,310.000 349.425,310.000 347.500 C 310.000 345.056,310.452 344.000,311.500 344.000 C 312.583 344.000,313.000 342.889,313.000 340.000 C 313.000 337.800,313.450 336.000,314.000 336.000 C 314.550 336.000,315.000 334.843,315.000 333.429 C 315.000 332.014,315.675 330.182,316.500 329.357 C 317.325 328.532,318.000 326.764,318.000 325.429 C 318.000 324.093,318.445 323.000,318.988 323.000 C 319.532 323.000,320.264 321.200,320.616 319.000 C 320.968 316.800,321.648 315.000,322.128 315.000 C 322.608 315.000,323.000 312.286,323.000 308.969 C 323.000 304.530,323.396 302.785,324.500 302.362 C 325.721 301.893,326.000 299.500,326.000 289.515 C 326.000 279.828,325.684 276.983,324.500 276.000 C 323.639 275.285,323.000 273.104,323.000 270.878 C 323.000 268.745,322.550 267.000,322.000 267.000 C 321.450 267.000,321.000 265.861,321.000 264.469 C 321.000 263.076,320.325 261.678,319.500 261.362 C 318.675 261.045,318.000 259.709,318.000 258.393 C 318.000 257.020,317.409 256.000,316.614 256.000 C 315.852 256.000,314.480 254.425,313.567 252.500 C 312.142 249.496,311.416 249.000,308.453 249.000 C 305.283 249.000,305.000 248.754,305.000 246.000 C 305.000 243.467,305.389 243.000,307.500 243.000 C 309.056 243.000,310.000 243.567,310.000 244.500 M48.000 299.000 C 48.000 299.563,45.190 300.000,41.571 300.000 C 37.190 300.000,34.665 300.478,33.643 301.500 C 32.818 302.325,30.986 303.000,29.571 303.000 C 28.157 303.000,27.000 303.450,27.000 304.000 C 27.000 304.550,25.875 305.000,24.500 305.000 C 22.944 305.000,22.000 305.567,22.000 306.500 C 22.000 307.325,21.325 308.000,20.500 308.000 C 19.675 308.000,19.000 308.348,19.000 308.773 C 19.000 309.198,17.425 310.393,15.500 311.430 C 13.575 312.467,12.000 313.871,12.000 314.550 C 12.000 315.230,11.325 316.045,10.500 316.362 C 9.675 316.678,9.000 317.851,9.000 318.969 C 9.000 320.086,8.487 321.000,7.860 321.000 C 6.443 321.000,4.074 324.025,4.032 325.890 C 4.014 326.654,3.212 327.855,2.250 328.558 C -1.128 331.027,-0.822 377.000,2.572 377.000 C 3.429 377.000,4.000 378.000,4.000 379.500 C 4.000 380.875,4.378 382.000,4.839 382.000 C 5.301 382.000,6.538 383.795,7.589 385.989 C 8.640 388.182,10.063 389.982,10.750 389.989 C 11.438 389.995,12.000 390.482,12.000 391.071 C 12.000 392.456,14.544 395.000,15.929 395.000 C 16.518 395.000,17.000 395.441,17.000 395.981 C 17.000 396.520,18.125 397.244,19.500 397.589 C 20.875 397.934,22.000 398.618,22.000 399.108 C 22.000 399.599,22.914 400.000,24.031 400.000 C 25.149 400.000,26.322 400.675,26.638 401.500 C 26.955 402.325,28.253 403.000,29.524 403.000 C 30.794 403.000,32.002 403.507,32.209 404.127 C 32.416 404.747,34.928 405.479,37.792 405.754 C 40.657 406.029,43.000 406.647,43.000 407.127 C 43.000 407.607,46.825 408.000,51.500 408.000 C 56.500 408.000,60.000 407.588,60.000 407.000 C 60.000 406.450,61.993 406.000,64.429 406.000 C 67.032 406.000,69.475 405.382,70.357 404.500 C 71.182 403.675,73.028 403.000,74.460 403.000 C 75.892 403.000,77.322 402.325,77.638 401.500 C 77.955 400.675,78.841 400.000,79.607 400.000 C 80.373 400.000,81.000 399.550,81.000 399.000 C 81.000 398.450,82.125 398.000,83.500 398.000 C 85.056 398.000,86.000 397.433,86.000 396.500 C 86.000 395.675,86.482 395.000,87.071 395.000 C 88.456 395.000,91.000 392.456,91.000 391.071 C 91.000 390.482,91.675 390.000,92.500 390.000 C 93.325 390.000,94.000 389.363,94.000 388.583 C 94.000 387.804,94.346 387.017,94.768 386.833 C 96.346 386.148,102.000 376.243,102.000 374.162 C 102.000 372.973,102.450 372.000,103.000 372.000 C 103.550 372.000,104.000 370.030,104.000 367.622 C 104.000 364.951,104.585 362.760,105.500 362.000 C 106.615 361.075,107.000 358.604,107.000 352.378 C 107.000 345.598,106.714 344.000,105.500 344.000 C 104.367 344.000,104.000 342.778,104.000 339.000 C 104.000 336.250,103.550 334.000,103.000 334.000 C 102.450 334.000,102.000 332.698,102.000 331.107 C 102.000 329.458,101.355 327.966,100.500 327.638 C 99.675 327.322,99.000 326.149,99.000 325.031 C 99.000 323.914,98.652 323.000,98.227 323.000 C 97.802 323.000,96.607 321.425,95.570 319.500 C 94.533 317.575,93.081 316.000,92.343 316.000 C 91.604 316.000,91.000 315.478,91.000 314.839 C 91.000 313.097,84.904 308.000,82.820 308.000 C 81.819 308.000,81.000 307.325,81.000 306.500 C 81.000 305.567,80.056 305.000,78.500 305.000 C 77.125 305.000,76.000 304.550,76.000 304.000 C 76.000 303.450,74.861 303.000,73.469 303.000 C 72.076 303.000,70.678 302.325,70.362 301.500 C 69.928 300.369,68.104 300.000,62.952 300.000 C 59.193 300.000,55.840 299.550,55.500 299.000 C 55.160 298.450,53.334 298.000,51.441 298.000 C 49.548 298.000,48.000 298.450,48.000 299.000 " stroke="none" fill="#000000" fill-rule="evenodd"></path></g></svg>