<svg id="svg" version="1.1" width="515" height="515" xmlns="http://www.w3.org/2000/svg" xmlns:xlink="http://www.w3.org/1999/xlink" style="display: block;"><g id="svgg"><path id="path0" d="M328.121 0.958 C 326.262 1.421,324.462 2.187,324.121 2.660 C 323.779 3.132,321.813 4.405,319.750 5.487 C 317.688 6.569,316.000 7.802,316.000 8.227 C 316.000 8.652,315.325 9.000,314.500 9.000 C 313.675 9.000,313.000 9.675,313.000 10.500 C 313.000 11.325,312.518 12.000,311.929 12.000 C 310.544 12.000,308.000 14.544,308.000 15.929 C 308.000 16.518,307.325 17.000,306.500 17.000 C 305.675 17.000,305.000 17.585,305.000 18.301 C 305.000 20.596,302.541 24.984,301.250 24.992 C 300.541 24.997,300.000 26.246,300.000 27.878 C 300.000 29.460,299.325 31.315,298.500 32.000 C 297.590 32.755,297.000 34.945,297.000 37.563 C 297.000 39.939,296.550 42.160,296.000 42.500 C 295.450 42.840,295.000 46.665,295.000 51.000 C 295.000 55.335,295.450 59.160,296.000 59.500 C 296.550 59.840,297.000 61.805,297.000 63.868 C 297.000 65.930,297.661 68.491,298.468 69.559 C 299.276 70.626,299.951 72.513,299.968 73.750 C 299.987 75.069,300.621 76.000,301.500 76.000 C 302.433 76.000,303.000 76.944,303.000 78.500 C 303.000 79.875,303.450 81.000,304.000 81.000 C 304.550 81.000,305.000 81.675,305.000 82.500 C 305.000 83.325,305.482 84.000,306.071 84.000 C 307.456 84.000,310.000 86.544,310.000 87.929 C 310.000 88.518,310.480 89.000,311.067 89.000 C 311.654 89.000,313.567 90.512,315.317 92.361 C 317.068 94.209,319.512 96.039,320.750 96.428 C 321.988 96.817,323.000 97.554,323.000 98.067 C 323.000 98.580,324.070 99.000,325.378 99.000 C 326.685 99.000,328.315 99.675,329.000 100.500 C 329.760 101.415,331.951 102.000,334.622 102.000 C 337.030 102.000,339.000 102.450,339.000 103.000 C 339.000 103.600,343.000 104.000,349.000 104.000 C 355.000 104.000,359.000 103.600,359.000 103.000 C 359.000 102.450,360.768 102.000,362.929 102.000 C 365.089 102.000,367.532 101.325,368.357 100.500 C 369.182 99.675,370.528 99.000,371.348 99.000 C 373.186 99.000,378.985 95.777,378.994 94.750 C 378.997 94.338,379.675 94.000,380.500 94.000 C 381.325 94.000,382.000 93.325,382.000 92.500 C 382.000 91.675,382.471 91.000,383.047 91.000 C 384.615 91.000,392.304 82.934,394.010 79.500 C 394.829 77.850,396.063 75.905,396.750 75.179 C 397.438 74.452,398.000 72.539,398.000 70.929 C 398.000 69.318,398.450 68.000,399.000 68.000 C 399.562 68.000,400.000 65.202,400.000 61.607 C 400.000 56.847,400.383 55.067,401.500 54.638 C 402.366 54.306,403.000 52.811,403.000 51.103 C 403.000 49.475,402.325 47.468,401.500 46.643 C 400.471 45.614,400.000 43.079,400.000 38.571 C 400.000 34.857,399.565 32.000,399.000 32.000 C 398.450 32.000,398.000 30.923,398.000 29.607 C 398.000 28.291,397.325 26.955,396.500 26.638 C 395.675 26.322,395.000 25.149,395.000 24.031 C 395.000 22.914,394.599 22.000,394.108 22.000 C 393.618 22.000,392.934 20.875,392.589 19.500 C 392.244 18.125,391.520 17.000,390.981 17.000 C 390.441 17.000,390.000 16.325,390.000 15.500 C 390.000 14.675,389.518 14.000,388.929 14.000 C 387.544 14.000,385.000 11.456,385.000 10.071 C 385.000 9.482,384.325 9.000,383.500 9.000 C 382.675 9.000,382.000 8.559,382.000 8.019 C 382.000 7.480,380.875 6.756,379.500 6.411 C 378.125 6.066,377.000 5.382,377.000 4.892 C 377.000 4.401,376.122 4.000,375.050 4.000 C 373.977 4.000,372.659 3.213,372.121 2.250 C 371.025 0.289,335.044 -0.767,328.121 0.958 M156.643 82.500 C 155.818 83.325,153.536 84.000,151.571 84.000 C 149.607 84.000,148.000 84.450,148.000 85.000 C 148.000 85.550,147.086 86.000,145.969 86.000 C 144.851 86.000,143.678 86.675,143.362 87.500 C 143.045 88.325,142.159 89.000,141.393 89.000 C 140.627 89.000,140.000 89.420,140.000 89.933 C 140.000 90.446,139.008 91.180,137.797 91.565 C 135.222 92.382,133.000 94.403,133.000 95.929 C 133.000 96.518,132.325 97.000,131.500 97.000 C 130.675 97.000,130.000 97.822,130.000 98.826 C 130.000 99.830,128.875 101.708,127.500 103.000 C 126.125 104.292,125.000 106.202,125.000 107.246 C 125.000 108.289,124.325 109.818,123.500 110.643 C 122.675 111.468,122.000 113.911,122.000 116.071 C 122.000 118.232,121.550 120.000,121.000 120.000 C 120.412 120.000,120.000 123.480,120.000 128.441 C 120.000 133.084,120.450 137.160,121.000 137.500 C 121.550 137.840,122.000 139.859,122.000 141.988 C 122.000 144.116,122.675 146.532,123.500 147.357 C 124.325 148.182,125.000 149.596,125.000 150.500 C 125.000 151.404,125.562 152.770,126.250 153.537 C 129.156 156.777,130.000 157.966,130.000 158.818 C 130.000 159.314,131.125 160.565,132.500 161.597 C 133.875 162.630,135.000 164.043,135.000 164.737 C 135.000 165.432,135.675 166.000,136.500 166.000 C 137.325 166.000,138.000 166.441,138.000 166.981 C 138.000 167.520,139.125 168.244,140.500 168.589 C 141.875 168.934,143.000 169.618,143.000 170.108 C 143.000 170.599,144.125 171.000,145.500 171.000 C 147.056 171.000,148.000 171.567,148.000 172.500 C 148.000 173.583,149.111 174.000,152.000 174.000 C 154.200 174.000,156.000 174.450,156.000 175.000 C 156.000 175.613,160.833 176.000,168.500 176.000 C 176.167 176.000,181.000 175.613,181.000 175.000 C 181.000 174.450,181.787 174.016,182.750 174.036 C 184.134 174.064,183.924 174.543,181.750 176.324 C 180.238 177.562,179.000 179.346,179.000 180.288 C 179.000 181.229,178.518 182.000,177.929 182.000 C 176.198 182.000,174.000 184.698,174.000 186.822 C 174.000 187.902,173.325 189.045,172.500 189.362 C 171.559 189.723,171.000 191.252,171.000 193.469 C 171.000 195.411,170.550 197.000,170.000 197.000 C 169.450 197.000,169.000 198.070,169.000 199.378 C 169.000 200.685,168.325 202.315,167.500 203.000 C 166.285 204.008,166.000 207.177,166.000 219.654 C 166.000 232.428,166.256 235.161,167.500 235.638 C 168.325 235.955,169.000 237.028,169.000 238.024 C 169.000 239.019,169.563 240.060,170.250 240.338 C 171.250 240.741,171.250 240.858,170.250 240.921 C 169.563 240.964,169.000 242.125,169.000 243.500 C 169.000 245.056,168.433 246.000,167.500 246.000 C 166.675 246.000,166.000 246.568,166.000 247.263 C 166.000 247.957,164.875 249.370,163.500 250.403 C 162.125 251.435,161.000 252.644,161.000 253.089 C 161.000 254.153,156.490 259.000,155.500 259.000 C 155.076 259.000,153.687 260.125,152.412 261.500 C 151.138 262.875,149.624 264.000,149.048 264.000 C 148.471 264.000,148.000 264.513,148.000 265.140 C 148.000 266.686,144.906 268.929,142.719 268.968 C 141.739 268.986,140.678 269.675,140.362 270.500 C 140.045 271.325,138.709 272.000,137.393 272.000 C 136.077 272.000,135.000 272.450,135.000 273.000 C 135.000 273.550,134.086 274.000,132.969 274.000 C 131.851 274.000,130.678 274.675,130.362 275.500 C 130.045 276.325,128.709 277.000,127.393 277.000 C 126.077 277.000,125.000 277.450,125.000 278.000 C 125.000 278.550,123.411 279.000,121.469 279.000 C 119.252 279.000,117.723 279.559,117.362 280.500 C 117.012 281.410,115.500 282.000,113.515 282.000 C 111.717 282.000,109.685 282.675,109.000 283.500 C 108.315 284.325,107.103 285.000,106.306 285.000 C 104.245 285.000,102.000 287.514,102.000 289.822 C 102.000 290.902,101.325 292.045,100.500 292.362 C 98.726 293.042,98.356 302.484,100.062 303.538 C 100.646 303.899,101.551 305.319,102.074 306.694 C 102.596 308.069,103.919 309.427,105.012 309.713 C 106.105 309.999,107.000 310.856,107.000 311.617 C 107.000 313.698,126.264 313.593,128.357 311.500 C 129.182 310.675,130.988 310.000,132.370 310.000 C 133.751 310.000,135.160 309.550,135.500 309.000 C 135.840 308.450,137.456 308.000,139.090 308.000 C 140.810 308.000,142.305 307.368,142.638 306.500 C 142.955 305.675,144.291 305.000,145.607 305.000 C 146.923 305.000,148.000 304.550,148.000 304.000 C 148.000 303.450,148.914 303.000,150.031 303.000 C 151.149 303.000,152.322 302.325,152.638 301.500 C 152.955 300.675,154.291 300.000,155.607 300.000 C 157.067 300.000,158.000 299.415,158.000 298.500 C 158.000 297.567,158.944 297.000,160.500 297.000 C 161.875 297.000,163.000 296.550,163.000 296.000 C 163.000 295.450,163.675 295.000,164.500 295.000 C 165.325 295.000,166.000 294.325,166.000 293.500 C 166.000 292.675,166.675 292.000,167.500 292.000 C 168.325 292.000,169.000 291.550,169.000 291.000 C 169.000 290.450,169.634 290.000,170.408 290.000 C 171.977 290.000,189.000 273.674,189.000 272.169 C 189.000 271.644,189.675 270.955,190.500 270.638 C 191.325 270.322,192.000 269.342,192.000 268.460 C 192.000 266.638,194.324 264.000,195.929 264.000 C 196.518 264.000,197.000 263.100,197.000 262.000 C 197.000 260.231,200.174 256.000,201.500 256.000 C 201.775 256.000,202.000 256.914,202.000 258.031 C 202.000 259.149,202.675 260.322,203.500 260.638 C 204.325 260.955,205.000 261.648,205.000 262.178 C 205.000 263.476,207.595 266.000,208.929 266.000 C 209.518 266.000,210.014 267.012,210.032 268.250 C 210.068 270.829,212.179 274.000,213.860 274.000 C 214.487 274.000,215.000 275.125,215.000 276.500 C 215.000 278.056,215.567 279.000,216.500 279.000 C 217.433 279.000,218.000 279.944,218.000 281.500 C 218.000 282.875,218.450 284.000,219.000 284.000 C 219.550 284.000,220.000 284.914,220.000 286.031 C 220.000 287.149,220.675 288.322,221.500 288.638 C 222.325 288.955,223.000 290.291,223.000 291.607 C 223.000 292.923,223.450 294.000,224.000 294.000 C 224.550 294.000,225.000 294.868,225.000 295.929 C 225.000 296.989,225.675 298.532,226.500 299.357 C 227.325 300.182,228.000 301.789,228.000 302.929 C 228.000 304.068,228.450 305.000,229.000 305.000 C 229.550 305.000,230.003 305.788,230.006 306.750 C 230.010 307.712,230.685 309.789,231.506 311.364 C 232.328 312.940,233.000 315.029,233.000 316.007 C 233.000 316.986,233.675 318.045,234.500 318.362 C 235.441 318.723,236.000 320.252,236.000 322.469 C 236.000 324.411,236.450 326.000,237.000 326.000 C 238.304 326.000,238.304 332.694,237.000 333.500 C 236.450 333.840,236.000 337.636,236.000 341.937 C 236.000 347.666,235.599 350.088,234.500 351.000 C 233.233 352.052,233.000 356.550,233.000 380.015 C 233.000 403.778,233.216 407.869,234.500 408.362 C 235.687 408.817,236.000 410.912,236.000 418.410 C 236.000 423.646,236.447 428.158,237.000 428.500 C 237.550 428.840,238.000 431.806,238.000 435.090 C 238.000 439.477,238.398 441.216,239.500 441.638 C 240.547 442.040,241.000 443.674,241.000 447.048 C 241.000 449.707,241.450 452.160,242.000 452.500 C 242.550 452.840,243.000 455.116,243.000 457.559 C 243.000 460.840,243.392 462.000,244.500 462.000 C 245.593 462.000,246.009 463.153,246.032 466.250 C 246.049 468.587,246.724 471.374,247.532 472.441 C 248.339 473.509,249.000 475.646,249.000 477.191 C 249.000 478.736,249.450 480.000,250.000 480.000 C 250.550 480.000,251.000 481.093,251.000 482.429 C 251.000 483.764,251.675 485.532,252.500 486.357 C 253.325 487.182,254.000 489.014,254.000 490.429 C 254.000 491.843,254.450 493.000,255.000 493.000 C 255.550 493.000,256.000 494.295,256.000 495.878 C 256.000 497.460,256.675 499.315,257.500 500.000 C 258.325 500.685,259.000 502.124,259.000 503.199 C 259.000 505.263,264.092 511.000,265.923 511.000 C 266.515 511.000,267.000 511.627,267.000 512.393 C 267.000 514.591,269.356 515.000,282.000 515.000 C 294.644 515.000,297.000 514.591,297.000 512.393 C 297.000 511.627,297.485 511.000,298.077 511.000 C 299.993 511.000,305.000 505.218,305.000 503.005 C 305.000 501.824,305.675 500.182,306.500 499.357 C 307.490 498.367,308.000 495.877,308.000 492.036 C 308.000 487.783,307.596 486.059,306.500 485.638 C 305.559 485.277,305.000 483.748,305.000 481.531 C 305.000 479.589,304.550 478.000,304.000 478.000 C 303.450 478.000,303.000 477.086,303.000 475.969 C 303.000 474.851,302.325 473.678,301.500 473.362 C 300.522 472.986,300.000 471.431,300.000 468.893 C 300.000 466.099,299.576 465.000,298.500 465.000 C 297.417 465.000,297.000 463.889,297.000 461.000 C 297.000 458.800,296.550 457.000,296.000 457.000 C 295.450 457.000,295.000 455.411,295.000 453.469 C 295.000 451.252,294.441 449.723,293.500 449.362 C 292.449 448.958,292.000 447.320,292.000 443.893 C 292.000 441.202,291.550 439.000,291.000 439.000 C 290.450 439.000,290.000 436.750,290.000 434.000 C 290.000 430.222,289.633 429.000,288.500 429.000 C 287.311 429.000,287.000 427.562,287.000 422.059 C 287.000 418.241,286.618 414.882,286.150 414.593 C 285.683 414.304,285.040 408.776,284.721 402.308 C 284.378 395.340,283.706 390.402,283.071 390.190 C 281.582 389.694,281.620 369.293,283.110 368.797 C 283.791 368.570,284.426 364.095,284.752 357.213 C 285.044 351.046,285.670 346.000,286.142 346.000 C 286.614 346.000,287.000 343.075,287.000 339.500 C 287.000 334.389,287.321 333.000,288.500 333.000 C 289.351 333.000,290.000 332.103,290.000 330.929 C 290.000 328.715,292.164 326.000,293.929 326.000 C 294.518 326.000,295.000 325.518,295.000 324.929 C 295.000 323.544,297.544 321.000,298.929 321.000 C 299.518 321.000,300.000 320.325,300.000 319.500 C 300.000 318.675,300.401 318.000,300.892 318.000 C 301.382 318.000,302.066 316.875,302.411 315.500 C 302.756 314.125,303.480 313.000,304.019 313.000 C 304.603 313.000,305.000 308.351,305.000 301.500 C 305.000 294.500,304.609 290.000,304.000 290.000 C 303.450 290.000,303.000 288.875,303.000 287.500 C 303.000 285.944,302.433 285.000,301.500 285.000 C 300.567 285.000,300.000 284.056,300.000 282.500 C 300.000 280.944,299.433 280.000,298.500 280.000 C 297.675 280.000,297.000 279.478,297.000 278.839 C 297.000 277.097,290.904 272.000,288.820 272.000 C 287.819 272.000,287.000 271.325,287.000 270.500 C 287.000 269.675,286.325 269.000,285.500 269.000 C 284.675 269.000,284.000 268.550,284.000 268.000 C 284.000 267.450,282.875 267.000,281.500 267.000 C 280.125 267.000,279.000 266.489,279.000 265.865 C 279.000 265.240,277.875 263.687,276.500 262.412 C 273.169 259.325,273.312 259.000,278.000 259.000 C 280.889 259.000,282.000 258.583,282.000 257.500 C 282.000 256.417,283.111 256.000,286.000 256.000 C 288.200 256.000,290.000 255.550,290.000 255.000 C 290.000 254.450,291.093 254.000,292.429 254.000 C 293.764 254.000,295.532 253.325,296.357 252.500 C 297.182 251.675,298.741 251.000,299.822 251.000 C 300.902 251.000,302.045 250.325,302.362 249.500 C 302.678 248.675,304.076 248.000,305.469 248.000 C 306.861 248.000,308.000 247.550,308.000 247.000 C 308.000 246.450,308.837 246.000,309.860 246.000 C 310.883 246.000,312.565 244.875,313.597 243.500 C 314.630 242.125,316.289 241.000,317.285 241.000 C 318.281 241.000,320.138 239.875,321.412 238.500 C 322.687 237.125,324.240 236.000,324.865 236.000 C 326.509 236.000,326.258 239.885,324.500 241.643 C 323.675 242.468,323.000 244.884,323.000 247.012 C 323.000 249.141,322.550 251.160,322.000 251.500 C 321.450 251.840,321.000 253.843,321.000 255.952 C 321.000 258.438,320.472 259.988,319.500 260.362 C 318.636 260.693,318.000 262.187,318.000 263.885 C 318.000 265.507,317.506 266.998,316.902 267.199 C 316.298 267.401,315.563 269.699,315.269 272.306 C 314.975 274.913,314.344 277.287,313.867 277.582 C 313.390 277.877,312.986 280.004,312.968 282.309 C 312.951 284.614,312.276 287.374,311.468 288.441 C 310.650 289.523,310.000 292.511,310.000 295.191 C 310.000 297.836,309.550 300.000,309.000 300.000 C 308.418 300.000,308.000 303.298,308.000 307.893 C 308.000 313.987,307.658 315.917,306.500 316.362 C 305.292 316.825,305.000 319.085,305.000 327.969 C 305.000 334.656,304.606 339.000,304.000 339.000 C 303.355 339.000,303.000 350.147,303.000 370.441 C 303.000 390.323,303.368 402.109,304.000 402.500 C 304.558 402.845,305.000 407.510,305.000 413.059 C 305.000 421.229,305.267 423.000,306.500 423.000 C 307.678 423.000,308.000 424.382,308.000 429.441 C 308.000 432.984,308.450 436.160,309.000 436.500 C 309.550 436.840,310.000 439.581,310.000 442.590 C 310.000 446.532,310.420 448.224,311.500 448.638 C 312.551 449.042,313.000 450.680,313.000 454.107 C 313.000 456.798,313.450 459.000,314.000 459.000 C 314.550 459.000,315.000 460.318,315.000 461.929 C 315.000 463.539,315.675 465.532,316.500 466.357 C 317.325 467.182,318.000 469.464,318.000 471.429 C 318.000 473.937,318.447 475.000,319.500 475.000 C 320.583 475.000,321.000 476.111,321.000 479.000 C 321.000 481.200,321.450 483.000,322.000 483.000 C 322.550 483.000,323.000 484.077,323.000 485.393 C 323.000 486.709,323.675 488.045,324.500 488.362 C 325.368 488.695,326.000 490.190,326.000 491.910 C 326.000 493.544,326.450 495.160,327.000 495.500 C 327.550 495.840,328.000 496.811,328.000 497.657 C 328.000 499.959,339.534 511.000,341.938 511.000 C 343.104 511.000,344.000 511.652,344.000 512.500 C 344.000 513.750,346.003 514.000,356.031 514.000 C 365.803 514.000,368.171 513.718,368.638 512.500 C 368.955 511.675,370.127 511.000,371.242 511.000 C 372.358 511.000,374.313 509.875,375.588 508.500 C 376.862 507.125,378.376 506.000,378.952 506.000 C 379.529 506.000,380.000 505.325,380.000 504.500 C 380.000 503.675,380.450 503.000,381.000 503.000 C 381.550 503.000,382.000 501.875,382.000 500.500 C 382.000 498.944,382.567 498.000,383.500 498.000 C 384.578 498.000,385.000 496.898,385.000 494.083 C 385.000 491.840,385.534 489.988,386.250 489.749 C 387.880 489.204,387.836 478.436,386.197 476.797 C 385.539 476.139,385.000 474.395,385.000 472.922 C 385.000 471.450,384.325 469.685,383.500 469.000 C 382.675 468.315,382.000 466.460,382.000 464.878 C 382.000 463.295,381.550 462.000,381.000 462.000 C 380.450 462.000,380.000 460.930,380.000 459.622 C 380.000 458.315,379.325 456.685,378.500 456.000 C 377.675 455.315,377.000 453.460,377.000 451.878 C 377.000 450.295,376.550 449.000,376.000 449.000 C 375.450 449.000,375.000 447.511,375.000 445.691 C 375.000 443.871,374.339 441.509,373.532 440.441 C 372.724 439.374,372.049 436.850,372.032 434.833 C 372.014 432.817,371.528 431.009,370.952 430.817 C 370.375 430.625,369.637 427.888,369.312 424.734 C 368.987 421.580,368.333 419.000,367.860 419.000 C 367.387 419.000,367.000 415.161,367.000 410.469 C 367.000 403.808,366.671 401.811,365.500 401.362 C 363.282 400.510,363.230 338.000,365.448 338.000 C 366.489 338.000,366.980 336.527,367.198 332.750 C 367.447 328.422,367.895 327.327,369.750 326.513 C 370.988 325.970,372.000 324.957,372.000 324.263 C 372.000 323.568,372.935 323.000,374.077 323.000 C 376.234 323.000,382.000 317.962,382.000 316.077 C 382.000 315.485,382.522 315.000,383.159 315.000 C 384.673 315.000,393.000 305.922,393.000 304.272 C 393.000 303.572,393.450 303.000,394.000 303.000 C 394.550 303.000,395.000 302.518,395.000 301.929 C 395.000 301.339,395.675 300.182,396.500 299.357 C 397.325 298.532,398.000 296.989,398.000 295.929 C 398.000 294.868,398.450 294.000,399.000 294.000 C 399.550 294.000,400.000 292.425,400.000 290.500 C 400.000 288.056,400.452 287.000,401.500 287.000 C 402.578 287.000,403.000 285.898,403.000 283.083 C 403.000 280.929,403.494 279.002,404.098 278.801 C 404.702 278.599,405.436 276.312,405.728 273.717 C 406.021 271.123,406.652 269.000,407.130 269.000 C 407.609 269.000,408.000 266.580,408.000 263.622 C 408.000 260.062,408.507 257.824,409.500 257.000 C 410.546 256.132,411.000 253.827,411.000 249.378 C 411.000 245.793,411.438 243.000,412.000 243.000 C 412.615 243.000,413.000 238.000,413.000 230.000 C 413.000 219.111,413.244 217.000,414.500 217.000 C 416.728 217.000,416.728 184.871,414.500 182.643 C 413.348 181.491,413.000 178.586,413.000 170.130 C 413.000 163.868,412.569 158.851,412.000 158.500 C 411.450 158.160,411.000 154.744,411.000 150.910 C 411.000 145.634,410.635 143.797,409.500 143.362 C 408.522 142.986,408.000 141.431,408.000 138.893 C 408.000 136.752,407.550 135.000,407.000 135.000 C 406.450 135.000,406.000 133.907,406.000 132.571 C 406.000 131.236,405.325 129.468,404.500 128.643 C 403.675 127.818,403.000 126.422,403.000 125.540 C 403.000 124.658,402.325 123.678,401.500 123.362 C 400.675 123.045,400.000 122.159,400.000 121.393 C 400.000 120.627,399.550 120.000,399.000 120.000 C 398.450 120.000,398.000 119.325,398.000 118.500 C 398.000 117.675,397.518 117.000,396.929 117.000 C 395.544 117.000,393.000 114.456,393.000 113.071 C 393.000 112.482,392.325 112.000,391.500 112.000 C 390.675 112.000,390.000 111.559,390.000 111.019 C 390.000 110.480,388.875 109.756,387.500 109.411 C 386.125 109.066,385.000 108.382,385.000 107.892 C 385.000 107.401,383.988 106.986,382.750 106.968 C 381.512 106.951,379.626 106.276,378.559 105.468 C 375.774 103.362,360.172 103.388,359.362 105.500 C 359.045 106.325,358.003 107.000,357.047 107.000 C 354.734 107.000,349.000 109.902,349.000 111.073 C 349.000 111.583,348.325 112.000,347.500 112.000 C 346.675 112.000,346.000 112.675,346.000 113.500 C 346.000 114.325,345.329 115.000,344.509 115.000 C 343.689 115.000,342.002 116.569,340.759 118.488 C 339.517 120.406,337.938 121.981,337.250 121.988 C 336.563 121.994,336.000 122.675,336.000 123.500 C 336.000 124.325,335.599 125.000,335.108 125.000 C 334.618 125.000,333.934 126.125,333.589 127.500 C 333.244 128.875,332.520 130.000,331.981 130.000 C 331.441 130.000,331.000 130.932,331.000 132.071 C 331.000 133.211,330.325 134.818,329.500 135.643 C 328.618 136.525,328.000 138.968,328.000 141.571 C 328.000 144.007,327.550 146.000,327.000 146.000 C 326.387 146.000,326.000 150.833,326.000 158.500 C 326.000 165.375,326.388 171.000,326.863 171.000 C 328.653 171.000,328.887 184.248,327.166 188.218 C 326.265 190.298,325.152 192.000,324.693 192.000 C 323.500 192.000,321.000 194.659,321.000 195.929 C 321.000 196.518,320.325 197.000,319.500 197.000 C 318.675 197.000,318.000 197.675,318.000 198.500 C 318.000 199.325,317.518 200.000,316.929 200.000 C 315.544 200.000,313.000 202.544,313.000 203.929 C 313.000 204.518,312.139 205.000,311.086 205.000 C 310.033 205.000,307.592 206.534,305.662 208.408 C 303.732 210.283,301.218 212.113,300.076 212.476 C 298.934 212.838,298.000 213.554,298.000 214.067 C 298.000 214.580,297.325 215.000,296.500 215.000 C 295.675 215.000,295.000 215.675,295.000 216.500 C 295.000 217.433,294.056 218.000,292.500 218.000 C 291.125 218.000,290.000 218.450,290.000 219.000 C 290.000 219.550,288.875 220.000,287.500 220.000 C 285.944 220.000,285.000 220.567,285.000 221.500 C 285.000 222.500,284.000 223.000,282.000 223.000 C 280.350 223.000,279.000 223.450,279.000 224.000 C 279.000 224.550,277.425 225.000,275.500 225.000 C 273.056 225.000,272.000 225.452,272.000 226.500 C 272.000 227.631,270.784 228.000,267.059 228.000 C 264.341 228.000,261.840 228.450,261.500 229.000 C 261.160 229.550,257.534 230.000,253.441 230.000 L 246.000 230.000 246.000 226.500 C 246.000 224.056,245.548 223.000,244.500 223.000 C 243.367 223.000,243.000 221.778,243.000 218.000 C 243.000 215.250,242.550 213.000,242.000 213.000 C 241.422 213.000,241.000 209.823,241.000 205.469 C 241.000 199.697,240.650 197.803,239.500 197.362 C 238.522 196.986,238.000 195.431,238.000 192.893 C 238.000 190.752,237.550 189.000,237.000 189.000 C 236.450 189.000,236.000 188.200,236.000 187.222 C 236.000 185.392,232.745 182.000,230.989 182.000 C 230.445 182.000,230.000 181.325,230.000 180.500 C 230.000 179.675,229.550 179.000,229.000 179.000 C 228.450 179.000,228.000 178.325,228.000 177.500 C 228.000 176.675,227.432 176.000,226.737 176.000 C 226.043 176.000,224.630 174.875,223.597 173.500 C 222.523 172.070,220.710 171.000,219.360 171.000 C 218.062 171.000,217.000 170.550,217.000 170.000 C 217.000 169.400,213.000 169.000,207.000 169.000 C 201.238 169.000,197.000 168.591,197.000 168.034 C 197.000 166.728,202.672 161.000,203.966 161.000 C 204.535 161.000,205.000 160.432,205.000 159.737 C 205.000 159.043,206.125 157.630,207.500 156.597 C 208.875 155.565,210.000 153.909,210.000 152.919 C 210.000 151.928,210.450 150.840,211.000 150.500 C 211.550 150.160,212.000 148.334,212.000 146.441 C 212.000 144.049,212.457 143.000,213.500 143.000 C 214.762 143.000,215.000 140.778,215.000 129.000 C 215.000 117.222,214.762 115.000,213.500 115.000 C 212.417 115.000,212.000 113.889,212.000 111.000 C 212.000 108.800,211.550 107.000,211.000 107.000 C 210.450 107.000,210.000 106.086,210.000 104.969 C 210.000 103.851,209.325 102.678,208.500 102.362 C 207.675 102.045,207.000 101.352,207.000 100.822 C 207.000 99.524,204.405 97.000,203.071 97.000 C 202.482 97.000,202.000 96.515,202.000 95.923 C 202.000 94.252,196.345 89.000,194.546 89.000 C 193.661 89.000,192.678 88.325,192.362 87.500 C 192.045 86.675,190.709 86.000,189.393 86.000 C 188.077 86.000,187.000 85.550,187.000 85.000 C 187.000 84.450,185.248 84.000,183.107 84.000 C 180.569 84.000,179.014 83.478,178.638 82.500 C 178.180 81.306,176.034 81.000,168.103 81.000 C 160.583 81.000,157.775 81.367,156.643 82.500 " stroke="none" fill="#000000" fill-rule="evenodd"></path></g></svg>