<svg id="svg" version="1.1" width="515" height="409" xmlns="http://www.w3.org/2000/svg" xmlns:xlink="http://www.w3.org/1999/xlink" style="display: block;"><g id="svgg"><path id="path0" d="M206.038 8.717 C 199.733 8.911,194.333 9.417,194.038 9.843 C 193.742 10.268,185.666 11.157,176.091 11.818 C 166.515 12.479,158.190 13.415,157.591 13.899 C 156.991 14.382,153.238 15.099,149.250 15.490 C 145.262 15.882,142.000 16.516,142.000 16.898 C 142.000 17.280,138.344 18.126,133.876 18.777 C 129.408 19.428,125.245 20.369,124.626 20.867 C 124.007 21.366,121.590 22.089,119.255 22.474 C 116.921 22.859,114.788 23.534,114.516 23.974 C 114.244 24.413,112.442 25.070,110.511 25.432 C 108.580 25.794,107.000 26.461,107.000 26.914 C 107.000 27.368,105.535 27.976,103.744 28.267 C 99.923 28.887,90.000 33.068,90.000 34.057 C 90.000 34.433,87.975 35.307,85.500 36.000 C 83.025 36.693,81.000 37.651,81.000 38.130 C 81.000 38.608,80.394 39.000,79.653 39.000 C 78.912 39.000,77.268 39.900,76.000 41.000 C 74.732 42.100,73.074 43.000,72.316 43.000 C 71.557 43.000,70.678 43.675,70.362 44.500 C 70.045 45.325,69.145 46.000,68.362 46.000 C 67.578 46.000,66.678 46.675,66.362 47.500 C 66.045 48.325,65.272 49.012,64.643 49.027 C 64.014 49.041,61.549 50.841,59.164 53.027 C 56.780 55.212,54.486 57.000,54.066 57.000 C 53.647 57.000,53.011 61.791,52.652 67.647 C 52.294 73.503,51.603 78.790,51.116 79.397 C 50.629 80.004,49.918 81.963,49.536 83.750 C 49.154 85.537,48.427 87.000,47.921 87.000 C 47.414 87.000,47.000 87.616,47.000 88.369 C 47.000 89.887,39.985 99.091,35.852 102.997 C 34.396 104.374,30.683 107.740,27.602 110.479 C 24.521 113.217,22.000 115.867,22.000 116.369 C 22.000 116.870,21.361 117.779,20.579 118.390 C 16.870 121.288,13.005 131.078,11.845 140.512 C 10.645 150.283,11.958 168.738,13.941 169.964 C 14.423 170.261,15.133 172.191,15.520 174.252 C 15.906 176.314,16.623 178.000,17.111 178.000 C 17.600 178.000,18.000 178.495,18.000 179.100 C 18.000 180.795,23.323 192.000,24.129 192.000 C 24.520 192.000,25.138 193.350,25.500 195.000 C 25.862 196.650,26.573 198.000,27.079 198.000 C 27.586 198.000,28.004 198.563,28.009 199.250 C 28.014 199.938,29.125 202.750,30.478 205.500 C 31.831 208.250,32.952 211.287,32.969 212.250 C 32.986 213.213,33.409 214.000,33.909 214.000 C 34.409 214.000,35.346 217.262,35.991 221.250 C 36.636 225.238,37.576 229.281,38.082 230.236 C 39.244 232.434,39.297 264.272,38.140 265.550 C 37.667 266.072,36.710 273.250,36.013 281.500 C 35.317 289.750,34.395 296.950,33.965 297.500 C 33.534 298.050,32.860 302.775,32.466 308.000 C 32.072 313.225,31.322 318.037,30.799 318.694 C 29.478 320.352,29.375 357.987,30.688 358.838 C 31.251 359.202,32.022 361.188,32.401 363.250 C 32.780 365.313,33.471 367.000,33.937 367.000 C 34.402 367.000,35.093 368.234,35.471 369.742 C 35.850 371.250,36.765 373.162,37.505 373.992 C 46.355 383.912,50.028 387.452,54.829 390.687 C 57.941 392.784,61.066 395.045,61.775 395.711 C 62.484 396.377,64.625 397.214,66.532 397.572 C 68.439 397.930,70.000 398.587,70.000 399.032 C 70.000 399.477,71.463 400.154,73.250 400.536 C 75.037 400.918,76.958 401.597,77.518 402.045 C 78.078 402.493,82.578 403.374,87.518 404.002 C 92.458 404.630,97.281 405.561,98.236 406.072 C 100.476 407.269,138.475 407.288,140.764 406.094 C 141.719 405.595,148.742 404.682,156.371 404.064 C 164.001 403.446,170.976 402.550,171.871 402.073 C 172.767 401.596,176.537 400.882,180.250 400.486 C 183.963 400.091,187.000 399.442,187.000 399.045 C 187.000 398.648,191.613 397.746,197.250 397.040 C 202.887 396.333,207.950 395.411,208.500 394.989 C 209.050 394.568,212.407 393.893,215.960 393.489 C 219.513 393.085,223.113 392.394,223.960 391.954 C 224.807 391.513,229.550 390.486,234.500 389.671 C 245.748 387.819,253.019 386.183,255.127 385.028 C 256.022 384.538,258.384 383.831,260.377 383.457 C 262.370 383.083,264.000 382.422,264.000 381.988 C 264.000 381.555,266.250 380.660,269.000 380.000 C 271.750 379.340,274.000 378.416,274.000 377.946 C 274.000 377.475,275.575 376.795,277.500 376.434 C 279.425 376.073,281.000 375.449,281.000 375.047 C 281.000 374.645,282.913 373.746,285.250 373.048 C 287.587 372.350,289.725 371.491,290.000 371.139 C 290.275 370.788,296.350 367.546,303.500 363.935 C 310.650 360.324,320.100 355.541,324.500 353.304 C 339.380 345.742,349.497 341.000,350.752 341.000 C 351.438 341.000,352.000 340.550,352.000 340.000 C 352.000 339.450,352.540 339.000,353.200 339.000 C 354.954 339.000,377.000 327.892,377.000 327.009 C 377.000 326.597,379.025 325.693,381.500 325.000 C 383.975 324.307,386.000 323.349,386.000 322.870 C 386.000 322.392,386.689 322.000,387.531 322.000 C 388.374 322.000,389.311 321.352,389.615 320.561 C 389.919 319.770,391.510 318.827,393.151 318.467 C 394.792 318.106,396.378 317.179,396.675 316.406 C 396.971 315.633,397.753 315.000,398.413 315.000 C 399.072 315.000,401.007 313.987,402.712 312.750 C 404.418 311.512,406.800 309.825,408.005 309.000 C 422.561 299.040,438.086 284.130,441.324 277.000 C 441.948 275.625,442.693 274.275,442.980 273.999 C 444.488 272.548,446.972 266.486,448.071 261.572 C 448.757 258.507,449.697 256.000,450.159 256.000 C 450.622 256.000,451.000 255.206,451.000 254.235 C 451.000 253.265,451.837 250.902,452.860 248.985 C 453.883 247.068,455.033 244.506,455.414 243.291 C 456.359 240.287,459.208 237.039,475.500 220.397 C 483.200 212.532,489.950 205.512,490.500 204.797 C 495.095 198.828,497.000 195.977,497.000 195.067 C 497.000 194.480,497.414 194.000,497.921 194.000 C 498.427 194.000,499.154 192.538,499.536 190.750 C 499.918 188.963,500.629 187.004,501.115 186.398 C 504.238 182.506,504.142 147.214,501.006 146.169 C 500.453 145.984,500.000 145.032,500.000 144.052 C 500.000 143.072,499.100 141.126,498.000 139.727 C 496.900 138.329,496.000 136.900,496.000 136.552 C 496.000 134.462,476.980 114.000,475.037 114.000 C 474.646 114.000,472.058 111.862,469.285 109.250 C 466.513 106.638,463.175 103.600,461.869 102.500 C 460.563 101.400,457.587 98.025,455.256 95.000 C 452.925 91.975,450.648 89.047,450.197 88.493 C 448.661 86.611,444.000 76.131,444.000 74.562 C 444.000 73.703,443.601 73.000,443.114 73.000 C 442.626 73.000,441.925 70.985,441.556 68.523 C 441.187 66.061,440.522 63.823,440.079 63.549 C 439.637 63.275,438.704 61.015,438.007 58.526 C 437.310 56.037,436.349 54.000,435.870 54.000 C 435.392 54.000,435.000 53.357,435.000 52.571 C 435.000 51.786,434.384 50.527,433.632 49.775 C 432.879 49.022,431.966 47.469,431.602 46.322 C 431.238 45.176,430.166 43.321,429.220 42.200 C 428.274 41.079,426.600 38.888,425.500 37.331 C 420.274 29.934,400.267 12.021,397.200 11.994 C 396.815 11.990,395.150 11.229,393.500 10.301 C 390.609 8.675,246.935 7.462,206.038 8.717 M347.500 19.045 C 362.902 19.633,374.643 20.489,374.833 21.038 C 375.017 21.567,376.592 22.015,378.333 22.034 C 380.075 22.053,383.300 22.937,385.500 24.000 C 387.700 25.063,389.994 25.947,390.597 25.966 C 391.200 25.985,392.642 26.788,393.802 27.750 C 394.961 28.713,398.127 31.300,400.837 33.500 C 403.547 35.700,407.055 39.403,408.632 41.728 C 410.210 44.053,411.837 45.966,412.250 45.978 C 412.663 45.990,413.000 46.689,413.000 47.531 C 413.000 48.374,413.634 49.306,414.410 49.604 C 415.185 49.901,416.113 51.314,416.472 52.743 C 416.830 54.173,417.996 56.451,419.062 57.806 C 420.128 59.161,421.000 60.884,421.000 61.635 C 421.000 62.386,421.378 63.000,421.840 63.000 C 422.302 63.000,423.274 64.800,424.000 67.000 C 424.726 69.200,425.648 71.000,426.049 71.000 C 426.450 71.000,427.073 72.575,427.434 74.500 C 427.795 76.425,428.520 78.000,429.045 78.000 C 429.570 78.000,430.000 78.495,430.000 79.100 C 430.000 80.795,435.323 92.000,436.129 92.000 C 436.520 92.000,437.138 93.350,437.500 95.000 C 437.862 96.650,438.489 98.000,438.893 98.000 C 439.296 98.000,440.237 99.556,440.984 101.458 C 441.730 103.360,442.939 105.146,443.670 105.427 C 447.908 107.053,443.981 108.000,433.000 108.000 C 426.400 108.000,421.000 108.188,421.000 108.418 C 421.000 108.648,420.727 109.548,420.393 110.418 C 419.868 111.787,420.981 112.002,428.643 112.015 C 433.514 112.024,438.175 112.467,439.000 113.000 C 440.033 113.667,437.818 113.974,431.890 113.985 C 409.520 114.024,406.975 117.410,428.654 118.288 C 436.714 118.615,443.577 119.293,443.904 119.796 C 444.232 120.298,446.863 121.270,449.750 121.955 C 452.637 122.639,455.000 123.605,455.000 124.100 C 455.000 124.595,455.430 125.000,455.956 125.000 C 457.759 125.000,464.295 130.011,466.643 133.193 C 467.934 134.944,469.521 136.704,470.170 137.105 C 473.010 138.860,472.901 180.207,470.051 181.968 C 469.574 182.263,468.867 184.191,468.480 186.252 C 468.094 188.314,467.487 190.000,467.133 190.000 C 466.778 190.000,465.861 191.418,465.094 193.150 C 463.049 197.769,454.795 205.000,451.567 205.000 C 450.705 205.000,450.000 205.420,450.000 205.934 C 450.000 206.447,448.766 207.010,447.259 207.184 C 443.534 207.614,442.795 211.000,446.427 211.000 C 447.842 211.000,449.000 210.609,449.000 210.130 C 449.000 209.652,451.042 209.030,453.537 208.749 C 456.687 208.394,459.871 206.977,463.946 204.119 C 467.176 201.853,470.261 200.000,470.802 200.000 C 472.207 200.000,473.000 197.444,473.000 192.918 C 473.000 190.763,473.377 189.000,473.839 189.000 C 475.034 189.000,477.091 173.469,477.648 160.250 C 477.966 152.691,477.773 149.000,477.061 149.000 C 476.477 149.000,475.997 147.762,475.994 146.250 C 475.990 144.738,475.315 142.211,474.494 140.636 C 473.672 139.060,472.998 136.810,472.996 135.636 C 472.992 133.203,469.610 127.111,467.236 125.260 C 466.361 124.579,465.876 123.791,466.156 123.510 C 466.437 123.230,467.979 124.338,469.583 125.972 C 471.188 127.607,472.999 128.957,473.610 128.972 C 474.220 128.987,475.570 130.194,476.610 131.652 C 477.649 133.111,479.288 135.136,480.250 136.152 C 481.212 137.169,482.000 138.418,482.000 138.929 C 482.000 139.439,482.580 140.452,483.289 141.179 C 491.654 149.756,491.633 184.984,483.260 190.300 C 482.567 190.740,482.000 191.481,482.000 191.947 C 482.000 195.753,466.066 209.736,454.500 216.079 C 451.222 217.877,449.781 222.000,452.430 222.000 C 454.784 222.000,454.322 223.490,451.500 225.000 C 450.125 225.736,449.000 226.665,449.000 227.064 C 449.000 227.463,447.883 228.850,446.517 230.145 C 445.152 231.440,444.027 233.287,444.017 234.250 C 444.008 235.213,443.601 236.000,443.113 236.000 C 442.626 236.000,441.675 238.925,441.000 242.500 C 440.325 246.075,439.414 249.000,438.975 249.000 C 438.535 249.000,437.872 250.800,437.500 253.000 C 437.128 255.200,436.414 257.000,435.912 257.000 C 435.410 257.000,435.000 257.566,435.000 258.258 C 435.000 260.050,430.150 268.927,427.814 271.409 C 426.732 272.559,425.130 274.702,424.254 276.172 C 423.378 277.641,421.662 279.378,420.441 280.032 C 419.219 280.685,417.649 282.288,416.950 283.594 C 416.251 284.899,414.964 286.198,414.090 286.481 C 413.215 286.763,411.150 288.233,409.500 289.747 C 407.850 291.261,404.475 293.850,402.000 295.500 C 397.382 298.579,395.832 299.713,393.715 301.561 C 393.047 302.145,391.038 303.268,389.250 304.056 C 387.462 304.844,386.000 305.828,386.000 306.244 C 386.000 306.660,385.386 307.000,384.635 307.000 C 383.884 307.000,382.161 307.872,380.806 308.938 C 379.451 310.004,377.140 311.178,375.671 311.546 C 374.202 311.915,373.000 312.569,373.000 313.000 C 373.000 313.431,371.875 314.066,370.500 314.411 C 369.125 314.756,368.000 315.480,368.000 316.019 C 368.000 316.559,367.397 317.000,366.660 317.000 C 365.924 317.000,360.884 319.259,355.462 322.019 C 350.040 324.780,343.893 327.551,341.802 328.177 C 339.711 328.804,338.000 329.660,338.000 330.079 C 338.000 330.498,336.650 331.138,335.000 331.500 C 333.350 331.862,332.000 332.524,332.000 332.971 C 332.000 333.418,330.762 334.088,329.250 334.461 C 325.829 335.304,317.616 339.239,317.167 340.250 C 316.983 340.662,316.298 341.000,315.643 341.000 C 314.258 341.000,290.836 352.713,290.038 353.805 C 289.742 354.210,288.375 355.095,287.000 355.773 C 282.199 358.140,273.496 363.235,273.000 363.970 C 272.725 364.377,270.819 365.258,268.764 365.928 C 266.709 366.598,264.794 367.524,264.509 367.986 C 264.223 368.448,262.194 369.129,260.000 369.500 C 257.806 369.871,255.757 370.585,255.446 371.087 C 254.679 372.329,242.273 372.251,241.500 371.000 C 240.737 369.766,235.000 369.663,235.000 370.884 C 235.000 371.369,232.145 372.073,228.656 372.446 C 225.166 372.820,221.097 373.756,219.613 374.526 C 218.130 375.295,215.360 376.217,213.458 376.574 C 211.556 376.931,210.000 377.623,210.000 378.111 C 210.000 378.600,209.213 379.003,208.250 379.006 C 207.287 379.010,205.287 379.645,203.805 380.418 C 202.322 381.192,197.935 382.412,194.055 383.129 C 190.175 383.847,187.000 384.741,187.000 385.116 C 187.000 385.490,183.850 386.113,180.000 386.500 C 176.150 386.887,173.000 387.540,173.000 387.951 C 173.000 388.828,150.297 391.018,141.309 391.007 C 137.904 391.003,134.840 391.450,134.500 392.000 C 133.690 393.310,114.310 393.310,113.500 392.000 C 113.160 391.450,110.546 390.999,107.691 390.997 C 100.082 390.993,84.553 388.951,84.167 387.903 C 83.983 387.406,82.721 387.000,81.362 387.000 C 78.010 387.000,64.393 381.009,60.557 377.847 C 52.265 371.012,49.661 367.466,44.577 356.091 C 43.204 353.020,43.370 322.013,44.764 321.131 C 45.313 320.784,46.095 316.243,46.503 311.040 C 46.912 305.837,47.613 300.887,48.062 300.040 C 51.822 292.953,51.725 208.000,47.957 208.000 C 47.527 208.000,46.872 206.200,46.500 204.000 C 46.128 201.800,45.463 200.000,45.021 200.000 C 44.578 200.000,43.952 198.947,43.629 197.660 C 43.306 196.372,41.711 193.794,40.083 191.930 C 38.456 190.067,37.346 188.320,37.617 188.050 C 37.887 187.779,38.422 187.995,38.804 188.529 C 39.589 189.624,43.044 191.698,47.500 193.748 C 49.150 194.507,51.297 195.560,52.272 196.086 C 56.532 198.389,63.000 198.419,63.000 196.136 C 63.000 194.961,62.550 194.000,62.000 194.000 C 61.450 194.000,61.000 193.425,61.000 192.722 C 61.000 190.258,50.468 184.000,46.321 184.000 C 42.270 184.000,37.328 179.582,35.179 174.042 C 32.975 168.356,31.916 150.000,33.793 150.000 C 34.229 150.000,35.126 147.977,35.787 145.505 C 36.449 143.033,37.779 140.188,38.745 139.184 C 39.710 138.179,41.847 135.702,43.494 133.678 C 45.141 131.655,46.899 130.000,47.400 130.000 C 47.901 130.000,49.786 128.875,51.589 127.500 C 53.392 126.125,55.347 125.000,55.933 125.000 C 56.520 125.000,57.000 124.582,57.000 124.072 C 57.000 123.561,59.475 122.590,62.500 121.913 C 65.525 121.236,68.000 120.342,68.000 119.926 C 68.000 119.511,71.381 118.854,75.514 118.466 C 79.647 118.079,83.274 117.366,83.573 116.881 C 83.873 116.397,88.141 116.000,93.059 116.000 C 98.353 116.000,102.000 115.592,102.000 115.000 C 102.000 114.450,100.425 114.000,98.500 114.000 C 96.575 114.000,95.000 113.550,95.000 113.000 C 95.000 111.762,69.351 111.623,68.588 112.857 C 68.297 113.329,65.819 113.980,63.082 114.304 C 58.685 114.825,52.007 117.474,45.320 121.351 C 44.121 122.046,41.421 124.469,39.320 126.735 C 29.911 136.884,28.722 140.119,28.012 157.500 C 27.563 168.516,27.234 170.861,26.470 168.500 C 22.685 156.796,27.473 134.356,34.750 129.700 C 35.438 129.260,36.000 128.433,36.000 127.861 C 36.000 127.289,39.038 123.791,42.750 120.088 C 46.463 116.385,50.400 112.101,51.500 110.567 C 52.600 109.033,53.967 107.266,54.537 106.639 C 58.842 101.912,60.413 97.389,60.817 88.556 C 61.045 83.575,61.571 79.050,61.986 78.500 C 62.400 77.950,63.043 75.813,63.415 73.750 C 63.787 71.688,64.444 70.000,64.876 70.000 C 65.308 70.000,66.301 68.766,67.081 67.258 C 68.566 64.388,71.051 61.817,75.486 58.562 C 76.939 57.497,79.111 55.818,80.313 54.831 C 81.516 53.844,82.950 52.675,83.500 52.232 C 84.050 51.789,85.963 50.826,87.750 50.092 C 89.537 49.358,91.000 48.398,91.000 47.958 C 91.000 47.519,92.350 46.862,94.000 46.500 C 95.650 46.138,97.000 45.457,97.000 44.988 C 97.000 44.519,98.013 43.826,99.250 43.448 C 101.318 42.817,107.635 40.207,112.500 37.972 C 114.997 36.826,125.720 34.180,133.000 32.914 C 139.355 31.809,168.616 32.772,171.290 34.174 C 173.638 35.406,215.756 35.433,217.308 34.205 C 217.964 33.686,222.542 32.945,227.483 32.560 C 232.424 32.174,236.924 31.480,237.483 31.017 C 238.042 30.555,242.325 29.850,247.000 29.450 C 251.675 29.050,255.792 28.270,256.148 27.717 C 257.054 26.311,298.923 26.271,299.824 27.676 C 300.196 28.255,303.080 29.047,306.234 29.435 C 309.388 29.823,312.203 30.519,312.489 30.983 C 312.776 31.447,314.808 32.130,317.005 32.501 C 319.202 32.872,321.000 33.541,321.000 33.988 C 321.000 34.435,323.250 35.340,326.000 36.000 C 328.750 36.660,331.000 37.569,331.000 38.020 C 331.000 38.472,332.350 39.138,334.000 39.500 C 335.650 39.862,337.000 40.544,337.000 41.015 C 337.000 41.485,338.575 42.440,340.500 43.136 C 342.425 43.832,344.000 44.665,344.000 44.986 C 344.000 45.307,346.473 46.904,349.497 48.535 C 352.520 50.166,354.995 51.837,354.997 52.250 C 354.998 52.663,355.417 53.000,355.927 53.000 C 356.899 53.000,368.488 60.597,370.800 62.750 C 371.539 63.438,372.786 64.000,373.571 64.000 C 374.357 64.000,375.000 64.461,375.000 65.025 C 375.000 65.588,376.125 66.477,377.500 67.000 C 378.875 67.523,380.000 68.412,380.000 68.975 C 380.000 69.539,380.614 70.000,381.365 70.000 C 382.116 70.000,383.874 70.900,385.273 72.000 C 387.765 73.960,392.000 74.741,392.000 73.240 C 392.000 72.187,387.906 67.907,384.596 65.500 C 383.084 64.400,380.827 62.600,379.582 61.500 C 378.336 60.400,375.619 58.150,373.544 56.500 C 371.469 54.850,368.521 52.487,366.992 51.250 C 365.462 50.013,363.907 49.000,363.534 49.000 C 363.162 49.000,362.269 48.438,361.551 47.750 C 359.293 45.588,354.987 42.862,349.000 39.801 C 347.625 39.098,345.942 37.992,345.260 37.343 C 344.578 36.694,342.666 35.866,341.010 35.502 C 339.355 35.139,338.000 34.463,338.000 34.000 C 338.000 33.537,336.650 32.862,335.000 32.500 C 333.350 32.138,332.000 31.499,332.000 31.080 C 332.000 30.662,329.525 29.726,326.500 29.000 C 323.475 28.274,321.000 27.360,321.000 26.969 C 321.000 26.578,318.649 25.946,315.775 25.565 C 312.901 25.183,309.906 24.338,309.120 23.686 C 307.141 22.046,245.933 21.995,243.903 23.632 C 243.132 24.255,238.000 25.088,232.500 25.484 C 227.000 25.880,221.943 26.659,221.261 27.215 C 219.647 28.533,175.406 29.411,167.500 28.281 C 162.236 27.530,164.261 27.260,184.000 26.082 C 196.375 25.344,206.950 24.396,207.500 23.976 C 208.050 23.555,216.150 22.912,225.500 22.546 C 234.850 22.181,243.400 21.459,244.500 20.942 C 245.600 20.425,259.550 19.622,275.500 19.157 C 317.869 17.922,318.101 17.922,347.500 19.045 M253.038 36.673 C 249.484 36.912,246.109 37.487,245.538 37.951 C 244.967 38.416,240.113 39.120,234.750 39.517 C 229.387 39.913,225.000 40.575,225.000 40.986 C 225.000 41.398,217.688 42.277,208.750 42.939 C 199.813 43.601,191.719 44.560,190.764 45.071 C 188.579 46.240,170.730 46.299,169.450 45.141 C 168.928 44.669,162.529 43.712,155.231 43.015 C 147.933 42.317,141.719 41.354,141.422 40.873 C 140.668 39.653,121.260 39.771,120.500 41.000 C 120.160 41.550,118.816 42.000,117.512 42.000 C 113.681 42.000,105.470 50.890,109.025 51.190 C 110.432 51.309,118.596 48.458,119.147 47.656 C 119.980 46.444,146.875 46.654,148.371 47.885 C 152.286 51.104,214.459 51.251,218.481 48.050 C 219.042 47.605,223.100 46.913,227.500 46.514 C 231.900 46.115,235.727 45.425,236.005 44.982 C 238.037 41.735,294.537 41.711,298.445 44.954 C 299.053 45.459,301.901 46.183,304.775 46.565 C 307.649 46.946,310.000 47.578,310.000 47.970 C 310.000 48.361,312.565 49.256,315.700 49.957 C 318.835 50.659,322.098 51.590,322.950 52.026 C 326.669 53.929,342.001 61.000,342.408 61.000 C 343.300 61.000,355.508 68.487,355.833 69.234 C 356.017 69.655,356.735 70.000,357.430 70.000 C 358.125 70.000,359.732 70.900,361.000 72.000 C 362.268 73.100,363.645 74.000,364.058 74.000 C 364.749 74.000,371.086 78.784,375.225 82.430 C 377.824 84.720,382.000 85.546,382.000 83.771 C 382.000 82.017,369.948 69.673,365.901 67.282 C 364.305 66.340,363.000 65.216,363.000 64.784 C 363.000 64.353,362.347 64.000,361.550 64.000 C 360.752 64.000,359.740 63.437,359.300 62.748 C 358.860 62.060,357.150 60.822,355.500 59.998 C 352.480 58.490,351.101 57.550,348.537 55.250 C 347.770 54.562,346.858 54.000,346.510 54.000 C 346.161 54.000,343.317 52.831,340.188 51.402 C 329.468 46.506,328.195 46.000,326.599 46.000 C 325.719 46.000,325.000 45.599,325.000 45.109 C 325.000 44.618,322.075 43.636,318.500 42.925 C 314.925 42.214,312.000 41.301,312.000 40.896 C 312.000 40.491,308.962 39.839,305.250 39.447 C 301.538 39.055,298.228 38.311,297.895 37.793 C 297.248 36.786,263.805 35.952,253.038 36.673 M255.000 54.887 C 255.000 56.938,255.414 57.000,269.134 57.000 C 276.908 57.000,284.895 57.419,286.884 57.931 C 288.873 58.443,295.895 59.361,302.489 59.970 C 309.084 60.580,314.911 61.511,315.439 62.039 C 315.968 62.568,317.097 62.998,317.950 62.996 C 320.620 62.988,336.434 68.316,337.821 69.691 C 338.548 70.411,339.786 71.000,340.571 71.000 C 341.357 71.000,342.000 71.395,342.000 71.879 C 342.000 72.362,343.421 73.346,345.159 74.066 C 346.896 74.785,351.507 78.440,355.406 82.187 C 359.304 85.934,362.806 89.000,363.188 89.000 C 364.887 89.000,364.938 86.830,363.299 84.278 C 360.365 79.707,359.694 78.900,355.000 74.302 C 348.486 67.920,347.739 67.327,345.250 66.559 C 344.012 66.178,343.000 65.446,343.000 64.933 C 343.000 64.420,342.431 64.000,341.735 64.000 C 341.040 64.000,338.806 63.108,336.772 62.018 C 334.738 60.927,331.257 59.745,329.037 59.390 C 326.816 59.035,325.000 58.384,325.000 57.944 C 325.000 57.504,322.413 56.831,319.250 56.449 C 316.087 56.066,312.875 55.252,312.111 54.638 C 309.076 52.204,255.000 52.439,255.000 54.887 M144.584 57.750 C 144.172 58.162,139.490 59.045,134.180 59.711 C 128.870 60.378,124.374 61.377,124.190 61.930 C 124.005 62.484,122.312 63.226,120.427 63.580 C 118.542 63.933,117.000 64.592,117.000 65.044 C 117.000 65.496,115.987 66.179,114.750 66.563 C 109.349 68.239,104.607 75.047,104.172 81.750 C 103.708 88.915,104.904 89.830,107.522 84.312 C 108.485 82.284,109.773 80.002,110.386 79.240 C 113.646 75.191,118.505 71.000,119.940 71.000 C 120.444 71.000,121.554 70.303,122.405 69.452 C 123.256 68.601,126.551 67.419,129.726 66.825 C 132.902 66.231,136.417 65.328,137.537 64.818 C 142.614 62.505,185.863 66.200,186.833 69.029 C 187.733 71.651,191.211 69.978,190.527 67.252 C 190.148 65.741,189.762 64.469,189.669 64.426 C 189.576 64.383,187.816 63.335,185.758 62.097 C 183.141 60.523,179.751 59.676,174.477 59.277 C 170.330 58.963,166.699 58.323,166.409 57.853 C 165.761 56.804,145.625 56.708,144.584 57.750 M256.396 60.429 C 252.726 62.027,249.230 66.599,248.363 70.937 C 248.021 72.644,247.350 74.284,246.871 74.580 C 245.719 75.291,245.752 80.342,246.915 81.550 C 247.419 82.072,247.981 83.625,248.165 85.000 C 248.874 90.291,251.469 87.777,252.207 81.085 C 252.597 77.557,253.272 74.407,253.709 74.085 C 254.146 73.763,255.158 72.230,255.959 70.678 C 256.760 69.126,259.121 66.201,261.207 64.178 C 266.679 58.870,264.277 56.999,256.396 60.429 M174.000 75.556 C 174.000 76.412,175.428 78.417,177.173 80.011 C 180.302 82.869,180.353 83.064,180.802 93.955 C 181.141 102.184,181.592 105.000,182.572 105.000 C 188.980 105.000,188.426 78.439,181.945 74.971 C 178.998 73.393,174.000 73.762,174.000 75.556 M293.000 85.871 C 293.000 86.350,289.850 87.052,286.000 87.431 C 282.150 87.811,279.000 88.486,279.000 88.933 C 279.000 89.379,277.144 90.041,274.875 90.404 C 272.607 90.767,268.807 91.949,266.430 93.032 C 264.054 94.114,261.635 95.000,261.055 95.000 C 260.475 95.000,260.000 95.420,260.000 95.933 C 260.000 96.446,258.996 97.184,257.769 97.573 C 240.789 102.962,235.606 125.188,249.391 133.500 C 257.236 138.230,257.305 138.251,261.000 136.968 C 265.883 135.274,273.401 131.874,274.000 131.089 C 274.275 130.729,276.975 129.829,280.000 129.088 C 283.025 128.348,285.950 127.402,286.500 126.987 C 287.050 126.571,289.075 125.902,291.000 125.500 C 292.925 125.098,294.950 124.418,295.500 123.989 C 300.501 120.086,338.848 120.322,343.799 124.286 C 346.847 126.727,360.287 125.702,363.346 122.797 C 366.179 120.105,366.604 112.000,363.912 112.000 C 363.410 112.000,363.000 111.394,363.000 110.653 C 363.000 109.380,361.925 107.901,356.709 102.000 C 353.923 98.847,347.475 94.000,346.067 94.000 C 345.480 94.000,345.000 93.592,345.000 93.092 C 345.000 92.593,342.750 91.608,340.000 90.903 C 337.250 90.199,335.000 89.293,335.000 88.891 C 335.000 88.488,332.075 87.846,328.500 87.463 C 324.925 87.080,322.000 86.369,322.000 85.884 C 322.000 85.398,315.475 85.000,307.500 85.000 C 299.525 85.000,293.000 85.392,293.000 85.871 M130.000 97.974 C 126.425 98.388,122.150 99.460,120.500 100.357 C 118.850 101.254,117.151 101.990,116.724 101.994 C 115.284 102.005,107.000 110.933,107.000 112.474 C 107.000 113.313,106.550 114.000,106.000 114.000 C 105.450 114.000,105.000 114.798,105.000 115.773 C 105.000 119.245,115.612 122.928,125.750 122.976 C 128.637 122.989,131.000 123.385,131.000 123.855 C 131.000 124.325,137.125 125.027,144.610 125.415 C 152.096 125.803,158.959 126.512,159.860 126.989 C 160.762 127.466,164.175 128.342,167.444 128.934 C 170.714 129.526,173.639 130.379,173.944 130.828 C 174.250 131.278,175.287 131.936,176.250 132.292 C 179.580 133.520,178.333 153.000,174.924 153.000 C 173.633 153.000,167.745 157.116,166.700 158.750 C 166.260 159.438,165.519 160.000,165.053 160.000 C 164.261 160.000,161.194 162.419,155.226 167.750 C 153.841 168.988,152.249 170.000,151.688 170.000 C 151.127 170.000,149.955 170.689,149.084 171.532 C 145.995 174.518,141.489 177.998,140.708 177.999 C 139.979 178.000,139.028 178.678,135.715 181.556 C 135.047 182.137,133.825 182.925,133.000 183.307 C 126.847 186.158,117.742 191.680,117.842 192.500 C 118.207 195.474,133.187 192.697,136.001 189.134 C 136.851 188.057,143.089 185.000,144.436 185.000 C 145.137 185.000,146.142 186.463,146.668 188.250 C 147.738 191.881,154.252 192.703,156.610 189.505 C 158.141 187.429,159.306 187.618,161.029 190.221 C 163.597 194.100,176.440 206.441,179.529 207.998 C 181.163 208.823,182.821 209.948,183.214 210.498 C 186.844 215.595,202.830 209.999,204.632 203.000 C 204.986 201.625,205.714 199.943,206.250 199.263 C 208.104 196.908,206.252 195.000,202.112 195.000 C 198.516 195.000,191.950 197.513,191.190 199.181 C 190.318 201.094,174.000 187.741,174.000 185.115 C 174.000 184.556,173.397 183.740,172.661 183.300 C 168.077 180.562,170.533 170.000,175.754 170.000 C 176.474 170.000,177.306 169.366,177.604 168.590 C 177.901 167.815,179.237 166.906,180.572 166.571 C 181.908 166.236,183.000 165.520,183.000 164.981 C 183.000 164.441,183.498 164.000,184.106 164.000 C 184.714 164.000,186.951 162.623,189.077 160.939 L 192.941 157.879 193.221 145.189 C 193.491 132.889,193.569 132.490,195.750 132.180 C 196.988 132.005,198.000 131.442,198.000 130.930 C 198.000 130.419,198.697 130.000,199.550 130.000 C 205.493 130.000,211.660 121.491,208.359 117.844 C 206.517 115.809,194.000 115.073,194.000 117.000 C 194.000 118.943,192.035 117.953,187.792 113.872 C 185.431 111.602,182.068 109.134,180.318 108.387 C 178.568 107.641,176.876 106.608,176.557 106.092 C 176.238 105.576,174.632 104.858,172.989 104.497 C 171.345 104.136,170.000 103.454,170.000 102.982 C 170.000 102.509,167.975 101.819,165.500 101.448 C 163.025 101.077,161.000 100.416,161.000 99.980 C 161.000 98.294,139.355 96.893,130.000 97.974 M291.487 100.344 C 292.226 101.083,293.145 103.783,293.529 106.344 L 294.227 111.000 289.185 111.000 C 286.412 111.000,283.548 111.576,282.821 112.280 C 282.095 112.984,279.587 114.181,277.250 114.940 C 274.913 115.699,273.000 116.649,273.000 117.052 C 273.000 117.454,271.767 118.093,270.260 118.471 C 268.753 118.849,267.266 119.569,266.956 120.072 C 266.645 120.574,264.278 121.274,261.696 121.628 C 256.633 122.322,254.791 119.078,258.500 116.000 C 259.325 115.315,260.003 114.248,260.007 113.628 C 260.015 112.335,266.027 108.000,267.812 108.000 C 268.465 108.000,269.000 107.582,269.000 107.072 C 269.000 106.561,271.475 105.590,274.500 104.913 C 277.525 104.236,280.000 103.343,280.000 102.929 C 280.000 102.515,281.800 101.872,284.000 101.500 C 286.200 101.128,288.000 100.414,288.000 99.912 C 288.000 98.564,289.948 98.805,291.487 100.344 M345.418 108.607 C 346.288 108.941,347.000 109.616,347.000 110.107 C 347.000 111.576,341.974 111.116,340.357 109.500 C 338.718 107.861,341.977 107.286,345.418 108.607 M369.000 109.944 C 369.000 111.503,369.902 112.514,372.000 113.306 C 374.900 114.401,376.198 117.000,373.845 117.000 C 373.190 117.000,373.474 117.866,374.500 119.000 C 378.296 123.194,392.069 120.667,393.413 115.530 C 394.131 112.781,393.192 112.123,387.460 111.356 C 384.732 110.991,382.250 110.314,381.944 109.851 C 380.429 107.559,369.000 107.641,369.000 109.944 M369.000 122.778 C 369.000 127.441,378.154 129.920,378.796 125.431 C 378.999 124.012,378.278 122.992,376.499 122.181 C 372.555 120.385,369.000 120.667,369.000 122.778 M401.513 122.676 C 399.320 122.936,397.070 123.515,396.513 123.961 C 395.956 124.408,393.587 125.089,391.250 125.475 C 388.913 125.860,387.000 126.568,387.000 127.048 C 387.000 127.527,385.200 128.459,383.000 129.118 C 380.800 129.777,379.000 130.660,379.000 131.079 C 379.000 131.498,377.650 132.138,376.000 132.500 C 374.350 132.862,373.000 133.524,373.000 133.971 C 373.000 134.418,371.875 135.066,370.500 135.411 C 369.125 135.756,368.000 136.421,368.000 136.889 C 368.000 137.357,365.863 138.283,363.250 138.946 C 360.637 139.609,357.719 140.567,356.764 141.076 C 354.646 142.203,343.000 142.314,343.000 141.207 C 343.000 140.771,340.975 139.873,338.500 139.211 C 336.025 138.549,334.000 137.556,334.000 137.004 C 334.000 136.452,333.321 136.000,332.490 136.000 C 331.660 136.000,330.210 135.100,329.268 134.000 C 328.326 132.900,327.206 132.000,326.778 132.000 C 326.350 132.000,325.132 131.213,324.072 130.250 C 320.277 126.806,319.135 126.072,316.576 125.430 C 315.149 125.072,313.734 124.378,313.432 123.889 C 313.129 123.400,311.784 123.000,310.441 123.000 C 307.914 123.000,306.596 131.014,308.889 132.432 C 309.378 132.734,310.058 134.097,310.401 135.461 C 311.622 140.326,323.111 150.000,327.668 150.000 C 328.731 150.000,330.066 150.466,330.636 151.036 C 333.273 153.673,375.227 153.783,376.929 151.158 C 377.243 150.674,379.637 149.963,382.250 149.578 C 384.863 149.192,387.000 148.526,387.000 148.097 C 387.000 147.668,388.747 146.793,390.881 146.154 C 393.016 145.514,395.321 144.318,396.004 143.495 C 396.686 142.673,397.865 142.000,398.622 142.000 C 399.380 142.000,400.000 141.536,400.000 140.969 C 400.000 140.401,400.788 139.658,401.750 139.317 C 402.712 138.975,404.335 137.977,405.355 137.098 C 411.720 131.615,432.093 136.398,441.405 145.562 C 448.420 152.466,451.381 174.588,445.764 178.132 C 443.796 179.375,443.496 196.869,445.430 197.612 C 447.470 198.394,454.664 191.187,455.611 187.413 C 455.944 186.086,456.582 185.000,457.029 185.000 C 457.476 185.000,458.158 183.537,458.546 181.750 C 458.934 179.963,459.757 178.179,460.376 177.786 C 461.102 177.324,461.500 172.978,461.500 165.499 C 461.500 158.021,461.102 153.675,460.376 153.213 C 459.757 152.821,458.934 151.037,458.546 149.250 C 458.158 147.463,457.427 146.000,456.921 146.000 C 456.414 146.000,456.000 145.414,456.000 144.697 C 456.000 141.719,442.307 129.617,437.600 128.436 C 436.170 128.077,435.000 127.432,435.000 127.003 C 435.000 126.574,433.313 125.907,431.250 125.522 C 429.188 125.136,427.013 124.418,426.417 123.926 C 425.151 122.881,407.327 121.986,401.513 122.676 M60.833 126.830 C 60.450 127.785,49.655 133.000,48.062 133.000 C 47.478 133.000,47.000 133.450,47.000 134.000 C 47.000 134.550,46.383 135.000,45.629 135.000 C 43.411 135.000,42.032 166.323,44.020 171.552 C 45.930 176.577,51.016 180.391,55.880 180.447 C 60.659 180.503,63.105 177.745,59.503 176.363 C 55.739 174.919,48.110 166.294,48.678 164.124 C 48.999 162.895,48.763 162.000,48.117 162.000 C 46.772 162.000,46.559 150.390,47.889 149.568 C 48.378 149.266,49.090 147.777,49.470 146.259 C 50.132 143.617,61.238 132.000,63.102 132.000 C 63.596 132.000,64.000 131.363,64.000 130.583 C 64.000 129.804,64.530 128.990,65.177 128.774 C 65.824 128.559,66.023 127.846,65.618 127.191 C 64.780 125.836,61.337 125.576,60.833 126.830 M69.000 136.842 C 69.000 137.305,67.200 138.223,65.000 138.882 C 62.800 139.541,61.000 140.427,61.000 140.852 C 61.000 141.276,60.188 142.495,59.196 143.561 C 55.734 147.283,53.884 152.018,55.630 152.688 C 57.811 153.525,73.301 152.099,74.444 150.956 C 78.036 147.364,98.000 151.094,98.000 155.358 C 98.000 155.703,98.787 157.839,99.750 160.104 L 101.500 164.222 114.000 163.744 C 131.677 163.068,138.768 158.682,137.837 149.000 L 137.500 145.500 132.000 145.522 C 127.814 145.539,125.745 146.105,123.341 147.893 L 120.183 150.241 116.747 147.621 C 114.857 146.179,112.791 145.000,112.156 145.000 C 111.520 145.000,111.000 144.586,111.000 144.079 C 111.000 143.573,109.650 142.862,108.000 142.500 C 106.350 142.138,105.000 141.488,105.000 141.057 C 105.000 140.626,102.188 139.698,98.750 138.995 C 95.313 138.292,92.072 137.330,91.550 136.858 C 90.321 135.748,69.000 135.732,69.000 136.842 M405.642 142.105 C 404.651 143.262,403.615 145.850,403.340 147.855 C 402.506 153.936,401.110 155.806,396.866 156.523 C 394.740 156.882,393.000 157.586,393.000 158.088 C 393.000 158.590,392.311 159.000,391.470 159.000 C 390.154 159.000,382.061 162.036,375.500 164.990 C 368.765 168.023,364.030 170.000,363.500 170.000 C 362.941 170.000,358.413 171.919,350.349 175.572 C 348.616 176.358,346.904 177.000,346.544 177.000 C 345.946 177.000,341.550 178.857,333.349 182.572 C 331.616 183.358,329.816 184.015,329.349 184.034 C 328.882 184.053,326.700 184.937,324.500 186.000 C 322.300 187.063,319.712 187.947,318.750 187.966 C 317.788 187.985,317.000 188.430,317.000 188.955 C 317.000 189.480,315.425 190.205,313.500 190.566 C 311.575 190.927,310.000 191.551,310.000 191.952 C 310.000 192.353,307.533 193.234,304.517 193.909 C 301.501 194.584,298.799 195.516,298.512 195.981 C 298.225 196.446,296.192 197.130,293.995 197.501 C 291.798 197.872,290.000 198.537,290.000 198.979 C 290.000 199.421,287.075 200.364,283.500 201.075 C 279.925 201.786,277.000 202.692,277.000 203.090 C 277.000 203.487,274.750 204.122,272.000 204.500 C 269.250 204.878,267.000 205.534,267.000 205.957 C 267.000 206.380,263.512 207.283,259.250 207.965 C 254.988 208.647,251.050 209.559,250.500 209.991 C 249.950 210.423,246.575 211.106,243.000 211.509 C 239.425 211.911,236.275 212.586,236.000 213.009 C 233.199 217.312,153.955 217.341,148.500 213.041 C 147.950 212.607,145.250 211.928,142.500 211.533 C 139.750 211.137,137.050 210.464,136.500 210.037 C 135.950 209.611,133.137 208.708,130.250 208.031 C 127.362 207.354,125.000 206.445,125.000 206.012 C 125.000 205.578,123.425 204.927,121.500 204.566 C 119.575 204.205,118.000 203.516,118.000 203.034 C 118.000 202.553,116.697 201.873,115.105 201.523 C 110.461 200.503,102.340 194.011,95.722 186.026 C 95.017 185.176,94.375 180.733,94.204 175.526 C 94.042 170.562,93.514 165.600,93.032 164.500 C 92.550 163.400,91.895 161.295,91.577 159.823 C 89.735 151.299,81.000 154.203,81.000 163.339 C 81.000 166.493,80.448 169.423,79.711 170.179 C 77.760 172.178,74.340 179.174,73.546 182.790 C 73.158 184.555,72.486 186.000,72.053 186.000 C 71.620 186.000,70.736 188.363,70.089 191.250 C 69.443 194.137,68.462 198.300,67.909 200.500 C 65.150 211.487,65.983 264.769,68.973 268.500 C 69.413 269.050,70.089 271.410,70.474 273.745 C 70.859 276.079,71.534 278.212,71.974 278.484 C 72.413 278.756,73.061 280.513,73.413 282.388 C 73.765 284.264,74.672 286.313,75.428 286.941 C 76.185 287.568,77.079 289.180,77.416 290.521 C 77.971 292.734,80.091 295.431,86.190 301.686 C 89.251 304.826,102.200 311.083,106.955 311.721 C 109.180 312.019,111.000 312.610,111.000 313.033 C 111.000 313.457,113.813 314.123,117.250 314.513 C 120.688 314.903,123.950 315.572,124.500 315.999 C 129.495 319.878,246.431 319.867,251.500 315.987 C 252.050 315.566,255.762 314.901,259.750 314.510 C 263.738 314.118,267.000 313.479,267.000 313.090 C 267.000 312.701,271.046 311.810,275.991 311.110 C 280.936 310.410,285.201 309.483,285.469 309.050 C 285.737 308.617,287.785 307.970,290.022 307.613 C 292.258 307.255,294.855 306.554,295.794 306.055 C 297.494 305.152,304.129 302.860,311.250 300.716 C 313.313 300.095,315.000 299.266,315.000 298.873 C 315.000 298.480,316.350 297.862,318.000 297.500 C 319.650 297.138,321.000 296.498,321.000 296.079 C 321.000 295.660,322.800 294.777,325.000 294.118 C 327.200 293.459,329.000 292.524,329.000 292.039 C 329.000 291.555,330.350 290.862,332.000 290.500 C 333.650 290.138,335.000 289.517,335.000 289.121 C 335.000 288.726,336.575 287.832,338.500 287.136 C 340.425 286.440,342.000 285.450,342.000 284.935 C 342.000 284.421,342.689 284.000,343.531 284.000 C 344.374 284.000,345.306 283.366,345.604 282.590 C 345.901 281.815,347.125 280.927,348.322 280.617 C 349.520 280.307,352.159 278.579,354.188 276.777 C 356.216 274.974,359.073 272.616,360.537 271.535 C 364.536 268.583,374.109 258.905,377.445 254.441 C 379.065 252.273,380.977 250.140,381.695 249.700 C 382.413 249.260,383.000 248.234,383.000 247.419 C 383.000 246.604,383.675 245.678,384.500 245.362 C 385.325 245.045,386.000 244.228,386.000 243.546 C 386.000 242.864,386.892 241.225,387.981 239.903 C 391.143 236.068,391.420 235.660,392.998 232.500 C 393.822 230.850,395.060 229.140,395.748 228.700 C 396.437 228.260,397.000 227.248,397.000 226.450 C 397.000 225.653,397.378 225.000,397.839 225.000 C 398.301 225.000,399.199 223.858,399.835 222.462 C 401.092 219.704,402.536 217.770,405.250 215.207 C 406.212 214.299,407.000 213.039,407.000 212.407 C 407.000 211.776,409.471 208.808,412.491 205.812 L 417.983 200.364 417.810 194.103 C 417.715 190.659,418.066 187.540,418.589 187.171 C 419.113 186.802,420.084 185.262,420.749 183.750 C 422.013 180.872,430.000 179.572,431.500 182.000 C 431.840 182.550,434.116 183.000,436.559 183.000 C 439.002 183.000,441.000 182.550,441.000 182.000 C 441.000 181.450,441.675 181.000,442.500 181.000 C 443.325 181.000,444.000 180.181,444.000 179.180 C 444.000 176.902,437.341 169.000,435.422 169.000 C 434.640 169.000,434.000 168.662,433.999 168.250 C 433.998 167.838,431.636 166.174,428.749 164.553 C 421.261 160.349,417.313 156.185,416.449 151.579 C 414.689 142.198,409.476 137.627,405.642 142.105 M249.827 162.176 C 240.273 167.715,243.627 174.000,256.139 174.000 C 260.864 174.000,263.571 174.951,267.250 177.905 C 269.909 180.040,269.435 181.353,264.000 186.904 C 258.132 192.897,256.847 199.190,261.250 200.370 C 273.665 203.697,280.000 196.548,280.000 179.212 C 280.000 168.940,279.001 166.000,275.512 166.000 C 274.772 166.000,274.017 165.555,273.833 165.011 C 272.447 160.899,255.484 158.896,249.827 162.176 M282.200 162.200 C 280.100 164.300,280.767 170.618,283.414 173.694 L 285.828 176.500 301.164 176.562 C 309.599 176.596,318.188 176.983,320.250 177.423 C 324.735 178.379,325.047 177.319,321.364 173.636 C 318.759 171.031,318.555 171.000,304.298 171.000 C 287.701 171.000,285.541 170.368,286.543 165.806 C 287.419 161.816,284.778 159.622,282.200 162.200 M406.666 175.175 C 406.329 178.021,405.652 180.608,405.161 180.925 C 404.671 181.241,403.923 182.610,403.498 183.967 C 402.513 187.120,392.427 196.855,389.345 197.628 C 388.055 197.952,387.000 198.533,387.000 198.919 C 387.000 199.306,384.637 200.215,381.750 200.940 C 378.863 201.665,376.020 202.636,375.434 203.098 C 374.848 203.561,371.810 204.240,368.684 204.607 L 363.000 205.275 363.000 197.106 C 363.000 190.202,363.271 188.852,364.750 188.389 C 367.894 187.404,383.000 179.646,383.000 179.016 C 383.000 178.678,384.575 177.832,386.500 177.136 C 388.425 176.440,390.000 175.470,390.000 174.981 C 390.000 174.491,391.575 173.795,393.500 173.434 C 395.425 173.073,397.000 172.409,397.000 171.958 C 397.000 171.061,399.892 170.348,404.389 170.136 L 407.279 170.000 406.666 175.175 M228.580 178.871 C 228.284 179.350,226.674 180.015,225.002 180.350 C 220.835 181.183,218.304 183.813,217.495 188.153 C 216.594 192.985,217.874 193.385,234.500 193.476 C 241.650 193.514,249.412 193.931,251.750 194.401 L 256.000 195.256 256.000 188.244 C 256.000 180.614,255.505 180.048,248.809 180.014 C 247.329 180.006,245.840 179.550,245.500 179.000 C 244.743 177.774,229.330 177.657,228.580 178.871 M348.528 200.750 C 348.146 202.813,347.420 204.650,346.916 204.833 C 346.412 205.017,346.000 205.704,346.000 206.360 C 346.000 209.530,333.759 219.000,329.662 219.000 C 328.748 219.000,328.000 219.400,328.000 219.889 C 328.000 220.377,326.314 221.094,324.252 221.480 C 322.191 221.867,320.279 222.504,320.002 222.897 C 319.726 223.289,316.350 224.341,312.500 225.235 C 299.884 228.163,296.000 229.325,296.000 230.168 C 296.000 234.017,294.084 229.607,293.537 224.500 C 293.154 220.925,292.427 218.000,291.920 218.000 C 291.414 218.000,291.000 216.425,291.000 214.500 C 291.000 211.278,291.238 211.000,294.000 211.000 C 295.650 211.000,297.000 210.602,297.000 210.115 C 297.000 209.629,299.393 208.931,302.318 208.566 C 305.243 208.201,308.806 207.295,310.236 206.553 C 311.666 205.811,314.673 204.893,316.918 204.514 C 319.163 204.135,321.000 203.475,321.000 203.049 C 321.000 202.622,323.813 201.694,327.250 200.987 C 330.688 200.279,333.950 199.358,334.500 198.939 C 335.660 198.055,339.861 197.363,345.361 197.150 L 349.223 197.000 348.528 200.750 M97.000 214.500 C 97.000 218.075,96.613 221.000,96.140 221.000 C 95.666 221.000,94.879 223.689,94.390 226.976 C 93.323 234.141,91.092 233.996,90.271 226.710 C 89.744 222.032,91.593 212.000,92.983 212.000 C 93.414 212.000,94.002 211.100,94.290 210.000 C 95.445 205.581,97.000 208.162,97.000 214.500 M386.000 215.552 C 386.000 216.561,381.512 224.494,380.750 224.833 C 380.337 225.017,380.000 225.609,380.000 226.150 C 380.000 230.418,364.639 244.622,362.935 241.930 C 360.197 237.603,362.415 229.268,367.588 224.446 C 372.719 219.663,386.000 213.247,386.000 215.552 M114.750 218.047 C 116.537 218.812,118.000 219.750,118.000 220.131 C 118.000 220.512,119.800 221.128,122.000 221.500 C 126.683 222.291,126.638 222.076,123.478 228.500 C 122.125 231.250,121.014 235.203,121.009 237.285 C 121.001 240.717,120.819 240.974,119.066 240.035 C 118.002 239.466,115.807 239.000,114.188 239.000 C 110.037 239.000,109.271 237.580,108.473 228.401 C 107.804 220.718,108.878 215.163,110.818 216.267 C 111.193 216.480,112.963 217.281,114.750 218.047 M277.000 219.417 C 277.000 220.196,277.437 220.983,277.972 221.167 C 279.070 221.543,281.130 234.498,280.396 236.410 C 280.133 237.095,276.237 238.238,271.710 238.958 C 267.194 239.676,263.017 240.643,262.426 241.108 C 261.835 241.573,258.108 242.255,254.144 242.623 C 250.180 242.992,246.700 243.677,246.409 244.147 C 246.119 244.616,242.084 245.000,237.441 245.000 L 229.000 245.000 229.000 236.622 C 229.000 226.598,229.004 226.593,239.500 224.960 C 243.900 224.275,247.950 223.373,248.500 222.956 C 249.050 222.538,252.537 221.875,256.250 221.482 C 259.962 221.089,263.000 220.397,263.000 219.944 C 263.000 219.155,266.798 218.528,273.750 218.168 C 275.966 218.053,277.000 218.451,277.000 219.417 M143.169 227.008 C 143.356 227.569,149.171 228.304,156.259 228.663 C 171.421 229.431,171.502 229.487,170.538 238.494 L 169.841 245.000 161.587 245.000 C 157.048 245.000,152.999 244.662,152.591 244.250 C 152.183 243.838,148.170 243.050,143.674 242.500 C 134.922 241.429,134.521 241.011,136.968 235.500 C 137.456 234.400,138.134 231.813,138.473 229.750 C 139.069 226.133,142.257 224.272,143.169 227.008 M217.000 236.500 L 217.000 245.000 202.250 244.968 C 184.081 244.929,182.033 244.000,185.494 237.364 C 186.315 235.789,186.990 233.713,186.994 232.750 C 186.999 231.327,187.898 231.000,191.800 231.000 C 194.440 231.000,197.028 230.578,197.550 230.063 C 198.501 229.125,203.350 228.502,212.250 228.175 L 217.000 228.000 217.000 236.500 M346.741 236.250 C 347.284 236.938,348.029 240.183,348.397 243.462 C 348.766 246.741,349.390 249.666,349.784 249.962 C 351.365 251.150,353.112 255.283,352.332 255.988 C 347.886 260.006,323.291 277.000,321.922 277.000 C 321.415 277.000,321.000 277.379,321.000 277.842 C 321.000 278.305,319.200 279.223,317.000 279.882 C 314.800 280.541,313.000 281.512,313.000 282.040 C 313.000 282.568,312.325 283.000,311.500 283.000 C 310.667 283.000,310.000 282.111,310.000 281.000 C 310.000 279.900,309.586 279.000,309.079 279.000 C 308.573 279.000,307.862 277.650,307.500 276.000 C 307.138 274.350,306.427 273.000,305.921 273.000 C 305.414 273.000,305.000 272.420,305.000 271.711 C 305.000 271.003,304.072 268.640,302.937 266.461 C 299.398 259.667,299.092 252.000,302.360 252.000 C 303.812 252.000,305.000 251.550,305.000 251.000 C 305.000 250.450,305.937 250.000,307.082 250.000 C 310.791 250.000,330.166 242.964,332.000 240.951 C 332.275 240.650,334.413 239.844,336.750 239.161 C 339.087 238.478,341.000 237.521,341.000 237.033 C 341.000 236.280,342.433 235.614,345.128 235.116 C 345.473 235.052,346.199 235.563,346.741 236.250 M286.326 261.106 C 286.659 263.914,287.363 266.733,287.891 267.369 C 288.420 268.006,289.389 270.658,290.045 273.263 C 290.701 275.868,291.585 278.000,292.010 278.000 C 292.435 278.000,293.093 279.233,293.471 280.740 C 293.849 282.247,294.504 283.709,294.925 283.990 C 297.789 285.895,296.920 289.924,293.507 290.565 C 291.578 290.926,290.000 291.551,290.000 291.952 C 290.000 292.353,287.413 293.253,284.250 293.952 C 281.087 294.651,278.050 295.580,277.500 296.018 C 276.950 296.455,274.250 297.142,271.500 297.545 C 268.750 297.948,266.224 298.705,265.887 299.227 C 265.549 299.749,259.812 300.428,253.137 300.735 L 241.000 301.294 241.000 292.706 C 241.000 287.983,240.550 283.840,240.000 283.500 C 239.450 283.160,239.000 280.032,239.000 276.548 C 239.000 269.477,239.448 269.000,246.082 269.000 C 248.237 269.000,250.000 268.612,250.000 268.138 C 250.000 267.663,252.558 266.975,255.684 266.607 C 258.810 266.240,261.848 265.562,262.434 265.101 C 263.020 264.639,265.863 263.708,268.750 263.031 C 271.637 262.354,274.000 261.395,274.000 260.900 C 274.000 260.405,275.093 260.000,276.429 260.000 C 277.764 260.000,279.460 259.397,280.196 258.661 C 281.431 257.426,283.631 256.270,285.111 256.079 C 285.447 256.036,285.994 258.298,286.326 261.106 M226.000 285.953 C 226.000 292.905,226.486 298.973,227.162 300.457 C 228.889 304.247,228.283 304.407,210.594 304.834 L 194.296 305.228 193.648 301.989 C 193.291 300.207,193.000 297.321,193.000 295.575 C 193.000 293.829,192.596 291.972,192.101 291.450 C 191.607 290.928,190.895 287.753,190.520 284.395 L 189.837 278.290 194.669 278.232 C 202.804 278.135,220.415 275.985,221.436 274.964 C 225.030 271.370,226.000 273.706,226.000 285.953 M107.929 278.931 C 109.578 280.543,111.217 283.018,111.572 284.431 C 111.927 285.844,112.542 287.000,112.940 287.000 C 113.701 287.000,116.090 296.243,115.485 296.849 C 115.291 297.042,114.541 296.818,113.817 296.350 C 113.092 295.883,110.486 295.049,108.025 294.498 L 103.551 293.497 105.898 291.310 C 108.518 288.869,108.454 286.181,105.624 279.750 C 103.635 275.232,104.010 275.099,107.929 278.931 M133.155 280.326 L 137.810 281.356 138.955 287.178 C 139.585 290.380,140.492 293.000,140.971 293.000 C 141.449 293.000,142.138 294.350,142.500 296.000 C 142.862 297.650,143.573 299.000,144.079 299.000 C 144.586 299.000,145.000 299.900,145.000 301.000 C 145.000 302.111,144.333 303.000,143.500 303.000 C 142.675 303.000,142.000 302.550,142.000 302.000 C 142.000 301.450,140.904 301.000,139.565 301.000 C 134.127 301.000,132.000 299.336,132.000 295.082 C 132.000 291.645,129.045 284.603,126.929 283.000 C 125.043 281.571,124.790 277.707,126.635 278.497 C 127.661 278.937,130.595 279.760,133.155 280.326 M165.767 279.933 C 172.692 281.919,179.663 291.637,180.212 300.070 L 180.500 304.500 171.638 304.288 C 161.859 304.054,160.687 303.373,159.526 297.250 C 159.187 295.462,158.516 294.000,158.034 294.000 C 157.553 294.000,156.862 292.650,156.500 291.000 C 156.138 289.350,155.482 288.000,155.042 288.000 C 153.649 288.000,152.080 280.152,153.368 279.623 C 155.377 278.797,162.421 278.974,165.767 279.933 M359.000 292.000 C 359.000 292.550,358.288 293.000,357.418 293.000 C 355.459 293.000,341.971 297.612,338.244 299.556 C 336.735 300.344,334.712 300.990,333.750 300.994 C 332.788 300.997,332.000 301.450,332.000 302.000 C 332.000 302.550,331.563 303.000,331.030 303.000 C 330.496 303.000,327.600 304.125,324.594 305.500 C 321.588 306.875,318.649 308.000,318.064 308.000 C 317.479 308.000,317.000 308.450,317.000 309.000 C 317.000 309.550,316.450 310.000,315.777 310.000 C 315.104 310.000,311.392 311.532,307.527 313.404 C 300.272 316.918,295.126 319.263,286.500 322.986 C 283.750 324.173,280.073 325.791,278.330 326.581 C 276.586 327.372,273.774 328.295,272.080 328.634 C 270.386 328.973,269.000 329.604,269.000 330.037 C 269.000 330.470,267.087 331.140,264.750 331.525 C 262.413 331.911,260.027 332.606,259.448 333.071 C 258.870 333.535,255.045 334.452,250.948 335.107 C 246.852 335.762,243.014 336.672,242.420 337.130 C 241.827 337.588,237.439 338.262,232.670 338.629 C 227.902 338.995,224.000 339.679,224.000 340.148 C 224.000 340.616,221.300 341.000,218.000 341.000 C 214.667 341.000,212.000 341.444,212.000 342.000 C 212.000 344.271,257.503 342.373,258.992 340.039 C 259.271 339.601,261.863 338.920,264.750 338.527 C 267.637 338.134,270.000 337.444,270.000 336.994 C 270.000 336.544,271.852 335.863,274.116 335.480 C 277.862 334.847,281.768 333.416,290.651 329.418 C 292.384 328.638,294.297 328.000,294.901 328.000 C 295.506 328.000,296.000 327.648,296.000 327.218 C 296.000 326.788,298.025 325.839,300.500 325.108 C 302.975 324.377,305.000 323.415,305.000 322.969 C 305.000 322.523,306.350 321.862,308.000 321.500 C 309.650 321.138,311.000 320.427,311.000 319.921 C 311.000 319.414,311.556 319.000,312.236 319.000 C 313.429 319.000,323.983 314.047,325.000 313.010 C 325.275 312.730,329.550 310.528,334.500 308.117 C 339.450 305.706,346.030 302.493,349.122 300.976 C 352.215 299.460,356.602 297.905,358.872 297.522 C 361.143 297.138,363.000 296.414,363.000 295.912 C 363.000 295.410,363.675 295.000,364.500 295.000 C 365.333 295.000,366.000 294.111,366.000 293.000 C 366.000 291.381,365.333 291.000,362.500 291.000 C 360.575 291.000,359.000 291.450,359.000 292.000 M388.000 291.872 C 388.000 292.352,386.087 293.050,383.750 293.423 C 381.413 293.796,378.593 294.694,377.485 295.419 C 376.377 296.144,374.015 297.057,372.235 297.448 C 370.456 297.839,369.000 298.523,369.000 298.968 C 369.000 299.413,367.425 300.073,365.500 300.434 C 363.575 300.795,362.000 301.449,362.000 301.887 C 362.000 302.325,360.258 303.205,358.129 303.843 C 356.001 304.481,351.185 306.577,347.427 308.501 C 343.670 310.426,340.011 312.000,339.298 312.000 C 338.584 312.000,338.000 312.450,338.000 313.000 C 338.000 313.550,337.506 314.000,336.901 314.000 C 335.731 314.000,333.191 315.084,320.500 321.000 C 307.203 327.199,305.285 327.993,302.059 328.638 C 300.354 328.979,298.716 329.650,298.420 330.129 C 298.124 330.608,297.121 331.003,296.191 331.006 C 295.261 331.010,293.328 331.624,291.895 332.372 C 290.462 333.119,286.862 334.300,283.895 334.996 C 280.928 335.692,278.050 336.611,277.500 337.037 C 276.950 337.464,274.363 338.131,271.750 338.520 C 269.137 338.909,267.000 339.564,267.000 339.976 C 267.000 340.388,263.632 341.269,259.516 341.933 C 255.399 342.597,251.805 343.506,251.529 343.953 C 251.253 344.400,248.433 345.087,245.263 345.479 C 242.093 345.872,239.050 346.551,238.500 346.988 C 237.950 347.426,233.225 348.346,228.000 349.034 C 222.775 349.721,218.050 350.624,217.500 351.041 C 216.950 351.457,212.450 352.127,207.500 352.529 C 202.550 352.930,198.258 353.636,197.961 354.097 C 197.665 354.558,190.561 355.244,182.174 355.623 C 173.788 356.001,166.691 356.691,166.404 357.155 C 165.721 358.261,140.000 358.258,140.000 357.152 C 140.000 356.686,134.735 356.004,128.299 355.637 C 121.864 355.269,116.351 354.616,116.049 354.186 C 115.747 353.755,112.800 352.904,109.500 352.293 C 102.225 350.947,91.691 347.864,90.990 346.877 C 90.709 346.482,89.247 345.849,87.740 345.471 C 86.233 345.093,85.000 344.382,85.000 343.892 C 85.000 343.401,84.376 343.000,83.614 343.000 C 82.852 343.000,79.477 341.163,76.114 338.917 L 70.000 334.835 70.000 328.524 C 70.000 322.606,69.235 321.000,66.418 321.000 C 66.188 321.000,66.000 324.308,66.000 328.351 C 66.000 335.741,67.421 342.000,69.098 342.000 C 69.594 342.000,70.000 342.612,70.000 343.360 C 70.000 344.108,71.013 345.460,72.250 346.364 C 80.053 352.065,81.512 353.000,82.611 353.000 C 83.283 353.000,83.983 353.369,84.167 353.819 C 84.739 355.226,94.186 358.165,101.500 359.212 C 105.350 359.763,109.563 360.719,110.863 361.336 C 114.244 362.943,179.241 362.778,179.780 361.161 C 180.018 360.445,182.723 359.971,186.833 359.924 C 190.500 359.882,198.000 359.228,203.500 358.472 C 209.000 357.715,217.100 356.609,221.500 356.014 C 225.900 355.418,230.400 354.522,231.500 354.021 C 232.600 353.521,235.975 352.811,239.000 352.444 C 242.025 352.077,244.950 351.441,245.500 351.031 C 246.050 350.621,250.100 349.725,254.500 349.040 C 258.900 348.355,262.950 347.453,263.500 347.034 C 264.050 346.616,266.503 345.967,268.950 345.593 C 271.398 345.218,273.873 344.549,274.450 344.106 C 275.028 343.662,278.425 342.715,282.000 342.000 C 285.575 341.285,288.950 340.358,289.500 339.940 C 290.050 339.521,292.188 338.864,294.250 338.478 C 296.313 338.093,298.000 337.460,298.000 337.072 C 298.000 336.684,300.925 335.786,304.500 335.075 C 308.075 334.364,311.000 333.421,311.000 332.979 C 311.000 332.537,312.798 331.872,314.995 331.501 C 317.192 331.130,319.212 330.466,319.484 330.026 C 319.756 329.587,321.558 328.930,323.489 328.568 C 325.420 328.206,327.000 327.552,327.000 327.114 C 327.000 326.677,329.475 325.726,332.500 325.000 C 335.525 324.274,338.000 323.323,338.000 322.886 C 338.000 322.448,339.575 321.795,341.500 321.434 C 343.425 321.073,345.000 320.449,345.000 320.047 C 345.000 319.645,346.800 318.777,349.000 318.118 C 351.200 317.459,353.000 316.538,353.000 316.071 C 353.000 315.604,354.575 314.927,356.500 314.566 C 358.425 314.205,360.000 313.480,360.000 312.955 C 360.000 312.430,360.556 312.000,361.236 312.000 C 363.080 312.000,373.000 306.803,373.000 305.836 C 373.000 305.376,373.518 305.000,374.150 305.000 C 375.883 305.000,386.000 299.699,386.000 298.791 C 386.000 298.356,386.653 298.000,387.450 298.000 C 388.248 298.000,389.260 297.404,389.700 296.675 C 390.140 295.946,391.288 295.060,392.250 294.706 C 395.237 293.608,394.357 291.000,391.000 291.000 C 389.350 291.000,388.000 291.392,388.000 291.872 M91.000 320.429 C 91.000 322.314,91.675 324.532,92.500 325.357 C 93.325 326.182,94.000 327.274,94.000 327.783 C 94.000 332.644,108.708 341.422,118.750 342.554 C 122.188 342.941,125.000 343.650,125.000 344.129 C 125.000 344.608,133.100 345.000,143.000 345.000 C 157.514 345.000,161.000 344.737,161.000 343.639 C 161.000 342.218,154.340 341.025,146.309 341.009 C 144.004 341.004,141.876 340.609,141.581 340.131 C 141.286 339.654,137.895 338.952,134.045 338.573 C 130.196 338.194,126.816 337.511,126.534 337.055 C 126.252 336.599,124.330 335.910,122.261 335.523 C 120.192 335.135,116.612 333.959,114.305 332.909 C 111.998 331.859,109.635 331.000,109.055 331.000 C 108.475 331.000,108.000 330.622,108.000 330.161 C 108.000 329.699,106.858 328.801,105.462 328.165 C 104.067 327.529,102.379 326.550,101.712 325.989 C 97.131 322.135,95.305 320.238,94.726 318.728 C 93.506 315.550,91.000 316.694,91.000 320.429 M176.298 325.952 C 154.674 326.511,150.841 327.241,153.834 330.234 C 155.527 331.927,211.222 331.835,211.787 330.138 C 212.031 329.408,215.180 329.000,220.583 329.000 C 225.528 329.000,229.000 328.587,229.000 328.000 C 229.000 327.450,227.425 327.000,225.500 327.000 C 223.575 327.000,222.000 326.550,222.000 326.000 C 222.000 324.959,215.033 324.952,176.298 325.952 M179.500 342.000 C 178.072 344.311,180.627 345.000,190.630 345.000 C 200.523 345.000,204.000 344.108,204.000 341.571 C 204.000 340.542,180.143 340.959,179.500 342.000 " stroke="none" fill="#000000" fill-rule="evenodd"></path></g></svg>