<?xml version="1.0"?>
<svg xmlns:rdf="http://www.w3.org/1999/02/22-rdf-syntax-ns#" xmlns="http://www.w3.org/2000/svg" xmlns:cc="http://web.resource.org/cc/" xmlns:dc="http://purl.org/dc/elements/1.1/" xmlns:svg="http://www.w3.org/2000/svg" id="Layer_1" xml:space="preserve" viewBox="0 0 179.406 279.529" version="1.0">
<g id="g5" stroke="#000" stroke-width=".036" stroke-miterlimit="10" fill-rule="evenodd">
	<path id="path7" d="m134.17 195.82c0 7.13 3.13 12.89 7.02 12.89s7.02-5.76 7.02-12.89-3.13-12.93-7.02-12.93-7.02 5.8-7.02 12.93z"/>
	<path id="path9" d="m136.08 196.93c0 4.94 2.2 8.9 4.86 8.9s4.86-3.96 4.86-8.9c0-4.93-2.2-8.92-4.86-8.92s-4.86 3.99-4.86 8.92z" fill="silver"/>
	<path id="path11" d="m37.477 124.9c-2.16-0.47-4.572-0.04-7.38 1.29-2.988 1.19-6.3 2.85-9.504 6.34-3.276 3.35-6.336 7.34-9.468 14.47-3.132 7.2-7.452 18.25-9.216 28.44-1.836 10.15-2.268 20.92-1.584 32.15 0.54 11.16 2.808 24.05 5.544 34.23 2.808 10.08 6.444 19.37 11.052 25.78 4.428 6.26 9.972 10.4 15.804 11.59 5.868 1.05 13.068-0.43 18.972-5.25 5.796-5.01 10.872-12.82 15.516-23.98l21.348 9.5h31.319c2.23 3.86 4.82 7.1 7.92 9.72 3.06 2.67 6.48 4.65 10.26 5.8 3.56 1.01 7.38 1.8 11.59 0 4.14-2.05 9.22-5.22 13.43-11.59 4.18-6.45 8.79-15.63 11.59-26.57 2.7-11.09 4.65-26.68 4.72-38.99-0.11-12.38-2.02-24.3-4.46-34.49-2.52-10.33-5.87-19.9-9.76-26.35-3.92-6.44-8.35-9.32-13.14-11.84-4.9-2.63-9.9-3.64-15.55-3.42 1.69-1.05 2.7-3.67 2.88-7.89 0.21-4.39 0.43-10.54-1.84-17.635-2.41-7.164-8.39-19.296-12.38-25.02-4.14-5.796-7.96-8.964-11.85-9.504 1.69-1.692 3.31-3.996 5.01-6.912 1.54-3.024 3.78-6.336 4.75-10.764 0.9-4.572 1.76-10.908 0.79-16.092-1.12-5.4-3.17-10.584-6.84-15.013-3.85-4.5-8.86-8.964-15.01-11.052-6.23-2.088-15.013-2.195-21.35-1.296-6.336 0.792-11.592 3.313-16.056 6.3-4.572 2.952-7.812 6.732-10.548 11.34-2.808 4.465-5.004 10.801-5.76 15.517-0.9 4.716-0.792 8.244 1.296 12.384 2.088 4.104 5.868 7.92 11.34 11.844-5.292 1.764-9.288 3.384-12.384 5.004-3.024 1.548-5.004 3.096-5.796 4.5-0.504-3.528-1.548-6.3-3.42-8.46-1.908-2.196-3.528-3.636-7.632-4.464-4.212-0.864-9.828-1.044-17.136-0.54-2.232 1.908-3.456 3.888-3.672 6.084-0.252 2.16 0.396 4.392 2.088 6.84 5.652-0.288 10.08-0.108 13.428 0.54 3.24 0.576 4.896 1.152 6.336 3.132 1.404 1.836 1.836 4.284 2.124 8.172 0.144 3.852-0.72 9.972-0.792 15.012-0.216 4.896-0.324 9.543 0.252 14.763 0.505 5.22 1.657 10.58 3.169 16.38zm117.25 29.12c-3.35 9.25-6.59 17.97-10.15 26.68-3.64 8.75-7.82 17.49-10.98 24.98-3.21 7.31-5.8 13.32-7.92 18.58 5.22 2.84 9.21 5.36 11.99 7.41 2.73 1.95 3.74 3.17 4.53 4.94 0.69 1.76 0.69 3.56-0.14 5.54l6.91 6.34-3.02 9.28-7.78 1.01c0.94 1.08 2.02 1.66 3.53 1.87 1.33 0.18 3.02 0.36 5.07-0.86 2.02-1.48 4.47-3.49 6.91-7.42 2.34-3.96 5.12-9.21 6.95-16.2 1.69-7.12 2.81-15.98 3.21-26.02 0.21-10.23-0.22-24.77-1.7-34.2-1.51-9.4-4.03-16.71-7.41-21.93zm-123.62 12.53c-2.124-0.43-4.212-0.14-6.264 1.01-2.16 1.15-4.104 3.02-6.228 5.76l-0.36 8.6c2.232-3.42 4.248-5.9 6.588-7.45 2.196-1.55 4.5-2.27 6.768-2.01-0.144-1.95-0.324-3.93-0.504-5.91zm-14.868 42.05s0.144 8.6 0.684 13.68 0.9 11.05 2.52 16.56c1.62 5.47 4.536 12.17 7.092 16.02 2.556 3.82 5.652 5.8 8.1 6.77 2.484 0.97 3.96 1.26 6.588-1.01 2.664-2.34 6.588-6.91 9.144-12.67 2.52-5.8 4.68-13.83 5.904-21.78 1.188-7.99 1.98-18.11 1.188-25.67-0.864-7.56-4.032-16.78-6.084-19.26-2.088-2.45-4.284 0.43-6.264 4.57s-3.996 15.01-5.4 20.09c-1.404 5.04-1.044 7.92-2.88 9.97-1.836 1.98-5.436 2.27-8.1 2.02s-5.652-1.98-7.776-3.57c-2.088-1.55-4.716-5.72-4.716-5.72z"/>
	<path id="path13" d="m64.513 60.098c-4.212 1.152-7.884 2.34-11.304 3.96-3.564 1.404-6.516 2.844-9 5.292s-4.212 6.084-5.472 9.504c-1.224 3.204-1.8 5.904-2.016 10.332-0.396 4.428-0.252 11.444 0 16.054 0.252 4.43 0.828 7.56 1.44 10.91 0.504 3.31 1.08 6.23 1.728 8.89 4.428 1.62 8.028 3.67 11.196 5.76 3.096 2.13 5.472 4.9 7.416 7.06 1.908 2.12 3.132 3.96 3.816 5.65 2.7-3.06 7.056-5.51 13.212-7.49 6.156-2.01 13.86-3.42 23.508-4.35-6.229-0.87-10.944-1.91-14.544-3.14-3.564-1.26-5.796-2.7-6.696-4.32-5.364 2.34-9.792 3.75-13.284 4.5-3.6 0.58-6.66 0.29-7.776-0.32-1.116-0.65-0.864-1.76 0.9-3.35-2.196 0.29-3.816 0.29-4.716 0-0.936-0.43-1.224-1.29-1.008-1.91 0.144-0.64 0.684-1.18 1.764-1.76-2.196 0.11-3.528 0-4.14-0.61-0.684-0.72-0.252-2.02 0.468-2.92 0.648-0.9 1.764-1.58 3.492-2.19-1.8-0.54-2.916-1.23-3.204-2.06-0.324-0.93 0.252-2.19 1.152-3.09 0.828-0.97 2.052-1.95 3.672-2.49 1.512-0.68 3.276-1.08 5.436-1.33-0.36-2.73-1.188-5.69-2.484-9.25-1.404-3.672-3.816-9.252-5.436-11.88-1.656-2.628-2.7-3.204-4.248-3.96-1.692-0.972-4.752-0.72-5.292-1.044-0.612-0.468 0.864-0.612 1.908-0.72 1.008-0.108 2.556-0.108 4.104 0.576 1.404 0.648 2.88 1.224 4.572 3.672 1.62 2.412 3.6 6.912 5.256 10.728 1.656 3.672 2.988 7.488 4.428 11.448 2.34 0.4 4.32 0.83 6.084 1.3 1.692 0.39 2.808 0.68 4.32 1.44 1.512 0.68 2.952 1.69 4.608 2.88 5.4-0.47 9.936-0.76 14.04-0.87 4.067-0.18 7.271-0.18 10.047 0 1-4.64 2.59-8.57 4.89-11.77 2.23-3.348 6.19-6.228 8.68-7.524 2.38-1.224 4.75-0.396 5.87 0 1.08 0.252 1.22 0.792 0.57 1.62 1.91-0.036 2.99 0.252 3.53 0.72 0.4 0.468 0.25 1.26-0.72 2.232 1.37 0.072 2.2 0.504 2.34 1.296 0.07 0.72 1.01 0.504-1.48 3.236-2.52 2.67-7.02 6.77-13.5 12.6-5.79-0.32-11.37-0.32-17.023-0.14-5.652 0.22-11.125 0.61-16.561 1.33 0.396 1.3 0.54 2.52 0.576 3.96-0.036 1.41-0.18 2.77-0.576 4.25 3.528 2.38 8.028 4.32 13.356 5.69 5.399 1.37 11.448 2.23 18.688 2.59 1.44-2.74 3.88-4.72 7.74-6.34 3.7-1.65 8.64-2.55 14.79-3.09 2.09-1.55 3.28-4.43 3.57-8.64 0.28-4.39-0.15-10.37-1.98-16.67-1.95-6.372-6.41-15.48-9.51-20.664-3.24-5.256-5.94-7.92-9.47-10.332-3.67-2.484-8.56-3.6-11.77-4.32-3.2-0.756-5.686-0.9-7.45-0.288-1.872 2.808-3.708 5.04-5.508 6.84-1.98 1.692-3.42 3.06-5.58 3.672-2.232 0.504-4.752 0.396-7.164-0.324-2.412-0.972-4.86-2.808-7.2-4.68-2.411-1.908-4.715-3.816-7.055-6.156z" fill="#169253"/>
	<path id="path15" d="m66.565 59.774l4.104-1.008c1.836 1.584 3.6 2.628 5.436 3.672 1.8 0.828 3.564 1.692 5.292 1.908 1.548 0.144 2.736 0 4.392-0.432 1.548-0.54 3.312-1.332 5.147-2.52 0.685-0.072 1.368-0.072 1.908 0s1.08 0.072 1.477 0.288c-1.225 1.836-2.593 3.312-4.248 4.572-1.729 1.224-3.457 2.376-5.581 2.772-2.232 0.252-4.536-0.036-6.912-1.008-2.52-1.044-5.472-3.492-7.344-4.86-1.835-1.404-3.059-2.484-3.671-3.384z" fill="#169253"/>
	<path id="path17" d="m74.341 52.934c0.072 0.864 0.072 1.836 0 2.772-0.108 0.972-0.396 1.908-0.72 2.952 0.972 1.188 2.196 2.16 3.816 2.772 1.584 0.648 3.816 1.044 5.58 1.044 1.692-0.18 3.204-0.72 4.68-1.764 0.144-0.288 0.252-0.828 0.324-1.476 0.072-0.72 0.072-1.548 0.144-2.628-2.268 0.72-4.428 0.72-6.768 0.144-2.376-0.648-4.68-1.872-7.056-3.816z" fill="#ffdd9e"/>
	<path id="path19" d="m64.297 58.298c-2.988-1.944-5.58-3.996-7.776-6.3-2.376-2.448-4.284-4.608-5.436-7.452-1.08-2.844-1.44-5.652-0.936-9.252 0.504-3.78 2.052-8.712 3.816-12.564 1.584-3.815 3.168-7.128 6.3-10.08 3.204-3.132 7.92-6.228 12.636-8.027 4.572-1.873 10.332-2.413 14.94-2.593 4.536-0.324 7.812-0.217 12.06 1.151 4.139 1.368 9.149 4.284 12.639 7.2 3.31 2.844 5.65 5.58 7.45 9.756 1.8 4.068 2.66 9.972 2.88 14.652 0.04 4.536-0.83 8.46-2.59 12.888-1.95 4.356-4.65 8.784-8.5 13.284-3.71-0.972-7.2-1.656-10.87-1.908-3.744-0.288-7.272-0.144-10.98 0.288l-0.648-2.736c6.768-2.088 12.028-4.68 16.348-7.488 4.17-2.988 7.59-6.192 8.89-9.756 1.22-3.6-0.18-7.38-1.15-11.196-1.12-3.852-2.56-7.632-4.86-11.484l0.57 4.32c-0.97-0.252-2.12-0.433-3.31-0.54-1.33-0.18-2.56-0.18-4.1-0.145-0.54-1.691-0.76-3.312-1.05-5.004-0.29-1.764-0.43-3.42-0.43-5.256-0.648 2.557-1.045 4.464-1.189 6.156-0.252 1.584-0.252 2.664 0 3.384-1.8-0.107-3.168-0.216-4.536-0.468-1.368-0.288-2.448-0.576-3.384-1.008-0.433-1.404-0.72-2.88-0.72-4.429-0.108-1.619 0.035-3.275 0.432-5.111-0.792 1.8-1.332 3.456-1.62 5.111-0.396 1.656-0.36 3.133-0.288 4.717-0.72 0.036-1.656-0.108-2.952-0.433-1.368-0.324-2.844-1.044-4.824-1.764-0.36-0.792-0.504-1.584-0.576-2.521-0.072-0.972 0.072-1.943 0.288-3.06-0.648 1.872-1.584 3.528-2.664 4.824-1.188 1.188-2.376 2.268-4.104 3.096-1.836 0.864-4.536 1.044-6.3 2.34-1.8 1.26-3.492 2.7-4.248 5.292-0.864 2.556-0.972 6.624-0.468 9.828 0.504 2.988 1.872 6.156 3.564 8.532 1.548 2.376 3.6 4.284 6.012 5.724-0.18 0.972-0.144 1.98-0.288 3.168-0.18 1.152-0.144 2.34-0.288 3.708-1.368-0.252-2.808-0.252-4.032 0-1.26 0.148-2.592 0.58-3.708 1.156z" fill="#feff48"/>
	<path id="path21" d="m79.489 16.79c-1.224 0.972-2.556 2.052-4.392 2.952-1.908 0.863-4.572 1.188-6.336 2.628-1.8 1.296-3.672 2.736-4.248 5.58-0.684 2.88-0.756 7.668 0.612 11.304 1.188 3.384 4.14 6.48 7.2 9.288 3.132 2.628 7.488 6.012 11.268 6.84 3.6 0.684 7.344-0.936 10.548-1.944 3.168-1.008 5.221-1.8 8.239-3.78 2.96-2.088 7.24-5.796 9.26-8.352 1.73-2.592 2.41-3.78 2.05-6.912-0.36-3.276-1.73-7.2-4.11-12.168-6.55-0.432-11.731-0.828-15.691-1.188-4.032-0.396-5.76-0.504-8.1-1.152-2.448-0.792-4.5-1.693-6.3-3.096z" fill="#ffdd9e"/>
	<path id="path23" d="m93.997 24.602c1.943-0.432 3.527-0.36 4.752 0.216 1.224 0.504 2.091 1.548 2.591 2.988-1.691-0.828-3.095-1.224-4.355-1.332-1.367-0.108-2.304 0.18-3.239 0.864 0.07-0.9 0.143-1.8 0.251-2.736z"/>
	<path id="path25" d="m87.301 31.442c2.16 2.196 3.348 3.888 4.104 5.076 0.611 1.044 0.575 1.368-0.253 1.944-0.791 0.612-2.375 1.044-4.607 1.584 1.404-0.612 2.34-1.296 2.808-2.052 0.324-0.72 0.288-1.62-0.108-2.556-0.36-1.188-1.008-2.376-1.944-3.996z"/>
	<path id="path27" d="m78.553 40.586c2.484 3.456 4.716 5.796 6.84 6.876 2.016 1.08 4.032 0.288 5.652-0.432 1.548-0.828 2.988-2.232 4.032-4.356-1.98 2.088-4.284 2.916-7.056 2.628-2.736-0.36-5.94-1.98-9.468-4.716z"/>
	<path id="path29" d="m79.597 30.182c0 1.044 0.864 1.872 1.908 1.872s1.872-0.828 1.872-1.872-0.828-1.908-1.872-1.908-1.908 0.864-1.908 1.908z"/>
	<path id="path31" d="m94.141 31.154c0 1.044 0.864 1.908 1.908 1.908s1.872-0.864 1.872-1.908-0.828-1.872-1.872-1.872-1.908 0.828-1.908 1.872z"/>
	<path id="path33" d="m83.593 22.838c-1.98-0.18-3.6-0.108-4.716 0.612-1.188 0.684-2.016 1.62-2.34 3.204 1.512-1.008 3.024-1.476 4.248-1.692 1.188-0.252 2.376 0.036 3.276 0.576-0.144-0.9-0.288-1.8-0.468-2.7z"/>
	<path id="path35" d="m32.293 66.398c-0.9-1.26-1.188-2.412-0.864-3.888 0.288-1.44 1.188-3.06 2.7-4.716 1.62 0.792 3.024 1.728 4.068 3.204 1.08 1.296 1.764 3.636 2.34 5.076 0.432 1.44 0.756 2.52 0.684 3.384-0.864 0.612-1.548 1.404-2.196 2.52s-1.26 2.376-1.692 4.068c-0.216-3.384-0.72-5.868-1.512-7.452-0.936-1.656-1.98-2.34-3.528-2.196z" fill="silver"/>
	<path id="path37" d="m105.55 108.81c0.15-2.24 0.94-4.25 2.23-6.59 1.34-2.342 3.75-5.546 5.73-7.094 1.87-1.62 4.32-2.412 5.4-2.376 0.93-0.108 1.04 0.756 0.32 2.196 2.27-0.684 3.64-0.756 4.25-0.36 0.58 0.396 0.4 1.26-0.68 2.736 1.76-0.288 2.59-0.072 2.88 0.504 0.1 0.504 0.64 0.432-1.7 2.844-2.44 2.34-6.51 6.12-12.49 11.34-1.51-0.25-2.7-0.65-3.71-1.19-0.97-0.54-1.76-1.26-2.23-2.01z" fill="#ffdd9e"/>
	<path id="path39" d="m76.681 112.01c-2.916-1.37-5.796-2.48-8.244-3.06-2.484-0.72-4.752-1.04-6.948-0.83-2.304 0.11-5.328 1.05-6.732 1.84-1.404 0.72-1.98 1.94-1.872 2.7-0.036 0.61 0.36 1.11 1.872 1.37 1.512 0.25 3.672 0.36 6.912 0.32-2.592 0.61-4.68 1.19-6.264 1.87-1.584 0.61-2.988 1.33-3.384 2.02-0.54 0.61-0.936 1.37 0.18 1.69 1.044 0.25 3.024 0.14 6.084-0.18-2.412 1.04-3.744 1.91-4.392 2.74-0.612 0.75-0.324 1.8 0.864 2.01 1.08 0.15 3.096-0.14 5.904-1.01-1.188 0.72-1.872 1.55-2.196 2.2-0.396 0.68-0.72 1.48 0.144 1.84 0.792 0.25 2.7-0.04 4.752-0.33 1.944-0.54 4.572-1.11 6.912-1.87 2.16-0.68 4.14-1.51 6.084-2.34 0.864-1.84 1.26-3.6 1.332-5.44 0.036-1.87-0.252-3.67-1.008-5.54z" fill="#ffdd9e"/>
	<path id="path41" d="m63.361 146.21c2.772-3.1 6.192-5.58 10.692-7.45 4.428-1.87 9.648-3.17 15.66-3.89 5.904-0.94 13.747-1.55 19.367-1.3 5.51 0.08 10.01 0.47 13.5 2.6 3.35 2.08 6.84 4.1 6.88 10.33-0.08 6.23-4.4 16.99-6.99 26.89-2.7 9.83-6.05 22.47-8.53 31.68-2.56 9.11-4.57 16.49-6.34 22.68-2.15 2.02-4.64 2.88-7.59 2.88-2.989-0.11-6.373-1.08-10.153-3.2-2.916-6.27-4.104-14.58-3.708-25.49 0.396-10.94 2.484-24.05 6.264-39.71-1.261 2.85-3.636 5.08-7.272 7.09-3.636 1.95-8.532 3.39-14.544 4.47-0.72-6.41-1.728-11.74-2.88-16.38-1.26-4.68-2.664-8.28-4.356-11.2z" fill="#2161a1"/>
	<path id="path43" d="m113.08 131.88c1.65-1.73 3.78-3.2 6.66-4.43 2.77-1.4 6.15-2.55 10.15-3.06 3.96-0.5 9.43-1.33 13.35 0.29 3.86 1.55 7.71 4.57 9.47 9.22 1.73 4.68 2.05 10.8 0.58 18.36-1.73 7.41-7.02 17.46-10.33 25.56-3.32 7.92-6.3 14.44-9.36 21.92-3.24 7.46-6.27 14.69-9.47 22.29-1.66 0.14-3.46 0.14-5.4 0-1.98-0.15-4.07-0.58-6.41-1.01 1.94-9.51 4.03-18.43 6.41-27.36 2.3-9 5.25-17.78 7.45-25.67 2.05-7.99 4.72-15.95 5.22-20.95 0.4-5.04-0.72-6.23-2.52-8.57-1.94-2.41-5.69-4.35-8.32-5.43-2.66-1.12-5.11-1.55-7.48-1.16z" fill="#2161a1"/>
	<path id="path45" d="m17.893 167.95c-2.124 6.7-3.168 12.35-3.672 21.24-0.504 8.9-0.324 21.96 0.54 31.43 0.648 9.25 1.404 16.92 3.924 24.12s6.984 15.16 11.016 18.61c3.888 3.28 8.1 3.71 12.204 1.15 3.996-2.73 8.568-7.77 11.772-17.2 2.988-9.69 6.3-25.96 6.588-39.64 0.18-13.82-1.656-30.64-5.112-41.54-3.636-10.91-10.872-19.95-15.732-22.83s-9.288 1.91-12.852 6.05c-3.708 4.18-6.552 11.81-8.676 18.61zm-7.596-11.88c-3.024 7.71-5.4 16.71-6.588 25.74-1.224 8.82-1.368 17.32-0.576 27.29 0.648 10.01 2.052 22.39 4.896 32.15 2.916 9.68 7.308 19.55 12.348 25.56 4.86 5.83 11.376 9.68 16.92 9.47 5.472-0.36 10.944-4.14 16.02-11.34 5.04-7.42 10.908-19.37 13.86-32.26 2.808-13.03 4.176-30.17 3.132-44.75-1.26-14.72-4.464-32.07-9.756-42.19-5.364-10.11-14.904-15.91-21.528-17.53-6.768-1.51-12.888 3.24-17.784 8.03-4.896 4.75-8.028 12.06-10.944 19.83z" fill="silver"/>
	<path id="path47" d="m25.777 205.43c0 4.93 2.16 8.93 4.86 8.93 2.664 0 4.824-4 4.824-8.93s-2.16-8.93-4.824-8.93c-2.7 0-4.86 4-4.86 8.93z" fill="silver"/>
	<path id="path49" d="m151.74 128.1c1.87 2.45 3.17 5.47 3.89 9.07 0.65 3.57 0.83 7.6 0.39 12.24 2.27 2.85 4.25 7.67 6.09 14.62 1.8 6.88 4.14 16.2 4.64 26.85 0.44 10.73-1 26.82-2.23 36.47-1.44 9.33-3.67 14.62-5.72 19.77-2.05 5.14-3.96 8.24-6.3 10.94-2.56 2.56-5.58 3.82-7.96 4.61-2.27 0.61-3.96 0.5-5.76-0.18-1.94-0.72-3.85-1.91-5.72-3.71l-10.77 0.83c1.59 2.66 3.82 5.11 6.3 7.2 2.52 2.16 5.44 4.25 8.89 5.43 3.43 1.01 7.39 2.6 11.49 0.87 4.03-1.91 8.71-6.3 12.63-11.77 3.82-5.55 7.31-12.03 10.05-21.24 2.63-9.47 4.97-22.57 5.47-34.45 0.33-11.96-1.65-26.61-3.17-36.47-1.62-9.9-4.17-16.53-6.3-22.4-2.27-5.86-4.24-9.57-6.91-12.63-2.7-3.13-5.65-5.15-9-6.05z" fill="silver"/>
	<path id="path51" d="m91.188 231.71c0.54 0.94 1.656 1.73 3.349 2.23 1.548 0.51 4.355 0.94 6.483 0.72 2.12-0.36 4.06-1.22 6.12-2.59 5.07 3.02 9.14 5.87 12.2 8.53 3.06 2.59 5.15 5.01 6.12 7.24 0.79 2.16 1.04 4.68-0.76 5.9-1.94 1.12-6.44 0.97-10.18 0.94-3.75-0.07-7.1-0.15-11.85-1.48-4.858-1.44-10.222-3.74-16.666-7.06-0.072-0.5-0.18-1-0.18-1.65-0.072-0.65-0.072-1.44 0-2.23 3.996 2.59 7.56 4.46 11.125 5.76 3.381 1.18 5.941 1.62 9.611 1.83 3.6 0.11 7.45 0 11.84-0.72-5.72-0.21-10.72-0.83-15.15-1.69-4.537-1.01-8.821-2.63-11.485-3.89-2.7-1.33-4.248-2.63-4.644-3.89 0.432-2.52 0.936-4.42 1.656-5.72 0.684-1.29 1.44-2.09 2.411-2.23z" fill="#fff"/>
	<path id="path53" d="m111.74 224.51c-0.61 0.65-1.04 1.44-1.29 2.38-0.25 0.93-0.36 1.94-0.18 3.16 3.06 2.45 5.72 4.47 8.13 6.48 2.34 1.91 4.32 3.53 5.94 5.01 1.52 0.03 3.06 0.03 4.65 0 1.58-0.04 2.99-0.15 4.61-0.18-0.87 0.5-2.02 0.82-3.32 1.11-1.36 0.25-3.02 0.33-4.82 0.36 0.4 0.72 0.72 1.26 1.12 2.02 0.32 0.65 0.57 1.33 0.9 2.05 3.09 0.47 5.58 0.72 7.59 0.36 1.95-0.4 3.35-0.68 4.07-2.23 0.61-1.55 1.12-4.97 0-7.2-1.22-2.34-3.82-4.61-6.66-6.66-2.95-2.09-6.34-3.96-10.55-5.76-2.73 0.4-5 0.58-6.66 0.4-1.69-0.18-2.91-0.62-3.53-1.3z" fill="#fff"/>
</g>
<metadata><rdf:RDF><cc:Work><dc:format>image/svg+xml</dc:format><dc:type rdf:resource="http://purl.org/dc/dcmitype/StillImage"/><cc:license rdf:resource="http://creativecommons.org/licenses/publicdomain/"/><dc:publisher><cc:Agent rdf:about="http://openclipart.org/"><dc:title>Openclipart</dc:title></cc:Agent></dc:publisher><dc:title>Girl in wheelchair</dc:title><dc:date>2006-10-11T17:14:31</dc:date><dc:description>I wanted to have just the person in the chair to fulfill a request in the wiki request area.&#xD;\n&#xD;\nRemoved the sunglasses and hat to make it a bit more generic as clipart.</dc:description><dc:source>http://openclipart.org/detail/510/girl-in-wheelchair-by-gerald_g</dc:source><dc:creator><cc:Agent><dc:title>Gerald_G</dc:title></cc:Agent></dc:creator><dc:subject><rdf:Bag><rdf:li>clip art</rdf:li><rdf:li>clipart</rdf:li><rdf:li>externalsource</rdf:li><rdf:li>girl</rdf:li><rdf:li>medical</rdf:li><rdf:li>people</rdf:li><rdf:li>remix</rdf:li><rdf:li>wheelchair</rdf:li></rdf:Bag></dc:subject></cc:Work><cc:License rdf:about="http://creativecommons.org/licenses/publicdomain/"><cc:permits rdf:resource="http://creativecommons.org/ns#Reproduction"/><cc:permits rdf:resource="http://creativecommons.org/ns#Distribution"/><cc:permits rdf:resource="http://creativecommons.org/ns#DerivativeWorks"/></cc:License></rdf:RDF></metadata></svg>
